<?xml version="1.0" encoding="utf-8"?>
<!-- Generator: Adobe Illustrator 26.3.1, SVG Export Plug-In . SVG Version: 6.00 Build 0)  -->
<svg version="1.1" id="Capa_1" xmlns="http://www.w3.org/2000/svg" xmlns:xlink="http://www.w3.org/1999/xlink" x="0px" y="0px"
	 viewBox="0 0 687.1 37.5" style="enable-background:new 0 0 687.1 37.5;" xml:space="preserve">
<style type="text/css">
	.st0{fill:#FFFFFF;}
	.st1{fill:#212121;}
</style>
<g>
	<g>
		<rect x="0.7" y="0.7" class="st0" width="685.7" height="36"/>
		<path class="st1" d="M687.1,37.5H0V0h687.1V37.5z M1.5,36h684.1V1.5H1.5V36z"/>
	</g>
	<g>
		<path d="M27.7,28c-0.8,0-1.4-0.2-2-0.7c-0.6-0.5-1-1.1-1.4-1.9s-0.7-1.7-0.9-2.7c-0.2-1-0.3-2-0.3-3.1c0-1,0.1-2.1,0.3-3.1
			c0.2-1,0.5-1.9,0.9-2.7s0.8-1.4,1.4-1.9c0.6-0.5,1.2-0.7,2-0.7s1.4,0.2,2,0.7c0.6,0.5,1,1.1,1.4,1.9s0.7,1.7,0.9,2.7
			c0.2,1,0.3,2,0.3,3.1c0,1-0.1,2.1-0.3,3.1c-0.2,1-0.5,1.9-0.9,2.7s-0.8,1.4-1.4,1.9C29.1,27.8,28.4,28,27.7,28z M27.7,27.2
			c0.9,0,1.5-0.3,2-1c0.5-0.7,0.7-1.7,0.7-2.9v-7.3c0-1.3-0.2-2.2-0.7-2.9c-0.5-0.7-1.1-1-2-1c-0.9,0-1.5,0.3-2,1S25,14.7,25,15.9
			v7.3c0,1.3,0.2,2.2,0.7,2.9C26.1,26.8,26.8,27.2,27.7,27.2z"/>
		<path d="M33.5,27.8v-0.6l1.9-0.2V17h-2.3v-0.5l2.3-0.3l1-0.6h0.5v1.8h0.1c0.1-0.3,0.3-0.5,0.6-0.8c0.2-0.3,0.6-0.5,1-0.7
			c0.4-0.2,0.8-0.3,1.3-0.3c0.7,0,1.3,0.2,1.7,0.7c0.4,0.5,0.6,1.1,0.6,2V27H44v0.8h-3.4v-9.4c0-1.2-0.5-1.8-1.6-1.8
			c-0.4,0-0.8,0.1-1.1,0.3c-0.3,0.2-0.5,0.4-0.7,0.7c-0.2,0.3-0.3,0.6-0.4,0.8V27l2.2,0.2v0.6H33.5z"/>
		<path d="M57,27.8v-0.7h3.1V12.2h-1.3c-1.1,0-1.7,0.5-1.8,1.6l-0.3,2.4H56v-5h0.4l0.7,0.2h7.6l0.7-0.2h0.4v5h-0.6l-0.3-2.4
			c-0.1-1.1-0.7-1.6-1.8-1.6h-1.3v14.9h3.1v0.7H57z"/>
		<path d="M72,28c-0.7,0-1.4-0.2-1.9-0.5c-0.5-0.3-1-0.8-1.4-1.4c-0.4-0.6-0.6-1.3-0.8-2s-0.3-1.5-0.3-2.3c0-0.8,0.1-1.5,0.3-2.3
			c0.2-0.7,0.4-1.4,0.8-2c0.4-0.6,0.8-1.1,1.4-1.4c0.5-0.3,1.2-0.5,1.9-0.5s1.4,0.2,1.9,0.5c0.5,0.3,1,0.8,1.4,1.4
			c0.4,0.6,0.6,1.3,0.8,2c0.2,0.7,0.3,1.5,0.3,2.3c0,0.8-0.1,1.5-0.3,2.3s-0.4,1.4-0.8,2c-0.4,0.6-0.8,1.1-1.4,1.4
			C73.4,27.8,72.7,28,72,28z M72,27.3c0.9,0,1.6-0.4,2.1-1.2c0.5-0.8,0.7-1.9,0.7-3.2v-2.2c0-1.4-0.2-2.4-0.7-3.2
			c-0.5-0.8-1.2-1.2-2.1-1.2s-1.6,0.4-2.1,1.2c-0.5,0.8-0.7,1.9-0.7,3.2v2.2c0,1.4,0.2,2.4,0.7,3.2C70.4,26.9,71.1,27.3,72,27.3z"/>
		<path d="M85.9,15.6h0.5v11H88v0.5l-1.6,0.3l-1,0.6H85v-2.1h-0.1c-0.1,0.3-0.3,0.6-0.5,0.9c-0.2,0.3-0.6,0.6-0.9,0.8
			c-0.4,0.2-0.8,0.3-1.3,0.3c-0.7,0-1.3-0.2-1.8-0.7c-0.5-0.5-0.7-1.2-0.7-2.2V17h-2.3v-0.5l2.3-0.3l1-0.6h0.5v9.5
			c0,1.3,0.5,1.9,1.5,1.9c0.4,0,0.8-0.1,1.1-0.3s0.6-0.5,0.7-0.8c0.2-0.3,0.3-0.6,0.4-0.9v-8h-2.3v-0.5l2.3-0.3L85.9,15.6z"/>
		<path d="M94.6,28c-0.9,0-1.6-0.3-2.3-0.8c-0.7-0.5-1.2-1.2-1.6-2.1c-0.4-0.9-0.6-2-0.6-3.1c0-1.2,0.2-2.3,0.6-3.3
			c0.4-1,1-1.7,1.7-2.3c0.7-0.6,1.5-0.8,2.5-0.8c0.6,0,1.2,0.1,1.8,0.4c0.5,0.3,1,0.6,1.3,1c0.3,0.4,0.5,0.9,0.5,1.5
			c0,0.5-0.1,0.9-0.4,1.1c-0.3,0.2-0.5,0.4-0.8,0.4c-0.2,0-0.5-0.1-0.7-0.2c-0.2-0.2-0.3-0.4-0.3-0.7c0-0.3,0.1-0.6,0.3-0.8
			c0.2-0.3,0.5-0.6,0.7-1.1c-0.1-0.2-0.4-0.4-0.8-0.6c-0.4-0.2-0.9-0.3-1.4-0.3c-1,0-1.8,0.4-2.4,1.2s-0.9,1.9-0.9,3.2v2.2
			c0,0.9,0.2,1.7,0.5,2.3s0.7,1.1,1.2,1.4s1,0.5,1.6,0.5c0.5,0,1-0.1,1.4-0.4c0.4-0.2,0.7-0.5,0.9-0.9c0.2-0.3,0.4-0.7,0.5-1
			l0.5,0.2c-0.1,0.4-0.3,0.9-0.6,1.3c-0.3,0.5-0.7,0.9-1.2,1.2C95.9,27.8,95.3,28,94.6,28z"/>
		<path d="M100,27.8V27h1.9V12.5h-2.3V12l2.3-0.3l1-0.6h0.5v6.2h0.1c0.1-0.3,0.3-0.5,0.6-0.8c0.2-0.3,0.6-0.5,1-0.7
			c0.4-0.2,0.8-0.3,1.3-0.3c0.7,0,1.3,0.2,1.7,0.7c0.4,0.5,0.6,1.1,0.6,2V27h1.9v0.8h-3.4v-9.4c0-1.2-0.5-1.8-1.6-1.8
			c-0.4,0-0.8,0.1-1.1,0.3c-0.3,0.2-0.5,0.4-0.7,0.7c-0.2,0.3-0.3,0.6-0.4,0.8V27h1.3v0h0.9v0.7H100z"/>
		<path d="M111.4,27.8V27h4.2V17h-3.1v-0.5l3.1-0.3l1-0.6h0.5V27h4.2v0.8H111.4z M116.3,13.8c-0.3,0-0.6-0.1-0.9-0.4
			s-0.4-0.5-0.4-0.9s0.1-0.6,0.4-0.9s0.5-0.4,0.9-0.4s0.6,0.1,0.9,0.4s0.4,0.5,0.4,0.9s-0.1,0.6-0.4,0.9S116.7,13.8,116.3,13.8z"/>
		<path d="M122.2,27.8v-0.6L124,27V17h-2.3v-0.5l2.3-0.3l1-0.6h0.5v1.8h0.1c0.1-0.3,0.3-0.5,0.6-0.8c0.2-0.3,0.6-0.5,1-0.7
			c0.4-0.2,0.8-0.3,1.3-0.3c0.7,0,1.3,0.2,1.7,0.7c0.4,0.5,0.6,1.1,0.6,2V27h1.9v0.8h-3.4v-9.4c0-1.2-0.5-1.8-1.6-1.8
			c-0.4,0-0.8,0.1-1.1,0.3c-0.3,0.2-0.5,0.4-0.7,0.7c-0.2,0.3-0.3,0.6-0.4,0.8V27l2.2,0.2v0.6H122.2z"/>
		<path d="M138.1,32c-1.4,0-2.4-0.3-3.2-0.8c-0.8-0.6-1.2-1.3-1.2-2.1c0-0.5,0.1-1,0.4-1.3c0.2-0.4,0.5-0.6,0.9-0.9
			c0.4-0.2,0.7-0.4,1-0.4v-0.1c-0.7-0.1-1.3-0.3-1.7-0.6s-0.6-0.8-0.6-1.3c0-0.5,0.1-0.8,0.3-1.1c0.2-0.3,0.5-0.6,0.8-0.7
			c0.3-0.2,0.5-0.3,0.7-0.5l0.2-0.1c-0.4-0.4-0.6-0.8-0.8-1.3s-0.3-1-0.3-1.5c0-0.6,0.1-1.2,0.4-1.8c0.3-0.6,0.7-1,1.2-1.4
			c0.5-0.4,1.2-0.6,2.1-0.6c0.5,0,1,0.1,1.4,0.2h3.3v0.7h-2.2c0.4,0.4,0.7,0.8,0.9,1.3c0.2,0.5,0.3,1,0.3,1.5c0,0.6-0.1,1.2-0.4,1.7
			c-0.3,0.6-0.7,1-1.2,1.4c-0.5,0.4-1.2,0.6-2.1,0.6c-0.5,0-0.9-0.1-1.3-0.2s-0.7-0.3-1-0.5l-0.3,0.2c-0.2,0.1-0.5,0.3-0.7,0.5
			c-0.2,0.2-0.4,0.5-0.4,0.8c0,0.3,0.1,0.5,0.4,0.7s0.5,0.3,0.8,0.3s0.6,0.1,0.7,0.1l2.8,0.2c1,0.1,1.8,0.4,2.4,0.9
			c0.7,0.6,1,1.3,1,2.3c0,0.7-0.2,1.4-0.6,1.9s-1,1-1.7,1.3C140,31.9,139.1,32,138.1,32z M138.3,31.2c1,0,1.8-0.2,2.5-0.7
			c0.7-0.5,1-1.1,1-1.9c0-0.5-0.2-1-0.5-1.3s-0.7-0.5-1.1-0.6c-0.4-0.1-0.8-0.2-1.2-0.2l-2.1-0.2c-0.2,0-0.4,0.1-0.7,0.3
			s-0.6,0.4-0.9,0.7c-0.3,0.3-0.4,0.8-0.4,1.3c0,0.8,0.3,1.4,0.9,1.8S137.4,31.2,138.3,31.2z M138.5,22.4c0.8,0,1.3-0.3,1.7-0.8
			c0.3-0.5,0.5-1.1,0.5-1.9v-0.9c0-0.7-0.2-1.4-0.5-1.9c-0.3-0.5-0.9-0.8-1.7-0.8s-1.3,0.3-1.7,0.8c-0.3,0.5-0.5,1.1-0.5,1.9v0.9
			c0,0.7,0.2,1.4,0.5,1.9C137.2,22.1,137.7,22.4,138.5,22.4z"/>
		<path d="M157.6,21.3v-0.8h5.9v0.8H157.6z"/>
		<path d="M178.9,27.8v-0.7h3.1V12.2h-1.3c-1.1,0-1.7,0.5-1.8,1.6l-0.3,2.4h-0.6v-5h0.4l0.7,0.2h7.6l0.7-0.2h0.4v5H187l-0.3-2.4
			c-0.1-1.1-0.7-1.6-1.8-1.6h-1.3v14.9h3.1v0.7H178.9z"/>
		<path d="M188.7,27.8V27h1.9V12.5h-2.3V12l2.3-0.3l1-0.6h0.5v6.2h0.1c0.1-0.3,0.3-0.5,0.6-0.8c0.2-0.3,0.6-0.5,1-0.7
			c0.4-0.2,0.8-0.3,1.3-0.3c0.7,0,1.3,0.2,1.7,0.7c0.4,0.5,0.6,1.1,0.6,2V27h1.9v0.8h-3.4v-9.4c0-1.2-0.5-1.8-1.6-1.8
			c-0.4,0-0.8,0.1-1.1,0.3c-0.3,0.2-0.5,0.4-0.7,0.7c-0.2,0.3-0.3,0.6-0.4,0.8V27h1.3v0h0.9v0.7H188.7z"/>
		<path d="M205.5,28c-0.9,0-1.7-0.3-2.4-0.8s-1.3-1.2-1.7-2.1c-0.4-0.9-0.6-2-0.6-3.2c0-0.8,0.1-1.6,0.3-2.3c0.2-0.7,0.5-1.4,0.9-2
			c0.4-0.6,0.9-1.1,1.5-1.4s1.3-0.5,2.1-0.5c1.2,0,2.1,0.4,2.8,1.2s1.1,1.9,1.1,3.3c0,0.2,0,0.4,0,0.5c0,0.2,0,0.3,0,0.4h-6.9v1.9
			c0,0.9,0.2,1.7,0.5,2.3c0.3,0.6,0.8,1.1,1.3,1.4c0.5,0.3,1.1,0.5,1.7,0.5c0.6,0,1-0.1,1.4-0.4c0.4-0.2,0.7-0.5,1-0.9
			c0.2-0.3,0.4-0.7,0.5-1l0.5,0.2c-0.1,0.4-0.3,0.9-0.6,1.3c-0.3,0.5-0.7,0.9-1.2,1.2S206.3,28,205.5,28z M205.5,16.3
			c-0.6,0-1.1,0.2-1.6,0.5c-0.4,0.4-0.8,0.9-1,1.5c-0.2,0.6-0.4,1.3-0.4,2.1h4.4c0.2,0,0.3,0,0.5-0.1c0.2,0,0.3-0.1,0.4-0.3
			s0.2-0.5,0.2-0.9c0-0.9-0.2-1.6-0.7-2.1C206.8,16.5,206.2,16.3,205.5,16.3z"/>
		<path d="M222.2,27.8V27h4.2V17h-3.1v-0.5l3.1-0.3l1-0.6h0.5V27h4.2v0.8H222.2z M227.2,13.8c-0.3,0-0.6-0.1-0.9-0.4
			s-0.4-0.5-0.4-0.9s0.1-0.6,0.4-0.9s0.5-0.4,0.9-0.4s0.6,0.1,0.9,0.4s0.4,0.5,0.4,0.9s-0.1,0.6-0.4,0.9S227.5,13.8,227.2,13.8z"/>
		<path d="M233,27.8v-0.6l1.9-0.2V17h-2.3v-0.5l2.3-0.3l1-0.6h0.5v1.8h0.1c0.1-0.3,0.3-0.5,0.6-0.8c0.2-0.3,0.6-0.5,1-0.7
			c0.4-0.2,0.8-0.3,1.3-0.3c0.7,0,1.3,0.2,1.7,0.7c0.4,0.5,0.6,1.1,0.6,2V27h1.9v0.8h-3.4v-9.4c0-1.2-0.5-1.8-1.6-1.8
			c-0.4,0-0.8,0.1-1.1,0.3c-0.3,0.2-0.5,0.4-0.7,0.7c-0.2,0.3-0.3,0.6-0.4,0.8V27l2.2,0.2v0.6H233z"/>
		<path d="M244.1,27.8V27h1.9V12.5h-2.3V12l2.3-0.3l1-0.6h0.5v6.2h0.1c0.1-0.3,0.3-0.5,0.6-0.8c0.3-0.3,0.6-0.5,1-0.7
			c0.4-0.2,0.8-0.3,1.3-0.3c0.7,0,1.3,0.2,1.7,0.7c0.4,0.5,0.6,1.1,0.6,2V27h1.9v0.8h-3.4v-9.4c0-1.2-0.5-1.8-1.6-1.8
			c-0.4,0-0.8,0.1-1.1,0.3c-0.3,0.2-0.5,0.4-0.7,0.7s-0.3,0.6-0.4,0.8V27h1.3v0h0.9v0.7H244.1z"/>
		<path d="M263.3,15.6h0.5v11h1.6v0.5l-1.6,0.3l-1,0.6h-0.5v-2.1h-0.1c-0.1,0.3-0.3,0.6-0.5,0.9c-0.2,0.3-0.6,0.6-0.9,0.8
			c-0.4,0.2-0.8,0.3-1.3,0.3c-0.7,0-1.3-0.2-1.8-0.7c-0.5-0.5-0.7-1.2-0.7-2.2V17h-2.3v-0.5l2.3-0.3l1-0.6h0.5v9.5
			c0,1.3,0.5,1.9,1.5,1.9c0.4,0,0.8-0.1,1.1-0.3s0.6-0.5,0.7-0.8c0.2-0.3,0.3-0.6,0.4-0.9v-8h-2.3v-0.5l2.3-0.3L263.3,15.6z"/>
		<path d="M266.5,27.8V27h1V17h-1.2v-0.4l1.3-0.3l0.9-0.6h0.4v1.6h0.1c0.1-0.3,0.4-0.7,0.7-1s0.8-0.5,1.3-0.5c0.4,0,0.7,0.1,1,0.4
			c0.3,0.3,0.4,0.7,0.4,1.2h0.1c0.1-0.3,0.4-0.7,0.7-1s0.8-0.5,1.3-0.5c0.5,0,0.8,0.2,1.1,0.5c0.3,0.3,0.4,0.7,0.4,1.3V27h1.1v0.8
			h-2.5V17.4c0-0.6-0.2-0.8-0.7-0.8c-0.3,0-0.5,0.1-0.7,0.3c-0.2,0.2-0.3,0.4-0.4,0.7s-0.2,0.5-0.2,0.8V27h1.1v0.8h-2.5V17.4
			c0-0.6-0.3-0.8-0.8-0.8c-0.3,0-0.5,0.1-0.6,0.3c-0.2,0.2-0.3,0.4-0.4,0.7c-0.1,0.3-0.2,0.5-0.2,0.8V27h1.1v0.8H266.5z"/>
		<path d="M281.1,28c-0.8,0-1.5-0.2-1.9-0.7c-0.5-0.5-0.7-1.1-0.7-1.8c0-0.7,0.2-1.2,0.5-1.7c0.3-0.4,0.8-0.8,1.3-1.1
			c0.5-0.3,1-0.6,1.5-0.8l2.3-1v-2.2c0-0.7-0.2-1.3-0.7-1.7c-0.5-0.4-1-0.6-1.7-0.6c-0.6,0-1.2,0.2-1.6,0.5
			c-0.4,0.3-0.7,0.6-0.9,0.9c0.3,0.4,0.6,0.6,0.8,0.8s0.3,0.5,0.3,0.7c0,0.3-0.1,0.5-0.3,0.7s-0.4,0.3-0.8,0.3
			c-0.3,0-0.6-0.1-0.8-0.3c-0.2-0.2-0.3-0.5-0.3-0.9c0-0.3,0.1-0.7,0.3-1.1s0.4-0.8,0.8-1.2c0.3-0.4,0.8-0.7,1.3-0.9
			c0.5-0.2,1.2-0.4,1.9-0.4c0.8,0,1.4,0.2,1.9,0.5c0.5,0.3,0.8,0.7,1,1.2c0.2,0.5,0.3,1,0.3,1.5v7.2c0,0.6,0.2,0.9,0.6,0.9
			c0.3,0,0.5-0.1,0.7-0.3c0.2-0.2,0.3-0.5,0.3-0.7l0.4,0.1c0,0.3-0.1,0.6-0.3,0.9c-0.2,0.3-0.4,0.6-0.7,0.8s-0.6,0.3-1,0.3
			c-0.4,0-0.8-0.1-1.1-0.4c-0.3-0.3-0.5-0.8-0.5-1.4c-0.1,0.3-0.3,0.5-0.6,0.8c-0.3,0.3-0.6,0.5-1,0.7C282.1,27.9,281.6,28,281.1,28
			z M279.9,24.9c0,0.6,0.2,1.1,0.5,1.5c0.4,0.4,0.8,0.6,1.4,0.6c0.4,0,0.7-0.1,1-0.3s0.6-0.4,0.8-0.6s0.3-0.5,0.4-0.7v-4.1l-2.1,1
			c-0.3,0.2-0.7,0.3-1,0.5c-0.3,0.2-0.6,0.4-0.8,0.7C280,24,279.9,24.4,279.9,24.9z"/>
		<path d="M288.5,27.8v-0.6l1.9-0.2V17h-2.3v-0.5l2.3-0.3l1-0.6h0.5v1.8h0.1c0.1-0.3,0.3-0.5,0.6-0.8c0.3-0.3,0.6-0.5,1-0.7
			c0.4-0.2,0.8-0.3,1.3-0.3c0.7,0,1.3,0.2,1.7,0.7c0.4,0.5,0.6,1.1,0.6,2V27h1.9v0.8h-3.4v-9.4c0-1.2-0.5-1.8-1.6-1.8
			c-0.4,0-0.8,0.1-1.1,0.3c-0.3,0.2-0.5,0.4-0.7,0.7s-0.3,0.6-0.4,0.8V27l2.2,0.2v0.6H288.5z"/>
		<path d="M316.9,28c-1.1,0-2-0.3-2.6-1c-0.7-0.7-1-1.7-1-3v-7.5h-2.5v-0.7h2.5l1-2.4h0.5v2.4h5.8v0.7h-5.8v7.4c0,1,0.2,1.8,0.6,2.4
			c0.4,0.6,1,0.8,1.8,0.8c0.7,0,1.2-0.2,1.6-0.5c0.4-0.3,0.7-0.7,0.8-1.2c0.2-0.5,0.3-1.1,0.3-1.7v-0.6h0.7v0.6
			c0,0.4-0.1,0.9-0.2,1.4c-0.1,0.5-0.3,1-0.5,1.4c-0.3,0.4-0.6,0.8-1.1,1.1C318.3,27.9,317.7,28,316.9,28z"/>
		<path d="M321.7,27.8V27h1.9V12.5h-2.3V12l2.3-0.3l1-0.6h0.5v6.2h0.1c0.1-0.3,0.3-0.5,0.6-0.8c0.2-0.3,0.6-0.5,1-0.7
			c0.4-0.2,0.8-0.3,1.3-0.3c0.7,0,1.3,0.2,1.7,0.7c0.4,0.5,0.6,1.1,0.6,2V27h1.9v0.8h-3.4v-9.4c0-1.2-0.5-1.8-1.6-1.8
			c-0.4,0-0.8,0.1-1.1,0.3c-0.3,0.2-0.5,0.4-0.7,0.7c-0.2,0.3-0.3,0.6-0.4,0.8V27h1.3v0h0.9v0.7H321.7z"/>
		<path d="M336.6,28c-0.8,0-1.5-0.2-1.9-0.7s-0.7-1.1-0.7-1.8c0-0.7,0.2-1.2,0.5-1.7c0.3-0.4,0.8-0.8,1.3-1.1c0.5-0.3,1-0.6,1.5-0.8
			l2.3-1v-2.2c0-0.7-0.2-1.3-0.7-1.7c-0.5-0.4-1-0.6-1.7-0.6c-0.6,0-1.2,0.2-1.6,0.5c-0.4,0.3-0.7,0.6-0.9,0.9
			c0.3,0.4,0.6,0.6,0.8,0.8s0.3,0.5,0.3,0.7c0,0.3-0.1,0.5-0.3,0.7s-0.4,0.3-0.8,0.3c-0.3,0-0.6-0.1-0.8-0.3
			c-0.2-0.2-0.3-0.5-0.3-0.9c0-0.3,0.1-0.7,0.3-1.1s0.4-0.8,0.8-1.2c0.3-0.4,0.8-0.7,1.3-0.9c0.5-0.2,1.2-0.4,1.9-0.4
			c0.8,0,1.4,0.2,1.9,0.5c0.5,0.3,0.8,0.7,1,1.2c0.2,0.5,0.3,1,0.3,1.5v7.2c0,0.6,0.2,0.9,0.6,0.9c0.3,0,0.5-0.1,0.7-0.3
			c0.2-0.2,0.3-0.5,0.3-0.7L343,26c0,0.3-0.1,0.6-0.3,0.9c-0.2,0.3-0.4,0.6-0.7,0.8s-0.6,0.3-1,0.3c-0.4,0-0.8-0.1-1.1-0.4
			s-0.5-0.8-0.5-1.4c-0.1,0.3-0.3,0.5-0.6,0.8c-0.3,0.3-0.6,0.5-1,0.7C337.5,27.9,337.1,28,336.6,28z M335.3,24.9
			c0,0.6,0.2,1.1,0.5,1.5c0.4,0.4,0.8,0.6,1.4,0.6c0.4,0,0.7-0.1,1-0.3c0.3-0.2,0.6-0.4,0.8-0.6c0.2-0.2,0.3-0.5,0.4-0.7v-4.1
			l-2.1,1c-0.3,0.2-0.7,0.3-1,0.5c-0.3,0.2-0.6,0.4-0.8,0.7C335.4,24,335.3,24.4,335.3,24.9z"/>
		<path d="M350.2,28c-1.1,0-2-0.3-2.6-1c-0.7-0.7-1-1.7-1-3v-7.5H344v-0.7h2.5l1-2.4h0.5v2.4h5.8v0.7H348v7.4c0,1,0.2,1.8,0.6,2.4
			c0.4,0.6,1,0.8,1.8,0.8c0.7,0,1.2-0.2,1.6-0.5c0.4-0.3,0.7-0.7,0.8-1.2c0.2-0.5,0.3-1.1,0.3-1.7v-0.6h0.7v0.6
			c0,0.4-0.1,0.9-0.2,1.4c-0.1,0.5-0.3,1-0.5,1.4c-0.3,0.4-0.6,0.8-1.1,1.1C351.5,27.9,350.9,28,350.2,28z"/>
		<path d="M372.3,28c-1.1,0-2-0.3-2.6-1c-0.7-0.7-1-1.7-1-3v-7.5h-2.5v-0.7h2.5l1-2.4h0.5v2.4h5.8v0.7h-5.8v7.4c0,1,0.2,1.8,0.6,2.4
			c0.4,0.6,1,0.8,1.8,0.8c0.7,0,1.2-0.2,1.6-0.5c0.4-0.3,0.7-0.7,0.8-1.2c0.2-0.5,0.3-1.1,0.3-1.7v-0.6h0.7v0.6
			c0,0.4-0.1,0.9-0.2,1.4c-0.1,0.5-0.3,1-0.5,1.4c-0.3,0.4-0.6,0.8-1.1,1.1C373.7,27.9,373.1,28,372.3,28z"/>
		<path d="M377.1,27.8V27h1.9V12.5h-2.3V12l2.3-0.3l1-0.6h0.5v6.2h0.1c0.1-0.3,0.3-0.5,0.6-0.8c0.3-0.3,0.6-0.5,1-0.7
			c0.4-0.2,0.8-0.3,1.3-0.3c0.7,0,1.3,0.2,1.7,0.7c0.4,0.5,0.6,1.1,0.6,2V27h1.9v0.8h-3.4v-9.4c0-1.2-0.5-1.8-1.6-1.8
			c-0.4,0-0.8,0.1-1.1,0.3c-0.3,0.2-0.5,0.4-0.7,0.7s-0.3,0.6-0.4,0.8V27h1.3v0h0.9v0.7H377.1z"/>
		<path d="M394,28c-0.9,0-1.7-0.3-2.4-0.8s-1.3-1.2-1.7-2.1c-0.4-0.9-0.6-2-0.6-3.2c0-0.8,0.1-1.6,0.3-2.3s0.5-1.4,0.9-2
			c0.4-0.6,0.9-1.1,1.5-1.4s1.3-0.5,2.1-0.5c1.2,0,2.1,0.4,2.8,1.2s1.1,1.9,1.1,3.3c0,0.2,0,0.4,0,0.5c0,0.2,0,0.3,0,0.4h-6.9v1.9
			c0,0.9,0.2,1.7,0.5,2.3c0.3,0.6,0.8,1.1,1.3,1.4c0.5,0.3,1.1,0.5,1.7,0.5c0.6,0,1-0.1,1.4-0.4c0.4-0.2,0.7-0.5,1-0.9
			c0.2-0.3,0.4-0.7,0.5-1l0.5,0.2c-0.1,0.4-0.3,0.9-0.6,1.3c-0.3,0.5-0.7,0.9-1.2,1.2S394.7,28,394,28z M393.9,16.3
			c-0.6,0-1.2,0.2-1.6,0.5s-0.8,0.9-1,1.5c-0.2,0.6-0.4,1.3-0.4,2.1h4.4c0.2,0,0.3,0,0.5-0.1c0.2,0,0.3-0.1,0.4-0.3
			c0.1-0.2,0.2-0.5,0.2-0.9c0-0.9-0.2-1.6-0.7-2.1C395.2,16.5,394.6,16.3,393.9,16.3z"/>
		<path d="M406.9,27v0.8h-7.8V27h2.7V17h-2.3v-0.5l2.3-0.3l1-0.6h0.5v3.9h0.1l0.1-0.3c0.3-1,0.8-1.9,1.5-2.5c0.7-0.7,1.4-1,2.3-1
			c0.6,0,1,0.1,1.4,0.4s0.6,0.6,0.6,1.1c0,0.3-0.1,0.5-0.2,0.7s-0.4,0.3-0.7,0.3c-0.4,0-0.6-0.1-0.8-0.4s-0.3-0.5-0.4-0.7l-0.3-0.6
			c-0.5,0-1,0.2-1.4,0.6c-0.4,0.4-0.7,0.9-1,1.5s-0.6,1.3-0.8,2l-0.3,1V27H406.9z"/>
		<path d="M416.2,28c-0.9,0-1.7-0.3-2.4-0.8s-1.3-1.2-1.7-2.1c-0.4-0.9-0.6-2-0.6-3.2c0-0.8,0.1-1.6,0.3-2.3s0.5-1.4,0.9-2
			c0.4-0.6,0.9-1.1,1.5-1.4s1.3-0.5,2.1-0.5c1.2,0,2.1,0.4,2.8,1.2s1.1,1.9,1.1,3.3c0,0.2,0,0.4,0,0.5c0,0.2,0,0.3,0,0.4h-6.9v1.9
			c0,0.9,0.2,1.7,0.5,2.3c0.3,0.6,0.8,1.1,1.3,1.4c0.5,0.3,1.1,0.5,1.7,0.5c0.6,0,1-0.1,1.4-0.4c0.4-0.2,0.7-0.5,1-0.9
			c0.2-0.3,0.4-0.7,0.5-1l0.5,0.2c-0.1,0.4-0.3,0.9-0.6,1.3c-0.3,0.5-0.7,0.9-1.2,1.2S416.9,28,416.2,28z M416.1,16.3
			c-0.6,0-1.2,0.2-1.6,0.5s-0.8,0.9-1,1.5c-0.2,0.6-0.4,1.3-0.4,2.1h4.4c0.2,0,0.3,0,0.5-0.1c0.2,0,0.3-0.1,0.4-0.3
			c0.1-0.2,0.2-0.5,0.2-0.9c0-0.9-0.2-1.6-0.7-2.1C417.4,16.5,416.8,16.3,416.1,16.3z"/>
		<path d="M425.2,27V16.5h-2.5V16l2.5-0.2v-0.6c0-0.9,0.2-1.7,0.5-2.4c0.3-0.7,0.9-1.2,1.5-1.6c0.7-0.4,1.6-0.6,2.6-0.6
			c0.8,0,1.5,0.2,2.1,0.5c0.6,0.3,0.8,0.7,0.8,1.3c0,0.3-0.1,0.5-0.2,0.7c-0.1,0.2-0.4,0.3-0.7,0.3c-0.4,0-0.7-0.1-0.9-0.4
			c-0.2-0.3-0.4-0.5-0.5-0.6l-0.6-1.1c-0.9-0.1-1.7,0.2-2.3,0.8c-0.6,0.6-0.9,1.5-0.9,2.8v1h5.2v0.7h-5.2V27h4.2v0.8h-8.3V27H425.2z
			"/>
		<path d="M437.8,28c-0.7,0-1.4-0.2-1.9-0.5c-0.5-0.3-1-0.8-1.4-1.4c-0.4-0.6-0.6-1.3-0.8-2c-0.2-0.7-0.3-1.5-0.3-2.3
			c0-0.8,0.1-1.5,0.3-2.3c0.2-0.7,0.4-1.4,0.8-2c0.4-0.6,0.8-1.1,1.4-1.4c0.5-0.3,1.2-0.5,1.9-0.5c0.7,0,1.4,0.2,1.9,0.5
			c0.5,0.3,1,0.8,1.4,1.4s0.6,1.3,0.8,2c0.2,0.7,0.3,1.5,0.3,2.3c0,0.8-0.1,1.5-0.3,2.3c-0.2,0.7-0.4,1.4-0.8,2s-0.8,1.1-1.4,1.4
			C439.2,27.8,438.5,28,437.8,28z M437.8,27.3c0.9,0,1.6-0.4,2.1-1.2c0.5-0.8,0.7-1.9,0.7-3.2v-2.2c0-1.4-0.2-2.4-0.7-3.2
			c-0.5-0.8-1.2-1.2-2.1-1.2c-0.9,0-1.6,0.4-2.1,1.2c-0.5,0.8-0.7,1.9-0.7,3.2v2.2c0,1.4,0.2,2.4,0.7,3.2
			C436.2,26.9,436.9,27.3,437.8,27.3z"/>
		<path d="M451.2,27v0.8h-7.8V27h2.7V17h-2.3v-0.5l2.3-0.3l1-0.6h0.5v3.9h0.1l0.1-0.3c0.3-1,0.8-1.9,1.5-2.5c0.7-0.7,1.4-1,2.3-1
			c0.6,0,1,0.1,1.4,0.4s0.6,0.6,0.6,1.1c0,0.3-0.1,0.5-0.2,0.7S453,18,452.7,18c-0.4,0-0.6-0.1-0.8-0.4s-0.3-0.5-0.4-0.7l-0.3-0.6
			c-0.5,0-1,0.2-1.4,0.6c-0.4,0.4-0.7,0.9-1,1.5s-0.6,1.3-0.8,2l-0.3,1V27H451.2z"/>
		<path d="M460.5,28c-0.9,0-1.7-0.3-2.4-0.8s-1.3-1.2-1.7-2.1c-0.4-0.9-0.6-2-0.6-3.2c0-0.8,0.1-1.6,0.3-2.3s0.5-1.4,0.9-2
			c0.4-0.6,0.9-1.1,1.5-1.4s1.3-0.5,2.1-0.5c1.2,0,2.1,0.4,2.8,1.2s1.1,1.9,1.1,3.3c0,0.2,0,0.4,0,0.5c0,0.2,0,0.3,0,0.4h-6.9v1.9
			c0,0.9,0.2,1.7,0.5,2.3c0.3,0.6,0.8,1.1,1.3,1.4c0.5,0.3,1.1,0.5,1.7,0.5c0.6,0,1-0.1,1.4-0.4c0.4-0.2,0.7-0.5,1-0.9
			c0.2-0.3,0.4-0.7,0.5-1l0.5,0.2c-0.1,0.4-0.3,0.9-0.6,1.3c-0.3,0.5-0.7,0.9-1.2,1.2S461.2,28,460.5,28z M460.4,16.3
			c-0.6,0-1.2,0.2-1.6,0.5s-0.8,0.9-1,1.5c-0.2,0.6-0.4,1.3-0.4,2.1h4.4c0.2,0,0.3,0,0.5-0.1c0.2,0,0.3-0.1,0.4-0.3
			c0.1-0.2,0.2-0.5,0.2-0.9c0-0.9-0.2-1.6-0.7-2.1C461.7,16.5,461.1,16.3,460.4,16.3z"/>
		<path d="M477.7,27.8V27h3.6V12.1h-3.6v-0.8h8.8v0.8h-3.6V27h3.6v0.8H477.7z"/>
		<path d="M498.7,27.8V27h1.2l3.8-15.7h0.9l3.8,15.7h1.4v0.8h-5.2V27h2.2l-1.3-5.3H502l-1.3,5.3h1.6v0.8H498.7z M503.8,14.2
			l-1.6,6.9h3.3L503.8,14.2z"/>
		<path d="M510.3,27.8V27h1V17h-1.2v-0.4l1.3-0.3l0.9-0.6h0.4v1.6h0.1c0.1-0.3,0.4-0.7,0.7-1s0.8-0.5,1.3-0.5c0.4,0,0.7,0.1,1,0.4
			c0.3,0.3,0.4,0.7,0.4,1.2h0.1c0.1-0.3,0.4-0.7,0.7-1s0.8-0.5,1.3-0.5c0.5,0,0.8,0.2,1.1,0.5c0.3,0.3,0.4,0.7,0.4,1.3V27h1.1v0.8
			h-2.5V17.4c0-0.6-0.2-0.8-0.7-0.8c-0.3,0-0.5,0.1-0.7,0.3c-0.2,0.2-0.3,0.4-0.4,0.7s-0.2,0.5-0.2,0.8V27h1.1v0.8h-2.5V17.4
			c0-0.6-0.3-0.8-0.8-0.8c-0.3,0-0.5,0.1-0.6,0.3c-0.2,0.2-0.3,0.4-0.4,0.7c-0.1,0.3-0.2,0.5-0.2,0.8V27h1.1v0.8H510.3z"/>
		<path d="M525.6,30l-0.3-0.4c0.3-0.2,0.6-0.5,0.9-0.8s0.5-0.6,0.5-0.8c-0.4,0-0.7-0.1-0.9-0.3c-0.3-0.2-0.4-0.5-0.4-0.9
			c0-0.4,0.1-0.7,0.4-0.9s0.5-0.3,0.9-0.3c0.3,0,0.6,0.1,0.9,0.3c0.2,0.2,0.4,0.6,0.4,1c0,0.4-0.1,0.9-0.4,1.3
			c-0.2,0.4-0.5,0.8-0.9,1.1C526.2,29.6,525.9,29.8,525.6,30z M526.6,18.6c-0.3,0-0.6-0.1-0.9-0.4s-0.4-0.5-0.4-0.9
			c0-0.3,0.1-0.6,0.4-0.9s0.5-0.4,0.9-0.4s0.6,0.1,0.9,0.4c0.2,0.2,0.4,0.5,0.4,0.9c0,0.3-0.1,0.6-0.4,0.9
			C527.2,18.4,526.9,18.6,526.6,18.6z"/>
		<path d="M543.1,27.8V27h1.5V12.1h-1.5v-0.8h4.4v0.8h-1.5v7.7l5-7.7h-1.3v-0.8h4.1v0.8H552l-3.6,5.5l4.5,9.4h1.6v0.8h-5V27h1.8
			l-3.8-7.9l-1.4,2.1V27h2.1v0.8H543.1z"/>
		<path d="M558.3,28c-0.8,0-1.5-0.2-1.9-0.7s-0.7-1.1-0.7-1.8c0-0.7,0.2-1.2,0.5-1.7c0.3-0.4,0.8-0.8,1.3-1.1c0.5-0.3,1-0.6,1.5-0.8
			l2.3-1v-2.2c0-0.7-0.2-1.3-0.7-1.7c-0.5-0.4-1-0.6-1.7-0.6c-0.6,0-1.2,0.2-1.6,0.5c-0.4,0.3-0.7,0.6-0.9,0.9
			c0.3,0.4,0.6,0.6,0.8,0.8s0.3,0.5,0.3,0.7c0,0.3-0.1,0.5-0.3,0.7s-0.4,0.3-0.8,0.3c-0.3,0-0.6-0.1-0.8-0.3
			c-0.2-0.2-0.3-0.5-0.3-0.9c0-0.3,0.1-0.7,0.3-1.1s0.4-0.8,0.8-1.2c0.3-0.4,0.8-0.7,1.3-0.9c0.5-0.2,1.2-0.4,1.9-0.4
			c0.8,0,1.4,0.2,1.9,0.5c0.5,0.3,0.8,0.7,1,1.2c0.2,0.5,0.3,1,0.3,1.5v7.2c0,0.6,0.2,0.9,0.6,0.9c0.3,0,0.5-0.1,0.7-0.3
			c0.2-0.2,0.3-0.5,0.3-0.7l0.4,0.1c0,0.3-0.1,0.6-0.3,0.9c-0.2,0.3-0.4,0.6-0.7,0.8s-0.6,0.3-1,0.3c-0.4,0-0.8-0.1-1.1-0.4
			s-0.5-0.8-0.5-1.4c-0.1,0.3-0.3,0.5-0.6,0.8c-0.3,0.3-0.6,0.5-1,0.7C559.2,27.9,558.8,28,558.3,28z M557,24.9
			c0,0.6,0.2,1.1,0.5,1.5c0.4,0.4,0.8,0.6,1.4,0.6c0.4,0,0.7-0.1,1-0.3c0.3-0.2,0.6-0.4,0.8-0.6c0.2-0.2,0.3-0.5,0.4-0.7v-4.1
			l-2.1,1c-0.3,0.2-0.7,0.3-1,0.5c-0.3,0.2-0.6,0.4-0.8,0.7C557.1,24,557,24.4,557,24.9z"/>
		<path d="M573.2,27v0.8h-7.8V27h2.7V17h-2.3v-0.5l2.3-0.3l1-0.6h0.5v3.9h0.1l0.1-0.3c0.3-1,0.8-1.9,1.5-2.5c0.7-0.7,1.4-1,2.3-1
			c0.6,0,1,0.1,1.4,0.4c0.4,0.3,0.6,0.6,0.6,1.1c0,0.3-0.1,0.5-0.2,0.7c-0.1,0.2-0.4,0.3-0.7,0.3c-0.4,0-0.6-0.1-0.8-0.4
			c-0.2-0.2-0.3-0.5-0.4-0.7l-0.3-0.6c-0.5,0-1,0.2-1.4,0.6c-0.4,0.4-0.7,0.9-1,1.5c-0.3,0.6-0.6,1.3-0.8,2l-0.3,1V27H573.2z"/>
		<path d="M582.4,28c-0.9,0-1.7-0.3-2.4-0.8s-1.3-1.2-1.7-2.1c-0.4-0.9-0.6-2-0.6-3.2c0-0.8,0.1-1.6,0.3-2.3c0.2-0.7,0.5-1.4,0.9-2
			c0.4-0.6,0.9-1.1,1.5-1.4s1.3-0.5,2.1-0.5c1.2,0,2.1,0.4,2.8,1.2s1.1,1.9,1.1,3.3c0,0.2,0,0.4,0,0.5c0,0.2,0,0.3,0,0.4h-6.9v1.9
			c0,0.9,0.2,1.7,0.5,2.3c0.3,0.6,0.8,1.1,1.3,1.4c0.5,0.3,1.1,0.5,1.7,0.5c0.6,0,1-0.1,1.4-0.4c0.4-0.2,0.7-0.5,1-0.9
			c0.2-0.3,0.4-0.7,0.5-1l0.5,0.2c-0.1,0.4-0.3,0.9-0.6,1.3c-0.3,0.5-0.7,0.9-1.2,1.2S583.2,28,582.4,28z M582.3,16.3
			c-0.6,0-1.1,0.2-1.6,0.5c-0.4,0.4-0.8,0.9-1,1.5c-0.2,0.6-0.4,1.3-0.4,2.1h4.4c0.2,0,0.3,0,0.5-0.1c0.2,0,0.3-0.1,0.4-0.3
			s0.2-0.5,0.2-0.9c0-0.9-0.2-1.6-0.7-2.1C583.6,16.5,583.1,16.3,582.3,16.3z"/>
		<path d="M587.8,27.8v-0.6l1.9-0.2V17h-2.3v-0.5l2.3-0.3l1-0.6h0.5v1.8h0.1c0.1-0.3,0.3-0.5,0.6-0.8c0.2-0.3,0.6-0.5,1-0.7
			c0.4-0.2,0.8-0.3,1.3-0.3c0.7,0,1.3,0.2,1.7,0.7c0.4,0.5,0.6,1.1,0.6,2V27h1.9v0.8h-3.4v-9.4c0-1.2-0.5-1.8-1.6-1.8
			c-0.4,0-0.8,0.1-1.1,0.3c-0.3,0.2-0.5,0.4-0.7,0.7c-0.2,0.3-0.3,0.6-0.4,0.8V27l2.2,0.2v0.6H587.8z"/>
		<path d="M610.2,27.8V27h1.9V12.1h-1.9v-0.8h5.3c1.3,0,2.4,0.3,3.1,1c0.7,0.7,1.1,1.7,1.1,3c0,0.7-0.1,1.3-0.4,1.8
			c-0.2,0.5-0.5,0.9-0.9,1.1s-0.7,0.4-1,0.5V19c0.4,0.1,0.8,0.3,1.3,0.6s0.8,0.8,1.1,1.4c0.3,0.6,0.5,1.3,0.5,2.2
			c0,1.5-0.4,2.6-1.2,3.4c-0.8,0.8-2,1.2-3.5,1.2H610.2z M613.6,18.6h2c1.5,0,2.2-0.7,2.2-2.2v-2.1c0-1.5-0.7-2.2-2.2-2.2h-2V18.6z
			 M613.6,27.1h2c0.9,0,1.6-0.2,2.1-0.7c0.5-0.5,0.7-1.2,0.7-2.1v-2.2c0-0.9-0.2-1.6-0.7-2.1c-0.5-0.5-1.2-0.7-2.1-0.7h-2V27.1z"/>
		<path d="M624.8,28c-0.8,0-1.5-0.2-1.9-0.7s-0.7-1.1-0.7-1.8c0-0.7,0.2-1.2,0.5-1.7c0.3-0.4,0.8-0.8,1.3-1.1c0.5-0.3,1-0.6,1.5-0.8
			l2.3-1v-2.2c0-0.7-0.2-1.3-0.7-1.7c-0.5-0.4-1-0.6-1.7-0.6c-0.6,0-1.2,0.2-1.6,0.5c-0.4,0.3-0.7,0.6-0.9,0.9
			c0.3,0.4,0.6,0.6,0.8,0.8s0.3,0.5,0.3,0.7c0,0.3-0.1,0.5-0.3,0.7s-0.4,0.3-0.8,0.3c-0.3,0-0.6-0.1-0.8-0.3
			c-0.2-0.2-0.3-0.5-0.3-0.9c0-0.3,0.1-0.7,0.3-1.1s0.4-0.8,0.8-1.2c0.3-0.4,0.8-0.7,1.3-0.9c0.5-0.2,1.2-0.4,1.9-0.4
			c0.8,0,1.4,0.2,1.9,0.5c0.5,0.3,0.8,0.7,1,1.2c0.2,0.5,0.3,1,0.3,1.5v7.2c0,0.6,0.2,0.9,0.6,0.9c0.3,0,0.5-0.1,0.7-0.3
			c0.2-0.2,0.3-0.5,0.3-0.7l0.4,0.1c0,0.3-0.1,0.6-0.3,0.9c-0.2,0.3-0.4,0.6-0.7,0.8s-0.6,0.3-1,0.3c-0.4,0-0.8-0.1-1.1-0.4
			s-0.5-0.8-0.5-1.4c-0.1,0.3-0.3,0.5-0.6,0.8c-0.3,0.3-0.6,0.5-1,0.7C625.7,27.9,625.3,28,624.8,28z M623.5,24.9
			c0,0.6,0.2,1.1,0.5,1.5c0.4,0.4,0.8,0.6,1.4,0.6c0.4,0,0.7-0.1,1-0.3c0.3-0.2,0.6-0.4,0.8-0.6c0.2-0.2,0.3-0.5,0.4-0.7v-4.1
			l-2.1,1c-0.3,0.2-0.7,0.3-1,0.5c-0.3,0.2-0.6,0.4-0.8,0.7C623.6,24,623.5,24.4,623.5,24.9z"/>
		<path d="M639.7,27v0.8h-7.8V27h2.7V17h-2.3v-0.5l2.3-0.3l1-0.6h0.5v3.9h0.1l0.1-0.3c0.3-1,0.8-1.9,1.5-2.5c0.7-0.7,1.4-1,2.3-1
			c0.6,0,1,0.1,1.4,0.4c0.4,0.3,0.6,0.6,0.6,1.1c0,0.3-0.1,0.5-0.2,0.7c-0.1,0.2-0.4,0.3-0.7,0.3c-0.4,0-0.6-0.1-0.8-0.4
			c-0.2-0.2-0.3-0.5-0.4-0.7l-0.3-0.6c-0.5,0-1,0.2-1.4,0.6c-0.4,0.4-0.7,0.9-1,1.5c-0.3,0.6-0.6,1.3-0.8,2l-0.3,1V27H639.7z"/>
		<path d="M646.9,28c-0.8,0-1.5-0.2-1.9-0.7s-0.7-1.1-0.7-1.8c0-0.7,0.2-1.2,0.5-1.7c0.3-0.4,0.8-0.8,1.3-1.1c0.5-0.3,1-0.6,1.5-0.8
			l2.3-1v-2.2c0-0.7-0.2-1.3-0.7-1.7c-0.5-0.4-1-0.6-1.7-0.6c-0.6,0-1.2,0.2-1.6,0.5c-0.4,0.3-0.7,0.6-0.9,0.9
			c0.3,0.4,0.6,0.6,0.8,0.8s0.3,0.5,0.3,0.7c0,0.3-0.1,0.5-0.3,0.7s-0.4,0.3-0.8,0.3c-0.3,0-0.6-0.1-0.8-0.3
			c-0.2-0.2-0.3-0.5-0.3-0.9c0-0.3,0.1-0.7,0.3-1.1s0.4-0.8,0.8-1.2c0.3-0.4,0.8-0.7,1.3-0.9c0.5-0.2,1.2-0.4,1.9-0.4
			c0.8,0,1.4,0.2,1.9,0.5c0.5,0.3,0.8,0.7,1,1.2c0.2,0.5,0.3,1,0.3,1.5v7.2c0,0.6,0.2,0.9,0.6,0.9c0.3,0,0.5-0.1,0.7-0.3
			c0.2-0.2,0.3-0.5,0.3-0.7l0.4,0.1c0,0.3-0.1,0.6-0.3,0.9c-0.2,0.3-0.4,0.6-0.7,0.8s-0.6,0.3-1,0.3c-0.4,0-0.8-0.1-1.1-0.4
			s-0.5-0.8-0.5-1.4c-0.1,0.3-0.3,0.5-0.6,0.8c-0.3,0.3-0.6,0.5-1,0.7C647.9,27.9,647.5,28,646.9,28z M645.7,24.9
			c0,0.6,0.2,1.1,0.5,1.5c0.4,0.4,0.8,0.6,1.4,0.6c0.4,0,0.7-0.1,1-0.3c0.3-0.2,0.6-0.4,0.8-0.6c0.2-0.2,0.3-0.5,0.4-0.7v-4.1
			l-2.1,1c-0.3,0.2-0.7,0.3-1,0.5c-0.3,0.2-0.6,0.4-0.8,0.7C645.8,24,645.7,24.4,645.7,24.9z"/>
		<path d="M658.3,28c-0.8,0-1.4-0.2-1.9-0.7c-0.5-0.5-0.9-1.2-1.1-2c-0.2-0.8-0.4-1.8-0.4-2.8c0-1.3,0.2-2.4,0.5-3.5
			c0.3-1,0.8-1.9,1.4-2.5s1.4-0.9,2.3-0.9c0.5,0,0.9,0.1,1.3,0.3c0.3,0.2,0.6,0.4,0.8,0.7v-4.1h-2.3V12l2.3-0.3l1-0.6h0.5v15.5h1.6
			v0.5l-1.6,0.3l-1,0.6h-0.5v-1.9H661c-0.1,0.3-0.3,0.5-0.5,0.8c-0.3,0.3-0.6,0.5-0.9,0.7C659.2,27.9,658.8,28,658.3,28z
			 M658.8,27.1c0.5,0,0.9-0.1,1.3-0.4c0.3-0.3,0.6-0.6,0.8-0.9c0.2-0.4,0.3-0.7,0.3-1.1v-5.4c0-1.1-0.2-1.9-0.6-2.4
			c-0.4-0.5-1-0.7-1.6-0.7c-0.7,0-1.2,0.3-1.7,0.8c-0.4,0.5-0.6,1.3-0.6,2.3v5.3c0,0.9,0.2,1.5,0.7,1.9
			C657.7,26.9,658.2,27.1,658.8,27.1z"/>
	</g>
</g>
</svg>
