<?xml version="1.0" encoding="utf-8"?>
<!-- Generator: Adobe Illustrator 26.3.1, SVG Export Plug-In . SVG Version: 6.00 Build 0)  -->
<svg version="1.1" id="Capa_1" xmlns="http://www.w3.org/2000/svg" xmlns:xlink="http://www.w3.org/1999/xlink" x="0px" y="0px"
	 viewBox="0 0 576.2 37.5" style="enable-background:new 0 0 576.2 37.5;" xml:space="preserve">
<style type="text/css">
	.st0{fill:#FFFFFF;}
	.st1{fill:#212121;}
</style>
<g>
	<g>
		<rect x="0.8" y="0.7" class="st0" width="574.7" height="36"/>
		<path class="st1" d="M576.2,37.5H0V0h576.2V37.5z M1.5,36h573.2V1.5H1.5V36z"/>
	</g>
	<g>
		<path d="M23.7,27.7V27h3.1V12.1h-1.3c-1.1,0-1.7,0.5-1.8,1.6l-0.3,2.4h-0.6v-5h0.4l0.7,0.2h7.6l0.7-0.2h0.4v5h-0.6l-0.3-2.4
			c-0.1-1.1-0.7-1.6-1.8-1.6h-1.3V27h3.1v0.7H23.7z"/>
		<path d="M39.2,27.9c-0.9,0-1.7-0.3-2.4-0.8S35.5,26,35.1,25c-0.4-0.9-0.6-2-0.6-3.2c0-0.8,0.1-1.6,0.3-2.3c0.2-0.7,0.5-1.4,0.9-2
			c0.4-0.6,0.9-1.1,1.5-1.4s1.3-0.5,2.1-0.5c1.2,0,2.1,0.4,2.8,1.2s1.1,1.9,1.1,3.3c0,0.2,0,0.4,0,0.5c0,0.2,0,0.3,0,0.4h-6.9v1.9
			c0,0.9,0.2,1.7,0.5,2.3s0.8,1.1,1.3,1.4S39,27,39.6,27c0.6,0,1-0.1,1.4-0.4c0.4-0.2,0.7-0.5,1-0.9c0.2-0.3,0.4-0.7,0.5-1l0.5,0.2
			c-0.1,0.4-0.3,0.9-0.6,1.3c-0.3,0.5-0.7,0.9-1.2,1.2S39.9,27.9,39.2,27.9z M39.1,16.2c-0.6,0-1.1,0.2-1.6,0.5
			c-0.4,0.4-0.8,0.9-1,1.5c-0.2,0.6-0.4,1.3-0.4,2.1h4.4c0.2,0,0.3,0,0.5-0.1s0.3-0.1,0.4-0.3c0.1-0.2,0.2-0.5,0.2-0.9
			c0-0.9-0.2-1.6-0.7-2.1C40.4,16.5,39.8,16.2,39.1,16.2z"/>
		<path d="M44.9,27.7V27h1.6l2.6-5.2l-2.7-5.3h-1.6v-0.8h4.7v0.8h-1.6l2,4l2-4h-1.2v-0.8h3.5v0.8h-1.6l-2.4,4.7l2.9,5.7h1.6v0.8H50
			V27h1.7l-2.3-4.5L47.2,27h1.3v0.8H44.9z"/>
		<path d="M61.9,27.9c-1.1,0-2-0.3-2.6-1c-0.7-0.7-1-1.7-1-3v-7.5h-2.5v-0.7h2.5l1-2.4h0.5v2.4h5.8v0.7h-5.8v7.4
			c0,1,0.2,1.8,0.6,2.4c0.4,0.6,1,0.8,1.8,0.8c0.7,0,1.2-0.2,1.6-0.5c0.4-0.3,0.7-0.7,0.8-1.2c0.2-0.5,0.3-1.1,0.3-1.7v-0.6h0.7v0.6
			c0,0.4-0.1,0.9-0.2,1.4c-0.1,0.5-0.3,1-0.5,1.4c-0.3,0.4-0.6,0.8-1.1,1.1C63.3,27.8,62.6,27.9,61.9,27.9z"/>
		<path d="M83,27.9c-0.7,0-1.4-0.2-1.9-0.5c-0.5-0.3-1-0.8-1.4-1.4s-0.6-1.3-0.8-2c-0.2-0.7-0.3-1.5-0.3-2.3c0-0.8,0.1-1.5,0.3-2.3
			c0.2-0.7,0.4-1.4,0.8-2s0.8-1.1,1.4-1.4c0.5-0.3,1.2-0.5,1.9-0.5c0.7,0,1.4,0.2,1.9,0.5c0.5,0.3,1,0.8,1.4,1.4
			c0.4,0.6,0.6,1.3,0.8,2c0.2,0.7,0.3,1.5,0.3,2.3c0,0.8-0.1,1.5-0.3,2.3c-0.2,0.7-0.4,1.4-0.8,2c-0.4,0.6-0.8,1.1-1.4,1.4
			C84.4,27.8,83.8,27.9,83,27.9z M83,27.2c0.9,0,1.6-0.4,2.1-1.2c0.5-0.8,0.7-1.9,0.7-3.2v-2.2c0-1.4-0.2-2.4-0.7-3.2
			c-0.5-0.8-1.2-1.2-2.1-1.2c-0.9,0-1.6,0.4-2.1,1.2c-0.5,0.8-0.7,1.9-0.7,3.2v2.2c0,1.4,0.2,2.4,0.7,3.2
			C81.4,26.8,82.1,27.2,83,27.2z"/>
		<path d="M88.9,27.7v-0.6l1.9-0.2v-10h-2.3v-0.5l2.3-0.3l1-0.6h0.5v1.8h0.1c0.1-0.3,0.3-0.5,0.6-0.8s0.6-0.5,1-0.7
			c0.4-0.2,0.8-0.3,1.3-0.3c0.7,0,1.3,0.2,1.7,0.7c0.4,0.5,0.6,1.1,0.6,2V27h1.9v0.8H96v-9.4c0-1.2-0.5-1.8-1.6-1.8
			c-0.4,0-0.8,0.1-1.1,0.3c-0.3,0.2-0.5,0.4-0.7,0.7c-0.2,0.3-0.3,0.6-0.4,0.8v8.5l2.2,0.2v0.6H88.9z"/>
		<path d="M110.9,31.9v-0.8h2.6V16.9h-2.3v-0.5l2.3-0.3l1-0.6h0.5v1.9h0.1c0.1-0.3,0.3-0.6,0.6-0.9c0.3-0.3,0.6-0.5,0.9-0.7
			c0.4-0.2,0.8-0.3,1.3-0.3c0.7,0,1.4,0.3,1.9,0.8c0.5,0.5,0.9,1.2,1.1,2.1s0.4,1.9,0.4,3c0,1.2-0.2,2.3-0.5,3.3
			c-0.3,1-0.8,1.8-1.3,2.4c-0.6,0.6-1.3,0.9-2.2,0.9c-0.5,0-1-0.1-1.4-0.3s-0.6-0.4-0.9-0.7v4.3h3.6v0.8H110.9z M115.1,24.2
			c0,1.1,0.2,1.9,0.6,2.4s1,0.7,1.6,0.7c0.7,0,1.2-0.3,1.7-0.8c0.4-0.5,0.6-1.3,0.6-2.3v-5.3c0-0.9-0.2-1.5-0.7-1.9
			c-0.4-0.4-0.9-0.6-1.5-0.6c-0.5,0-0.9,0.1-1.3,0.4c-0.3,0.3-0.6,0.6-0.8,0.9s-0.3,0.7-0.3,1.1V24.2z"/>
		<path d="M127.4,27.9c-0.7,0-1.4-0.2-1.9-0.5c-0.5-0.3-1-0.8-1.4-1.4s-0.6-1.3-0.8-2c-0.2-0.7-0.3-1.5-0.3-2.3
			c0-0.8,0.1-1.5,0.3-2.3c0.2-0.7,0.4-1.4,0.8-2s0.8-1.1,1.4-1.4c0.5-0.3,1.2-0.5,1.9-0.5c0.7,0,1.4,0.2,1.9,0.5
			c0.5,0.3,1,0.8,1.4,1.4c0.4,0.6,0.6,1.3,0.8,2c0.2,0.7,0.3,1.5,0.3,2.3c0,0.8-0.1,1.5-0.3,2.3c-0.2,0.7-0.4,1.4-0.8,2
			c-0.4,0.6-0.8,1.1-1.4,1.4C128.7,27.8,128.1,27.9,127.4,27.9z M127.4,27.2c0.9,0,1.6-0.4,2.1-1.2c0.5-0.8,0.7-1.9,0.7-3.2v-2.2
			c0-1.4-0.2-2.4-0.7-3.2c-0.5-0.8-1.2-1.2-2.1-1.2c-0.9,0-1.6,0.4-2.1,1.2c-0.5,0.8-0.7,1.9-0.7,3.2v2.2c0,1.4,0.2,2.4,0.7,3.2
			C125.7,26.8,126.4,27.2,127.4,27.2z"/>
		<path d="M139.4,27.9c-0.7,0-1.3-0.2-1.8-0.5s-0.8-0.8-1.1-1.3c-0.3-0.5-0.4-1-0.5-1.4h-0.2v2.9h-0.7v-5.2h1.2v0.3
			c0,0.1,0,0.4,0,0.7c0,0.3,0.1,0.7,0.2,1.1c0.1,0.4,0.3,0.8,0.5,1.2c0.2,0.4,0.5,0.7,0.9,1c0.4,0.3,0.9,0.4,1.5,0.4
			c0.7,0,1.2-0.2,1.5-0.5c0.3-0.3,0.5-0.8,0.5-1.3c0-0.5-0.1-1-0.4-1.4c-0.3-0.4-0.6-0.7-1.1-1s-0.9-0.6-1.4-0.9s-1-0.6-1.4-0.9
			c-0.4-0.3-0.8-0.7-1.1-1.2c-0.3-0.4-0.4-1-0.4-1.6c0-0.8,0.3-1.5,0.8-2s1.3-0.8,2.2-0.8c0.7,0,1.2,0.1,1.6,0.4
			c0.4,0.3,0.7,0.6,0.9,0.9c0.2,0.3,0.3,0.7,0.4,0.9h0.2v-2h0.7V20h-0.9V20c0-0.4,0-0.8-0.1-1.2c-0.1-0.4-0.2-0.8-0.5-1.2
			c-0.2-0.4-0.5-0.7-0.9-0.9c-0.4-0.2-0.8-0.4-1.4-0.4c-0.7,0-1.1,0.2-1.4,0.5c-0.3,0.4-0.4,0.7-0.4,1.1c0,0.5,0.1,0.9,0.4,1.3
			c0.3,0.4,0.6,0.7,1.1,1c0.4,0.3,0.9,0.6,1.4,0.9s1,0.6,1.4,1c0.4,0.3,0.8,0.7,1.1,1.2c0.3,0.5,0.4,1,0.4,1.6
			c0,0.6-0.1,1.1-0.4,1.6c-0.3,0.5-0.7,0.8-1.2,1.1S140.1,27.9,139.4,27.9z"/>
		<path d="M150.6,27.9c-1.1,0-2-0.3-2.6-1c-0.7-0.7-1-1.7-1-3v-7.5h-2.5v-0.7h2.5l1-2.4h0.5v2.4h5.8v0.7h-5.8v7.4
			c0,1,0.2,1.8,0.6,2.4c0.4,0.6,1,0.8,1.8,0.8c0.7,0,1.2-0.2,1.6-0.5c0.4-0.3,0.7-0.7,0.8-1.2c0.2-0.5,0.3-1.1,0.3-1.7v-0.6h0.7v0.6
			c0,0.4-0.1,0.9-0.2,1.4c-0.1,0.5-0.3,1-0.5,1.4c-0.3,0.4-0.6,0.8-1.1,1.1C151.9,27.8,151.3,27.9,150.6,27.9z"/>
		<path d="M157.6,21.3v-0.8h5.9v0.8H157.6z"/>
		<path d="M172.7,27.9c-1.1,0-2-0.3-2.6-1c-0.7-0.7-1-1.7-1-3v-7.5h-2.5v-0.7h2.5l1-2.4h0.5v2.4h5.8v0.7h-5.8v7.4
			c0,1,0.2,1.8,0.6,2.4c0.4,0.6,1,0.8,1.8,0.8c0.7,0,1.2-0.2,1.6-0.5c0.4-0.3,0.7-0.7,0.8-1.2c0.2-0.5,0.3-1.1,0.3-1.7v-0.6h0.7v0.6
			c0,0.4-0.1,0.9-0.2,1.4c-0.1,0.5-0.3,1-0.5,1.4c-0.3,0.4-0.6,0.8-1.1,1.1C174.1,27.8,173.5,27.9,172.7,27.9z"/>
		<path d="M185.1,27v0.8h-7.8V27h2.7V16.9h-2.3v-0.5l2.3-0.3l1-0.6h0.5v3.9h0.1l0.1-0.3c0.3-1,0.8-1.9,1.5-2.5c0.7-0.7,1.4-1,2.3-1
			c0.6,0,1,0.1,1.4,0.4c0.4,0.3,0.6,0.6,0.6,1.1c0,0.3-0.1,0.5-0.2,0.7c-0.1,0.2-0.4,0.3-0.7,0.3c-0.4,0-0.6-0.1-0.8-0.4
			c-0.2-0.2-0.3-0.5-0.4-0.7l-0.3-0.6c-0.5,0-1,0.2-1.4,0.6s-0.7,0.9-1,1.5c-0.3,0.6-0.6,1.3-0.8,2l-0.3,1V27H185.1z"/>
		<path d="M196.7,15.5h0.5v11h1.6v0.5l-1.6,0.3l-1,0.6h-0.5v-2.1h-0.1c-0.1,0.3-0.3,0.6-0.5,0.9c-0.2,0.3-0.6,0.6-0.9,0.8
			c-0.4,0.2-0.8,0.3-1.3,0.3c-0.7,0-1.3-0.2-1.8-0.7c-0.5-0.5-0.7-1.2-0.7-2.2v-8.2h-2.3v-0.5l2.3-0.3l1-0.6h0.5V25
			c0,1.3,0.5,1.9,1.5,1.9c0.4,0,0.8-0.1,1.1-0.3c0.3-0.2,0.5-0.5,0.7-0.8c0.2-0.3,0.3-0.6,0.4-0.9v-8h-2.3v-0.5l2.3-0.3L196.7,15.5z
			"/>
		<path d="M206,27.9c-1.1,0-2-0.3-2.6-1c-0.7-0.7-1-1.7-1-3v-7.5h-2.5v-0.7h2.5l1-2.4h0.5v2.4h5.8v0.7h-5.8v7.4c0,1,0.2,1.8,0.6,2.4
			c0.4,0.6,1,0.8,1.8,0.8c0.7,0,1.2-0.2,1.6-0.5c0.4-0.3,0.7-0.7,0.8-1.2c0.2-0.5,0.3-1.1,0.3-1.7v-0.6h0.7v0.6
			c0,0.4-0.1,0.9-0.2,1.4c-0.1,0.5-0.3,1-0.5,1.4c-0.3,0.4-0.6,0.8-1.1,1.1C207.4,27.8,206.7,27.9,206,27.9z"/>
		<path d="M210.8,27.7V27h1.9V12.5h-2.3v-0.5l2.3-0.3l1-0.6h0.5v6.2h0.1c0.1-0.3,0.3-0.5,0.6-0.8s0.6-0.5,1-0.7
			c0.4-0.2,0.8-0.3,1.3-0.3c0.7,0,1.3,0.2,1.7,0.7c0.4,0.5,0.6,1.1,0.6,2V27h1.9v0.8h-3.4v-9.4c0-1.2-0.5-1.8-1.6-1.8
			c-0.4,0-0.8,0.1-1.1,0.3c-0.3,0.2-0.5,0.4-0.7,0.7c-0.2,0.3-0.3,0.6-0.4,0.8V27h1.3v0h0.9v0.7H210.8z"/>
		<path d="M226.1,30l-0.3-0.4c0.3-0.2,0.6-0.5,0.9-0.8c0.3-0.3,0.5-0.6,0.5-0.8c-0.4,0-0.7-0.1-0.9-0.3c-0.3-0.2-0.4-0.5-0.4-0.9
			c0-0.4,0.1-0.7,0.4-0.9s0.5-0.3,0.9-0.3c0.3,0,0.6,0.1,0.9,0.3c0.2,0.2,0.4,0.6,0.4,1c0,0.4-0.1,0.9-0.4,1.3
			c-0.2,0.4-0.5,0.8-0.9,1.1C226.7,29.5,226.4,29.8,226.1,30z"/>
		<path d="M248.8,27.7l-3.8-15.7h-1.4v-0.8h5.2v0.8h-2.2l3.1,12.8l3.1-12.8h-1.6v-0.8h3.5v0.8h-1.2l-3.8,15.7H248.8z"/>
		<path d="M255.4,27.7V27h4.2V16.9h-3.1v-0.5l3.1-0.3l1-0.6h0.5V27h4.2v0.8H255.4z M260.4,13.8c-0.3,0-0.6-0.1-0.9-0.4
			s-0.4-0.5-0.4-0.9s0.1-0.6,0.4-0.9s0.5-0.4,0.9-0.4s0.6,0.1,0.9,0.4s0.4,0.5,0.4,0.9s-0.1,0.6-0.4,0.9S260.7,13.8,260.4,13.8z"/>
		<path d="M271.5,27.9c-0.7,0-1.4-0.2-1.9-0.5c-0.5-0.3-1-0.8-1.4-1.4s-0.6-1.3-0.8-2c-0.2-0.7-0.3-1.5-0.3-2.3
			c0-0.8,0.1-1.5,0.3-2.3c0.2-0.7,0.4-1.4,0.8-2s0.8-1.1,1.4-1.4c0.5-0.3,1.2-0.5,1.9-0.5c0.7,0,1.4,0.2,1.9,0.5
			c0.5,0.3,1,0.8,1.4,1.4c0.4,0.6,0.6,1.3,0.8,2c0.2,0.7,0.3,1.5,0.3,2.3c0,0.8-0.1,1.5-0.3,2.3c-0.2,0.7-0.4,1.4-0.8,2
			c-0.4,0.6-0.8,1.1-1.4,1.4C272.8,27.8,272.2,27.9,271.5,27.9z M271.5,27.2c0.9,0,1.6-0.4,2.1-1.2c0.5-0.8,0.7-1.9,0.7-3.2v-2.2
			c0-1.4-0.2-2.4-0.7-3.2c-0.5-0.8-1.2-1.2-2.1-1.2c-0.9,0-1.6,0.4-2.1,1.2c-0.5,0.8-0.7,1.9-0.7,3.2v2.2c0,1.4,0.2,2.4,0.7,3.2
			C269.8,26.8,270.5,27.2,271.5,27.2z"/>
		<path d="M277.6,27.7V27h4.2V12.5h-3.1v-0.5l3.1-0.3l1-0.6h0.5V27h4.2v0.8H277.6z"/>
		<path d="M294.2,27.9c-0.9,0-1.7-0.3-2.4-0.8S290.5,26,290,25c-0.4-0.9-0.6-2-0.6-3.2c0-0.8,0.1-1.6,0.3-2.3c0.2-0.7,0.5-1.4,0.9-2
			c0.4-0.6,0.9-1.1,1.5-1.4s1.3-0.5,2.1-0.5c1.2,0,2.1,0.4,2.8,1.2s1.1,1.9,1.1,3.3c0,0.2,0,0.4,0,0.5c0,0.2,0,0.3,0,0.4h-6.9v1.9
			c0,0.9,0.2,1.7,0.5,2.3s0.8,1.1,1.3,1.4s1.1,0.5,1.7,0.5c0.6,0,1-0.1,1.4-0.4c0.4-0.2,0.7-0.5,1-0.9c0.2-0.3,0.4-0.7,0.5-1
			l0.5,0.2c-0.1,0.4-0.3,0.9-0.6,1.3c-0.3,0.5-0.7,0.9-1.2,1.2S294.9,27.9,294.2,27.9z M294.1,16.2c-0.6,0-1.1,0.2-1.6,0.5
			c-0.4,0.4-0.8,0.9-1,1.5c-0.2,0.6-0.4,1.3-0.4,2.1h4.4c0.2,0,0.3,0,0.5-0.1s0.3-0.1,0.4-0.3c0.1-0.2,0.2-0.5,0.2-0.9
			c0-0.9-0.2-1.6-0.7-2.1C295.4,16.5,294.8,16.2,294.1,16.2z"/>
		<path d="M299.5,27.7v-0.6l1.9-0.2v-10h-2.3v-0.5l2.3-0.3l1-0.6h0.5v1.8h0.1c0.1-0.3,0.3-0.5,0.6-0.8s0.6-0.5,1-0.7
			c0.4-0.2,0.8-0.3,1.3-0.3c0.7,0,1.3,0.2,1.7,0.7c0.4,0.5,0.6,1.1,0.6,2V27h1.9v0.8h-3.4v-9.4c0-1.2-0.5-1.8-1.6-1.8
			c-0.4,0-0.8,0.1-1.1,0.3c-0.3,0.2-0.5,0.4-0.7,0.7c-0.2,0.3-0.3,0.6-0.4,0.8v8.5l2.2,0.2v0.6H299.5z"/>
		<path d="M316.2,27.9c-0.9,0-1.6-0.3-2.3-0.8c-0.7-0.5-1.2-1.2-1.6-2.1c-0.4-0.9-0.6-2-0.6-3.1c0-1.2,0.2-2.3,0.6-3.3
			c0.4-1,1-1.7,1.7-2.3c0.7-0.6,1.5-0.8,2.5-0.8c0.6,0,1.2,0.1,1.8,0.4c0.5,0.3,1,0.6,1.3,1c0.3,0.4,0.5,0.9,0.5,1.5
			c0,0.5-0.1,0.9-0.4,1.1s-0.5,0.4-0.8,0.4c-0.2,0-0.5-0.1-0.7-0.2c-0.2-0.2-0.3-0.4-0.3-0.7c0-0.3,0.1-0.6,0.3-0.8
			c0.2-0.3,0.5-0.6,0.7-1.1c-0.1-0.2-0.4-0.4-0.8-0.6s-0.9-0.3-1.4-0.3c-1,0-1.8,0.4-2.4,1.2s-0.9,1.9-0.9,3.2v2.2
			c0,0.9,0.2,1.7,0.5,2.3s0.7,1.1,1.2,1.4c0.5,0.3,1,0.5,1.6,0.5c0.5,0,1-0.1,1.4-0.4c0.4-0.2,0.7-0.5,0.9-0.9
			c0.2-0.3,0.4-0.7,0.5-1l0.5,0.2c-0.1,0.4-0.3,0.9-0.6,1.3c-0.3,0.5-0.7,0.9-1.2,1.2C317.6,27.8,316.9,27.9,316.2,27.9z"/>
		<path d="M327.4,27.9c-0.9,0-1.7-0.3-2.4-0.8s-1.3-1.2-1.7-2.1c-0.4-0.9-0.6-2-0.6-3.2c0-0.8,0.1-1.6,0.3-2.3
			c0.2-0.7,0.5-1.4,0.9-2c0.4-0.6,0.9-1.1,1.5-1.4s1.3-0.5,2.1-0.5c1.2,0,2.1,0.4,2.8,1.2s1.1,1.9,1.1,3.3c0,0.2,0,0.4,0,0.5
			c0,0.2,0,0.3,0,0.4h-6.9v1.9c0,0.9,0.2,1.7,0.5,2.3s0.8,1.1,1.3,1.4s1.1,0.5,1.7,0.5c0.6,0,1-0.1,1.4-0.4c0.4-0.2,0.7-0.5,1-0.9
			c0.2-0.3,0.4-0.7,0.5-1l0.5,0.2c-0.1,0.4-0.3,0.9-0.6,1.3c-0.3,0.5-0.7,0.9-1.2,1.2S328.2,27.9,327.4,27.9z M327.3,16.2
			c-0.6,0-1.1,0.2-1.6,0.5c-0.4,0.4-0.8,0.9-1,1.5c-0.2,0.6-0.4,1.3-0.4,2.1h4.4c0.2,0,0.3,0,0.5-0.1s0.3-0.1,0.4-0.3
			c0.1-0.2,0.2-0.5,0.2-0.9c0-0.9-0.2-1.6-0.7-2.1C328.6,16.5,328,16.2,327.3,16.2z"/>
		<path d="M336.9,30l-0.3-0.4c0.3-0.2,0.6-0.5,0.9-0.8c0.3-0.3,0.5-0.6,0.5-0.8c-0.4,0-0.7-0.1-0.9-0.3c-0.3-0.2-0.4-0.5-0.4-0.9
			c0-0.4,0.1-0.7,0.4-0.9s0.5-0.3,0.9-0.3c0.3,0,0.6,0.1,0.9,0.3c0.2,0.2,0.4,0.6,0.4,1c0,0.4-0.1,0.9-0.4,1.3
			c-0.2,0.4-0.5,0.8-0.9,1.1C337.6,29.5,337.3,29.8,336.9,30z"/>
		<path d="M354.6,27.7V27h1.2l3.8-15.7h0.9l3.8,15.7h1.4v0.8h-5.2V27h2.2l-1.3-5.3h-3.7l-1.3,5.3h1.6v0.8H354.6z M359.6,14.2L358,21
			h3.3L359.6,14.2z"/>
		<path d="M366,27.7v-0.6l1.9-0.2v-10h-2.3v-0.5l2.3-0.3l1-0.6h0.5v1.8h0.1c0.1-0.3,0.3-0.5,0.6-0.8s0.6-0.5,1-0.7
			c0.4-0.2,0.8-0.3,1.3-0.3c0.7,0,1.3,0.2,1.7,0.7c0.4,0.5,0.6,1.1,0.6,2V27h1.9v0.8h-3.4v-9.4c0-1.2-0.5-1.8-1.6-1.8
			c-0.4,0-0.8,0.1-1.1,0.3c-0.3,0.2-0.5,0.4-0.7,0.7c-0.2,0.3-0.3,0.6-0.4,0.8v8.5l2.2,0.2v0.6H366z"/>
		<path d="M381.9,31.9c-1.4,0-2.4-0.3-3.2-0.8c-0.8-0.6-1.2-1.3-1.2-2.1c0-0.5,0.1-1,0.4-1.3c0.2-0.4,0.5-0.6,0.9-0.9s0.7-0.4,1-0.4
			v-0.1c-0.7-0.1-1.3-0.3-1.7-0.6s-0.6-0.8-0.6-1.3c0-0.5,0.1-0.8,0.3-1.1c0.2-0.3,0.5-0.6,0.8-0.7c0.3-0.2,0.5-0.3,0.7-0.5l0.2-0.1
			c-0.4-0.4-0.6-0.8-0.8-1.3s-0.3-1-0.3-1.5c0-0.6,0.1-1.2,0.4-1.8s0.7-1,1.2-1.4c0.5-0.4,1.2-0.6,2.1-0.6c0.5,0,1,0.1,1.4,0.2h3.3
			v0.7h-2.2c0.4,0.4,0.7,0.8,0.9,1.3c0.2,0.5,0.3,1,0.3,1.5c0,0.6-0.1,1.2-0.4,1.7c-0.3,0.6-0.7,1-1.2,1.4c-0.5,0.4-1.2,0.6-2.1,0.6
			c-0.5,0-0.9-0.1-1.3-0.2c-0.4-0.1-0.7-0.3-1-0.5l-0.3,0.2c-0.2,0.1-0.5,0.3-0.7,0.5c-0.2,0.2-0.4,0.5-0.4,0.8
			c0,0.3,0.1,0.5,0.4,0.7c0.2,0.2,0.5,0.3,0.8,0.3s0.6,0.1,0.7,0.1l2.8,0.2c1,0.1,1.8,0.4,2.4,0.9c0.7,0.6,1,1.3,1,2.3
			c0,0.7-0.2,1.4-0.6,1.9c-0.4,0.6-1,1-1.7,1.3S382.9,31.9,381.9,31.9z M382.2,31.1c1,0,1.8-0.2,2.5-0.7c0.7-0.5,1-1.1,1-1.9
			c0-0.5-0.2-1-0.5-1.3s-0.7-0.5-1.1-0.6c-0.4-0.1-0.8-0.2-1.2-0.2l-2.1-0.2c-0.2,0-0.4,0.1-0.7,0.3c-0.3,0.2-0.6,0.4-0.9,0.7
			c-0.3,0.3-0.4,0.8-0.4,1.3c0,0.8,0.3,1.4,0.9,1.8S381.2,31.1,382.2,31.1z M382.3,22.3c0.8,0,1.3-0.3,1.7-0.8
			c0.3-0.5,0.5-1.1,0.5-1.9v-0.9c0-0.7-0.2-1.4-0.5-1.9c-0.3-0.5-0.9-0.8-1.7-0.8s-1.3,0.3-1.7,0.8c-0.3,0.5-0.5,1.1-0.5,1.9v0.9
			c0,0.7,0.2,1.4,0.5,1.9C381,22.1,381.5,22.3,382.3,22.3z"/>
		<path d="M393.9,27.9c-0.9,0-1.7-0.3-2.4-0.8s-1.3-1.2-1.7-2.1c-0.4-0.9-0.6-2-0.6-3.2c0-0.8,0.1-1.6,0.3-2.3
			c0.2-0.7,0.5-1.4,0.9-2c0.4-0.6,0.9-1.1,1.5-1.4s1.3-0.5,2.1-0.5c1.2,0,2.1,0.4,2.8,1.2s1.1,1.9,1.1,3.3c0,0.2,0,0.4,0,0.5
			c0,0.2,0,0.3,0,0.4h-6.9v1.9c0,0.9,0.2,1.7,0.5,2.3s0.8,1.1,1.3,1.4s1.1,0.5,1.7,0.5c0.6,0,1-0.1,1.4-0.4c0.4-0.2,0.7-0.5,1-0.9
			c0.2-0.3,0.4-0.7,0.5-1l0.5,0.2c-0.1,0.4-0.3,0.9-0.6,1.3c-0.3,0.5-0.7,0.9-1.2,1.2S394.7,27.9,393.9,27.9z M393.8,16.2
			c-0.6,0-1.1,0.2-1.6,0.5c-0.4,0.4-0.8,0.9-1,1.5c-0.2,0.6-0.4,1.3-0.4,2.1h4.4c0.2,0,0.3,0,0.5-0.1s0.3-0.1,0.4-0.3
			c0.1-0.2,0.2-0.5,0.2-0.9c0-0.9-0.2-1.6-0.7-2.1C395.1,16.5,394.5,16.2,393.8,16.2z"/>
		<path d="M406.8,27v0.8H399V27h2.7V16.9h-2.3v-0.5l2.3-0.3l1-0.6h0.5v3.9h0.1l0.1-0.3c0.3-1,0.8-1.9,1.5-2.5c0.7-0.7,1.4-1,2.3-1
			c0.6,0,1,0.1,1.4,0.4c0.4,0.3,0.6,0.6,0.6,1.1c0,0.3-0.1,0.5-0.2,0.7c-0.1,0.2-0.4,0.3-0.7,0.3c-0.4,0-0.6-0.1-0.8-0.4
			c-0.2-0.2-0.3-0.5-0.4-0.7l-0.3-0.6c-0.5,0-1,0.2-1.4,0.6s-0.7,0.9-1,1.5c-0.3,0.6-0.6,1.3-0.8,2l-0.3,1V27H406.8z"/>
		<path d="M414.7,30l-0.3-0.4c0.3-0.2,0.6-0.5,0.9-0.8c0.3-0.3,0.5-0.6,0.5-0.8c-0.4,0-0.7-0.1-0.9-0.3c-0.3-0.2-0.4-0.5-0.4-0.9
			c0-0.4,0.1-0.7,0.4-0.9s0.5-0.3,0.9-0.3c0.3,0,0.6,0.1,0.9,0.3c0.2,0.2,0.4,0.6,0.4,1c0,0.4-0.1,0.9-0.4,1.3
			c-0.2,0.4-0.5,0.8-0.9,1.1C415.3,29.5,415,29.8,414.7,30z M415.7,18.5c-0.3,0-0.6-0.1-0.9-0.4s-0.4-0.5-0.4-0.9
			c0-0.3,0.1-0.6,0.4-0.9s0.5-0.4,0.9-0.4s0.6,0.1,0.9,0.4c0.2,0.2,0.4,0.5,0.4,0.9c0,0.3-0.1,0.6-0.4,0.9
			C416.3,18.4,416,18.5,415.7,18.5z"/>
		<path d="M433,27.7V27h1.9V12.1H433v-0.8h4.2c0.9,0,1.7,0.2,2.4,0.7c0.7,0.5,1.2,1.1,1.7,1.9s0.8,1.7,1,2.6c0.2,1,0.3,2,0.3,3
			c0,1-0.1,2-0.3,3s-0.6,1.9-1,2.6s-1,1.4-1.7,1.9s-1.5,0.7-2.4,0.7H433z M437.2,12h-0.8v15h0.8c0.7,0,1.2-0.2,1.8-0.5
			c0.5-0.3,1-0.8,1.3-1.4s0.5-1.3,0.5-2.2v-7c0-0.9-0.2-1.6-0.5-2.2c-0.3-0.6-0.8-1-1.3-1.4C438.5,12.2,437.9,12,437.2,12z"/>
		<path d="M448.8,27.9c-0.7,0-1.4-0.2-1.9-0.5c-0.5-0.3-1-0.8-1.4-1.4s-0.6-1.3-0.8-2c-0.2-0.7-0.3-1.5-0.3-2.3
			c0-0.8,0.1-1.5,0.3-2.3c0.2-0.7,0.4-1.4,0.8-2s0.8-1.1,1.4-1.4c0.5-0.3,1.2-0.5,1.9-0.5c0.7,0,1.4,0.2,1.9,0.5
			c0.5,0.3,1,0.8,1.4,1.4c0.4,0.6,0.6,1.3,0.8,2c0.2,0.7,0.3,1.5,0.3,2.3c0,0.8-0.1,1.5-0.3,2.3c-0.2,0.7-0.4,1.4-0.8,2
			c-0.4,0.6-0.8,1.1-1.4,1.4C450.2,27.8,449.6,27.9,448.8,27.9z M448.8,27.2c0.9,0,1.6-0.4,2.1-1.2c0.5-0.8,0.7-1.9,0.7-3.2v-2.2
			c0-1.4-0.2-2.4-0.7-3.2c-0.5-0.8-1.2-1.2-2.1-1.2c-0.9,0-1.6,0.4-2.1,1.2c-0.5,0.8-0.7,1.9-0.7,3.2v2.2c0,1.4,0.2,2.4,0.7,3.2
			C447.2,26.8,447.9,27.2,448.8,27.2z"/>
		<path d="M462.3,27v0.8h-7.8V27h2.7V16.9h-2.3v-0.5l2.3-0.3l1-0.6h0.5v3.9h0.1l0.1-0.3c0.3-1,0.8-1.9,1.5-2.5c0.7-0.7,1.4-1,2.3-1
			c0.6,0,1,0.1,1.4,0.4c0.4,0.3,0.6,0.6,0.6,1.1c0,0.3-0.1,0.5-0.2,0.7c-0.1,0.2-0.4,0.3-0.7,0.3c-0.4,0-0.6-0.1-0.8-0.4
			c-0.2-0.2-0.3-0.5-0.4-0.7l-0.3-0.6c-0.5,0-1,0.2-1.4,0.6s-0.7,0.9-1,1.5c-0.3,0.6-0.6,1.3-0.8,2l-0.3,1V27H462.3z"/>
		<path d="M466,27.7V27h4.2V16.9h-3.1v-0.5l3.1-0.3l1-0.6h0.5V27h4.2v0.8H466z M471,13.8c-0.3,0-0.6-0.1-0.9-0.4s-0.4-0.5-0.4-0.9
			s0.1-0.6,0.4-0.9s0.5-0.4,0.9-0.4s0.6,0.1,0.9,0.4s0.4,0.5,0.4,0.9s-0.1,0.6-0.4,0.9S471.3,13.8,471,13.8z"/>
		<path d="M480.6,27.9c-0.8,0-1.5-0.2-1.9-0.7c-0.5-0.5-0.7-1.1-0.7-1.8c0-0.7,0.2-1.2,0.5-1.7c0.3-0.4,0.8-0.8,1.3-1.1
			c0.5-0.3,1-0.6,1.5-0.8l2.3-1v-2.2c0-0.7-0.2-1.3-0.7-1.7c-0.5-0.4-1-0.6-1.7-0.6c-0.6,0-1.2,0.2-1.6,0.5
			c-0.4,0.3-0.7,0.6-0.9,0.9c0.3,0.4,0.6,0.6,0.8,0.8s0.3,0.5,0.3,0.7c0,0.3-0.1,0.5-0.3,0.7s-0.4,0.3-0.8,0.3
			c-0.3,0-0.6-0.1-0.8-0.3c-0.2-0.2-0.3-0.5-0.3-0.9c0-0.3,0.1-0.7,0.3-1.1s0.4-0.8,0.8-1.2c0.3-0.4,0.8-0.7,1.3-0.9
			c0.5-0.2,1.2-0.4,1.9-0.4c0.8,0,1.4,0.2,1.9,0.5c0.5,0.3,0.8,0.7,1,1.2c0.2,0.5,0.3,1,0.3,1.5v7.2c0,0.6,0.2,0.9,0.6,0.9
			c0.3,0,0.5-0.1,0.7-0.3c0.2-0.2,0.3-0.5,0.3-0.7l0.4,0.1c0,0.3-0.1,0.6-0.3,0.9c-0.2,0.3-0.4,0.6-0.7,0.8s-0.6,0.3-1,0.3
			c-0.4,0-0.8-0.1-1.1-0.4c-0.3-0.3-0.5-0.8-0.5-1.4c-0.1,0.3-0.3,0.5-0.6,0.8c-0.3,0.3-0.6,0.5-1,0.7
			C481.6,27.8,481.1,27.9,480.6,27.9z M479.3,24.9c0,0.6,0.2,1.1,0.5,1.5s0.8,0.6,1.4,0.6c0.4,0,0.7-0.1,1-0.3
			c0.3-0.2,0.6-0.4,0.8-0.6c0.2-0.2,0.3-0.5,0.4-0.7v-4.1l-2.1,1c-0.3,0.2-0.7,0.3-1,0.5c-0.3,0.2-0.6,0.4-0.8,0.7
			C479.4,24,479.3,24.4,479.3,24.9z"/>
		<path d="M487.9,27.7v-0.6l1.9-0.2v-10h-2.3v-0.5l2.3-0.3l1-0.6h0.5v1.8h0.1c0.1-0.3,0.3-0.5,0.6-0.8s0.6-0.5,1-0.7
			c0.4-0.2,0.8-0.3,1.3-0.3c0.7,0,1.3,0.2,1.7,0.7c0.4,0.5,0.6,1.1,0.6,2V27h1.9v0.8H495v-9.4c0-1.2-0.5-1.8-1.6-1.8
			c-0.4,0-0.8,0.1-1.1,0.3c-0.3,0.2-0.5,0.4-0.7,0.7c-0.2,0.3-0.3,0.6-0.4,0.8v8.5l2.2,0.2v0.6H487.9z"/>
		<path d="M515.8,27.9c-0.6,0-1.2-0.1-1.6-0.4c-0.4-0.2-0.8-0.5-1-0.9c-0.3-0.3-0.5-0.7-0.6-1.1c-0.1-0.4-0.2-0.6-0.2-0.9h-0.2v2.9
			h-0.7v-6.5h1.2V22c0,0.3,0,0.6,0.1,1c0,0.4,0.1,0.9,0.2,1.4c0.1,0.5,0.3,0.9,0.5,1.3s0.5,0.8,0.9,1c0.4,0.3,0.9,0.4,1.5,0.4
			c0.7,0,1.3-0.2,1.7-0.7c0.4-0.4,0.7-1,0.7-1.8c0-0.7-0.2-1.3-0.5-1.9s-0.7-1.1-1.2-1.7c-0.5-0.5-1-1-1.5-1.6
			c-0.5-0.5-1.1-1-1.5-1.6c-0.5-0.5-0.9-1.1-1.2-1.7s-0.5-1.2-0.5-1.9c0-0.7,0.2-1.3,0.5-1.8s0.7-0.9,1.2-1.2
			c0.5-0.3,1.1-0.4,1.7-0.4c0.7,0,1.3,0.1,1.7,0.4c0.4,0.3,0.8,0.6,1,1s0.4,0.7,0.5,1h0.2v-2.2h0.7v5.5H518v-0.7
			c0-0.8-0.1-1.5-0.3-2.2c-0.2-0.6-0.6-1.2-1-1.5c-0.4-0.4-0.9-0.6-1.5-0.6c-0.6,0-1.1,0.2-1.4,0.6c-0.3,0.4-0.5,0.9-0.5,1.5
			c0,0.6,0.2,1.2,0.5,1.7c0.3,0.5,0.7,1.1,1.2,1.6s1,1,1.5,1.5c0.5,0.5,1.1,1.1,1.5,1.6c0.5,0.6,0.9,1.1,1.2,1.8s0.5,1.3,0.5,2.1
			c0,0.8-0.2,1.4-0.5,2s-0.8,1-1.4,1.3S516.4,27.9,515.8,27.9z"/>
		<path d="M525,27.9c-0.8,0-1.5-0.2-1.9-0.7c-0.5-0.5-0.7-1.1-0.7-1.8c0-0.7,0.2-1.2,0.5-1.7c0.3-0.4,0.8-0.8,1.3-1.1
			c0.5-0.3,1-0.6,1.5-0.8l2.3-1v-2.2c0-0.7-0.2-1.3-0.7-1.7c-0.5-0.4-1-0.6-1.7-0.6c-0.6,0-1.2,0.2-1.6,0.5
			c-0.4,0.3-0.7,0.6-0.9,0.9c0.3,0.4,0.6,0.6,0.8,0.8s0.3,0.5,0.3,0.7c0,0.3-0.1,0.5-0.3,0.7s-0.4,0.3-0.8,0.3
			c-0.3,0-0.6-0.1-0.8-0.3c-0.2-0.2-0.3-0.5-0.3-0.9c0-0.3,0.1-0.7,0.3-1.1s0.4-0.8,0.8-1.2c0.3-0.4,0.8-0.7,1.3-0.9
			c0.5-0.2,1.2-0.4,1.9-0.4c0.8,0,1.4,0.2,1.9,0.5c0.5,0.3,0.8,0.7,1,1.2c0.2,0.5,0.3,1,0.3,1.5v7.2c0,0.6,0.2,0.9,0.6,0.9
			c0.3,0,0.5-0.1,0.7-0.3c0.2-0.2,0.3-0.5,0.3-0.7l0.4,0.1c0,0.3-0.1,0.6-0.3,0.9c-0.2,0.3-0.4,0.6-0.7,0.8s-0.6,0.3-1,0.3
			c-0.4,0-0.8-0.1-1.1-0.4c-0.3-0.3-0.5-0.8-0.5-1.4c-0.1,0.3-0.3,0.5-0.6,0.8c-0.3,0.3-0.6,0.5-1,0.7
			C525.9,27.8,525.5,27.9,525,27.9z M523.7,24.9c0,0.6,0.2,1.1,0.5,1.5s0.8,0.6,1.4,0.6c0.4,0,0.7-0.1,1-0.3
			c0.3-0.2,0.6-0.4,0.8-0.6c0.2-0.2,0.3-0.5,0.4-0.7v-4.1l-2.1,1c-0.3,0.2-0.7,0.3-1,0.5c-0.3,0.2-0.6,0.4-0.8,0.7
			C523.8,24,523.7,24.4,523.7,24.9z"/>
		<path d="M539.8,27v0.8h-7.8V27h2.7V16.9h-2.3v-0.5l2.3-0.3l1-0.6h0.5v3.9h0.1l0.1-0.3c0.3-1,0.8-1.9,1.5-2.5c0.7-0.7,1.4-1,2.3-1
			c0.6,0,1,0.1,1.4,0.4c0.4,0.3,0.6,0.6,0.6,1.1c0,0.3-0.1,0.5-0.2,0.7c-0.1,0.2-0.4,0.3-0.7,0.3c-0.4,0-0.6-0.1-0.8-0.4
			c-0.2-0.2-0.3-0.5-0.4-0.7l-0.3-0.6c-0.5,0-1,0.2-1.4,0.6s-0.7,0.9-1,1.5c-0.3,0.6-0.6,1.3-0.8,2l-0.3,1V27H539.8z"/>
		<path d="M543.6,27.7V27h4.2V16.9h-3.1v-0.5l3.1-0.3l1-0.6h0.5V27h4.2v0.8H543.6z M548.6,13.8c-0.3,0-0.6-0.1-0.9-0.4
			s-0.4-0.5-0.4-0.9s0.1-0.6,0.4-0.9s0.5-0.4,0.9-0.4s0.6,0.1,0.9,0.4s0.4,0.5,0.4,0.9s-0.1,0.6-0.4,0.9S548.9,13.8,548.6,13.8z"/>
	</g>
</g>
</svg>
