<?xml version="1.0" encoding="utf-8"?>
<!-- Generator: Adobe Illustrator 26.3.1, SVG Export Plug-In . SVG Version: 6.00 Build 0)  -->
<svg version="1.1" id="Capa_1" xmlns="http://www.w3.org/2000/svg" xmlns:xlink="http://www.w3.org/1999/xlink" x="0px" y="0px"
	 viewBox="0 0 464.2 37.5" style="enable-background:new 0 0 464.2 37.5;" xml:space="preserve">
<style type="text/css">
	.st0{fill:#FFFFFF;}
	.st1{fill:#212121;}
</style>
<g>
	<g>
		<rect x="0.7" y="0.7" class="st0" width="462.7" height="36"/>
		<path class="st1" d="M464.2,37.5H0V0h464.2V37.5z M1.5,36h461.2V1.5H1.5V36z"/>
	</g>
	<g>
		<path d="M23.1,27.5v-0.7h3.1V11.8h-1.3c-1.1,0-1.7,0.5-1.8,1.6l-0.3,2.4h-0.6v-5h0.4l0.7,0.2h7.6l0.7-0.2h0.4v5h-0.6l-0.3-2.4
			c-0.1-1.1-0.7-1.6-1.8-1.6h-1.3v14.9h3.1v0.7H23.1z"/>
		<path d="M32.9,27.5v-0.8h1.9V12.2h-2.3v-0.5l2.3-0.3l1-0.6h0.5v6.2h0.1c0.1-0.3,0.3-0.5,0.6-0.8s0.6-0.5,1-0.7
			c0.4-0.2,0.8-0.3,1.3-0.3c0.7,0,1.3,0.2,1.7,0.7c0.4,0.5,0.6,1.1,0.6,2v8.8h1.9v0.8H40v-9.4c0-1.2-0.5-1.8-1.6-1.8
			c-0.4,0-0.8,0.1-1.1,0.3c-0.3,0.2-0.5,0.4-0.7,0.7c-0.2,0.3-0.3,0.6-0.4,0.8v8.6h1.3v0h0.9v0.7H32.9z"/>
		<path d="M49.7,27.7c-0.9,0-1.7-0.3-2.4-0.8s-1.3-1.2-1.7-2.1c-0.4-0.9-0.6-2-0.6-3.2c0-0.8,0.1-1.6,0.3-2.3c0.2-0.7,0.5-1.4,0.9-2
			c0.4-0.6,0.9-1.1,1.5-1.4s1.3-0.5,2.1-0.5c1.2,0,2.1,0.4,2.8,1.2s1.1,1.9,1.1,3.3c0,0.2,0,0.4,0,0.5c0,0.2,0,0.3,0,0.4h-6.9v1.9
			c0,0.9,0.2,1.7,0.5,2.3s0.8,1.1,1.3,1.4s1.1,0.5,1.7,0.5c0.6,0,1-0.1,1.4-0.4c0.4-0.2,0.7-0.5,1-0.9c0.2-0.3,0.4-0.7,0.5-1
			l0.5,0.2c-0.1,0.4-0.3,0.9-0.6,1.3c-0.3,0.5-0.7,0.9-1.2,1.2S50.5,27.7,49.7,27.7z M49.6,16c-0.6,0-1.1,0.2-1.6,0.5
			c-0.4,0.4-0.8,0.9-1,1.5c-0.2,0.6-0.4,1.3-0.4,2.1h4.4c0.2,0,0.3,0,0.5-0.1s0.3-0.1,0.4-0.3c0.1-0.2,0.2-0.5,0.2-0.9
			c0-0.9-0.2-1.6-0.7-2.1C50.9,16.2,50.3,16,49.6,16z"/>
		<path d="M68,27.5V12.2h-2.3v-0.5l2.3-0.3l1-0.6h0.5v6.3h0.1c0.1-0.3,0.3-0.6,0.6-0.9c0.3-0.3,0.6-0.5,0.9-0.7
			c0.4-0.2,0.8-0.3,1.3-0.3c0.7,0,1.4,0.2,1.9,0.7c0.5,0.5,0.9,1.2,1.1,2.1c0.3,0.9,0.4,1.9,0.4,3c0,1.2-0.2,2.4-0.5,3.4
			c-0.3,1-0.8,1.8-1.4,2.4c-0.6,0.6-1.3,0.9-2.2,0.9c-0.5,0-1-0.1-1.4-0.3c-0.4-0.2-0.7-0.5-0.9-0.8c-0.2-0.3-0.4-0.6-0.5-0.9h-0.2
			v1.9H68z M71.7,27c0.7,0,1.2-0.3,1.7-0.8s0.6-1.3,0.6-2.3v-5.3c0-0.9-0.2-1.5-0.7-1.9c-0.4-0.4-0.9-0.6-1.5-0.6
			c-0.5,0-0.9,0.1-1.3,0.4c-0.3,0.3-0.6,0.6-0.8,0.9s-0.3,0.7-0.3,1.1v5.4c0,1.1,0.2,1.9,0.6,2.4C70.6,26.7,71.1,27,71.7,27z"/>
		<path d="M84.8,26.7v0.8H77v-0.8h2.7V16.6h-2.3v-0.5l2.3-0.3l1-0.6h0.5v3.9h0.1l0.1-0.3c0.3-1,0.8-1.9,1.5-2.5c0.7-0.7,1.4-1,2.3-1
			c0.6,0,1,0.1,1.4,0.4c0.4,0.3,0.6,0.6,0.6,1.1c0,0.3-0.1,0.5-0.2,0.7c-0.1,0.2-0.4,0.3-0.7,0.3c-0.4,0-0.6-0.1-0.8-0.4
			c-0.2-0.2-0.3-0.5-0.4-0.7L84.7,16c-0.5,0-1,0.2-1.4,0.6s-0.7,0.9-1,1.5c-0.3,0.6-0.6,1.3-0.8,2l-0.3,1v5.7H84.8z"/>
		<path d="M88.6,27.5v-0.8h4.2V16.6h-3.1v-0.5l3.1-0.3l1-0.6h0.5v11.4h4.2v0.8H88.6z M93.5,13.5c-0.3,0-0.6-0.1-0.9-0.4
			s-0.4-0.5-0.4-0.9s0.1-0.6,0.4-0.9s0.5-0.4,0.9-0.4s0.6,0.1,0.9,0.4s0.4,0.5,0.4,0.9s-0.1,0.6-0.4,0.9S93.9,13.5,93.5,13.5z"/>
		<path d="M103.4,27.7c-0.8,0-1.4-0.2-1.9-0.7c-0.5-0.5-0.9-1.2-1.1-2c-0.2-0.8-0.4-1.8-0.4-2.8c0-1.3,0.2-2.4,0.5-3.5
			c0.3-1,0.8-1.9,1.4-2.5c0.6-0.6,1.4-0.9,2.3-0.9c0.5,0,0.9,0.1,1.3,0.3c0.3,0.2,0.6,0.4,0.8,0.7v-4.1H104v-0.5l2.3-0.3l1-0.6h0.5
			v15.5h1.6v0.5l-1.6,0.3l-1,0.6h-0.5v-1.9h-0.1c-0.1,0.3-0.3,0.5-0.5,0.8c-0.3,0.3-0.6,0.5-0.9,0.7
			C104.3,27.6,103.9,27.7,103.4,27.7z M103.9,26.8c0.5,0,0.9-0.1,1.3-0.4c0.3-0.3,0.6-0.6,0.8-0.9c0.2-0.4,0.3-0.7,0.3-1.1V19
			c0-1.1-0.2-1.9-0.6-2.4s-1-0.7-1.6-0.7c-0.7,0-1.2,0.3-1.7,0.8c-0.4,0.5-0.6,1.3-0.6,2.3v5.3c0,0.9,0.2,1.5,0.7,1.9
			C102.8,26.6,103.3,26.8,103.9,26.8z"/>
		<path d="M115.3,31.7c-1.4,0-2.4-0.3-3.2-0.8c-0.8-0.6-1.2-1.3-1.2-2.1c0-0.5,0.1-1,0.4-1.3c0.2-0.4,0.5-0.6,0.9-0.9s0.7-0.4,1-0.4
			V26c-0.7-0.1-1.3-0.3-1.7-0.6s-0.6-0.8-0.6-1.3c0-0.5,0.1-0.8,0.3-1.1c0.2-0.3,0.5-0.6,0.8-0.7c0.3-0.2,0.5-0.3,0.7-0.5l0.2-0.1
			c-0.4-0.4-0.6-0.8-0.8-1.3s-0.3-1-0.3-1.5c0-0.6,0.1-1.2,0.4-1.8s0.7-1,1.2-1.4c0.5-0.4,1.2-0.6,2.1-0.6c0.5,0,1,0.1,1.4,0.2h3.3
			v0.7h-2.2c0.4,0.4,0.7,0.8,0.9,1.3c0.2,0.5,0.3,1,0.3,1.5c0,0.6-0.1,1.2-0.4,1.7c-0.3,0.6-0.7,1-1.2,1.4c-0.5,0.4-1.2,0.6-2.1,0.6
			c-0.5,0-0.9-0.1-1.3-0.2c-0.4-0.1-0.7-0.3-1-0.5l-0.3,0.2c-0.2,0.1-0.5,0.3-0.7,0.5c-0.2,0.2-0.4,0.5-0.4,0.8
			c0,0.3,0.1,0.5,0.4,0.7c0.2,0.2,0.5,0.3,0.8,0.3s0.6,0.1,0.7,0.1l2.8,0.2c1,0.1,1.8,0.4,2.4,0.9c0.7,0.6,1,1.3,1,2.3
			c0,0.7-0.2,1.4-0.6,1.9c-0.4,0.6-1,1-1.7,1.3S116.3,31.7,115.3,31.7z M115.5,30.9c1,0,1.8-0.2,2.5-0.7c0.7-0.5,1-1.1,1-1.9
			c0-0.5-0.2-1-0.5-1.3s-0.7-0.5-1.1-0.6c-0.4-0.1-0.8-0.2-1.2-0.2l-2.1-0.2c-0.2,0-0.4,0.1-0.7,0.3c-0.3,0.2-0.6,0.4-0.9,0.7
			c-0.3,0.3-0.4,0.8-0.4,1.3c0,0.8,0.3,1.4,0.9,1.8S114.6,30.9,115.5,30.9z M115.7,22.1c0.8,0,1.3-0.3,1.7-0.8
			c0.3-0.5,0.5-1.1,0.5-1.9v-0.9c0-0.7-0.2-1.4-0.5-1.9c-0.3-0.5-0.9-0.8-1.7-0.8s-1.3,0.3-1.7,0.8c-0.3,0.5-0.5,1.1-0.5,1.9v0.9
			c0,0.7,0.2,1.4,0.5,1.9C114.4,21.8,114.9,22.1,115.7,22.1z"/>
		<path d="M127.3,27.7c-0.9,0-1.7-0.3-2.4-0.8s-1.3-1.2-1.7-2.1c-0.4-0.9-0.6-2-0.6-3.2c0-0.8,0.1-1.6,0.3-2.3
			c0.2-0.7,0.5-1.4,0.9-2c0.4-0.6,0.9-1.1,1.5-1.4s1.3-0.5,2.1-0.5c1.2,0,2.1,0.4,2.8,1.2s1.1,1.9,1.1,3.3c0,0.2,0,0.4,0,0.5
			c0,0.2,0,0.3,0,0.4h-6.9v1.9c0,0.9,0.2,1.7,0.5,2.3s0.8,1.1,1.3,1.4s1.1,0.5,1.7,0.5c0.6,0,1-0.1,1.4-0.4c0.4-0.2,0.7-0.5,1-0.9
			c0.2-0.3,0.4-0.7,0.5-1l0.5,0.2c-0.1,0.4-0.3,0.9-0.6,1.3c-0.3,0.5-0.7,0.9-1.2,1.2S128.1,27.7,127.3,27.7z M127.2,16
			c-0.6,0-1.1,0.2-1.6,0.5c-0.4,0.4-0.8,0.9-1,1.5c-0.2,0.6-0.4,1.3-0.4,2.1h4.4c0.2,0,0.3,0,0.5-0.1s0.3-0.1,0.4-0.3
			c0.1-0.2,0.2-0.5,0.2-0.9c0-0.9-0.2-1.6-0.7-2.1C128.5,16.2,127.9,16,127.2,16z"/>
		<path d="M147.5,27.7c-0.8,0-1.5-0.2-1.9-0.7c-0.5-0.5-0.7-1.1-0.7-1.8c0-0.7,0.2-1.2,0.5-1.7c0.3-0.4,0.8-0.8,1.3-1.1
			c0.5-0.3,1-0.6,1.5-0.8l2.3-1v-2.2c0-0.7-0.2-1.3-0.7-1.7c-0.5-0.4-1-0.6-1.7-0.6c-0.6,0-1.2,0.2-1.6,0.5
			c-0.4,0.3-0.7,0.6-0.9,0.9c0.3,0.4,0.6,0.6,0.8,0.8s0.3,0.5,0.3,0.7c0,0.3-0.1,0.5-0.3,0.7s-0.4,0.3-0.8,0.3
			c-0.3,0-0.6-0.1-0.8-0.3c-0.2-0.2-0.3-0.5-0.3-0.9c0-0.3,0.1-0.7,0.3-1.1s0.4-0.8,0.8-1.2c0.3-0.4,0.8-0.7,1.3-0.9
			c0.5-0.2,1.2-0.4,1.9-0.4c0.8,0,1.4,0.2,1.9,0.5c0.5,0.3,0.8,0.7,1,1.2c0.2,0.5,0.3,1,0.3,1.5v7.2c0,0.6,0.2,0.9,0.6,0.9
			c0.3,0,0.5-0.1,0.7-0.3c0.2-0.2,0.3-0.5,0.3-0.7l0.4,0.1c0,0.3-0.1,0.6-0.3,0.9c-0.2,0.3-0.4,0.6-0.7,0.8s-0.6,0.3-1,0.3
			c-0.4,0-0.8-0.1-1.1-0.4c-0.3-0.3-0.5-0.8-0.5-1.4c-0.1,0.3-0.3,0.5-0.6,0.8c-0.3,0.3-0.6,0.5-1,0.7
			C148.4,27.6,148,27.7,147.5,27.7z M146.2,24.6c0,0.6,0.2,1.1,0.5,1.5s0.8,0.6,1.4,0.6c0.4,0,0.7-0.1,1-0.3
			c0.3-0.2,0.6-0.4,0.8-0.6c0.2-0.2,0.3-0.5,0.4-0.7v-4.1l-2.1,1c-0.3,0.2-0.7,0.3-1,0.5c-0.3,0.2-0.6,0.4-0.8,0.7
			C146.3,23.7,146.2,24.1,146.2,24.6z"/>
		<path d="M154.8,27.5v-0.6l1.9-0.2v-10h-2.3v-0.5l2.3-0.3l1-0.6h0.5v1.8h0.1c0.1-0.3,0.3-0.5,0.6-0.8s0.6-0.5,1-0.7
			c0.4-0.2,0.8-0.3,1.3-0.3c0.7,0,1.3,0.2,1.7,0.7c0.4,0.5,0.6,1.1,0.6,2v8.8h1.9v0.8h-3.4v-9.4c0-1.2-0.5-1.8-1.6-1.8
			c-0.4,0-0.8,0.1-1.1,0.3c-0.3,0.2-0.5,0.4-0.7,0.7c-0.2,0.3-0.3,0.6-0.4,0.8v8.5l2.2,0.2v0.6H154.8z"/>
		<path d="M169.9,27.7c-0.8,0-1.4-0.2-1.9-0.7c-0.5-0.5-0.9-1.2-1.1-2c-0.2-0.8-0.4-1.8-0.4-2.8c0-1.3,0.2-2.4,0.5-3.5
			c0.3-1,0.8-1.9,1.4-2.5c0.6-0.6,1.4-0.9,2.3-0.9c0.5,0,0.9,0.1,1.3,0.3c0.3,0.2,0.6,0.4,0.8,0.7v-4.1h-2.3v-0.5l2.3-0.3l1-0.6h0.5
			v15.5h1.6v0.5l-1.6,0.3l-1,0.6h-0.5v-1.9h-0.1c-0.1,0.3-0.3,0.5-0.5,0.8c-0.3,0.3-0.6,0.5-0.9,0.7
			C170.8,27.6,170.4,27.7,169.9,27.7z M170.4,26.8c0.5,0,0.9-0.1,1.3-0.4c0.3-0.3,0.6-0.6,0.8-0.9c0.2-0.4,0.3-0.7,0.3-1.1V19
			c0-1.1-0.2-1.9-0.6-2.4s-1-0.7-1.6-0.7c-0.7,0-1.2,0.3-1.7,0.8c-0.4,0.5-0.6,1.3-0.6,2.3v5.3c0,0.9,0.2,1.5,0.7,1.9
			C169.4,26.6,169.9,26.8,170.4,26.8z"/>
		<path d="M194.3,27.7c-1.1,0-2-0.3-2.6-1c-0.7-0.7-1-1.7-1-3v-7.5h-2.5v-0.7h2.5l1-2.4h0.5v2.4h5.8v0.7h-5.8v7.4
			c0,1,0.2,1.8,0.6,2.4c0.4,0.6,1,0.8,1.8,0.8c0.7,0,1.2-0.2,1.6-0.5c0.4-0.3,0.7-0.7,0.8-1.2c0.2-0.5,0.3-1.1,0.3-1.7v-0.6h0.7v0.6
			c0,0.4-0.1,0.9-0.2,1.4c-0.1,0.5-0.3,1-0.5,1.4c-0.3,0.4-0.6,0.8-1.1,1.1C195.7,27.5,195.1,27.7,194.3,27.7z"/>
		<path d="M199.1,27.5v-0.8h1.9V12.2h-2.3v-0.5l2.3-0.3l1-0.6h0.5v6.2h0.1c0.1-0.3,0.3-0.5,0.6-0.8s0.6-0.5,1-0.7
			c0.4-0.2,0.8-0.3,1.3-0.3c0.7,0,1.3,0.2,1.7,0.7c0.4,0.5,0.6,1.1,0.6,2v8.8h1.9v0.8h-3.4v-9.4c0-1.2-0.5-1.8-1.6-1.8
			c-0.4,0-0.8,0.1-1.1,0.3c-0.3,0.2-0.5,0.4-0.7,0.7c-0.2,0.3-0.3,0.6-0.4,0.8v8.6h1.3v0h0.9v0.7H199.1z"/>
		<path d="M216,27.7c-0.9,0-1.7-0.3-2.4-0.8s-1.3-1.2-1.7-2.1c-0.4-0.9-0.6-2-0.6-3.2c0-0.8,0.1-1.6,0.3-2.3c0.2-0.7,0.5-1.4,0.9-2
			c0.4-0.6,0.9-1.1,1.5-1.4s1.3-0.5,2.1-0.5c1.2,0,2.1,0.4,2.8,1.2s1.1,1.9,1.1,3.3c0,0.2,0,0.4,0,0.5c0,0.2,0,0.3,0,0.4h-6.9v1.9
			c0,0.9,0.2,1.7,0.5,2.3s0.8,1.1,1.3,1.4s1.1,0.5,1.7,0.5c0.6,0,1-0.1,1.4-0.4c0.4-0.2,0.7-0.5,1-0.9c0.2-0.3,0.4-0.7,0.5-1
			l0.5,0.2c-0.1,0.4-0.3,0.9-0.6,1.3c-0.3,0.5-0.7,0.9-1.2,1.2S216.7,27.7,216,27.7z M215.9,16c-0.6,0-1.1,0.2-1.6,0.5
			c-0.4,0.4-0.8,0.9-1,1.5c-0.2,0.6-0.4,1.3-0.4,2.1h4.4c0.2,0,0.3,0,0.5-0.1s0.3-0.1,0.4-0.3c0.1-0.2,0.2-0.5,0.2-0.9
			c0-0.9-0.2-1.6-0.7-2.1C217.2,16.2,216.6,16,215.9,16z"/>
		<path d="M236.5,27.7c-0.8,0-1.4-0.2-1.9-0.7c-0.5-0.5-0.9-1.2-1.1-2c-0.2-0.8-0.4-1.8-0.4-2.8c0-1.3,0.2-2.4,0.5-3.5
			c0.3-1,0.8-1.9,1.4-2.5c0.6-0.6,1.4-0.9,2.3-0.9c0.5,0,0.9,0.1,1.3,0.3c0.3,0.2,0.6,0.4,0.8,0.7v-4.1H237v-0.5l2.3-0.3l1-0.6h0.5
			v15.5h1.6v0.5l-1.6,0.3l-1,0.6h-0.5v-1.9h-0.1c-0.1,0.3-0.3,0.5-0.5,0.8c-0.3,0.3-0.6,0.5-0.9,0.7
			C237.4,27.6,236.9,27.7,236.5,27.7z M236.9,26.8c0.5,0,0.9-0.1,1.3-0.4c0.3-0.3,0.6-0.6,0.8-0.9c0.2-0.4,0.3-0.7,0.3-1.1V19
			c0-1.1-0.2-1.9-0.6-2.4s-1-0.7-1.6-0.7c-0.7,0-1.2,0.3-1.7,0.8c-0.4,0.5-0.6,1.3-0.6,2.3v5.3c0,0.9,0.2,1.5,0.7,1.9
			C235.9,26.6,236.4,26.8,236.9,26.8z"/>
		<path d="M248.7,27.7c-0.7,0-1.4-0.2-1.9-0.5c-0.5-0.3-1-0.8-1.4-1.4s-0.6-1.3-0.8-2c-0.2-0.7-0.3-1.5-0.3-2.3
			c0-0.8,0.1-1.5,0.3-2.3c0.2-0.7,0.4-1.4,0.8-2s0.8-1.1,1.4-1.4c0.5-0.3,1.2-0.5,1.9-0.5c0.7,0,1.4,0.2,1.9,0.5
			c0.5,0.3,1,0.8,1.4,1.4c0.4,0.6,0.6,1.3,0.8,2c0.2,0.7,0.3,1.5,0.3,2.3c0,0.8-0.1,1.5-0.3,2.3c-0.2,0.7-0.4,1.4-0.8,2
			c-0.4,0.6-0.8,1.1-1.4,1.4C250.1,27.5,249.5,27.7,248.7,27.7z M248.7,27c0.9,0,1.6-0.4,2.1-1.2c0.5-0.8,0.7-1.9,0.7-3.2v-2.2
			c0-1.4-0.2-2.4-0.7-3.2c-0.5-0.8-1.2-1.2-2.1-1.2c-0.9,0-1.6,0.4-2.1,1.2c-0.5,0.8-0.7,1.9-0.7,3.2v2.2c0,1.4,0.2,2.4,0.7,3.2
			C247.1,26.6,247.8,27,248.7,27z"/>
		<path d="M259.8,27.7c-0.7,0-1.4-0.2-1.9-0.5c-0.5-0.3-1-0.8-1.4-1.4s-0.6-1.3-0.8-2c-0.2-0.7-0.3-1.5-0.3-2.3
			c0-0.8,0.1-1.5,0.3-2.3c0.2-0.7,0.4-1.4,0.8-2s0.8-1.1,1.4-1.4c0.5-0.3,1.2-0.5,1.9-0.5c0.7,0,1.4,0.2,1.9,0.5
			c0.5,0.3,1,0.8,1.4,1.4c0.4,0.6,0.6,1.3,0.8,2c0.2,0.7,0.3,1.5,0.3,2.3c0,0.8-0.1,1.5-0.3,2.3c-0.2,0.7-0.4,1.4-0.8,2
			c-0.4,0.6-0.8,1.1-1.4,1.4C261.2,27.5,260.5,27.7,259.8,27.7z M259.8,27c0.9,0,1.6-0.4,2.1-1.2c0.5-0.8,0.7-1.9,0.7-3.2v-2.2
			c0-1.4-0.2-2.4-0.7-3.2c-0.5-0.8-1.2-1.2-2.1-1.2c-0.9,0-1.6,0.4-2.1,1.2c-0.5,0.8-0.7,1.9-0.7,3.2v2.2c0,1.4,0.2,2.4,0.7,3.2
			C258.2,26.6,258.9,27,259.8,27z"/>
		<path d="M273.2,26.7v0.8h-7.8v-0.8h2.7V16.6h-2.3v-0.5l2.3-0.3l1-0.6h0.5v3.9h0.1l0.1-0.3c0.3-1,0.8-1.9,1.5-2.5
			c0.7-0.7,1.4-1,2.3-1c0.6,0,1,0.1,1.4,0.4c0.4,0.3,0.6,0.6,0.6,1.1c0,0.3-0.1,0.5-0.2,0.7c-0.1,0.2-0.4,0.3-0.7,0.3
			c-0.4,0-0.6-0.1-0.8-0.4c-0.2-0.2-0.3-0.5-0.4-0.7l-0.3-0.6c-0.5,0-1,0.2-1.4,0.6s-0.7,0.9-1,1.5c-0.3,0.6-0.6,1.3-0.8,2l-0.3,1
			v5.7H273.2z"/>
		<path d="M281.1,29.7l-0.3-0.4c0.3-0.2,0.6-0.5,0.9-0.8c0.3-0.3,0.5-0.6,0.5-0.8c-0.4,0-0.7-0.1-0.9-0.3c-0.3-0.2-0.4-0.5-0.4-0.9
			c0-0.4,0.1-0.7,0.4-0.9s0.5-0.3,0.9-0.3c0.3,0,0.6,0.1,0.9,0.3c0.2,0.2,0.4,0.6,0.4,1c0,0.4-0.1,0.9-0.4,1.3
			c-0.2,0.4-0.5,0.8-0.9,1.1C281.7,29.3,281.4,29.5,281.1,29.7z M282.1,18.2c-0.3,0-0.6-0.1-0.9-0.4s-0.4-0.5-0.4-0.9
			c0-0.3,0.1-0.6,0.4-0.9s0.5-0.4,0.9-0.4s0.6,0.1,0.9,0.4c0.2,0.2,0.4,0.5,0.4,0.9c0,0.3-0.1,0.6-0.4,0.9
			C282.7,18.1,282.4,18.2,282.1,18.2z"/>
		<path d="M304.1,27.7c-0.7,0-1.3-0.2-1.8-0.6c-0.5-0.4-1-1-1.4-1.8s-0.7-1.7-0.9-2.7c-0.2-1-0.3-2.1-0.3-3.3c0-1.1,0.1-2.1,0.3-3.1
			c0.2-1,0.5-1.9,0.9-2.7c0.4-0.8,0.9-1.5,1.4-1.9c0.6-0.5,1.3-0.7,2-0.7c0.5,0,1,0.1,1.4,0.4s0.7,0.5,1,0.9s0.4,0.7,0.5,1h0.2v-2
			h0.7v5.6h-1.2v-0.5c0-1.1-0.1-2-0.4-2.7c-0.3-0.6-0.6-1.1-1-1.4c-0.4-0.3-0.9-0.4-1.3-0.4c-0.8,0-1.5,0.3-1.9,1
			c-0.5,0.7-0.7,1.7-0.7,2.9v7.3c0,1.3,0.2,2.2,0.7,2.9s1.1,1,1.8,1c0.6,0,1.1-0.2,1.5-0.6c0.4-0.4,0.6-0.9,0.8-1.6
			c0.2-0.6,0.3-1.3,0.4-2c0.1-0.7,0.1-1.4,0.1-2v-1.4h-3.7v-0.8h4.9v9h-0.8v-2.7h-0.2c-0.1,0.4-0.2,0.8-0.5,1.3
			c-0.2,0.4-0.6,0.8-1,1.1C305.2,27.5,304.7,27.7,304.1,27.7z"/>
		<path d="M315.8,27.7c-0.9,0-1.7-0.3-2.4-0.8s-1.3-1.2-1.7-2.1c-0.4-0.9-0.6-2-0.6-3.2c0-0.8,0.1-1.6,0.3-2.3
			c0.2-0.7,0.5-1.4,0.9-2c0.4-0.6,0.9-1.1,1.5-1.4s1.3-0.5,2.1-0.5c1.2,0,2.1,0.4,2.8,1.2s1.1,1.9,1.1,3.3c0,0.2,0,0.4,0,0.5
			c0,0.2,0,0.3,0,0.4h-6.9v1.9c0,0.9,0.2,1.7,0.5,2.3s0.8,1.1,1.3,1.4s1.1,0.5,1.7,0.5c0.6,0,1-0.1,1.4-0.4c0.4-0.2,0.7-0.5,1-0.9
			c0.2-0.3,0.4-0.7,0.5-1l0.5,0.2c-0.1,0.4-0.3,0.9-0.6,1.3c-0.3,0.5-0.7,0.9-1.2,1.2S316.5,27.7,315.8,27.7z M315.7,16
			c-0.6,0-1.1,0.2-1.6,0.5c-0.4,0.4-0.8,0.9-1,1.5c-0.2,0.6-0.4,1.3-0.4,2.1h4.4c0.2,0,0.3,0,0.5-0.1s0.3-0.1,0.4-0.3
			c0.1-0.2,0.2-0.5,0.2-0.9c0-0.9-0.2-1.6-0.7-2.1C317,16.2,316.4,16,315.7,16z"/>
		<path d="M326.3,27.7c-0.7,0-1.4-0.2-1.9-0.5c-0.5-0.3-1-0.8-1.4-1.4s-0.6-1.3-0.8-2c-0.2-0.7-0.3-1.5-0.3-2.3
			c0-0.8,0.1-1.5,0.3-2.3c0.2-0.7,0.4-1.4,0.8-2s0.8-1.1,1.4-1.4c0.5-0.3,1.2-0.5,1.9-0.5c0.7,0,1.4,0.2,1.9,0.5
			c0.5,0.3,1,0.8,1.4,1.4c0.4,0.6,0.6,1.3,0.8,2c0.2,0.7,0.3,1.5,0.3,2.3c0,0.8-0.1,1.5-0.3,2.3c-0.2,0.7-0.4,1.4-0.8,2
			c-0.4,0.6-0.8,1.1-1.4,1.4C327.7,27.5,327.1,27.7,326.3,27.7z M326.3,27c0.9,0,1.6-0.4,2.1-1.2c0.5-0.8,0.7-1.9,0.7-3.2v-2.2
			c0-1.4-0.2-2.4-0.7-3.2c-0.5-0.8-1.2-1.2-2.1-1.2c-0.9,0-1.6,0.4-2.1,1.2c-0.5,0.8-0.7,1.9-0.7,3.2v2.2c0,1.4,0.2,2.4,0.7,3.2
			C324.7,26.6,325.4,27,326.3,27z"/>
		<path d="M339.7,26.7v0.8H332v-0.8h2.7V16.6h-2.3v-0.5l2.3-0.3l1-0.6h0.5v3.9h0.1l0.1-0.3c0.3-1,0.8-1.9,1.5-2.5
			c0.7-0.7,1.4-1,2.3-1c0.6,0,1,0.1,1.4,0.4c0.4,0.3,0.6,0.6,0.6,1.1c0,0.3-0.1,0.5-0.2,0.7c-0.1,0.2-0.4,0.3-0.7,0.3
			c-0.4,0-0.6-0.1-0.8-0.4c-0.2-0.2-0.3-0.5-0.4-0.7l-0.3-0.6c-0.5,0-1,0.2-1.4,0.6s-0.7,0.9-1,1.5c-0.3,0.6-0.6,1.3-0.8,2l-0.3,1
			v5.7H339.7z"/>
		<path d="M348.1,31.7c-1.4,0-2.4-0.3-3.2-0.8c-0.8-0.6-1.2-1.3-1.2-2.1c0-0.5,0.1-1,0.4-1.3c0.2-0.4,0.5-0.6,0.9-0.9s0.7-0.4,1-0.4
			V26c-0.7-0.1-1.3-0.3-1.7-0.6s-0.6-0.8-0.6-1.3c0-0.5,0.1-0.8,0.3-1.1c0.2-0.3,0.5-0.6,0.8-0.7c0.3-0.2,0.5-0.3,0.7-0.5l0.2-0.1
			c-0.4-0.4-0.6-0.8-0.8-1.3s-0.3-1-0.3-1.5c0-0.6,0.1-1.2,0.4-1.8s0.7-1,1.2-1.4c0.5-0.4,1.2-0.6,2.1-0.6c0.5,0,1,0.1,1.4,0.2h3.3
			v0.7h-2.2c0.4,0.4,0.7,0.8,0.9,1.3c0.2,0.5,0.3,1,0.3,1.5c0,0.6-0.1,1.2-0.4,1.7c-0.3,0.6-0.7,1-1.2,1.4c-0.5,0.4-1.2,0.6-2.1,0.6
			c-0.5,0-0.9-0.1-1.3-0.2c-0.4-0.1-0.7-0.3-1-0.5l-0.3,0.2c-0.2,0.1-0.5,0.3-0.7,0.5c-0.2,0.2-0.4,0.5-0.4,0.8
			c0,0.3,0.1,0.5,0.4,0.7c0.2,0.2,0.5,0.3,0.8,0.3s0.6,0.1,0.7,0.1l2.8,0.2c1,0.1,1.8,0.4,2.4,0.9c0.7,0.6,1,1.3,1,2.3
			c0,0.7-0.2,1.4-0.6,1.9c-0.4,0.6-1,1-1.7,1.3S349.1,31.7,348.1,31.7z M348.3,30.9c1,0,1.8-0.2,2.5-0.7c0.7-0.5,1-1.1,1-1.9
			c0-0.5-0.2-1-0.5-1.3s-0.7-0.5-1.1-0.6c-0.4-0.1-0.8-0.2-1.2-0.2l-2.1-0.2c-0.2,0-0.4,0.1-0.7,0.3c-0.3,0.2-0.6,0.4-0.9,0.7
			c-0.3,0.3-0.4,0.8-0.4,1.3c0,0.8,0.3,1.4,0.9,1.8S347.3,30.9,348.3,30.9z M348.5,22.1c0.8,0,1.3-0.3,1.7-0.8
			c0.3-0.5,0.5-1.1,0.5-1.9v-0.9c0-0.7-0.2-1.4-0.5-1.9c-0.3-0.5-0.9-0.8-1.7-0.8s-1.3,0.3-1.7,0.8c-0.3,0.5-0.5,1.1-0.5,1.9v0.9
			c0,0.7,0.2,1.4,0.5,1.9C347.2,21.8,347.7,22.1,348.5,22.1z"/>
		<path d="M360.1,27.7c-0.9,0-1.7-0.3-2.4-0.8s-1.3-1.2-1.7-2.1c-0.4-0.9-0.6-2-0.6-3.2c0-0.8,0.1-1.6,0.3-2.3
			c0.2-0.7,0.5-1.4,0.9-2c0.4-0.6,0.9-1.1,1.5-1.4s1.3-0.5,2.1-0.5c1.2,0,2.1,0.4,2.8,1.2s1.1,1.9,1.1,3.3c0,0.2,0,0.4,0,0.5
			c0,0.2,0,0.3,0,0.4H357v1.9c0,0.9,0.2,1.7,0.5,2.3s0.8,1.1,1.3,1.4s1.1,0.5,1.7,0.5c0.6,0,1-0.1,1.4-0.4c0.4-0.2,0.7-0.5,1-0.9
			c0.2-0.3,0.4-0.7,0.5-1l0.5,0.2c-0.1,0.4-0.3,0.9-0.6,1.3c-0.3,0.5-0.7,0.9-1.2,1.2S360.8,27.7,360.1,27.7z M360,16
			c-0.6,0-1.1,0.2-1.6,0.5c-0.4,0.4-0.8,0.9-1,1.5c-0.2,0.6-0.4,1.3-0.4,2.1h4.4c0.2,0,0.3,0,0.5-0.1s0.3-0.1,0.4-0.3
			c0.1-0.2,0.2-0.5,0.2-0.9c0-0.9-0.2-1.6-0.7-2.1C361.3,16.2,360.7,16,360,16z"/>
		<path d="M382.2,27.7c-0.6,0-1.2-0.1-1.6-0.4c-0.4-0.2-0.8-0.5-1-0.9c-0.3-0.3-0.5-0.7-0.6-1.1c-0.1-0.4-0.2-0.6-0.2-0.9h-0.2v2.9
			h-0.7v-6.5h1.2v0.9c0,0.3,0,0.6,0.1,1c0,0.4,0.1,0.9,0.2,1.4c0.1,0.5,0.3,0.9,0.5,1.3s0.5,0.8,0.9,1c0.4,0.3,0.9,0.4,1.5,0.4
			c0.7,0,1.3-0.2,1.7-0.7c0.4-0.4,0.7-1,0.7-1.8c0-0.7-0.2-1.3-0.5-1.9s-0.7-1.1-1.2-1.7c-0.5-0.5-1-1-1.5-1.6
			c-0.5-0.5-1.1-1-1.5-1.6c-0.5-0.5-0.9-1.1-1.2-1.7s-0.5-1.2-0.5-1.9c0-0.7,0.2-1.3,0.5-1.8s0.7-0.9,1.2-1.2
			c0.5-0.3,1.1-0.4,1.7-0.4c0.7,0,1.3,0.1,1.7,0.4c0.4,0.3,0.8,0.6,1,1s0.4,0.7,0.5,1h0.2v-2.2h0.7v5.5h-1.2v-0.7
			c0-0.8-0.1-1.5-0.3-2.2c-0.2-0.6-0.6-1.2-1-1.5c-0.4-0.4-0.9-0.6-1.5-0.6c-0.6,0-1.1,0.2-1.4,0.6c-0.3,0.4-0.5,0.9-0.5,1.5
			c0,0.6,0.2,1.2,0.5,1.7c0.3,0.5,0.7,1.1,1.2,1.6s1,1,1.5,1.5c0.5,0.5,1.1,1.1,1.5,1.6c0.5,0.6,0.9,1.1,1.2,1.8s0.5,1.3,0.5,2.1
			c0,0.8-0.2,1.4-0.5,2s-0.8,1-1.4,1.3S382.9,27.7,382.2,27.7z"/>
		<path d="M387.9,27.5v-0.8h4.2V16.6h-3.1v-0.5l3.1-0.3l1-0.6h0.5v11.4h4.2v0.8H387.9z M392.8,13.5c-0.3,0-0.6-0.1-0.9-0.4
			s-0.4-0.5-0.4-0.9s0.1-0.6,0.4-0.9s0.5-0.4,0.9-0.4s0.6,0.1,0.9,0.4s0.4,0.5,0.4,0.9s-0.1,0.6-0.4,0.9S393.2,13.5,392.8,13.5z"/>
		<path d="M398.9,27.5v-0.8h1V16.6h-1.2v-0.4l1.3-0.3l0.9-0.6h0.4v1.6h0.1c0.1-0.3,0.4-0.7,0.7-1s0.8-0.5,1.3-0.5
			c0.4,0,0.7,0.1,1,0.4c0.3,0.3,0.4,0.7,0.4,1.2h0.1c0.1-0.3,0.4-0.7,0.7-1s0.8-0.5,1.3-0.5c0.5,0,0.8,0.2,1.1,0.5
			c0.3,0.3,0.4,0.7,0.4,1.3v9.7h1.1v0.8h-2.5V17.1c0-0.6-0.2-0.8-0.7-0.8c-0.3,0-0.5,0.1-0.7,0.3c-0.2,0.2-0.3,0.4-0.4,0.7
			c-0.1,0.3-0.2,0.5-0.2,0.8v8.7h1.1v0.8h-2.5V17.1c0-0.6-0.3-0.8-0.8-0.8c-0.3,0-0.5,0.1-0.6,0.3c-0.2,0.2-0.3,0.4-0.4,0.7
			c-0.1,0.3-0.2,0.5-0.2,0.8v8.7h1.1v0.8H398.9z"/>
		<path d="M409.9,27.5v-0.8h1V16.6h-1.2v-0.4l1.3-0.3l0.9-0.6h0.4v1.6h0.1c0.1-0.3,0.4-0.7,0.7-1s0.8-0.5,1.3-0.5
			c0.4,0,0.7,0.1,1,0.4c0.3,0.3,0.4,0.7,0.4,1.2h0.1c0.1-0.3,0.4-0.7,0.7-1s0.8-0.5,1.3-0.5c0.5,0,0.8,0.2,1.1,0.5
			c0.3,0.3,0.4,0.7,0.4,1.3v9.7h1.1v0.8h-2.5V17.1c0-0.6-0.2-0.8-0.7-0.8c-0.3,0-0.5,0.1-0.7,0.3c-0.2,0.2-0.3,0.4-0.4,0.7
			c-0.1,0.3-0.2,0.5-0.2,0.8v8.7h1.1v0.8h-2.5V17.1c0-0.6-0.3-0.8-0.8-0.8c-0.3,0-0.5,0.1-0.6,0.3c-0.2,0.2-0.3,0.4-0.4,0.7
			c-0.1,0.3-0.2,0.5-0.2,0.8v8.7h1.1v0.8H409.9z"/>
		<path d="M426.6,27.7c-0.9,0-1.7-0.3-2.4-0.8s-1.3-1.2-1.7-2.1c-0.4-0.9-0.6-2-0.6-3.2c0-0.8,0.1-1.6,0.3-2.3
			c0.2-0.7,0.5-1.4,0.9-2c0.4-0.6,0.9-1.1,1.5-1.4s1.3-0.5,2.1-0.5c1.2,0,2.1,0.4,2.8,1.2s1.1,1.9,1.1,3.3c0,0.2,0,0.4,0,0.5
			c0,0.2,0,0.3,0,0.4h-6.9v1.9c0,0.9,0.2,1.7,0.5,2.3s0.8,1.1,1.3,1.4s1.1,0.5,1.7,0.5c0.6,0,1-0.1,1.4-0.4c0.4-0.2,0.7-0.5,1-0.9
			c0.2-0.3,0.4-0.7,0.5-1l0.5,0.2c-0.1,0.4-0.3,0.9-0.6,1.3c-0.3,0.5-0.7,0.9-1.2,1.2S427.3,27.7,426.6,27.7z M426.5,16
			c-0.6,0-1.1,0.2-1.6,0.5c-0.4,0.4-0.8,0.9-1,1.5c-0.2,0.6-0.4,1.3-0.4,2.1h4.4c0.2,0,0.3,0,0.5-0.1s0.3-0.1,0.4-0.3
			c0.1-0.2,0.2-0.5,0.2-0.9c0-0.9-0.2-1.6-0.7-2.1C427.8,16.2,427.2,16,426.5,16z"/>
		<path d="M432.2,27.5v-0.8h4.2V12.2h-3.1v-0.5l3.1-0.3l1-0.6h0.5v15.9h4.2v0.8H432.2z"/>
	</g>
</g>
</svg>
