<?xml version="1.0" encoding="utf-8"?>
<!-- Generator: Adobe Illustrator 26.3.1, SVG Export Plug-In . SVG Version: 6.00 Build 0)  -->
<svg version="1.1" id="Capa_1" xmlns="http://www.w3.org/2000/svg" xmlns:xlink="http://www.w3.org/1999/xlink" x="0px" y="0px"
	 viewBox="0 0 577.8 37.5" style="enable-background:new 0 0 577.8 37.5;" xml:space="preserve">
<style type="text/css">
	.st0{fill:#FFFFFF;}
	.st1{fill:#212121;}
</style>
<g>
	<g>
		<rect x="0.8" y="0.7" class="st0" width="576.3" height="36"/>
		<path class="st1" d="M577.8,37.5H0V0h577.8V37.5z M1.5,36h574.8V1.5H1.5V36z"/>
	</g>
	<g>
		<path d="M24.4,27.2v-0.7h3.1V11.6h-1.3c-1.1,0-1.7,0.5-1.8,1.6L24,15.6h-0.6v-5h0.4l0.7,0.2H32l0.7-0.2h0.4v5h-0.6l-0.3-2.4
			c-0.1-1.1-0.7-1.6-1.8-1.6H29v14.9h3.1v0.7H24.4z"/>
		<path d="M34.1,27.2v-0.8H36V12h-2.3v-0.5l2.3-0.3l1-0.6h0.5v6.2h0.1c0.1-0.3,0.3-0.5,0.6-0.8s0.6-0.5,1-0.7
			c0.4-0.2,0.8-0.3,1.3-0.3c0.7,0,1.3,0.2,1.7,0.7c0.4,0.5,0.6,1.1,0.6,2v8.8h1.9v0.8h-3.4v-9.4c0-1.2-0.5-1.8-1.6-1.8
			c-0.4,0-0.8,0.1-1.1,0.3c-0.3,0.2-0.5,0.4-0.7,0.7c-0.2,0.3-0.3,0.6-0.4,0.8v8.6h1.3v0h0.9v0.7H34.1z"/>
		<path d="M51,27.4c-0.9,0-1.7-0.3-2.4-0.8s-1.3-1.2-1.7-2.1c-0.4-0.9-0.6-2-0.6-3.2c0-0.8,0.1-1.6,0.3-2.3c0.2-0.7,0.5-1.4,0.9-2
			c0.4-0.6,0.9-1.1,1.5-1.4s1.3-0.5,2.1-0.5c1.2,0,2.1,0.4,2.8,1.2s1.1,1.9,1.1,3.3c0,0.2,0,0.4,0,0.5c0,0.2,0,0.3,0,0.4h-6.9v1.9
			c0,0.9,0.2,1.7,0.5,2.3s0.8,1.1,1.3,1.4s1.1,0.5,1.7,0.5c0.6,0,1-0.1,1.4-0.4c0.4-0.2,0.7-0.5,1-0.9c0.2-0.3,0.4-0.7,0.5-1
			l0.5,0.2c-0.1,0.4-0.3,0.9-0.6,1.3c-0.3,0.5-0.7,0.9-1.2,1.2S51.7,27.4,51,27.4z M50.9,15.7c-0.6,0-1.1,0.2-1.6,0.5
			c-0.4,0.4-0.8,0.9-1,1.5c-0.2,0.6-0.4,1.3-0.4,2.1h4.4c0.2,0,0.3,0,0.5-0.1s0.3-0.1,0.4-0.3c0.1-0.2,0.2-0.5,0.2-0.9
			c0-0.9-0.2-1.6-0.7-2.1C52.2,16,51.6,15.7,50.9,15.7z"/>
		<path d="M72.2,31.4c-1.4,0-2.4-0.3-3.2-0.8c-0.8-0.6-1.2-1.3-1.2-2.1c0-0.5,0.1-1,0.4-1.3c0.2-0.4,0.5-0.6,0.9-0.9s0.7-0.4,1-0.4
			v-0.1c-0.7-0.1-1.3-0.3-1.7-0.6S68,24.4,68,23.9c0-0.5,0.1-0.8,0.3-1.1c0.2-0.3,0.5-0.6,0.8-0.7c0.3-0.2,0.5-0.3,0.7-0.5l0.2-0.1
			c-0.4-0.4-0.6-0.8-0.8-1.3s-0.3-1-0.3-1.5c0-0.6,0.1-1.2,0.4-1.8s0.7-1,1.2-1.4c0.5-0.4,1.2-0.6,2.1-0.6c0.5,0,1,0.1,1.4,0.2h3.3
			v0.7h-2.2c0.4,0.4,0.7,0.8,0.9,1.3c0.2,0.5,0.3,1,0.3,1.5c0,0.6-0.1,1.2-0.4,1.7c-0.3,0.6-0.7,1-1.2,1.4c-0.5,0.4-1.2,0.6-2.1,0.6
			c-0.5,0-0.9-0.1-1.3-0.2c-0.4-0.1-0.7-0.3-1-0.5L70,21.9c-0.2,0.1-0.5,0.3-0.7,0.5c-0.2,0.2-0.4,0.5-0.4,0.8
			c0,0.3,0.1,0.5,0.4,0.7c0.2,0.2,0.5,0.3,0.8,0.3s0.6,0.1,0.7,0.1l2.8,0.2c1,0.1,1.8,0.4,2.4,0.9c0.7,0.6,1,1.3,1,2.3
			c0,0.7-0.2,1.4-0.6,1.9c-0.4,0.6-1,1-1.7,1.3S73.2,31.4,72.2,31.4z M72.4,30.6c1,0,1.8-0.2,2.5-0.7c0.7-0.5,1-1.1,1-1.9
			c0-0.5-0.2-1-0.5-1.3s-0.7-0.5-1.1-0.6c-0.4-0.1-0.8-0.2-1.2-0.2l-2.1-0.2c-0.2,0-0.4,0.1-0.7,0.3c-0.3,0.2-0.6,0.4-0.9,0.7
			c-0.3,0.3-0.4,0.8-0.4,1.3c0,0.8,0.3,1.4,0.9,1.8S71.5,30.6,72.4,30.6z M72.6,21.8c0.8,0,1.3-0.3,1.7-0.8c0.3-0.5,0.5-1.1,0.5-1.9
			v-0.9c0-0.7-0.2-1.4-0.5-1.9c-0.3-0.5-0.9-0.8-1.7-0.8s-1.3,0.3-1.7,0.8c-0.3,0.5-0.5,1.1-0.5,1.9v0.9c0,0.7,0.2,1.4,0.5,1.9
			C71.3,21.6,71.8,21.8,72.6,21.8z"/>
		<path d="M78.4,27.2v-0.8h1.9V12H78v-0.5l2.3-0.3l1-0.6h0.5v6.2h0.1c0.1-0.3,0.3-0.5,0.6-0.8s0.6-0.5,1-0.7
			c0.4-0.2,0.8-0.3,1.3-0.3c0.7,0,1.3,0.2,1.7,0.7c0.4,0.5,0.6,1.1,0.6,2v8.8h1.9v0.8h-3.4v-9.4c0-1.2-0.5-1.8-1.6-1.8
			c-0.4,0-0.8,0.1-1.1,0.3c-0.3,0.2-0.5,0.4-0.7,0.7c-0.2,0.3-0.3,0.6-0.4,0.8v8.6h1.3v0H84v0.7H78.4z"/>
		<path d="M94.8,27.4c-0.7,0-1.4-0.2-1.9-0.5c-0.5-0.3-1-0.8-1.4-1.4s-0.6-1.3-0.8-2c-0.2-0.7-0.3-1.5-0.3-2.3
			c0-0.8,0.1-1.5,0.3-2.3c0.2-0.7,0.4-1.4,0.8-2s0.8-1.1,1.4-1.4c0.5-0.3,1.2-0.5,1.9-0.5c0.7,0,1.4,0.2,1.9,0.5
			c0.5,0.3,1,0.8,1.4,1.4c0.4,0.6,0.6,1.3,0.8,2c0.2,0.7,0.3,1.5,0.3,2.3c0,0.8-0.1,1.5-0.3,2.3c-0.2,0.7-0.4,1.4-0.8,2
			c-0.4,0.6-0.8,1.1-1.4,1.4C96.1,27.3,95.5,27.4,94.8,27.4z M94.8,26.7c0.9,0,1.6-0.4,2.1-1.2c0.5-0.8,0.7-1.9,0.7-3.2v-2.2
			c0-1.4-0.2-2.4-0.7-3.2c-0.5-0.8-1.2-1.2-2.1-1.2c-0.9,0-1.6,0.4-2.1,1.2c-0.5,0.8-0.7,1.9-0.7,3.2v2.2c0,1.4,0.2,2.4,0.7,3.2
			C93.1,26.3,93.8,26.7,94.8,26.7z"/>
		<path d="M106.8,27.4c-0.7,0-1.3-0.2-1.8-0.5s-0.8-0.8-1.1-1.3c-0.3-0.5-0.4-1-0.5-1.4h-0.2v2.9h-0.7V22h1.2v0.3c0,0.1,0,0.4,0,0.7
			c0,0.3,0.1,0.7,0.2,1.1c0.1,0.4,0.3,0.8,0.5,1.2c0.2,0.4,0.5,0.7,0.9,1c0.4,0.3,0.9,0.4,1.5,0.4c0.7,0,1.2-0.2,1.5-0.5
			c0.3-0.3,0.5-0.8,0.5-1.3c0-0.5-0.1-1-0.4-1.4c-0.3-0.4-0.6-0.7-1.1-1s-0.9-0.6-1.4-0.9s-1-0.6-1.4-0.9c-0.4-0.3-0.8-0.7-1.1-1.2
			c-0.3-0.4-0.4-1-0.4-1.6c0-0.8,0.3-1.5,0.8-2s1.3-0.8,2.2-0.8c0.7,0,1.2,0.1,1.6,0.4c0.4,0.3,0.7,0.6,0.9,0.9
			c0.2,0.3,0.3,0.7,0.4,0.9h0.2v-2h0.7v4.3h-0.9v-0.1c0-0.4,0-0.8-0.1-1.2c-0.1-0.4-0.2-0.8-0.5-1.2c-0.2-0.4-0.5-0.7-0.9-0.9
			c-0.4-0.2-0.8-0.4-1.4-0.4c-0.7,0-1.1,0.2-1.4,0.5c-0.3,0.4-0.4,0.7-0.4,1.1c0,0.5,0.1,0.9,0.4,1.3c0.3,0.4,0.6,0.7,1.1,1
			c0.4,0.3,0.9,0.6,1.4,0.9s1,0.6,1.4,1c0.4,0.3,0.8,0.7,1.1,1.2c0.3,0.5,0.4,1,0.4,1.6c0,0.6-0.1,1.1-0.4,1.6
			c-0.3,0.5-0.7,0.8-1.2,1.1S107.5,27.4,106.8,27.4z"/>
		<path d="M118,27.4c-1.1,0-2-0.3-2.6-1c-0.7-0.7-1-1.7-1-3V16h-2.5v-0.7h2.5l1-2.4h0.5v2.4h5.8V16h-5.8v7.4c0,1,0.2,1.8,0.6,2.4
			c0.4,0.6,1,0.8,1.8,0.8c0.7,0,1.2-0.2,1.6-0.5c0.4-0.3,0.7-0.7,0.8-1.2c0.2-0.5,0.3-1.1,0.3-1.7v-0.6h0.7v0.6
			c0,0.4-0.1,0.9-0.2,1.4c-0.1,0.5-0.3,1-0.5,1.4c-0.3,0.4-0.6,0.8-1.1,1.1C119.3,27.3,118.7,27.4,118,27.4z"/>
		<path d="M129,27.4c-0.7,0-1.3-0.2-1.8-0.5s-0.8-0.8-1.1-1.3c-0.3-0.5-0.4-1-0.5-1.4h-0.2v2.9h-0.7V22h1.2v0.3c0,0.1,0,0.4,0,0.7
			c0,0.3,0.1,0.7,0.2,1.1c0.1,0.4,0.3,0.8,0.5,1.2c0.2,0.4,0.5,0.7,0.9,1c0.4,0.3,0.9,0.4,1.5,0.4c0.7,0,1.2-0.2,1.5-0.5
			c0.3-0.3,0.5-0.8,0.5-1.3c0-0.5-0.1-1-0.4-1.4c-0.3-0.4-0.6-0.7-1.1-1s-0.9-0.6-1.4-0.9s-1-0.6-1.4-0.9c-0.4-0.3-0.8-0.7-1.1-1.2
			c-0.3-0.4-0.4-1-0.4-1.6c0-0.8,0.3-1.5,0.8-2s1.3-0.8,2.2-0.8c0.7,0,1.2,0.1,1.6,0.4c0.4,0.3,0.7,0.6,0.9,0.9
			c0.2,0.3,0.3,0.7,0.4,0.9h0.2v-2h0.7v4.3h-0.9v-0.1c0-0.4,0-0.8-0.1-1.2c-0.1-0.4-0.2-0.8-0.5-1.2c-0.2-0.4-0.5-0.7-0.9-0.9
			c-0.4-0.2-0.8-0.4-1.4-0.4c-0.7,0-1.1,0.2-1.4,0.5c-0.3,0.4-0.4,0.7-0.4,1.1c0,0.5,0.1,0.9,0.4,1.3c0.3,0.4,0.6,0.7,1.1,1
			c0.4,0.3,0.9,0.6,1.4,0.9s1,0.6,1.4,1c0.4,0.3,0.8,0.7,1.1,1.2c0.3,0.5,0.4,1,0.4,1.6c0,0.6-0.1,1.1-0.4,1.6
			c-0.3,0.5-0.7,0.8-1.2,1.1S129.7,27.4,129,27.4z"/>
		<path d="M145.2,27.2v-0.8h4.2V16.4h-3.1v-0.5l3.1-0.3l1-0.6h0.5v11.4h4.2v0.8H145.2z M150.2,13.2c-0.3,0-0.6-0.1-0.9-0.4
			S149,12.4,149,12s0.1-0.6,0.4-0.9s0.5-0.4,0.9-0.4s0.6,0.1,0.9,0.4s0.4,0.5,0.4,0.9s-0.1,0.6-0.4,0.9S150.5,13.2,150.2,13.2z"/>
		<path d="M156,27.2v-0.6l1.9-0.2v-10h-2.3v-0.5l2.3-0.3l1-0.6h0.5v1.8h0.1c0.1-0.3,0.3-0.5,0.6-0.8s0.6-0.5,1-0.7
			c0.4-0.2,0.8-0.3,1.3-0.3c0.7,0,1.3,0.2,1.7,0.7c0.4,0.5,0.6,1.1,0.6,2v8.8h1.9v0.8h-3.4v-9.4c0-1.2-0.5-1.8-1.6-1.8
			c-0.4,0-0.8,0.1-1.1,0.3c-0.3,0.2-0.5,0.4-0.7,0.7c-0.2,0.3-0.3,0.6-0.4,0.8v8.5l2.2,0.2v0.6H156z"/>
		<path d="M183.4,27.4c-0.7,0-1.4-0.2-1.9-0.5c-0.5-0.3-1-0.8-1.4-1.4s-0.6-1.3-0.8-2c-0.2-0.7-0.3-1.5-0.3-2.3
			c0-0.8,0.1-1.5,0.3-2.3c0.2-0.7,0.4-1.4,0.8-2s0.8-1.1,1.4-1.4c0.5-0.3,1.2-0.5,1.9-0.5c0.7,0,1.4,0.2,1.9,0.5
			c0.5,0.3,1,0.8,1.4,1.4c0.4,0.6,0.6,1.3,0.8,2c0.2,0.7,0.3,1.5,0.3,2.3c0,0.8-0.1,1.5-0.3,2.3c-0.2,0.7-0.4,1.4-0.8,2
			c-0.4,0.6-0.8,1.1-1.4,1.4C184.8,27.3,184.2,27.4,183.4,27.4z M183.4,26.7c0.9,0,1.6-0.4,2.1-1.2c0.5-0.8,0.7-1.9,0.7-3.2v-2.2
			c0-1.4-0.2-2.4-0.7-3.2c-0.5-0.8-1.2-1.2-2.1-1.2c-0.9,0-1.6,0.4-2.1,1.2c-0.5,0.8-0.7,1.9-0.7,3.2v2.2c0,1.4,0.2,2.4,0.7,3.2
			C181.8,26.3,182.5,26.7,183.4,26.7z"/>
		<path d="M197.4,15h0.5v11h1.6v0.5l-1.6,0.3l-1,0.6h-0.5v-2.1h-0.1c-0.1,0.3-0.3,0.6-0.5,0.9c-0.2,0.3-0.6,0.6-0.9,0.8
			c-0.4,0.2-0.8,0.3-1.3,0.3c-0.7,0-1.3-0.2-1.8-0.7c-0.5-0.5-0.7-1.2-0.7-2.2v-8.2h-2.3v-0.5l2.3-0.3l1-0.6h0.5v9.5
			c0,1.3,0.5,1.9,1.5,1.9c0.4,0,0.8-0.1,1.1-0.3c0.3-0.2,0.5-0.5,0.7-0.8c0.2-0.3,0.3-0.6,0.4-0.9v-8h-2.3v-0.5l2.3-0.3L197.4,15z"
			/>
		<path d="M208,26.5v0.8h-7.8v-0.8h2.7V16.4h-2.3v-0.5l2.3-0.3l1-0.6h0.5v3.9h0.1l0.1-0.3c0.3-1,0.8-1.9,1.5-2.5
			c0.7-0.7,1.4-1,2.3-1c0.6,0,1,0.1,1.4,0.4c0.4,0.3,0.6,0.6,0.6,1.1c0,0.3-0.1,0.5-0.2,0.7c-0.1,0.2-0.4,0.3-0.7,0.3
			c-0.4,0-0.6-0.1-0.8-0.4c-0.2-0.2-0.3-0.5-0.4-0.7l-0.3-0.6c-0.5,0-1,0.2-1.4,0.6s-0.7,0.9-1,1.5c-0.3,0.6-0.6,1.3-0.8,2l-0.3,1
			v5.7H208z"/>
		<path d="M222.7,27.2v-0.8h1V16.4h-1.2V16l1.3-0.3l0.9-0.6h0.4v1.6h0.1c0.1-0.3,0.4-0.7,0.7-1s0.8-0.5,1.3-0.5c0.4,0,0.7,0.1,1,0.4
			c0.3,0.3,0.4,0.7,0.4,1.2h0.1c0.1-0.3,0.4-0.7,0.7-1s0.8-0.5,1.3-0.5c0.5,0,0.8,0.2,1.1,0.5c0.3,0.3,0.4,0.7,0.4,1.3v9.7h1.1v0.8
			h-2.5V16.9c0-0.6-0.2-0.8-0.7-0.8c-0.3,0-0.5,0.1-0.7,0.3c-0.2,0.2-0.3,0.4-0.4,0.7c-0.1,0.3-0.2,0.5-0.2,0.8v8.7h1.1v0.8h-2.5
			V16.9c0-0.6-0.3-0.8-0.8-0.8c-0.3,0-0.5,0.1-0.6,0.3c-0.2,0.2-0.3,0.4-0.4,0.7c-0.1,0.3-0.2,0.5-0.2,0.8v8.7h1.1v0.8H222.7z"/>
		<path d="M237.4,27.4c-0.8,0-1.5-0.2-1.9-0.7c-0.5-0.5-0.7-1.1-0.7-1.8c0-0.7,0.2-1.2,0.5-1.7c0.3-0.4,0.8-0.8,1.3-1.1
			c0.5-0.3,1-0.6,1.5-0.8l2.3-1v-2.2c0-0.7-0.2-1.3-0.7-1.7c-0.5-0.4-1-0.6-1.7-0.6c-0.6,0-1.2,0.2-1.6,0.5
			c-0.4,0.3-0.7,0.6-0.9,0.9c0.3,0.4,0.6,0.6,0.8,0.8s0.3,0.5,0.3,0.7c0,0.3-0.1,0.5-0.3,0.7s-0.4,0.3-0.8,0.3
			c-0.3,0-0.6-0.1-0.8-0.3c-0.2-0.2-0.3-0.5-0.3-0.9c0-0.3,0.1-0.7,0.3-1.1s0.4-0.8,0.8-1.2c0.3-0.4,0.8-0.7,1.3-0.9
			c0.5-0.2,1.2-0.4,1.9-0.4c0.8,0,1.4,0.2,1.9,0.5c0.5,0.3,0.8,0.7,1,1.2c0.2,0.5,0.3,1,0.3,1.5v7.2c0,0.6,0.2,0.9,0.6,0.9
			c0.3,0,0.5-0.1,0.7-0.3c0.2-0.2,0.3-0.5,0.3-0.7l0.4,0.1c0,0.3-0.1,0.6-0.3,0.9c-0.2,0.3-0.4,0.6-0.7,0.8s-0.6,0.3-1,0.3
			c-0.4,0-0.8-0.1-1.1-0.4c-0.3-0.3-0.5-0.8-0.5-1.4c-0.1,0.3-0.3,0.5-0.6,0.8c-0.3,0.3-0.6,0.5-1,0.7
			C238.4,27.3,237.9,27.4,237.4,27.4z M236.1,24.4c0,0.6,0.2,1.1,0.5,1.5s0.8,0.6,1.4,0.6c0.4,0,0.7-0.1,1-0.3
			c0.3-0.2,0.6-0.4,0.8-0.6c0.2-0.2,0.3-0.5,0.4-0.7v-4.1l-2.1,1c-0.3,0.2-0.7,0.3-1,0.5c-0.3,0.2-0.6,0.4-0.8,0.7
			C236.2,23.5,236.1,23.9,236.1,24.4z"/>
		<path d="M250.4,27.4c-0.9,0-1.6-0.3-2.3-0.8c-0.7-0.5-1.2-1.2-1.6-2.1c-0.4-0.9-0.6-2-0.6-3.1c0-1.2,0.2-2.3,0.6-3.3
			c0.4-1,1-1.7,1.7-2.3c0.7-0.6,1.5-0.8,2.5-0.8c0.6,0,1.2,0.1,1.8,0.4c0.5,0.3,1,0.6,1.3,1c0.3,0.4,0.5,0.9,0.5,1.5
			c0,0.5-0.1,0.9-0.4,1.1s-0.5,0.4-0.8,0.4c-0.2,0-0.5-0.1-0.7-0.2c-0.2-0.2-0.3-0.4-0.3-0.7c0-0.3,0.1-0.6,0.3-0.8
			c0.2-0.3,0.5-0.6,0.7-1.1c-0.1-0.2-0.4-0.4-0.8-0.6s-0.9-0.3-1.4-0.3c-1,0-1.8,0.4-2.4,1.2s-0.9,1.9-0.9,3.2v2.2
			c0,0.9,0.2,1.7,0.5,2.3s0.7,1.1,1.2,1.4c0.5,0.3,1,0.5,1.6,0.5c0.5,0,1-0.1,1.4-0.4c0.4-0.2,0.7-0.5,0.9-0.9
			c0.2-0.3,0.4-0.7,0.5-1l0.5,0.2c-0.1,0.4-0.3,0.9-0.6,1.3c-0.3,0.5-0.7,0.9-1.2,1.2C251.7,27.3,251.1,27.4,250.4,27.4z"/>
		<path d="M255.8,27.2v-0.8h1.9V12h-2.3v-0.5l2.3-0.3l1-0.6h0.5v6.2h0.1c0.1-0.3,0.3-0.5,0.6-0.8s0.6-0.5,1-0.7
			c0.4-0.2,0.8-0.3,1.3-0.3c0.7,0,1.3,0.2,1.7,0.7c0.4,0.5,0.6,1.1,0.6,2v8.8h1.9v0.8h-3.4v-9.4c0-1.2-0.5-1.8-1.6-1.8
			c-0.4,0-0.8,0.1-1.1,0.3c-0.3,0.2-0.5,0.4-0.7,0.7c-0.2,0.3-0.3,0.6-0.4,0.8v8.6h1.3v0h0.9v0.7H255.8z"/>
		<path d="M267.2,27.2v-0.8h4.2V16.4h-3.1v-0.5l3.1-0.3l1-0.6h0.5v11.4h4.2v0.8H267.2z M272.1,13.2c-0.3,0-0.6-0.1-0.9-0.4
			s-0.4-0.5-0.4-0.9s0.1-0.6,0.4-0.9s0.5-0.4,0.9-0.4s0.6,0.1,0.9,0.4s0.4,0.5,0.4,0.9s-0.1,0.6-0.4,0.9S272.5,13.2,272.1,13.2z"/>
		<path d="M278,27.2v-0.6l1.9-0.2v-10h-2.3v-0.5l2.3-0.3l1-0.6h0.5v1.8h0.1c0.1-0.3,0.3-0.5,0.6-0.8s0.6-0.5,1-0.7
			c0.4-0.2,0.8-0.3,1.3-0.3c0.7,0,1.3,0.2,1.7,0.7c0.4,0.5,0.6,1.1,0.6,2v8.8h1.9v0.8h-3.4v-9.4c0-1.2-0.5-1.8-1.6-1.8
			c-0.4,0-0.8,0.1-1.1,0.3c-0.3,0.2-0.5,0.4-0.7,0.7c-0.2,0.3-0.3,0.6-0.4,0.8v8.5l2.2,0.2v0.6H278z"/>
		<path d="M294.8,27.4c-0.9,0-1.7-0.3-2.4-0.8s-1.3-1.2-1.7-2.1c-0.4-0.9-0.6-2-0.6-3.2c0-0.8,0.1-1.6,0.3-2.3
			c0.2-0.7,0.5-1.4,0.9-2c0.4-0.6,0.9-1.1,1.5-1.4s1.3-0.5,2.1-0.5c1.2,0,2.1,0.4,2.8,1.2s1.1,1.9,1.1,3.3c0,0.2,0,0.4,0,0.5
			c0,0.2,0,0.3,0,0.4h-6.9v1.9c0,0.9,0.2,1.7,0.5,2.3s0.8,1.1,1.3,1.4s1.1,0.5,1.7,0.5c0.6,0,1-0.1,1.4-0.4c0.4-0.2,0.7-0.5,1-0.9
			c0.2-0.3,0.4-0.7,0.5-1l0.5,0.2c-0.1,0.4-0.3,0.9-0.6,1.3c-0.3,0.5-0.7,0.9-1.2,1.2S295.6,27.4,294.8,27.4z M294.7,15.7
			c-0.6,0-1.1,0.2-1.6,0.5c-0.4,0.4-0.8,0.9-1,1.5c-0.2,0.6-0.4,1.3-0.4,2.1h4.4c0.2,0,0.3,0,0.5-0.1s0.3-0.1,0.4-0.3
			c0.1-0.2,0.2-0.5,0.2-0.9c0-0.9-0.2-1.6-0.7-2.1C296,16,295.4,15.7,294.7,15.7z"/>
		<path d="M306.4,27.4c-0.7,0-1.3-0.2-1.8-0.5s-0.8-0.8-1.1-1.3c-0.3-0.5-0.4-1-0.5-1.4h-0.2v2.9h-0.7V22h1.2v0.3c0,0.1,0,0.4,0,0.7
			c0,0.3,0.1,0.7,0.2,1.1c0.1,0.4,0.3,0.8,0.5,1.2c0.2,0.4,0.5,0.7,0.9,1c0.4,0.3,0.9,0.4,1.5,0.4c0.7,0,1.2-0.2,1.5-0.5
			c0.3-0.3,0.5-0.8,0.5-1.3c0-0.5-0.1-1-0.4-1.4c-0.3-0.4-0.6-0.7-1.1-1s-0.9-0.6-1.4-0.9s-1-0.6-1.4-0.9c-0.4-0.3-0.8-0.7-1.1-1.2
			c-0.3-0.4-0.4-1-0.4-1.6c0-0.8,0.3-1.5,0.8-2s1.3-0.8,2.2-0.8c0.7,0,1.2,0.1,1.6,0.4c0.4,0.3,0.7,0.6,0.9,0.9
			c0.2,0.3,0.3,0.7,0.4,0.9h0.2v-2h0.7v4.3h-0.9v-0.1c0-0.4,0-0.8-0.1-1.2c-0.1-0.4-0.2-0.8-0.5-1.2c-0.2-0.4-0.5-0.7-0.9-0.9
			c-0.4-0.2-0.8-0.4-1.4-0.4c-0.7,0-1.1,0.2-1.4,0.5c-0.3,0.4-0.4,0.7-0.4,1.1c0,0.5,0.1,0.9,0.4,1.3c0.3,0.4,0.6,0.7,1.1,1
			c0.4,0.3,0.9,0.6,1.4,0.9s1,0.6,1.4,1c0.4,0.3,0.8,0.7,1.1,1.2c0.3,0.5,0.4,1,0.4,1.6c0,0.6-0.1,1.1-0.4,1.6
			c-0.3,0.5-0.7,0.8-1.2,1.1S307,27.4,306.4,27.4z"/>
		<path d="M315.6,29.5l-0.3-0.4c0.3-0.2,0.6-0.5,0.9-0.8c0.3-0.3,0.5-0.6,0.5-0.8c-0.4,0-0.7-0.1-0.9-0.3c-0.3-0.2-0.4-0.5-0.4-0.9
			c0-0.4,0.1-0.7,0.4-0.9s0.5-0.3,0.9-0.3c0.3,0,0.6,0.1,0.9,0.3c0.2,0.2,0.4,0.6,0.4,1c0,0.4-0.1,0.9-0.4,1.3
			c-0.2,0.4-0.5,0.8-0.9,1.1C316.2,29,315.9,29.3,315.6,29.5z M316.6,18c-0.3,0-0.6-0.1-0.9-0.4s-0.4-0.5-0.4-0.9
			c0-0.3,0.1-0.6,0.4-0.9s0.5-0.4,0.9-0.4s0.6,0.1,0.9,0.4c0.2,0.2,0.4,0.5,0.4,0.9c0,0.3-0.1,0.6-0.4,0.9
			C317.2,17.9,316.9,18,316.6,18z"/>
		<path d="M333.1,27.2v-0.8h1.3V11.6h-1.3v-0.8h2.2l3.2,13.8l3.2-13.8h2.5v0.8h-1.4v14.9h1.4v0.8h-4.1v-0.8h1.2V15.6l-2.7,11.7h-0.7
			l-2.7-11.7v10.9h1.4v0.8H333.1z"/>
		<path d="M348.3,27.4c-0.8,0-1.5-0.2-1.9-0.7c-0.5-0.5-0.7-1.1-0.7-1.8c0-0.7,0.2-1.2,0.5-1.7c0.3-0.4,0.8-0.8,1.3-1.1
			c0.5-0.3,1-0.6,1.5-0.8l2.3-1v-2.2c0-0.7-0.2-1.3-0.7-1.7c-0.5-0.4-1-0.6-1.7-0.6c-0.6,0-1.2,0.2-1.6,0.5
			c-0.4,0.3-0.7,0.6-0.9,0.9c0.3,0.4,0.6,0.6,0.8,0.8s0.3,0.5,0.3,0.7c0,0.3-0.1,0.5-0.3,0.7s-0.4,0.3-0.8,0.3
			c-0.3,0-0.6-0.1-0.8-0.3c-0.2-0.2-0.3-0.5-0.3-0.9c0-0.3,0.1-0.7,0.3-1.1s0.4-0.8,0.8-1.2c0.3-0.4,0.8-0.7,1.3-0.9
			c0.5-0.2,1.2-0.4,1.9-0.4c0.8,0,1.4,0.2,1.9,0.5c0.5,0.3,0.8,0.7,1,1.2c0.2,0.5,0.3,1,0.3,1.5v7.2c0,0.6,0.2,0.9,0.6,0.9
			c0.3,0,0.5-0.1,0.7-0.3c0.2-0.2,0.3-0.5,0.3-0.7l0.4,0.1c0,0.3-0.1,0.6-0.3,0.9c-0.2,0.3-0.4,0.6-0.7,0.8s-0.6,0.3-1,0.3
			c-0.4,0-0.8-0.1-1.1-0.4c-0.3-0.3-0.5-0.8-0.5-1.4c-0.1,0.3-0.3,0.5-0.6,0.8c-0.3,0.3-0.6,0.5-1,0.7
			C349.2,27.3,348.8,27.4,348.3,27.4z M347,24.4c0,0.6,0.2,1.1,0.5,1.5s0.8,0.6,1.4,0.6c0.4,0,0.7-0.1,1-0.3
			c0.3-0.2,0.6-0.4,0.8-0.6c0.2-0.2,0.3-0.5,0.4-0.7v-4.1l-2.1,1c-0.3,0.2-0.7,0.3-1,0.5c-0.3,0.2-0.6,0.4-0.8,0.7
			C347.1,23.5,347,23.9,347,24.4z"/>
		<path d="M361.8,27.4c-1.1,0-2-0.3-2.6-1c-0.7-0.7-1-1.7-1-3V16h-2.5v-0.7h2.5l1-2.4h0.5v2.4h5.8V16h-5.8v7.4c0,1,0.2,1.8,0.6,2.4
			c0.4,0.6,1,0.8,1.8,0.8c0.7,0,1.2-0.2,1.6-0.5c0.4-0.3,0.7-0.7,0.8-1.2c0.2-0.5,0.3-1.1,0.3-1.7v-0.6h0.7v0.6
			c0,0.4-0.1,0.9-0.2,1.4c-0.1,0.5-0.3,1-0.5,1.4c-0.3,0.4-0.6,0.8-1.1,1.1C363.2,27.3,362.6,27.4,361.8,27.4z"/>
		<path d="M372.9,27.4c-1.1,0-2-0.3-2.6-1c-0.7-0.7-1-1.7-1-3V16h-2.5v-0.7h2.5l1-2.4h0.5v2.4h5.8V16h-5.8v7.4c0,1,0.2,1.8,0.6,2.4
			c0.4,0.6,1,0.8,1.8,0.8c0.7,0,1.2-0.2,1.6-0.5c0.4-0.3,0.7-0.7,0.8-1.2c0.2-0.5,0.3-1.1,0.3-1.7v-0.6h0.7v0.6
			c0,0.4-0.1,0.9-0.2,1.4c-0.1,0.5-0.3,1-0.5,1.4c-0.3,0.4-0.6,0.8-1.1,1.1C374.3,27.3,373.7,27.4,372.9,27.4z"/>
		<path d="M377.7,27.2v-0.8h1.9V12h-2.3v-0.5l2.3-0.3l1-0.6h0.5v6.2h0.1c0.1-0.3,0.3-0.5,0.6-0.8s0.6-0.5,1-0.7
			c0.4-0.2,0.8-0.3,1.3-0.3c0.7,0,1.3,0.2,1.7,0.7c0.4,0.5,0.6,1.1,0.6,2v8.8h1.9v0.8h-3.4v-9.4c0-1.2-0.5-1.8-1.6-1.8
			c-0.4,0-0.8,0.1-1.1,0.3c-0.3,0.2-0.5,0.4-0.7,0.7c-0.2,0.3-0.3,0.6-0.4,0.8v8.6h1.3v0h0.9v0.7H377.7z"/>
		<path d="M394.6,27.4c-0.9,0-1.7-0.3-2.4-0.8s-1.3-1.2-1.7-2.1c-0.4-0.9-0.6-2-0.6-3.2c0-0.8,0.1-1.6,0.3-2.3
			c0.2-0.7,0.5-1.4,0.9-2c0.4-0.6,0.9-1.1,1.5-1.4s1.3-0.5,2.1-0.5c1.2,0,2.1,0.4,2.8,1.2s1.1,1.9,1.1,3.3c0,0.2,0,0.4,0,0.5
			c0,0.2,0,0.3,0,0.4h-6.9v1.9c0,0.9,0.2,1.7,0.5,2.3s0.8,1.1,1.3,1.4s1.1,0.5,1.7,0.5c0.6,0,1-0.1,1.4-0.4c0.4-0.2,0.7-0.5,1-0.9
			c0.2-0.3,0.4-0.7,0.5-1l0.5,0.2c-0.1,0.4-0.3,0.9-0.6,1.3c-0.3,0.5-0.7,0.9-1.2,1.2S395.3,27.4,394.6,27.4z M394.5,15.7
			c-0.6,0-1.1,0.2-1.6,0.5c-0.4,0.4-0.8,0.9-1,1.5c-0.2,0.6-0.4,1.3-0.4,2.1h4.4c0.2,0,0.3,0,0.5-0.1s0.3-0.1,0.4-0.3
			c0.1-0.2,0.2-0.5,0.2-0.9c0-0.9-0.2-1.6-0.7-2.1C395.8,16,395.2,15.7,394.5,15.7z"/>
		<path d="M403.4,27.2L401.5,16h-1.3v-0.8h3.8V16h-1.1l1.3,7.8l1.3-7.8h-0.9v-0.8h2.4V16h-0.8l1.3,7.8l1.3-7.8h-1.1v-0.8h2.5V16
			h-0.8l-1.9,11.2h-0.7l-1.4-7.5l-1.3,7.5H403.4z"/>
		<path d="M430.3,11.6v11.7c0,1.4-0.5,2.4-1.3,3.1c-0.9,0.7-1.9,1.1-3.2,1.1c-1,0-1.8-0.2-2.3-0.6c-0.5-0.4-0.8-0.8-0.8-1.4
			c0-0.3,0.1-0.5,0.3-0.7c0.2-0.2,0.4-0.3,0.7-0.3c0.3,0,0.5,0.1,0.7,0.2c0.2,0.1,0.3,0.3,0.4,0.5s0.2,0.3,0.2,0.4l0.6,1.3
			c0.9,0.1,1.7-0.2,2.3-0.8s0.9-1.5,0.9-2.8V11.6h-3.8v-0.8h7.7v0.8H430.3z"/>
		<path d="M438.4,27.4c-0.3,0-0.6-0.1-0.9-0.4s-0.4-0.5-0.4-0.9c0-0.3,0.1-0.6,0.4-0.9s0.5-0.4,0.9-0.4s0.6,0.1,0.9,0.4
			s0.4,0.5,0.4,0.9c0,0.3-0.1,0.6-0.4,0.9S438.7,27.4,438.4,27.4z"/>
		<path d="M455.4,27.2v-0.8h1.6l2.8-7.3l-2.9-7.6h-1.6v-0.8h4.7v0.8h-1.6l2.2,5.8l2.2-5.8h-1.2v-0.8h3.5v0.8h-1.6l-2.6,6.7l3.1,8.2
			h1.6v0.8h-4.9v-0.8h1.7l-2.5-6.4l-2.4,6.4h1.3v0.8H455.4z"/>
		<path d="M471.7,27.4c-0.3,0-0.6-0.1-0.9-0.4s-0.4-0.5-0.4-0.9c0-0.3,0.1-0.6,0.4-0.9s0.5-0.4,0.9-0.4s0.6,0.1,0.9,0.4
			s0.4,0.5,0.4,0.9c0,0.3-0.1,0.6-0.4,0.9S472,27.4,471.7,27.4z"/>
		<path d="M488.3,27.2v-0.8h1.3V11.6h-1.3v-0.8h2.2l3.2,13.8l3.2-13.8h2.5v0.8H498v14.9h1.4v0.8h-4.1v-0.8h1.2V15.6l-2.7,11.7h-0.7
			l-2.7-11.7v10.9h1.4v0.8H488.3z"/>
		<path d="M503.4,27.4c-0.8,0-1.5-0.2-1.9-0.7c-0.5-0.5-0.7-1.1-0.7-1.8c0-0.7,0.2-1.2,0.5-1.7c0.3-0.4,0.8-0.8,1.3-1.1
			c0.5-0.3,1-0.6,1.5-0.8l2.3-1v-2.2c0-0.7-0.2-1.3-0.7-1.7c-0.5-0.4-1-0.6-1.7-0.6c-0.6,0-1.2,0.2-1.6,0.5
			c-0.4,0.3-0.7,0.6-0.9,0.9c0.3,0.4,0.6,0.6,0.8,0.8s0.3,0.5,0.3,0.7c0,0.3-0.1,0.5-0.3,0.7s-0.4,0.3-0.8,0.3
			c-0.3,0-0.6-0.1-0.8-0.3c-0.2-0.2-0.3-0.5-0.3-0.9c0-0.3,0.1-0.7,0.3-1.1s0.4-0.8,0.8-1.2c0.3-0.4,0.8-0.7,1.3-0.9
			c0.5-0.2,1.2-0.4,1.9-0.4c0.8,0,1.4,0.2,1.9,0.5c0.5,0.3,0.8,0.7,1,1.2c0.2,0.5,0.3,1,0.3,1.5v7.2c0,0.6,0.2,0.9,0.6,0.9
			c0.3,0,0.5-0.1,0.7-0.3c0.2-0.2,0.3-0.5,0.3-0.7l0.4,0.1c0,0.3-0.1,0.6-0.3,0.9c-0.2,0.3-0.4,0.6-0.7,0.8s-0.6,0.3-1,0.3
			c-0.4,0-0.8-0.1-1.1-0.4c-0.3-0.3-0.5-0.8-0.5-1.4c-0.1,0.3-0.3,0.5-0.6,0.8c-0.3,0.3-0.6,0.5-1,0.7
			C504.4,27.3,503.9,27.4,503.4,27.4z M502.2,24.4c0,0.6,0.2,1.1,0.5,1.5s0.8,0.6,1.4,0.6c0.4,0,0.7-0.1,1-0.3
			c0.3-0.2,0.6-0.4,0.8-0.6c0.2-0.2,0.3-0.5,0.4-0.7v-4.1l-2.1,1c-0.3,0.2-0.7,0.3-1,0.5c-0.3,0.2-0.6,0.4-0.8,0.7
			C502.3,23.5,502.2,23.9,502.2,24.4z"/>
		<path d="M511.1,27.2v-0.8h4.2V12h-3.1v-0.5l3.1-0.3l1-0.6h0.5v15.9h4.2v0.8H511.1z"/>
		<path d="M525.6,27.4c-0.8,0-1.5-0.2-1.9-0.7c-0.5-0.5-0.7-1.1-0.7-1.8c0-0.7,0.2-1.2,0.5-1.7c0.3-0.4,0.8-0.8,1.3-1.1
			c0.5-0.3,1-0.6,1.5-0.8l2.3-1v-2.2c0-0.7-0.2-1.3-0.7-1.7c-0.5-0.4-1-0.6-1.7-0.6c-0.6,0-1.2,0.2-1.6,0.5
			c-0.4,0.3-0.7,0.6-0.9,0.9c0.3,0.4,0.6,0.6,0.8,0.8s0.3,0.5,0.3,0.7c0,0.3-0.1,0.5-0.3,0.7s-0.4,0.3-0.8,0.3
			c-0.3,0-0.6-0.1-0.8-0.3c-0.2-0.2-0.3-0.5-0.3-0.9c0-0.3,0.1-0.7,0.3-1.1s0.4-0.8,0.8-1.2c0.3-0.4,0.8-0.7,1.3-0.9
			c0.5-0.2,1.2-0.4,1.9-0.4c0.8,0,1.4,0.2,1.9,0.5c0.5,0.3,0.8,0.7,1,1.2c0.2,0.5,0.3,1,0.3,1.5v7.2c0,0.6,0.2,0.9,0.6,0.9
			c0.3,0,0.5-0.1,0.7-0.3c0.2-0.2,0.3-0.5,0.3-0.7l0.4,0.1c0,0.3-0.1,0.6-0.3,0.9c-0.2,0.3-0.4,0.6-0.7,0.8s-0.6,0.3-1,0.3
			c-0.4,0-0.8-0.1-1.1-0.4c-0.3-0.3-0.5-0.8-0.5-1.4c-0.1,0.3-0.3,0.5-0.6,0.8c-0.3,0.3-0.6,0.5-1,0.7
			C526.6,27.3,526.1,27.4,525.6,27.4z M524.4,24.4c0,0.6,0.2,1.1,0.5,1.5s0.8,0.6,1.4,0.6c0.4,0,0.7-0.1,1-0.3
			c0.3-0.2,0.6-0.4,0.8-0.6c0.2-0.2,0.3-0.5,0.4-0.7v-4.1l-2.1,1c-0.3,0.2-0.7,0.3-1,0.5c-0.3,0.2-0.6,0.4-0.8,0.7
			C524.5,23.5,524.4,23.9,524.4,24.4z"/>
		<path d="M537,27.4c-0.8,0-1.4-0.2-1.9-0.7c-0.5-0.5-0.9-1.2-1.1-2c-0.2-0.8-0.4-1.8-0.4-2.8c0-1.3,0.2-2.4,0.5-3.5
			c0.3-1,0.8-1.9,1.4-2.5c0.6-0.6,1.4-0.9,2.3-0.9c0.5,0,0.9,0.1,1.3,0.3c0.3,0.2,0.6,0.4,0.8,0.7V12h-2.3v-0.5l2.3-0.3l1-0.6h0.5
			v15.5h1.6v0.5l-1.6,0.3l-1,0.6h-0.5v-1.9h-0.1c-0.1,0.3-0.3,0.5-0.5,0.8c-0.3,0.3-0.6,0.5-0.9,0.7C537.9,27.3,537.5,27.4,537,27.4
			z M537.5,26.5c0.5,0,0.9-0.1,1.3-0.4c0.3-0.3,0.6-0.6,0.8-0.9c0.2-0.4,0.3-0.7,0.3-1.1v-5.4c0-1.1-0.2-1.9-0.6-2.4s-1-0.7-1.6-0.7
			c-0.7,0-1.2,0.3-1.7,0.8c-0.4,0.5-0.6,1.3-0.6,2.3V24c0,0.9,0.2,1.5,0.7,1.9C536.4,26.3,536.9,26.5,537.5,26.5z"/>
		<path d="M545.3,31.4c-0.7,0-1.3-0.1-1.8-0.4c-0.5-0.3-0.7-0.7-0.7-1.1c0-0.3,0.1-0.6,0.3-0.8c0.2-0.2,0.5-0.3,0.9-0.3
			c0.3,0,0.6,0.1,0.7,0.3s0.3,0.4,0.4,0.6c0.1,0.2,0.2,0.5,0.2,0.7l0.1,0.5c0.8,0.1,1.5-0.2,2.2-0.9c0.7-0.6,1.2-1.7,1.7-3.2
			L545.7,16H544v-0.8h5.5V16h-2.2l2.9,8.5l2.8-8.5h-1.5v-0.8h3.7V16h-1.5l-3.6,10.8c-0.3,0.8-0.6,1.5-0.9,2.2
			c-0.4,0.7-0.9,1.3-1.5,1.7C547,31.2,546.3,31.4,545.3,31.4z"/>
	</g>
</g>
</svg>
