<?xml version="1.0" encoding="utf-8"?>
<!-- Generator: Adobe Illustrator 26.3.1, SVG Export Plug-In . SVG Version: 6.00 Build 0)  -->
<svg version="1.1" id="Capa_1" xmlns="http://www.w3.org/2000/svg" xmlns:xlink="http://www.w3.org/1999/xlink" x="0px" y="0px"
	 viewBox="0 0 532.5 37.5" style="enable-background:new 0 0 532.5 37.5;" xml:space="preserve">
<style type="text/css">
	.st0{fill:#FFFFFF;}
	.st1{fill:#212121;}
</style>
<g>
	<g>
		<rect x="0.8" y="0.7" class="st0" width="531" height="36"/>
		<path class="st1" d="M532.5,37.5H0V0h532.5V37.5z M1.5,36H531V1.5H1.5V36z"/>
	</g>
	<g>
		<path d="M24,28v-0.7h3.1V12.3h-1.3c-1.1,0-1.7,0.5-1.8,1.6l-0.3,2.4H23v-5h0.4l0.7,0.2h7.6l0.7-0.2h0.4v5h-0.6l-0.3-2.4
			c-0.1-1.1-0.7-1.6-1.8-1.6h-1.3v14.9h3.1V28H24z"/>
		<path d="M41.8,15.8h0.5v11H44v0.5l-1.6,0.3l-1,0.6h-0.5v-2.1h-0.1c-0.1,0.3-0.3,0.6-0.5,0.9c-0.2,0.3-0.6,0.6-0.9,0.8
			c-0.4,0.2-0.8,0.3-1.3,0.3c-0.7,0-1.3-0.2-1.8-0.7c-0.5-0.5-0.7-1.2-0.7-2.2v-8.2h-2.3v-0.5l2.3-0.3l1-0.6h0.5v9.5
			c0,1.3,0.5,1.9,1.5,1.9c0.4,0,0.8-0.1,1.1-0.3c0.3-0.2,0.5-0.5,0.7-0.8c0.2-0.3,0.3-0.6,0.4-0.9v-8h-2.3v-0.5l2.3-0.3L41.8,15.8z"
			/>
		<path d="M61.6,28.2c-0.9,0-1.6-0.3-2.3-0.8c-0.7-0.5-1.2-1.2-1.6-2.1c-0.4-0.9-0.6-2-0.6-3.1c0-1.2,0.2-2.3,0.6-3.3
			c0.4-1,1-1.7,1.7-2.3c0.7-0.6,1.5-0.8,2.5-0.8c0.6,0,1.2,0.1,1.8,0.4c0.5,0.3,1,0.6,1.3,1c0.3,0.4,0.5,0.9,0.5,1.5
			c0,0.5-0.1,0.9-0.4,1.1s-0.5,0.4-0.8,0.4c-0.2,0-0.5-0.1-0.7-0.2c-0.2-0.2-0.3-0.4-0.3-0.7c0-0.3,0.1-0.6,0.3-0.8
			c0.2-0.3,0.5-0.6,0.7-1.1c-0.1-0.2-0.4-0.4-0.8-0.6s-0.9-0.3-1.4-0.3c-1,0-1.8,0.4-2.4,1.2s-0.9,1.9-0.9,3.2v2.2
			c0,0.9,0.2,1.7,0.5,2.3s0.7,1.1,1.2,1.4c0.5,0.3,1,0.5,1.6,0.5c0.5,0,1-0.1,1.4-0.4c0.4-0.2,0.7-0.5,0.9-0.9
			c0.2-0.3,0.4-0.7,0.5-1l0.5,0.2c-0.1,0.4-0.3,0.9-0.6,1.3c-0.3,0.5-0.7,0.9-1.2,1.2C62.9,28,62.3,28.2,61.6,28.2z"/>
		<path d="M74.6,27.2V28h-7.8v-0.8h2.7V17.1h-2.3v-0.5l2.3-0.3l1-0.6H71v3.9H71l0.1-0.3c0.3-1,0.8-1.9,1.5-2.5c0.7-0.7,1.4-1,2.3-1
			c0.6,0,1,0.1,1.4,0.4c0.4,0.3,0.6,0.6,0.6,1.1c0,0.3-0.1,0.5-0.2,0.7c-0.1,0.2-0.4,0.3-0.7,0.3c-0.4,0-0.6-0.1-0.8-0.4
			c-0.2-0.2-0.3-0.5-0.4-0.7l-0.3-0.6c-0.5,0-1,0.2-1.4,0.6s-0.7,0.9-1,1.5c-0.3,0.6-0.6,1.3-0.8,2l-0.3,1v5.7H74.6z"/>
		<path d="M86.2,15.8h0.5v11h1.6v0.5l-1.6,0.3l-1,0.6h-0.5v-2.1h-0.1c-0.1,0.3-0.3,0.6-0.5,0.9c-0.2,0.3-0.6,0.6-0.9,0.8
			c-0.4,0.2-0.8,0.3-1.3,0.3c-0.7,0-1.3-0.2-1.8-0.7C80.2,27,80,26.3,80,25.3v-8.2h-2.3v-0.5l2.3-0.3l1-0.6h0.5v9.5
			c0,1.3,0.5,1.9,1.5,1.9c0.4,0,0.8-0.1,1.1-0.3c0.3-0.2,0.5-0.5,0.7-0.8c0.2-0.3,0.3-0.6,0.4-0.9v-8H83v-0.5l2.3-0.3L86.2,15.8z"/>
		<path d="M90.2,28v-0.4l7-10.8h-3.7c-1.1,0-1.7,0.5-1.8,1.6L91.4,21h-0.6v-5H99v0.4l-7,10.8h4.1c1.1,0,1.7-0.5,1.8-1.6l0.3-2.7h0.6
			v5H90.2z"/>
		<path d="M117.1,28.2c-0.9,0-1.7-0.3-2.4-0.8s-1.3-1.2-1.7-2.1c-0.4-0.9-0.6-2-0.6-3.2c0-0.8,0.1-1.6,0.3-2.3
			c0.2-0.7,0.5-1.4,0.9-2c0.4-0.6,0.9-1.1,1.5-1.4s1.3-0.5,2.1-0.5c1.2,0,2.1,0.4,2.8,1.2s1.1,1.9,1.1,3.3c0,0.2,0,0.4,0,0.5
			c0,0.2,0,0.3,0,0.4H114v1.9c0,0.9,0.2,1.7,0.5,2.3s0.8,1.1,1.3,1.4s1.1,0.5,1.7,0.5c0.6,0,1-0.1,1.4-0.4c0.4-0.2,0.7-0.5,1-0.9
			c0.2-0.3,0.4-0.7,0.5-1l0.5,0.2c-0.1,0.4-0.3,0.9-0.6,1.3c-0.3,0.5-0.7,0.9-1.2,1.2S117.9,28.2,117.1,28.2z M117,16.5
			c-0.6,0-1.1,0.2-1.6,0.5c-0.4,0.4-0.8,0.9-1,1.5c-0.2,0.6-0.4,1.3-0.4,2.1h4.4c0.2,0,0.3,0,0.5-0.1s0.3-0.1,0.4-0.3
			c0.1-0.2,0.2-0.5,0.2-0.9c0-0.9-0.2-1.6-0.7-2.1C118.3,16.7,117.7,16.5,117,16.5z"/>
		<path d="M122.4,28v-0.6l1.9-0.2v-10H122v-0.5l2.3-0.3l1-0.6h0.5v1.8h0.1c0.1-0.3,0.3-0.5,0.6-0.8s0.6-0.5,1-0.7
			c0.4-0.2,0.8-0.3,1.3-0.3c0.7,0,1.3,0.2,1.7,0.7c0.4,0.5,0.6,1.1,0.6,2v8.8h1.9V28h-3.4v-9.4c0-1.2-0.5-1.8-1.6-1.8
			c-0.4,0-0.8,0.1-1.1,0.3c-0.3,0.2-0.5,0.4-0.7,0.7c-0.2,0.3-0.3,0.6-0.4,0.8v8.5l2.2,0.2V28H122.4z"/>
		<path d="M150.4,28.2c-0.9,0-1.7-0.3-2.4-0.8s-1.3-1.2-1.7-2.1c-0.4-0.9-0.6-2-0.6-3.2c0-0.8,0.1-1.6,0.3-2.3
			c0.2-0.7,0.5-1.4,0.9-2c0.4-0.6,0.9-1.1,1.5-1.4s1.3-0.5,2.1-0.5c1.2,0,2.1,0.4,2.8,1.2s1.1,1.9,1.1,3.3c0,0.2,0,0.4,0,0.5
			c0,0.2,0,0.3,0,0.4h-6.9v1.9c0,0.9,0.2,1.7,0.5,2.3s0.8,1.1,1.3,1.4s1.1,0.5,1.7,0.5c0.6,0,1-0.1,1.4-0.4c0.4-0.2,0.7-0.5,1-0.9
			c0.2-0.3,0.4-0.7,0.5-1l0.5,0.2c-0.1,0.4-0.3,0.9-0.6,1.3c-0.3,0.5-0.7,0.9-1.2,1.2S151.1,28.2,150.4,28.2z M150.3,16.5
			c-0.6,0-1.1,0.2-1.6,0.5c-0.4,0.4-0.8,0.9-1,1.5c-0.2,0.6-0.4,1.3-0.4,2.1h4.4c0.2,0,0.3,0,0.5-0.1s0.3-0.1,0.4-0.3
			c0.1-0.2,0.2-0.5,0.2-0.9c0-0.9-0.2-1.6-0.7-2.1C151.6,16.7,151,16.5,150.3,16.5z"/>
		<path d="M156,28v-0.8h4.2V12.7H157v-0.5l3.1-0.3l1-0.6h0.5v15.9h4.2V28H156z"/>
		<path d="M183.5,28.2c-0.9,0-1.6-0.3-2.3-0.8c-0.7-0.5-1.2-1.2-1.6-2.1c-0.4-0.9-0.6-2-0.6-3.1c0-1.2,0.2-2.3,0.6-3.3
			c0.4-1,1-1.7,1.7-2.3c0.7-0.6,1.5-0.8,2.5-0.8c0.6,0,1.2,0.1,1.8,0.4c0.5,0.3,1,0.6,1.3,1c0.3,0.4,0.5,0.9,0.5,1.5
			c0,0.5-0.1,0.9-0.4,1.1s-0.5,0.4-0.8,0.4c-0.2,0-0.5-0.1-0.7-0.2c-0.2-0.2-0.3-0.4-0.3-0.7c0-0.3,0.1-0.6,0.3-0.8
			c0.2-0.3,0.5-0.6,0.7-1.1c-0.1-0.2-0.4-0.4-0.8-0.6s-0.9-0.3-1.4-0.3c-1,0-1.8,0.4-2.4,1.2s-0.9,1.9-0.9,3.2v2.2
			c0,0.9,0.2,1.7,0.5,2.3s0.7,1.1,1.2,1.4c0.5,0.3,1,0.5,1.6,0.5c0.5,0,1-0.1,1.4-0.4c0.4-0.2,0.7-0.5,0.9-0.9
			c0.2-0.3,0.4-0.7,0.5-1l0.5,0.2c-0.1,0.4-0.3,0.9-0.6,1.3c-0.3,0.5-0.7,0.9-1.2,1.2C184.9,28,184.2,28.2,183.5,28.2z"/>
		<path d="M189.2,28v-0.8h4.2V17.1h-3.1v-0.5l3.1-0.3l1-0.6h0.5v11.4h4.2V28H189.2z M194.2,14c-0.3,0-0.6-0.1-0.9-0.4
			s-0.4-0.5-0.4-0.9s0.1-0.6,0.4-0.9s0.5-0.4,0.9-0.4s0.6,0.1,0.9,0.4s0.4,0.5,0.4,0.9s-0.1,0.6-0.4,0.9S194.5,14,194.2,14z"/>
		<path d="M205.8,28.2c-0.9,0-1.7-0.3-2.4-0.8s-1.3-1.2-1.7-2.1c-0.4-0.9-0.6-2-0.6-3.2c0-0.8,0.1-1.6,0.3-2.3
			c0.2-0.7,0.5-1.4,0.9-2c0.4-0.6,0.9-1.1,1.5-1.4s1.3-0.5,2.1-0.5c1.2,0,2.1,0.4,2.8,1.2s1.1,1.9,1.1,3.3c0,0.2,0,0.4,0,0.5
			c0,0.2,0,0.3,0,0.4h-6.9v1.9c0,0.9,0.2,1.7,0.5,2.3s0.8,1.1,1.3,1.4s1.1,0.5,1.7,0.5c0.6,0,1-0.1,1.4-0.4c0.4-0.2,0.7-0.5,1-0.9
			c0.2-0.3,0.4-0.7,0.5-1l0.5,0.2c-0.1,0.4-0.3,0.9-0.6,1.3c-0.3,0.5-0.7,0.9-1.2,1.2S206.5,28.2,205.8,28.2z M205.7,16.5
			c-0.6,0-1.1,0.2-1.6,0.5c-0.4,0.4-0.8,0.9-1,1.5c-0.2,0.6-0.4,1.3-0.4,2.1h4.4c0.2,0,0.3,0,0.5-0.1s0.3-0.1,0.4-0.3
			c0.1-0.2,0.2-0.5,0.2-0.9c0-0.9-0.2-1.6-0.7-2.1C207,16.7,206.4,16.5,205.7,16.5z"/>
		<path d="M211.4,28v-0.8h4.2V12.7h-3.1v-0.5l3.1-0.3l1-0.6h0.5v15.9h4.2V28H211.4z"/>
		<path d="M227.4,28.2c-0.7,0-1.4-0.2-1.9-0.5c-0.5-0.3-1-0.8-1.4-1.4s-0.6-1.3-0.8-2c-0.2-0.7-0.3-1.5-0.3-2.3
			c0-0.8,0.1-1.5,0.3-2.3c0.2-0.7,0.4-1.4,0.8-2s0.8-1.1,1.4-1.4c0.5-0.3,1.2-0.5,1.9-0.5c0.7,0,1.4,0.2,1.9,0.5
			c0.5,0.3,1,0.8,1.4,1.4c0.4,0.6,0.6,1.3,0.8,2c0.2,0.7,0.3,1.5,0.3,2.3c0,0.8-0.1,1.5-0.3,2.3c-0.2,0.7-0.4,1.4-0.8,2
			c-0.4,0.6-0.8,1.1-1.4,1.4C228.8,28,228.2,28.2,227.4,28.2z M227.4,27.5c0.9,0,1.6-0.4,2.1-1.2c0.5-0.8,0.7-1.9,0.7-3.2v-2.2
			c0-1.4-0.2-2.4-0.7-3.2c-0.5-0.8-1.2-1.2-2.1-1.2c-0.9,0-1.6,0.4-2.1,1.2c-0.5,0.8-0.7,1.9-0.7,3.2v2.2c0,1.4,0.2,2.4,0.7,3.2
			C225.8,27.1,226.5,27.5,227.4,27.5z"/>
		<path d="M248.4,28.2c-0.8,0-1.4-0.2-1.9-0.7c-0.5-0.5-0.9-1.2-1.1-2c-0.2-0.8-0.4-1.8-0.4-2.8c0-1.3,0.2-2.4,0.5-3.5
			c0.3-1,0.8-1.9,1.4-2.5c0.6-0.6,1.4-0.9,2.3-0.9c0.5,0,0.9,0.1,1.3,0.3c0.3,0.2,0.6,0.4,0.8,0.7v-4.1H249v-0.5l2.3-0.3l1-0.6h0.5
			v15.5h1.6v0.5l-1.6,0.3l-1,0.6h-0.5v-1.9h-0.1c-0.1,0.3-0.3,0.5-0.5,0.8c-0.3,0.3-0.6,0.5-0.9,0.7
			C249.3,28.1,248.9,28.2,248.4,28.2z M248.9,27.3c0.5,0,0.9-0.1,1.3-0.4c0.3-0.3,0.6-0.6,0.8-0.9c0.2-0.4,0.3-0.7,0.3-1.1v-5.4
			c0-1.1-0.2-1.9-0.6-2.4s-1-0.7-1.6-0.7c-0.7,0-1.2,0.3-1.7,0.8c-0.4,0.5-0.6,1.3-0.6,2.3v5.3c0,0.9,0.2,1.5,0.7,1.9
			C247.8,27.1,248.3,27.3,248.9,27.3z"/>
		<path d="M261.2,28.2c-0.9,0-1.7-0.3-2.4-0.8s-1.3-1.2-1.7-2.1c-0.4-0.9-0.6-2-0.6-3.2c0-0.8,0.1-1.6,0.3-2.3
			c0.2-0.7,0.5-1.4,0.9-2c0.4-0.6,0.9-1.1,1.5-1.4s1.3-0.5,2.1-0.5c1.2,0,2.1,0.4,2.8,1.2s1.1,1.9,1.1,3.3c0,0.2,0,0.4,0,0.5
			c0,0.2,0,0.3,0,0.4h-6.9v1.9c0,0.9,0.2,1.7,0.5,2.3s0.8,1.1,1.3,1.4s1.1,0.5,1.7,0.5c0.6,0,1-0.1,1.4-0.4c0.4-0.2,0.7-0.5,1-0.9
			c0.2-0.3,0.4-0.7,0.5-1l0.5,0.2c-0.1,0.4-0.3,0.9-0.6,1.3c-0.3,0.5-0.7,0.9-1.2,1.2S262,28.2,261.2,28.2z M261.1,16.5
			c-0.6,0-1.1,0.2-1.6,0.5c-0.4,0.4-0.8,0.9-1,1.5c-0.2,0.6-0.4,1.3-0.4,2.1h4.4c0.2,0,0.3,0,0.5-0.1s0.3-0.1,0.4-0.3
			c0.1-0.2,0.2-0.5,0.2-0.9c0-0.9-0.2-1.6-0.7-2.1C262.4,16.7,261.8,16.5,261.1,16.5z"/>
		<path d="M272.8,28.2c-0.7,0-1.3-0.2-1.8-0.5s-0.8-0.8-1.1-1.3c-0.3-0.5-0.4-1-0.5-1.4h-0.2V28h-0.7v-5.2h1.2V23c0,0.1,0,0.4,0,0.7
			c0,0.3,0.1,0.7,0.2,1.1c0.1,0.4,0.3,0.8,0.5,1.2c0.2,0.4,0.5,0.7,0.9,1c0.4,0.3,0.9,0.4,1.5,0.4c0.7,0,1.2-0.2,1.5-0.5
			c0.3-0.3,0.5-0.8,0.5-1.3c0-0.5-0.1-1-0.4-1.4c-0.3-0.4-0.6-0.7-1.1-1s-0.9-0.6-1.4-0.9s-1-0.6-1.4-0.9c-0.4-0.3-0.8-0.7-1.1-1.2
			c-0.3-0.4-0.4-1-0.4-1.6c0-0.8,0.3-1.5,0.8-2s1.3-0.8,2.2-0.8c0.7,0,1.2,0.1,1.6,0.4c0.4,0.3,0.7,0.6,0.9,0.9
			c0.2,0.3,0.3,0.7,0.4,0.9h0.2v-2h0.7v4.3h-0.9v-0.1c0-0.4,0-0.8-0.1-1.2c-0.1-0.4-0.2-0.8-0.5-1.2c-0.2-0.4-0.5-0.7-0.9-0.9
			c-0.4-0.2-0.8-0.4-1.4-0.4c-0.7,0-1.1,0.2-1.4,0.5c-0.3,0.4-0.4,0.7-0.4,1.1c0,0.5,0.1,0.9,0.4,1.3c0.3,0.4,0.6,0.7,1.1,1
			c0.4,0.3,0.9,0.6,1.4,0.9s1,0.6,1.4,1c0.4,0.3,0.8,0.7,1.1,1.2c0.3,0.5,0.4,1,0.4,1.6c0,0.6-0.1,1.1-0.4,1.6
			c-0.3,0.5-0.7,0.8-1.2,1.1S273.4,28.2,272.8,28.2z"/>
		<path d="M277.9,28v-0.8h4.2V17.1H279v-0.5l3.1-0.3l1-0.6h0.5v11.4h4.2V28H277.9z M282.9,14c-0.3,0-0.6-0.1-0.9-0.4
			s-0.4-0.5-0.4-0.9s0.1-0.6,0.4-0.9s0.5-0.4,0.9-0.4s0.6,0.1,0.9,0.4s0.4,0.5,0.4,0.9s-0.1,0.6-0.4,0.9S283.2,14,282.9,14z"/>
		<path d="M294.5,28.2c-0.9,0-1.7-0.3-2.4-0.8s-1.3-1.2-1.7-2.1c-0.4-0.9-0.6-2-0.6-3.2c0-0.8,0.1-1.6,0.3-2.3
			c0.2-0.7,0.5-1.4,0.9-2c0.4-0.6,0.9-1.1,1.5-1.4s1.3-0.5,2.1-0.5c1.2,0,2.1,0.4,2.8,1.2s1.1,1.9,1.1,3.3c0,0.2,0,0.4,0,0.5
			c0,0.2,0,0.3,0,0.4h-6.9v1.9c0,0.9,0.2,1.7,0.5,2.3s0.8,1.1,1.3,1.4s1.1,0.5,1.7,0.5c0.6,0,1-0.1,1.4-0.4c0.4-0.2,0.7-0.5,1-0.9
			c0.2-0.3,0.4-0.7,0.5-1l0.5,0.2c-0.1,0.4-0.3,0.9-0.6,1.3c-0.3,0.5-0.7,0.9-1.2,1.2S295.2,28.2,294.5,28.2z M294.4,16.5
			c-0.6,0-1.1,0.2-1.6,0.5c-0.4,0.4-0.8,0.9-1,1.5c-0.2,0.6-0.4,1.3-0.4,2.1h4.4c0.2,0,0.3,0,0.5-0.1s0.3-0.1,0.4-0.3
			c0.1-0.2,0.2-0.5,0.2-0.9c0-0.9-0.2-1.6-0.7-2.1C295.7,16.7,295.1,16.5,294.4,16.5z"/>
		<path d="M307.4,27.2V28h-7.8v-0.8h2.7V17.1H300v-0.5l2.3-0.3l1-0.6h0.5v3.9h0.1l0.1-0.3c0.3-1,0.8-1.9,1.5-2.5
			c0.7-0.7,1.4-1,2.3-1c0.6,0,1,0.1,1.4,0.4c0.4,0.3,0.6,0.6,0.6,1.1c0,0.3-0.1,0.5-0.2,0.7c-0.1,0.2-0.4,0.3-0.7,0.3
			c-0.4,0-0.6-0.1-0.8-0.4c-0.2-0.2-0.3-0.5-0.4-0.7l-0.3-0.6c-0.5,0-1,0.2-1.4,0.6s-0.7,0.9-1,1.5c-0.3,0.6-0.6,1.3-0.8,2l-0.3,1
			v5.7H307.4z"/>
		<path d="M317.2,28.2c-1.1,0-2-0.3-2.6-1c-0.7-0.7-1-1.7-1-3v-7.5H311V16h2.5l1-2.4h0.5V16h5.8v0.7H315v7.4c0,1,0.2,1.8,0.6,2.4
			c0.4,0.6,1,0.8,1.8,0.8c0.7,0,1.2-0.2,1.6-0.5c0.4-0.3,0.7-0.7,0.8-1.2c0.2-0.5,0.3-1.1,0.3-1.7v-0.6h0.7v0.6
			c0,0.4-0.1,0.9-0.2,1.4c-0.1,0.5-0.3,1-0.5,1.4c-0.3,0.4-0.6,0.8-1.1,1.1C318.5,28,317.9,28.2,317.2,28.2z"/>
		<path d="M327.2,28.2c-0.7,0-1.4-0.2-1.9-0.5c-0.5-0.3-1-0.8-1.4-1.4s-0.6-1.3-0.8-2c-0.2-0.7-0.3-1.5-0.3-2.3
			c0-0.8,0.1-1.5,0.3-2.3c0.2-0.7,0.4-1.4,0.8-2s0.8-1.1,1.4-1.4c0.5-0.3,1.2-0.5,1.9-0.5c0.7,0,1.4,0.2,1.9,0.5
			c0.5,0.3,1,0.8,1.4,1.4c0.4,0.6,0.6,1.3,0.8,2c0.2,0.7,0.3,1.5,0.3,2.3c0,0.8-0.1,1.5-0.3,2.3c-0.2,0.7-0.4,1.4-0.8,2
			c-0.4,0.6-0.8,1.1-1.4,1.4C328.6,28,327.9,28.2,327.2,28.2z M327.2,27.5c0.9,0,1.6-0.4,2.1-1.2c0.5-0.8,0.7-1.9,0.7-3.2v-2.2
			c0-1.4-0.2-2.4-0.7-3.2c-0.5-0.8-1.2-1.2-2.1-1.2c-0.9,0-1.6,0.4-2.1,1.2c-0.5,0.8-0.7,1.9-0.7,3.2v2.2c0,1.4,0.2,2.4,0.7,3.2
			C325.6,27.1,326.3,27.5,327.2,27.5z"/>
		<path d="M337.4,30.2l-0.3-0.4c0.3-0.2,0.6-0.5,0.9-0.8c0.3-0.3,0.5-0.6,0.5-0.8c-0.4,0-0.7-0.1-0.9-0.3c-0.3-0.2-0.4-0.5-0.4-0.9
			c0-0.4,0.1-0.7,0.4-0.9s0.5-0.3,0.9-0.3c0.3,0,0.6,0.1,0.9,0.3c0.2,0.2,0.4,0.6,0.4,1c0,0.4-0.1,0.9-0.4,1.3
			c-0.2,0.4-0.5,0.8-0.9,1.1C338,29.8,337.7,30,337.4,30.2z M338.4,18.7c-0.3,0-0.6-0.1-0.9-0.4s-0.4-0.5-0.4-0.9
			c0-0.3,0.1-0.6,0.4-0.9s0.5-0.4,0.9-0.4s0.6,0.1,0.9,0.4c0.2,0.2,0.4,0.5,0.4,0.9c0,0.3-0.1,0.6-0.4,0.9
			C339,18.6,338.7,18.7,338.4,18.7z"/>
		<path d="M360.5,28.2c-0.8,0-1.4-0.2-2-0.7c-0.6-0.5-1-1.1-1.4-1.9c-0.4-0.8-0.7-1.7-0.9-2.7c-0.2-1-0.3-2-0.3-3.1
			c0-1,0.1-2.1,0.3-3.1c0.2-1,0.5-1.9,0.9-2.7c0.4-0.8,0.8-1.4,1.4-1.9c0.6-0.5,1.2-0.7,2-0.7c0.6,0,1.1,0.1,1.5,0.4
			c0.4,0.2,0.7,0.5,1,0.9s0.4,0.7,0.5,1h0.2v-2h0.7v5.6h-1.2v-0.5c0-1.1-0.1-2-0.4-2.7c-0.3-0.6-0.6-1.1-1-1.4
			c-0.4-0.3-0.8-0.4-1.3-0.4c-0.9,0-1.5,0.3-2,1c-0.5,0.7-0.7,1.7-0.7,2.9v7.3c0,1.3,0.2,2.2,0.7,2.9s1.1,1,2,1
			c0.4,0,0.9-0.1,1.3-0.4c0.4-0.3,0.7-0.7,1-1.4s0.4-1.5,0.4-2.7v-0.5h1.2V28h-0.7v-2h-0.2c-0.1,0.3-0.2,0.6-0.5,1
			c-0.2,0.3-0.6,0.6-1,0.9C361.6,28.1,361.1,28.2,360.5,28.2z"/>
		<path d="M370.1,28.2c-0.8,0-1.5-0.2-1.9-0.7c-0.5-0.5-0.7-1.1-0.7-1.8c0-0.7,0.2-1.2,0.5-1.7c0.3-0.4,0.8-0.8,1.3-1.1
			c0.5-0.3,1-0.6,1.5-0.8l2.3-1v-2.2c0-0.7-0.2-1.3-0.7-1.7c-0.5-0.4-1-0.6-1.7-0.6c-0.6,0-1.2,0.2-1.6,0.5
			c-0.4,0.3-0.7,0.6-0.9,0.9c0.3,0.4,0.6,0.6,0.8,0.8s0.3,0.5,0.3,0.7c0,0.3-0.1,0.5-0.3,0.7s-0.4,0.3-0.8,0.3
			c-0.3,0-0.6-0.1-0.8-0.3c-0.2-0.2-0.3-0.5-0.3-0.9c0-0.3,0.1-0.7,0.3-1.1s0.4-0.8,0.8-1.2c0.3-0.4,0.8-0.7,1.3-0.9
			c0.5-0.2,1.2-0.4,1.9-0.4c0.8,0,1.4,0.2,1.9,0.5c0.5,0.3,0.8,0.7,1,1.2c0.2,0.5,0.3,1,0.3,1.5v7.2c0,0.6,0.2,0.9,0.6,0.9
			c0.3,0,0.5-0.1,0.7-0.3c0.2-0.2,0.3-0.5,0.3-0.7l0.4,0.1c0,0.3-0.1,0.6-0.3,0.9c-0.2,0.3-0.4,0.6-0.7,0.8s-0.6,0.3-1,0.3
			c-0.4,0-0.8-0.1-1.1-0.4c-0.3-0.3-0.5-0.8-0.5-1.4c-0.1,0.3-0.3,0.5-0.6,0.8c-0.3,0.3-0.6,0.5-1,0.7
			C371,28.1,370.6,28.2,370.1,28.2z M368.8,25.1c0,0.6,0.2,1.1,0.5,1.5s0.8,0.6,1.4,0.6c0.4,0,0.7-0.1,1-0.3
			c0.3-0.2,0.6-0.4,0.8-0.6c0.2-0.2,0.3-0.5,0.4-0.7v-4.1l-2.1,1c-0.3,0.2-0.7,0.3-1,0.5c-0.3,0.2-0.6,0.4-0.8,0.7
			C368.9,24.2,368.8,24.6,368.8,25.1z"/>
		<path d="M385,27.2V28h-7.8v-0.8h2.7V17.1h-2.3v-0.5l2.3-0.3l1-0.6h0.5v3.9h0.1l0.1-0.3c0.3-1,0.8-1.9,1.5-2.5c0.7-0.7,1.4-1,2.3-1
			c0.6,0,1,0.1,1.4,0.4c0.4,0.3,0.6,0.6,0.6,1.1c0,0.3-0.1,0.5-0.2,0.7c-0.1,0.2-0.4,0.3-0.7,0.3c-0.4,0-0.6-0.1-0.8-0.4
			c-0.2-0.2-0.3-0.5-0.4-0.7l-0.3-0.6c-0.5,0-1,0.2-1.4,0.6s-0.7,0.9-1,1.5c-0.3,0.6-0.6,1.3-0.8,2l-0.3,1v5.7H385z"/>
		<path d="M393.7,28.2c-0.7,0-1.4-0.2-1.9-0.5c-0.5-0.3-1-0.8-1.4-1.4s-0.6-1.3-0.8-2c-0.2-0.7-0.3-1.5-0.3-2.3
			c0-0.8,0.1-1.5,0.3-2.3c0.2-0.7,0.4-1.4,0.8-2s0.8-1.1,1.4-1.4c0.5-0.3,1.2-0.5,1.9-0.5c0.7,0,1.4,0.2,1.9,0.5
			c0.5,0.3,1,0.8,1.4,1.4c0.4,0.6,0.6,1.3,0.8,2c0.2,0.7,0.3,1.5,0.3,2.3c0,0.8-0.1,1.5-0.3,2.3c-0.2,0.7-0.4,1.4-0.8,2
			c-0.4,0.6-0.8,1.1-1.4,1.4C395.1,28,394.4,28.2,393.7,28.2z M393.7,27.5c0.9,0,1.6-0.4,2.1-1.2c0.5-0.8,0.7-1.9,0.7-3.2v-2.2
			c0-1.4-0.2-2.4-0.7-3.2c-0.5-0.8-1.2-1.2-2.1-1.2c-0.9,0-1.6,0.4-2.1,1.2c-0.5,0.8-0.7,1.9-0.7,3.2v2.2c0,1.4,0.2,2.4,0.7,3.2
			C392.1,27.1,392.8,27.5,393.7,27.5z"/>
		<path d="M399.8,28v-0.8h4.2V12.7h-3.1v-0.5l3.1-0.3l1-0.6h0.5v15.9h4.2V28H399.8z"/>
		<path d="M410.9,28v-0.8h4.2V17.1H412v-0.5l3.1-0.3l1-0.6h0.5v11.4h4.2V28H410.9z M415.9,14c-0.3,0-0.6-0.1-0.9-0.4
			s-0.4-0.5-0.4-0.9s0.1-0.6,0.4-0.9s0.5-0.4,0.9-0.4s0.6,0.1,0.9,0.4s0.4,0.5,0.4,0.9s-0.1,0.6-0.4,0.9S416.2,14,415.9,14z"/>
		<path d="M421.7,28v-0.6l1.9-0.2v-10h-2.3v-0.5l2.3-0.3l1-0.6h0.5v1.8h0.1c0.1-0.3,0.3-0.5,0.6-0.8s0.6-0.5,1-0.7
			c0.4-0.2,0.8-0.3,1.3-0.3c0.7,0,1.3,0.2,1.7,0.7c0.4,0.5,0.6,1.1,0.6,2v8.8h1.9V28h-3.4v-9.4c0-1.2-0.5-1.8-1.6-1.8
			c-0.4,0-0.8,0.1-1.1,0.3c-0.3,0.2-0.5,0.4-0.7,0.7c-0.2,0.3-0.3,0.6-0.4,0.8v8.5l2.2,0.2V28H421.7z"/>
		<path d="M436.6,28.2c-0.8,0-1.5-0.2-1.9-0.7c-0.5-0.5-0.7-1.1-0.7-1.8c0-0.7,0.2-1.2,0.5-1.7c0.3-0.4,0.8-0.8,1.3-1.1
			c0.5-0.3,1-0.6,1.5-0.8l2.3-1v-2.2c0-0.7-0.2-1.3-0.7-1.7c-0.5-0.4-1-0.6-1.7-0.6c-0.6,0-1.2,0.2-1.6,0.5
			c-0.4,0.3-0.7,0.6-0.9,0.9c0.3,0.4,0.6,0.6,0.8,0.8s0.3,0.5,0.3,0.7c0,0.3-0.1,0.5-0.3,0.7s-0.4,0.3-0.8,0.3
			c-0.3,0-0.6-0.1-0.8-0.3c-0.2-0.2-0.3-0.5-0.3-0.9c0-0.3,0.1-0.7,0.3-1.1s0.4-0.8,0.8-1.2c0.3-0.4,0.8-0.7,1.3-0.9
			c0.5-0.2,1.2-0.4,1.9-0.4c0.8,0,1.4,0.2,1.9,0.5c0.5,0.3,0.8,0.7,1,1.2c0.2,0.5,0.3,1,0.3,1.5v7.2c0,0.6,0.2,0.9,0.6,0.9
			c0.3,0,0.5-0.1,0.7-0.3c0.2-0.2,0.3-0.5,0.3-0.7l0.4,0.1c0,0.3-0.1,0.6-0.3,0.9c-0.2,0.3-0.4,0.6-0.7,0.8s-0.6,0.3-1,0.3
			c-0.4,0-0.8-0.1-1.1-0.4c-0.3-0.3-0.5-0.8-0.5-1.4c-0.1,0.3-0.3,0.5-0.6,0.8c-0.3,0.3-0.6,0.5-1,0.7
			C437.5,28.1,437.1,28.2,436.6,28.2z M435.3,25.1c0,0.6,0.2,1.1,0.5,1.5s0.8,0.6,1.4,0.6c0.4,0,0.7-0.1,1-0.3
			c0.3-0.2,0.6-0.4,0.8-0.6c0.2-0.2,0.3-0.5,0.4-0.7v-4.1l-2.1,1c-0.3,0.2-0.7,0.3-1,0.5c-0.3,0.2-0.6,0.4-0.8,0.7
			C435.4,24.2,435.3,24.6,435.3,25.1z"/>
		<path d="M460.6,28.2c-0.6,0-1.2-0.1-1.6-0.4c-0.4-0.2-0.8-0.5-1-0.9c-0.3-0.3-0.5-0.7-0.6-1.1c-0.1-0.4-0.2-0.6-0.2-0.9H457V28
			h-0.7v-6.5h1.2v0.9c0,0.3,0,0.6,0.1,1c0,0.4,0.1,0.9,0.2,1.4c0.1,0.5,0.3,0.9,0.5,1.3s0.5,0.8,0.9,1c0.4,0.3,0.9,0.4,1.5,0.4
			c0.7,0,1.3-0.2,1.7-0.7c0.4-0.4,0.7-1,0.7-1.8c0-0.7-0.2-1.3-0.5-1.9s-0.7-1.1-1.2-1.7c-0.5-0.5-1-1-1.5-1.6
			c-0.5-0.5-1.1-1-1.5-1.6c-0.5-0.5-0.9-1.1-1.2-1.7s-0.5-1.2-0.5-1.9c0-0.7,0.2-1.3,0.5-1.8s0.7-0.9,1.2-1.2
			c0.5-0.3,1.1-0.4,1.7-0.4c0.7,0,1.3,0.1,1.7,0.4c0.4,0.3,0.8,0.6,1,1s0.4,0.7,0.5,1h0.2v-2.2h0.7V17h-1.2v-0.7
			c0-0.8-0.1-1.5-0.3-2.2c-0.2-0.6-0.6-1.2-1-1.5c-0.4-0.4-0.9-0.6-1.5-0.6c-0.6,0-1.1,0.2-1.4,0.6c-0.3,0.4-0.5,0.9-0.5,1.5
			c0,0.6,0.2,1.2,0.5,1.7c0.3,0.5,0.7,1.1,1.2,1.6s1,1,1.5,1.5c0.5,0.5,1.1,1.1,1.5,1.6c0.5,0.6,0.9,1.1,1.2,1.8s0.5,1.3,0.5,2.1
			c0,0.8-0.2,1.4-0.5,2s-0.8,1-1.4,1.3S461.3,28.2,460.6,28.2z"/>
		<path d="M469.8,28.2c-0.8,0-1.5-0.2-1.9-0.7c-0.5-0.5-0.7-1.1-0.7-1.8c0-0.7,0.2-1.2,0.5-1.7c0.3-0.4,0.8-0.8,1.3-1.1
			c0.5-0.3,1-0.6,1.5-0.8l2.3-1v-2.2c0-0.7-0.2-1.3-0.7-1.7c-0.5-0.4-1-0.6-1.7-0.6c-0.6,0-1.2,0.2-1.6,0.5
			c-0.4,0.3-0.7,0.6-0.9,0.9c0.3,0.4,0.6,0.6,0.8,0.8s0.3,0.5,0.3,0.7c0,0.3-0.1,0.5-0.3,0.7s-0.4,0.3-0.8,0.3
			c-0.3,0-0.6-0.1-0.8-0.3c-0.2-0.2-0.3-0.5-0.3-0.9c0-0.3,0.1-0.7,0.3-1.1s0.4-0.8,0.8-1.2c0.3-0.4,0.8-0.7,1.3-0.9
			c0.5-0.2,1.2-0.4,1.9-0.4c0.8,0,1.4,0.2,1.9,0.5c0.5,0.3,0.8,0.7,1,1.2c0.2,0.5,0.3,1,0.3,1.5v7.2c0,0.6,0.2,0.9,0.6,0.9
			c0.3,0,0.5-0.1,0.7-0.3c0.2-0.2,0.3-0.5,0.3-0.7l0.4,0.1c0,0.3-0.1,0.6-0.3,0.9c-0.2,0.3-0.4,0.6-0.7,0.8s-0.6,0.3-1,0.3
			c-0.4,0-0.8-0.1-1.1-0.4c-0.3-0.3-0.5-0.8-0.5-1.4c-0.1,0.3-0.3,0.5-0.6,0.8c-0.3,0.3-0.6,0.5-1,0.7
			C470.8,28.1,470.3,28.2,469.8,28.2z M468.6,25.1c0,0.6,0.2,1.1,0.5,1.5s0.8,0.6,1.4,0.6c0.4,0,0.7-0.1,1-0.3
			c0.3-0.2,0.6-0.4,0.8-0.6c0.2-0.2,0.3-0.5,0.4-0.7v-4.1l-2.1,1c-0.3,0.2-0.7,0.3-1,0.5c-0.3,0.2-0.6,0.4-0.8,0.7
			C468.7,24.2,468.6,24.6,468.6,25.1z"/>
		<path d="M477.2,28v-0.6l1.9-0.2v-10h-2.3v-0.5l2.3-0.3l1-0.6h0.5v1.8h0.1c0.1-0.3,0.3-0.5,0.6-0.8s0.6-0.5,1-0.7
			c0.4-0.2,0.8-0.3,1.3-0.3c0.7,0,1.3,0.2,1.7,0.7c0.4,0.5,0.6,1.1,0.6,2v8.8h1.9V28h-3.4v-9.4c0-1.2-0.5-1.8-1.6-1.8
			c-0.4,0-0.8,0.1-1.1,0.3c-0.3,0.2-0.5,0.4-0.7,0.7c-0.2,0.3-0.3,0.6-0.4,0.8v8.5l2.2,0.2V28H477.2z"/>
		<path d="M488.5,28v-0.8h4.2V17.1h-3.1v-0.5l3.1-0.3l1-0.6h0.5v11.4h4.2V28H488.5z M493.5,14c-0.3,0-0.6-0.1-0.9-0.4
			s-0.4-0.5-0.4-0.9s0.1-0.6,0.4-0.9s0.5-0.4,0.9-0.4s0.6,0.1,0.9,0.4s0.4,0.5,0.4,0.9s-0.1,0.6-0.4,0.9S493.8,14,493.5,14z"/>
		<path d="M499.3,28v-0.6l1.9-0.2v-10h-2.3v-0.5l2.3-0.3l1-0.6h0.5v1.8h0.1c0.1-0.3,0.3-0.5,0.6-0.8s0.6-0.5,1-0.7
			c0.4-0.2,0.8-0.3,1.3-0.3c0.7,0,1.3,0.2,1.7,0.7c0.4,0.5,0.6,1.1,0.6,2v8.8h1.9V28h-3.4v-9.4c0-1.2-0.5-1.8-1.6-1.8
			c-0.4,0-0.8,0.1-1.1,0.3c-0.3,0.2-0.5,0.4-0.7,0.7c-0.2,0.3-0.3,0.6-0.4,0.8v8.5l2.2,0.2V28H499.3z"/>
	</g>
</g>
</svg>
