<?xml version="1.0" encoding="utf-8"?>
<!-- Generator: Adobe Illustrator 26.3.1, SVG Export Plug-In . SVG Version: 6.00 Build 0)  -->
<svg version="1.1" id="Capa_1" xmlns="http://www.w3.org/2000/svg" xmlns:xlink="http://www.w3.org/1999/xlink" x="0px" y="0px"
	 viewBox="0 0 355.7 37.5" style="enable-background:new 0 0 355.7 37.5;" xml:space="preserve">
<style type="text/css">
	.st0{fill:#FFFFFF;}
	.st1{fill:#212121;}
</style>
<g>
	<g>
		<rect x="0.7" y="0.7" class="st0" width="354.2" height="36"/>
		<path class="st1" d="M355.7,37.5H0V0h355.7V37.5z M1.5,36h352.7V1.5H1.5V36z"/>
	</g>
	<g>
		<path d="M28.3,28.7c-0.8,0-1.4-0.2-2-0.7c-0.6-0.5-1-1.1-1.4-1.9c-0.4-0.8-0.7-1.7-0.9-2.7c-0.2-1-0.3-2-0.3-3.1
			c0-1,0.1-2.1,0.3-3.1c0.2-1,0.5-1.9,0.9-2.7c0.4-0.8,0.8-1.4,1.4-1.9c0.6-0.5,1.2-0.7,2-0.7c0.6,0,1.1,0.1,1.5,0.4s0.7,0.5,1,0.9
			s0.4,0.7,0.5,1h0.2v-2h0.7v5.6h-1.2v-0.5c0-1.1-0.1-2-0.4-2.7c-0.3-0.6-0.6-1.1-1-1.4c-0.4-0.3-0.8-0.4-1.3-0.4
			c-0.9,0-1.5,0.3-2,1s-0.7,1.7-0.7,2.9v7.3c0,1.3,0.2,2.2,0.7,2.9c0.5,0.7,1.1,1,2,1c0.4,0,0.9-0.1,1.3-0.4c0.4-0.3,0.7-0.7,1-1.4
			c0.3-0.7,0.4-1.5,0.4-2.7v-0.5h1.2v5.6h-0.7v-2h-0.2c-0.1,0.3-0.2,0.6-0.5,1c-0.2,0.3-0.6,0.6-1,0.9
			C29.4,28.5,28.9,28.7,28.3,28.7z"/>
		<path d="M39.3,28.7c-0.7,0-1.4-0.2-1.9-0.5c-0.5-0.3-1-0.8-1.4-1.4c-0.4-0.6-0.6-1.3-0.8-2s-0.3-1.5-0.3-2.3
			c0-0.8,0.1-1.5,0.3-2.3c0.2-0.7,0.4-1.4,0.8-2c0.4-0.6,0.8-1.1,1.4-1.4c0.5-0.3,1.2-0.5,1.9-0.5s1.4,0.2,1.9,0.5
			c0.5,0.3,1,0.8,1.4,1.4c0.4,0.6,0.6,1.3,0.8,2c0.2,0.7,0.3,1.5,0.3,2.3c0,0.8-0.1,1.5-0.3,2.3s-0.4,1.4-0.8,2
			c-0.4,0.6-0.8,1.1-1.4,1.4C40.7,28.5,40,28.7,39.3,28.7z M39.3,28c0.9,0,1.6-0.4,2.1-1.2c0.5-0.8,0.7-1.9,0.7-3.2v-2.2
			c0-1.4-0.2-2.4-0.7-3.2c-0.5-0.8-1.2-1.2-2.1-1.2s-1.6,0.4-2.1,1.2c-0.5,0.8-0.7,1.9-0.7,3.2v2.2c0,1.4,0.2,2.4,0.7,3.2
			C37.6,27.6,38.3,28,39.3,28z"/>
		<path d="M50.9,28.7c-0.9,0-1.7-0.3-2.4-0.8s-1.3-1.2-1.7-2.1c-0.4-0.9-0.6-2-0.6-3.2c0-0.8,0.1-1.6,0.3-2.3s0.5-1.4,0.9-2
			c0.4-0.6,0.9-1.1,1.5-1.4s1.3-0.5,2.1-0.5c1.2,0,2.1,0.4,2.8,1.2s1.1,1.9,1.1,3.3c0,0.2,0,0.4,0,0.5c0,0.2,0,0.3,0,0.4h-6.9v1.9
			c0,0.9,0.2,1.7,0.5,2.3c0.3,0.6,0.8,1.1,1.3,1.4c0.5,0.3,1.1,0.5,1.7,0.5c0.6,0,1-0.1,1.4-0.4c0.4-0.2,0.7-0.5,1-0.9
			c0.2-0.3,0.4-0.7,0.5-1l0.5,0.2c-0.1,0.4-0.3,0.9-0.6,1.3c-0.3,0.5-0.7,0.9-1.2,1.2S51.6,28.7,50.9,28.7z M50.8,17
			c-0.6,0-1.2,0.2-1.6,0.5s-0.8,0.9-1,1.5c-0.2,0.6-0.4,1.3-0.4,2.1h4.4c0.2,0,0.3,0,0.5-0.1c0.2,0,0.3-0.1,0.4-0.3
			c0.1-0.2,0.2-0.5,0.2-0.9c0-0.9-0.2-1.6-0.7-2.1C52.1,17.2,51.5,17,50.8,17z"/>
		<path d="M64.3,16.3h0.5v11h1.6v0.5l-1.6,0.3l-1,0.6h-0.5v-2.1h-0.1c-0.1,0.3-0.3,0.6-0.5,0.9c-0.2,0.3-0.6,0.6-0.9,0.8
			c-0.4,0.2-0.8,0.3-1.3,0.3c-0.7,0-1.3-0.2-1.8-0.7c-0.5-0.5-0.7-1.2-0.7-2.2v-8.2h-2.3v-0.5l2.3-0.3l1-0.6h0.5v9.5
			c0,1.3,0.5,1.9,1.5,1.9c0.4,0,0.8-0.1,1.1-0.3c0.3-0.2,0.5-0.5,0.7-0.8c0.2-0.3,0.3-0.6,0.4-0.9v-8h-2.3v-0.5l2.3-0.3L64.3,16.3z"
			/>
		<path d="M74.9,27.7v0.8h-7.8v-0.8h2.7V17.6h-2.3v-0.5l2.3-0.3l1-0.6h0.5v3.9h0.1l0.1-0.3c0.3-1,0.8-1.9,1.5-2.5
			c0.7-0.7,1.4-1,2.3-1c0.6,0,1,0.1,1.4,0.4c0.4,0.3,0.6,0.6,0.6,1.1c0,0.3-0.1,0.5-0.2,0.7c-0.1,0.2-0.4,0.3-0.7,0.3
			c-0.4,0-0.6-0.1-0.8-0.4c-0.2-0.2-0.3-0.5-0.4-0.7L74.8,17c-0.5,0-1,0.2-1.4,0.6c-0.4,0.4-0.7,0.9-1,1.5c-0.3,0.6-0.6,1.3-0.8,2
			l-0.3,1v5.7H74.9z"/>
		<path d="M93.5,28.7c-0.8,0-1.4-0.2-1.9-0.7c-0.5-0.5-0.9-1.2-1.1-2c-0.2-0.8-0.4-1.8-0.4-2.8c0-1.3,0.2-2.4,0.5-3.5
			c0.3-1,0.8-1.9,1.4-2.5s1.4-0.9,2.3-0.9c0.5,0,0.9,0.1,1.3,0.3c0.3,0.2,0.6,0.4,0.8,0.7v-4.1h-2.3v-0.5l2.3-0.3l1-0.6h0.5v15.5
			h1.6v0.5l-1.6,0.3l-1,0.6h-0.5v-1.9h-0.1c-0.1,0.3-0.3,0.5-0.5,0.8c-0.3,0.3-0.6,0.5-0.9,0.7C94.4,28.6,94,28.7,93.5,28.7z
			 M94,27.8c0.5,0,0.9-0.1,1.3-0.4c0.3-0.3,0.6-0.6,0.8-0.9c0.2-0.4,0.3-0.7,0.3-1.1V20c0-1.1-0.2-1.9-0.6-2.4
			c-0.4-0.5-1-0.7-1.6-0.7c-0.7,0-1.2,0.3-1.7,0.8C92,18.2,91.8,19,91.8,20v5.3c0,0.9,0.2,1.5,0.7,1.9C92.9,27.6,93.4,27.8,94,27.8z
			"/>
		<path d="M106.3,28.7c-0.9,0-1.7-0.3-2.4-0.8s-1.3-1.2-1.7-2.1c-0.4-0.9-0.6-2-0.6-3.2c0-0.8,0.1-1.6,0.3-2.3
			c0.2-0.7,0.5-1.4,0.9-2c0.4-0.6,0.9-1.1,1.5-1.4s1.3-0.5,2.1-0.5c1.2,0,2.1,0.4,2.8,1.2s1.1,1.9,1.1,3.3c0,0.2,0,0.4,0,0.5
			c0,0.2,0,0.3,0,0.4h-6.9v1.9c0,0.9,0.2,1.7,0.5,2.3c0.3,0.6,0.8,1.1,1.3,1.4c0.5,0.3,1.1,0.5,1.7,0.5c0.6,0,1-0.1,1.4-0.4
			c0.4-0.2,0.7-0.5,1-0.9c0.2-0.3,0.4-0.7,0.5-1l0.5,0.2c-0.1,0.4-0.3,0.9-0.6,1.3c-0.3,0.5-0.7,0.9-1.2,1.2S107.1,28.7,106.3,28.7z
			 M106.2,17c-0.6,0-1.1,0.2-1.6,0.5c-0.4,0.4-0.8,0.9-1,1.5c-0.2,0.6-0.4,1.3-0.4,2.1h4.4c0.2,0,0.3,0,0.5-0.1
			c0.2,0,0.3-0.1,0.4-0.3s0.2-0.5,0.2-0.9c0-0.9-0.2-1.6-0.7-2.1C107.5,17.2,106.9,17,106.2,17z"/>
		<path d="M123.1,28.5v-0.8h1.9V12.8h-1.9V12h5.3v0.8h-1.9v14.9h3.1c1.1,0,1.7-0.5,1.8-1.6l0.3-2.8h0.6v5.2H123.1z"/>
		<path d="M134.1,28.5v-0.8h4.2V17.6h-3.1v-0.5l3.1-0.3l1-0.6h0.5v11.4h4.2v0.8H134.1z M139,14.5c-0.3,0-0.6-0.1-0.9-0.4
			s-0.4-0.5-0.4-0.9s0.1-0.6,0.4-0.9s0.5-0.4,0.9-0.4s0.6,0.1,0.9,0.4s0.4,0.5,0.4,0.9s-0.1,0.6-0.4,0.9S139.4,14.5,139,14.5z"/>
		<path d="M150.1,28.7c-0.7,0-1.4-0.2-1.9-0.5c-0.5-0.3-1-0.8-1.4-1.4c-0.4-0.6-0.6-1.3-0.8-2s-0.3-1.5-0.3-2.3
			c0-0.8,0.1-1.5,0.3-2.3c0.2-0.7,0.4-1.4,0.8-2c0.4-0.6,0.8-1.1,1.4-1.4c0.5-0.3,1.2-0.5,1.9-0.5s1.4,0.2,1.9,0.5
			c0.5,0.3,1,0.8,1.4,1.4c0.4,0.6,0.6,1.3,0.8,2c0.2,0.7,0.3,1.5,0.3,2.3c0,0.8-0.1,1.5-0.3,2.3s-0.4,1.4-0.8,2
			c-0.4,0.6-0.8,1.1-1.4,1.4C151.5,28.5,150.9,28.7,150.1,28.7z M150.1,28c0.9,0,1.6-0.4,2.1-1.2c0.5-0.8,0.7-1.9,0.7-3.2v-2.2
			c0-1.4-0.2-2.4-0.7-3.2c-0.5-0.8-1.2-1.2-2.1-1.2s-1.6,0.4-2.1,1.2c-0.5,0.8-0.7,1.9-0.7,3.2v2.2c0,1.4,0.2,2.4,0.7,3.2
			C148.5,27.6,149.2,28,150.1,28z"/>
		<path d="M156,28.5v-0.6l1.9-0.2v-10h-2.3v-0.5l2.3-0.3l1-0.6h0.5v1.8h0.1c0.1-0.3,0.3-0.5,0.6-0.8c0.2-0.3,0.6-0.5,1-0.7
			c0.4-0.2,0.8-0.3,1.3-0.3c0.7,0,1.3,0.2,1.7,0.7c0.4,0.5,0.6,1.1,0.6,2v8.8h1.9v0.8h-3.4V19c0-1.2-0.5-1.8-1.6-1.8
			c-0.4,0-0.8,0.1-1.1,0.3c-0.3,0.2-0.5,0.4-0.7,0.7c-0.2,0.3-0.3,0.6-0.4,0.8v8.5l2.2,0.2v0.6H156z"/>
		<path d="M171.4,30.7l-0.3-0.4c0.3-0.2,0.6-0.5,0.9-0.8c0.3-0.3,0.5-0.6,0.5-0.8c-0.4,0-0.7-0.1-0.9-0.3c-0.3-0.2-0.4-0.5-0.4-0.9
			c0-0.4,0.1-0.7,0.4-0.9s0.5-0.3,0.9-0.3c0.3,0,0.6,0.1,0.9,0.3c0.2,0.2,0.4,0.6,0.4,1c0,0.4-0.1,0.9-0.4,1.3s-0.5,0.8-0.9,1.1
			C172.1,30.3,171.7,30.5,171.4,30.7z M172.4,19.2c-0.3,0-0.6-0.1-0.9-0.4s-0.4-0.5-0.4-0.9c0-0.3,0.1-0.6,0.4-0.9s0.5-0.4,0.9-0.4
			s0.6,0.1,0.9,0.4s0.4,0.5,0.4,0.9c0,0.3-0.1,0.6-0.4,0.9S172.7,19.2,172.4,19.2z"/>
		<path d="M188.9,28.5v-0.8h1.2l3.8-15.7h0.9l3.8,15.7h1.4v0.8h-5.2v-0.8h2.2l-1.3-5.3h-3.7l-1.3,5.3h1.6v0.8H188.9z M193.9,14.9
			l-1.6,6.9h3.3L193.9,14.9z"/>
		<path d="M207.9,27.7v0.8h-7.8v-0.8h2.7V17.6h-2.3v-0.5l2.3-0.3l1-0.6h0.5v3.9h0.1l0.1-0.3c0.3-1,0.8-1.9,1.5-2.5
			c0.7-0.7,1.4-1,2.3-1c0.6,0,1,0.1,1.4,0.4c0.4,0.3,0.6,0.6,0.6,1.1c0,0.3-0.1,0.5-0.2,0.7c-0.1,0.2-0.4,0.3-0.7,0.3
			c-0.4,0-0.6-0.1-0.8-0.4c-0.2-0.2-0.3-0.5-0.4-0.7l-0.3-0.6c-0.5,0-1,0.2-1.4,0.6c-0.4,0.4-0.7,0.9-1,1.5c-0.3,0.6-0.6,1.3-0.8,2
			l-0.3,1v5.7H207.9z"/>
		<path d="M211.7,28.5v-0.8h4.2V17.6h-3.1v-0.5l3.1-0.3l1-0.6h0.5v11.4h4.2v0.8H211.7z M216.6,14.5c-0.3,0-0.6-0.1-0.9-0.4
			s-0.4-0.5-0.4-0.9s0.1-0.6,0.4-0.9s0.5-0.4,0.9-0.4s0.6,0.1,0.9,0.4s0.4,0.5,0.4,0.9s-0.1,0.6-0.4,0.9S217,14.5,216.6,14.5z"/>
		<path d="M226.3,28.7c-0.8,0-1.5-0.2-1.9-0.7c-0.5-0.5-0.7-1.1-0.7-1.8c0-0.7,0.2-1.2,0.5-1.7c0.3-0.4,0.8-0.8,1.3-1.1
			c0.5-0.3,1-0.6,1.5-0.8l2.3-1v-2.2c0-0.7-0.2-1.3-0.7-1.7c-0.5-0.4-1-0.6-1.7-0.6c-0.6,0-1.2,0.2-1.6,0.5
			c-0.4,0.3-0.7,0.6-0.9,0.9c0.3,0.4,0.6,0.6,0.8,0.8s0.3,0.5,0.3,0.7c0,0.3-0.1,0.5-0.3,0.7s-0.4,0.3-0.8,0.3
			c-0.3,0-0.6-0.1-0.8-0.3c-0.2-0.2-0.3-0.5-0.3-0.9c0-0.3,0.1-0.7,0.3-1.1s0.4-0.8,0.8-1.2c0.3-0.4,0.8-0.7,1.3-0.9
			c0.5-0.2,1.2-0.4,1.9-0.4c0.8,0,1.4,0.2,1.9,0.5c0.5,0.3,0.8,0.7,1,1.2c0.2,0.5,0.3,1,0.3,1.5v7.2c0,0.6,0.2,0.9,0.6,0.9
			c0.3,0,0.5-0.1,0.7-0.3c0.2-0.2,0.3-0.5,0.3-0.7l0.4,0.1c0,0.3-0.1,0.6-0.3,0.9c-0.2,0.3-0.4,0.6-0.7,0.8s-0.6,0.3-1,0.3
			c-0.4,0-0.8-0.1-1.1-0.4c-0.3-0.3-0.5-0.8-0.5-1.4c-0.1,0.3-0.3,0.5-0.6,0.8c-0.3,0.3-0.6,0.5-1,0.7
			C227.2,28.6,226.8,28.7,226.3,28.7z M225,25.6c0,0.6,0.2,1.1,0.5,1.5c0.4,0.4,0.8,0.6,1.4,0.6c0.4,0,0.7-0.1,1-0.3
			s0.6-0.4,0.8-0.6s0.3-0.5,0.4-0.7v-4.1l-2.1,1c-0.3,0.2-0.7,0.3-1,0.5c-0.3,0.2-0.6,0.4-0.8,0.7C225.1,24.7,225,25.1,225,25.6z"/>
		<path d="M233.6,28.5v-0.6l1.9-0.2v-10h-2.3v-0.5l2.3-0.3l1-0.6h0.5v1.8h0.1c0.1-0.3,0.3-0.5,0.6-0.8c0.3-0.3,0.6-0.5,1-0.7
			c0.4-0.2,0.8-0.3,1.3-0.3c0.7,0,1.3,0.2,1.7,0.7c0.4,0.5,0.6,1.1,0.6,2v8.8h1.9v0.8h-3.4V19c0-1.2-0.5-1.8-1.6-1.8
			c-0.4,0-0.8,0.1-1.1,0.3c-0.3,0.2-0.5,0.4-0.7,0.7s-0.3,0.6-0.4,0.8v8.5l2.2,0.2v0.6H233.6z"/>
		<path d="M248.4,28.7c-0.8,0-1.5-0.2-1.9-0.7c-0.5-0.5-0.7-1.1-0.7-1.8c0-0.7,0.2-1.2,0.5-1.7c0.3-0.4,0.8-0.8,1.3-1.1
			c0.5-0.3,1-0.6,1.5-0.8l2.3-1v-2.2c0-0.7-0.2-1.3-0.7-1.7c-0.5-0.4-1-0.6-1.7-0.6c-0.6,0-1.2,0.2-1.6,0.5
			c-0.4,0.3-0.7,0.6-0.9,0.9c0.3,0.4,0.6,0.6,0.8,0.8s0.3,0.5,0.3,0.7c0,0.3-0.1,0.5-0.3,0.7s-0.4,0.3-0.8,0.3
			c-0.3,0-0.6-0.1-0.8-0.3c-0.2-0.2-0.3-0.5-0.3-0.9c0-0.3,0.1-0.7,0.3-1.1s0.4-0.8,0.8-1.2c0.3-0.4,0.8-0.7,1.3-0.9
			c0.5-0.2,1.2-0.4,1.9-0.4c0.8,0,1.4,0.2,1.9,0.5c0.5,0.3,0.8,0.7,1,1.2c0.2,0.5,0.3,1,0.3,1.5v7.2c0,0.6,0.2,0.9,0.6,0.9
			c0.3,0,0.5-0.1,0.7-0.3c0.2-0.2,0.3-0.5,0.3-0.7l0.4,0.1c0,0.3-0.1,0.6-0.3,0.9c-0.2,0.3-0.4,0.6-0.7,0.8s-0.6,0.3-1,0.3
			c-0.4,0-0.8-0.1-1.1-0.4c-0.3-0.3-0.5-0.8-0.5-1.4c-0.1,0.3-0.3,0.5-0.6,0.8c-0.3,0.3-0.6,0.5-1,0.7
			C249.4,28.6,248.9,28.7,248.4,28.7z M247.2,25.6c0,0.6,0.2,1.1,0.5,1.5c0.4,0.4,0.8,0.6,1.4,0.6c0.4,0,0.7-0.1,1-0.3
			s0.6-0.4,0.8-0.6s0.3-0.5,0.4-0.7v-4.1l-2.1,1c-0.3,0.2-0.7,0.3-1,0.5c-0.3,0.2-0.6,0.4-0.8,0.7C247.3,24.7,247.2,25.1,247.2,25.6
			z"/>
		<path d="M275.6,28.7c-0.6,0-1.1-0.2-1.4-0.6s-0.5-1-0.5-1.7v-4.1c0-0.8-0.2-1.4-0.5-1.7s-0.9-0.5-1.8-0.5h-1.1v7.6h1.8v0.8h-5.3
			v-0.8h1.9V12.8h-1.9V12h5.1c1.1,0,2,0.2,2.6,0.6c0.7,0.4,1.1,0.9,1.4,1.6c0.3,0.6,0.4,1.2,0.4,1.8c0,1-0.3,1.8-0.9,2.4
			c-0.6,0.6-1.4,1.1-2.4,1.3l-0.1,0v0.1l0.1,0c0.7,0.1,1.1,0.4,1.5,0.7s0.5,0.9,0.5,1.7v3.9c0,0.1,0,0.3,0,0.6
			c0,0.2,0.1,0.4,0.2,0.6c0.1,0.2,0.3,0.3,0.6,0.3c0.3,0,0.6-0.1,0.7-0.4c0.1-0.3,0.2-0.6,0.2-0.9v-3.8h0.7v3.9c0,0.3-0.1,0.7-0.2,1
			c-0.1,0.4-0.3,0.7-0.6,0.9S276.1,28.7,275.6,28.7z M270.3,19.4h1.3c1,0,1.7-0.2,2.3-0.6c0.5-0.4,0.8-1.1,0.8-2.1v-1.2
			c0-1-0.3-1.7-0.8-2.2c-0.5-0.5-1.3-0.7-2.3-0.7h-1.3V19.4z"/>
		<path d="M283.7,28.7c-0.9,0-1.7-0.3-2.4-0.8s-1.3-1.2-1.7-2.1c-0.4-0.9-0.6-2-0.6-3.2c0-0.8,0.1-1.6,0.3-2.3
			c0.2-0.7,0.5-1.4,0.9-2c0.4-0.6,0.9-1.1,1.5-1.4s1.3-0.5,2.1-0.5c1.2,0,2.1,0.4,2.8,1.2s1.1,1.9,1.1,3.3c0,0.2,0,0.4,0,0.5
			c0,0.2,0,0.3,0,0.4h-6.9v1.9c0,0.9,0.2,1.7,0.5,2.3c0.3,0.6,0.8,1.1,1.3,1.4c0.5,0.3,1.1,0.5,1.7,0.5c0.6,0,1-0.1,1.4-0.4
			c0.4-0.2,0.7-0.5,1-0.9c0.2-0.3,0.4-0.7,0.5-1l0.5,0.2c-0.1,0.4-0.3,0.9-0.6,1.3c-0.3,0.5-0.7,0.9-1.2,1.2S284.4,28.7,283.7,28.7z
			 M283.6,17c-0.6,0-1.1,0.2-1.6,0.5c-0.4,0.4-0.8,0.9-1,1.5c-0.2,0.6-0.4,1.3-0.4,2.1h4.4c0.2,0,0.3,0,0.5-0.1
			c0.2,0,0.3-0.1,0.4-0.3s0.2-0.5,0.2-0.9c0-0.9-0.2-1.6-0.7-2.1C284.9,17.2,284.3,17,283.6,17z"/>
		<path d="M289.3,28.5v-0.8h4.2V17.6h-3.1v-0.5l3.1-0.3l1-0.6h0.5v11.4h4.2v0.8H289.3z M294.2,14.5c-0.3,0-0.6-0.1-0.9-0.4
			s-0.4-0.5-0.4-0.9s0.1-0.6,0.4-0.9s0.5-0.4,0.9-0.4s0.6,0.1,0.9,0.4s0.4,0.5,0.4,0.9s-0.1,0.6-0.4,0.9S294.6,14.5,294.2,14.5z"/>
		<path d="M300.1,28.5v-0.6l1.9-0.2v-10h-2.3v-0.5l2.3-0.3l1-0.6h0.5v1.8h0.1c0.1-0.3,0.3-0.5,0.6-0.8c0.3-0.3,0.6-0.5,1-0.7
			c0.4-0.2,0.8-0.3,1.3-0.3c0.7,0,1.3,0.2,1.7,0.7c0.4,0.5,0.6,1.1,0.6,2v8.8h1.9v0.8h-3.4V19c0-1.2-0.5-1.8-1.6-1.8
			c-0.4,0-0.8,0.1-1.1,0.3c-0.3,0.2-0.5,0.4-0.7,0.7s-0.3,0.6-0.4,0.8v8.5l2.2,0.2v0.6H300.1z"/>
		<path d="M316.9,28.7c-0.9,0-1.7-0.3-2.4-0.8s-1.3-1.2-1.7-2.1c-0.4-0.9-0.6-2-0.6-3.2c0-0.8,0.1-1.6,0.3-2.3s0.5-1.4,0.9-2
			c0.4-0.6,0.9-1.1,1.5-1.4s1.3-0.5,2.1-0.5c1.2,0,2.1,0.4,2.8,1.2s1.1,1.9,1.1,3.3c0,0.2,0,0.4,0,0.5c0,0.2,0,0.3,0,0.4h-6.9v1.9
			c0,0.9,0.2,1.7,0.5,2.3c0.3,0.6,0.8,1.1,1.3,1.4c0.5,0.3,1.1,0.5,1.7,0.5c0.6,0,1-0.1,1.4-0.4c0.4-0.2,0.7-0.5,1-0.9
			c0.2-0.3,0.4-0.7,0.5-1l0.5,0.2c-0.1,0.4-0.3,0.9-0.6,1.3c-0.3,0.5-0.7,0.9-1.2,1.2S317.7,28.7,316.9,28.7z M316.8,17
			c-0.6,0-1.2,0.2-1.6,0.5s-0.8,0.9-1,1.5c-0.2,0.6-0.4,1.3-0.4,2.1h4.4c0.2,0,0.3,0,0.5-0.1c0.2,0,0.3-0.1,0.4-0.3
			c0.1-0.2,0.2-0.5,0.2-0.9c0-0.9-0.2-1.6-0.7-2.1C318.1,17.2,317.6,17,316.8,17z"/>
		<path d="M328.5,28.7c-0.7,0-1.3-0.2-1.8-0.5s-0.8-0.8-1.1-1.3c-0.2-0.5-0.4-1-0.5-1.4h-0.2v2.9h-0.7v-5.2h1.2v0.3
			c0,0.1,0,0.4,0,0.7c0,0.3,0.1,0.7,0.2,1.1c0.1,0.4,0.3,0.8,0.5,1.2c0.2,0.4,0.5,0.7,0.9,1c0.4,0.3,0.9,0.4,1.5,0.4
			c0.7,0,1.2-0.2,1.5-0.5s0.5-0.8,0.5-1.3c0-0.5-0.1-1-0.4-1.4c-0.3-0.4-0.6-0.7-1.1-1s-0.9-0.6-1.4-0.9c-0.5-0.3-1-0.6-1.4-0.9
			c-0.4-0.3-0.8-0.7-1.1-1.2c-0.3-0.4-0.4-1-0.4-1.6c0-0.8,0.3-1.5,0.8-2s1.3-0.8,2.2-0.8c0.7,0,1.2,0.1,1.6,0.4
			c0.4,0.3,0.7,0.6,0.9,0.9c0.2,0.3,0.3,0.7,0.4,0.9h0.2v-2h0.7v4.3h-0.9v-0.1c0-0.4,0-0.8-0.1-1.2c-0.1-0.4-0.2-0.8-0.5-1.2
			c-0.2-0.4-0.5-0.7-0.9-0.9c-0.4-0.2-0.8-0.4-1.4-0.4c-0.7,0-1.1,0.2-1.4,0.5c-0.3,0.4-0.4,0.7-0.4,1.1c0,0.5,0.1,0.9,0.4,1.3
			c0.3,0.4,0.6,0.7,1.1,1c0.4,0.3,0.9,0.6,1.4,0.9c0.5,0.3,1,0.6,1.4,1c0.4,0.3,0.8,0.7,1.1,1.2c0.3,0.5,0.4,1,0.4,1.6
			c0,0.6-0.1,1.1-0.4,1.6c-0.3,0.5-0.7,0.8-1.2,1.1C329.7,28.5,329.1,28.7,328.5,28.7z"/>
	</g>
</g>
</svg>
