<?xml version="1.0" encoding="utf-8"?>
<!-- Generator: Adobe Illustrator 26.3.1, SVG Export Plug-In . SVG Version: 6.00 Build 0)  -->
<svg version="1.1" id="Capa_1" xmlns="http://www.w3.org/2000/svg" xmlns:xlink="http://www.w3.org/1999/xlink" x="0px" y="0px"
	 viewBox="0 0 353.1 37.5" style="enable-background:new 0 0 353.1 37.5;" xml:space="preserve">
<style type="text/css">
	.st0{fill:#FFFFFF;}
	.st1{fill:#212121;}
</style>
<g>
	<g>
		<rect x="0.8" y="0.7" class="st0" width="351.6" height="36"/>
		<path class="st1" d="M353.1,37.5H0V0h353.1V37.5z M1.5,36h350.1V1.5H1.5V36z"/>
	</g>
	<g>
		<path d="M26.9,27.4c-0.8,0-1.4-0.2-2-0.7c-0.6-0.5-1-1.1-1.4-1.9s-0.7-1.7-0.9-2.7c-0.2-1-0.3-2-0.3-3.1c0-1,0.1-2.1,0.3-3.1
			c0.2-1,0.5-1.9,0.9-2.7s0.8-1.4,1.4-1.9c0.6-0.5,1.2-0.7,2-0.7c0.8,0,1.4,0.2,2,0.7c0.6,0.5,1,1.1,1.4,1.9s0.7,1.7,0.9,2.7
			s0.3,2,0.3,3.1c0,1-0.1,2.1-0.3,3.1s-0.5,1.9-0.9,2.7s-0.8,1.4-1.4,1.9C28.3,27.2,27.7,27.4,26.9,27.4z M26.9,26.6
			c0.9,0,1.5-0.3,2-1c0.5-0.7,0.7-1.7,0.7-2.9v-7.3c0-1.3-0.2-2.2-0.7-2.9c-0.5-0.7-1.1-1-2-1c-0.9,0-1.5,0.3-2,1
			c-0.5,0.7-0.7,1.7-0.7,2.9v7.3c0,1.3,0.2,2.2,0.7,2.9S26,26.6,26.9,26.6z"/>
		<path d="M32.8,27.2v-0.6l1.9-0.2v-10h-2.3v-0.5l2.3-0.3l1-0.6h0.5v1.8h0.1c0.1-0.3,0.3-0.5,0.6-0.8s0.6-0.5,1-0.7
			c0.4-0.2,0.8-0.3,1.3-0.3c0.7,0,1.3,0.2,1.7,0.7c0.4,0.5,0.6,1.1,0.6,2v8.8h1.9v0.8h-3.4v-9.4c0-1.2-0.5-1.8-1.6-1.8
			c-0.4,0-0.8,0.1-1.1,0.3c-0.3,0.2-0.5,0.4-0.7,0.7c-0.2,0.3-0.3,0.6-0.4,0.8v8.5l2.2,0.2v0.6H32.8z"/>
		<path d="M61.2,27.4c-1.1,0-2-0.3-2.6-1c-0.7-0.7-1-1.7-1-3v-7.5h-2.5v-0.7h2.5l1-2.4h0.5v2.4h5.8v0.7h-5.8v7.4
			c0,1,0.2,1.8,0.6,2.4c0.4,0.6,1,0.8,1.8,0.8c0.7,0,1.2-0.2,1.6-0.5c0.4-0.3,0.7-0.7,0.8-1.2c0.2-0.5,0.3-1.1,0.3-1.7v-0.6h0.7v0.6
			c0,0.4-0.1,0.9-0.2,1.4c-0.1,0.5-0.3,1-0.5,1.4c-0.3,0.4-0.6,0.8-1.1,1.1C62.6,27.3,62,27.4,61.2,27.4z"/>
		<path d="M71.3,27.4c-0.7,0-1.4-0.2-1.9-0.5c-0.5-0.3-1-0.8-1.4-1.4s-0.6-1.3-0.8-2c-0.2-0.7-0.3-1.5-0.3-2.3
			c0-0.8,0.1-1.5,0.3-2.3c0.2-0.7,0.4-1.4,0.8-2s0.8-1.1,1.4-1.4c0.5-0.3,1.2-0.5,1.9-0.5c0.7,0,1.4,0.2,1.9,0.5
			c0.5,0.3,1,0.8,1.4,1.4c0.4,0.6,0.6,1.3,0.8,2c0.2,0.7,0.3,1.5,0.3,2.3c0,0.8-0.1,1.5-0.3,2.3c-0.2,0.7-0.4,1.4-0.8,2
			c-0.4,0.6-0.8,1.1-1.4,1.4C72.6,27.2,72,27.4,71.3,27.4z M71.3,26.7c0.9,0,1.6-0.4,2.1-1.2c0.5-0.8,0.7-1.9,0.7-3.2v-2.2
			c0-1.4-0.2-2.4-0.7-3.2c-0.5-0.8-1.2-1.2-2.1-1.2c-0.9,0-1.6,0.4-2.1,1.2c-0.5,0.8-0.7,1.9-0.7,3.2v2.2c0,1.4,0.2,2.4,0.7,3.2
			C69.6,26.3,70.3,26.7,71.3,26.7z"/>
		<path d="M85.2,15h0.5v11h1.6v0.5l-1.6,0.3l-1,0.6h-0.5v-2.1h-0.1c-0.1,0.3-0.3,0.6-0.5,0.9c-0.2,0.3-0.6,0.6-0.9,0.8
			c-0.4,0.2-0.8,0.3-1.3,0.3c-0.7,0-1.3-0.2-1.8-0.7c-0.5-0.5-0.7-1.2-0.7-2.2v-8.2h-2.3v-0.5l2.3-0.3l1-0.6h0.5v9.5
			c0,1.3,0.5,1.9,1.5,1.9c0.4,0,0.8-0.1,1.1-0.3c0.3-0.2,0.5-0.5,0.7-0.8c0.2-0.3,0.3-0.6,0.4-0.9v-8H82v-0.5l2.3-0.3L85.2,15z"/>
		<path d="M93.9,27.4c-0.9,0-1.6-0.3-2.3-0.8c-0.7-0.5-1.2-1.2-1.6-2.1c-0.4-0.9-0.6-2-0.6-3.1c0-1.2,0.2-2.3,0.6-3.3
			c0.4-1,1-1.7,1.7-2.3c0.7-0.6,1.5-0.8,2.5-0.8c0.6,0,1.2,0.1,1.8,0.4c0.5,0.3,1,0.6,1.3,1c0.3,0.4,0.5,0.9,0.5,1.5
			c0,0.5-0.1,0.9-0.4,1.1s-0.5,0.4-0.8,0.4c-0.2,0-0.5-0.1-0.7-0.2c-0.2-0.2-0.3-0.4-0.3-0.7c0-0.3,0.1-0.6,0.3-0.8
			c0.2-0.3,0.5-0.6,0.7-1.1c-0.1-0.2-0.4-0.4-0.8-0.6s-0.9-0.3-1.4-0.3c-1,0-1.8,0.4-2.4,1.2S91,18.7,91,20.1v2.2
			c0,0.9,0.2,1.7,0.5,2.3s0.7,1.1,1.2,1.4c0.5,0.3,1,0.5,1.6,0.5c0.5,0,1-0.1,1.4-0.4c0.4-0.2,0.7-0.5,0.9-0.9
			c0.2-0.3,0.4-0.7,0.5-1l0.5,0.2c-0.1,0.4-0.3,0.9-0.6,1.3c-0.3,0.5-0.7,0.9-1.2,1.2C95.2,27.3,94.6,27.4,93.9,27.4z"/>
		<path d="M99.3,27.2v-0.8h1.9V11.9h-2.3v-0.5l2.3-0.3l1-0.6h0.5v6.2h0.1c0.1-0.3,0.3-0.5,0.6-0.8s0.6-0.5,1-0.7
			c0.4-0.2,0.8-0.3,1.3-0.3c0.7,0,1.3,0.2,1.7,0.7c0.4,0.5,0.6,1.1,0.6,2v8.8h1.9v0.8h-3.4v-9.4c0-1.2-0.5-1.8-1.6-1.8
			c-0.4,0-0.8,0.1-1.1,0.3c-0.3,0.2-0.5,0.4-0.7,0.7c-0.2,0.3-0.3,0.6-0.4,0.8v8.6h1.3v0h0.9v0.7H99.3z"/>
		<path d="M110.7,27.2v-0.8h4.2V16.4h-3.1v-0.5l3.1-0.3l1-0.6h0.5v11.4h4.2v0.8H110.7z M115.6,13.2c-0.3,0-0.6-0.1-0.9-0.4
			s-0.4-0.5-0.4-0.9s0.1-0.6,0.4-0.9s0.5-0.4,0.9-0.4s0.6,0.1,0.9,0.4s0.4,0.5,0.4,0.9s-0.1,0.6-0.4,0.9S115.9,13.2,115.6,13.2z"/>
		<path d="M121.5,27.2v-0.6l1.9-0.2v-10h-2.3v-0.5l2.3-0.3l1-0.6h0.5v1.8h0.1c0.1-0.3,0.3-0.5,0.6-0.8s0.6-0.5,1-0.7
			c0.4-0.2,0.8-0.3,1.3-0.3c0.7,0,1.3,0.2,1.7,0.7c0.4,0.5,0.6,1.1,0.6,2v8.8h1.9v0.8h-3.4v-9.4c0-1.2-0.5-1.8-1.6-1.8
			c-0.4,0-0.8,0.1-1.1,0.3c-0.3,0.2-0.5,0.4-0.7,0.7c-0.2,0.3-0.3,0.6-0.4,0.8v8.5l2.2,0.2v0.6H121.5z"/>
		<path d="M137.4,31.4c-1.4,0-2.4-0.3-3.2-0.8c-0.8-0.6-1.2-1.3-1.2-2.1c0-0.5,0.1-1,0.4-1.3c0.2-0.4,0.5-0.6,0.9-0.9s0.7-0.4,1-0.4
			v-0.1c-0.7-0.1-1.3-0.3-1.7-0.6s-0.6-0.8-0.6-1.3c0-0.5,0.1-0.8,0.3-1.1c0.2-0.3,0.5-0.6,0.8-0.7c0.3-0.2,0.5-0.3,0.7-0.5l0.2-0.1
			c-0.4-0.4-0.6-0.8-0.8-1.3s-0.3-1-0.3-1.5c0-0.6,0.1-1.2,0.4-1.8s0.7-1,1.2-1.4c0.5-0.4,1.2-0.6,2.1-0.6c0.5,0,1,0.1,1.4,0.2h3.3
			v0.7h-2.2c0.4,0.4,0.7,0.8,0.9,1.3c0.2,0.5,0.3,1,0.3,1.5c0,0.6-0.1,1.2-0.4,1.7c-0.3,0.6-0.7,1-1.2,1.4c-0.5,0.4-1.2,0.6-2.1,0.6
			c-0.5,0-0.9-0.1-1.3-0.2c-0.4-0.1-0.7-0.3-1-0.5l-0.3,0.2c-0.2,0.1-0.5,0.3-0.7,0.5c-0.2,0.2-0.4,0.5-0.4,0.8
			c0,0.3,0.1,0.5,0.4,0.7c0.2,0.2,0.5,0.3,0.8,0.3s0.6,0.1,0.7,0.1l2.8,0.2c1,0.1,1.8,0.4,2.4,0.9c0.7,0.6,1,1.3,1,2.3
			c0,0.7-0.2,1.4-0.6,1.9c-0.4,0.6-1,1-1.7,1.3S138.4,31.4,137.4,31.4z M137.6,30.6c1,0,1.8-0.2,2.5-0.7c0.7-0.5,1-1.1,1-1.9
			c0-0.5-0.2-1-0.5-1.3s-0.7-0.5-1.1-0.6c-0.4-0.1-0.8-0.2-1.2-0.2l-2.1-0.2c-0.2,0-0.4,0.1-0.7,0.3c-0.3,0.2-0.6,0.4-0.9,0.7
			c-0.3,0.3-0.4,0.8-0.4,1.3c0,0.8,0.3,1.4,0.9,1.8S136.6,30.6,137.6,30.6z M137.8,21.8c0.8,0,1.3-0.3,1.7-0.8
			c0.3-0.5,0.5-1.1,0.5-1.9v-0.9c0-0.7-0.2-1.4-0.5-1.9c-0.3-0.5-0.9-0.8-1.7-0.8s-1.3,0.3-1.7,0.8c-0.3,0.5-0.5,1.1-0.5,1.9v0.9
			c0,0.7,0.2,1.4,0.5,1.9C136.4,21.5,137,21.8,137.8,21.8z"/>
		<path d="M147.9,29.4l-0.3-0.4c0.3-0.2,0.6-0.5,0.9-0.8c0.3-0.3,0.5-0.6,0.5-0.8c-0.4,0-0.7-0.1-0.9-0.3c-0.3-0.2-0.4-0.5-0.4-0.9
			c0-0.4,0.1-0.7,0.4-0.9s0.5-0.3,0.9-0.3c0.3,0,0.6,0.1,0.9,0.3c0.2,0.2,0.4,0.6,0.4,1c0,0.4-0.1,0.9-0.4,1.3
			c-0.2,0.4-0.5,0.8-0.9,1.1C148.6,29,148.3,29.3,147.9,29.4z M148.9,18c-0.3,0-0.6-0.1-0.9-0.4s-0.4-0.5-0.4-0.9
			c0-0.3,0.1-0.6,0.4-0.9s0.5-0.4,0.9-0.4s0.6,0.1,0.9,0.4c0.2,0.2,0.4,0.5,0.4,0.9c0,0.3-0.1,0.6-0.4,0.9
			C149.6,17.9,149.3,18,148.9,18z"/>
		<path d="M174,11.5v11.7c0,1.4-0.5,2.4-1.3,3.1c-0.9,0.7-1.9,1.1-3.2,1.1c-1,0-1.8-0.2-2.3-0.6c-0.5-0.4-0.8-0.8-0.8-1.4
			c0-0.3,0.1-0.5,0.3-0.7c0.2-0.2,0.4-0.3,0.7-0.3c0.3,0,0.5,0.1,0.7,0.2c0.2,0.1,0.3,0.3,0.4,0.5s0.2,0.3,0.2,0.4l0.6,1.3
			c0.9,0.1,1.7-0.2,2.3-0.8s0.9-1.5,0.9-2.8V11.5h-3.8v-0.8h7.7v0.8H174z"/>
		<path d="M180.6,27.4c-0.8,0-1.5-0.2-1.9-0.7c-0.5-0.5-0.7-1.1-0.7-1.8c0-0.7,0.2-1.2,0.5-1.7c0.3-0.4,0.8-0.8,1.3-1.1
			c0.5-0.3,1-0.6,1.5-0.8l2.3-1v-2.2c0-0.7-0.2-1.3-0.7-1.7c-0.5-0.4-1-0.6-1.7-0.6c-0.6,0-1.2,0.2-1.6,0.5
			c-0.4,0.3-0.7,0.6-0.9,0.9c0.3,0.4,0.6,0.6,0.8,0.8s0.3,0.5,0.3,0.7c0,0.3-0.1,0.5-0.3,0.7s-0.4,0.3-0.8,0.3
			c-0.3,0-0.6-0.1-0.8-0.3c-0.2-0.2-0.3-0.5-0.3-0.9c0-0.3,0.1-0.7,0.3-1.1s0.4-0.8,0.8-1.2c0.3-0.4,0.8-0.7,1.3-0.9
			c0.5-0.2,1.2-0.4,1.9-0.4c0.8,0,1.4,0.2,1.9,0.5c0.5,0.3,0.8,0.7,1,1.2c0.2,0.5,0.3,1,0.3,1.5v7.2c0,0.6,0.2,0.9,0.6,0.9
			c0.3,0,0.5-0.1,0.7-0.3c0.2-0.2,0.3-0.5,0.3-0.7l0.4,0.1c0,0.3-0.1,0.6-0.3,0.9c-0.2,0.3-0.4,0.6-0.7,0.8s-0.6,0.3-1,0.3
			c-0.4,0-0.8-0.1-1.1-0.4c-0.3-0.3-0.5-0.8-0.5-1.4c-0.1,0.3-0.3,0.5-0.6,0.8c-0.3,0.3-0.6,0.5-1,0.7
			C181.6,27.3,181.1,27.4,180.6,27.4z M179.4,24.4c0,0.6,0.2,1.1,0.5,1.5s0.8,0.6,1.4,0.6c0.4,0,0.7-0.1,1-0.3
			c0.3-0.2,0.6-0.4,0.8-0.6c0.2-0.2,0.3-0.5,0.4-0.7v-4.1l-2.1,1c-0.3,0.2-0.7,0.3-1,0.5c-0.3,0.2-0.6,0.4-0.8,0.7
			C179.5,23.5,179.4,23.9,179.4,24.4z"/>
		<path d="M193.6,27.4c-0.9,0-1.6-0.3-2.3-0.8c-0.7-0.5-1.2-1.2-1.6-2.1c-0.4-0.9-0.6-2-0.6-3.1c0-1.2,0.2-2.3,0.6-3.3
			c0.4-1,1-1.7,1.7-2.3c0.7-0.6,1.5-0.8,2.5-0.8c0.6,0,1.2,0.1,1.8,0.4c0.5,0.3,1,0.6,1.3,1c0.3,0.4,0.5,0.9,0.5,1.5
			c0,0.5-0.1,0.9-0.4,1.1s-0.5,0.4-0.8,0.4c-0.2,0-0.5-0.1-0.7-0.2c-0.2-0.2-0.3-0.4-0.3-0.7c0-0.3,0.1-0.6,0.3-0.8
			c0.2-0.3,0.5-0.6,0.7-1.1c-0.1-0.2-0.4-0.4-0.8-0.6s-0.9-0.3-1.4-0.3c-1,0-1.8,0.4-2.4,1.2s-0.9,1.9-0.9,3.2v2.2
			c0,0.9,0.2,1.7,0.5,2.3s0.7,1.1,1.2,1.4c0.5,0.3,1,0.5,1.6,0.5c0.5,0,1-0.1,1.4-0.4c0.4-0.2,0.7-0.5,0.9-0.9
			c0.2-0.3,0.4-0.7,0.5-1l0.5,0.2c-0.1,0.4-0.3,0.9-0.6,1.3c-0.3,0.5-0.7,0.9-1.2,1.2C195,27.3,194.3,27.4,193.6,27.4z"/>
		<path d="M203.2,31.4v-0.8h3.6v-5.1h-0.1c-0.1,0.3-0.3,0.5-0.5,0.8s-0.6,0.5-0.9,0.7c-0.4,0.2-0.8,0.3-1.3,0.3
			c-0.8,0-1.4-0.2-1.9-0.7s-0.9-1.2-1.1-2.1c-0.2-0.9-0.4-1.9-0.4-3c0-1.2,0.1-2.3,0.4-3.3c0.3-1,0.7-1.8,1.3-2.4
			c0.6-0.6,1.3-0.9,2.2-0.9c0.5,0,1,0.1,1.3,0.3s0.7,0.5,0.9,0.8c0.2,0.3,0.4,0.6,0.5,1h0.2v-1.9h0.7v15.4h2.2v0.8H203.2z
			 M204.5,26.5c0.5,0,0.9-0.1,1.3-0.4c0.3-0.3,0.6-0.6,0.8-0.9c0.2-0.4,0.3-0.7,0.3-1.1v-5.4c0-1.1-0.2-1.9-0.6-2.4s-1-0.7-1.6-0.7
			c-0.7,0-1.2,0.3-1.7,0.8c-0.4,0.5-0.6,1.3-0.6,2.3V24c0,0.9,0.2,1.5,0.7,1.9C203.4,26.3,203.9,26.5,204.5,26.5z"/>
		<path d="M218.2,15h0.5v11h1.6v0.5l-1.6,0.3l-1,0.6h-0.5v-2.1h-0.1c-0.1,0.3-0.3,0.6-0.5,0.9c-0.2,0.3-0.6,0.6-0.9,0.8
			c-0.4,0.2-0.8,0.3-1.3,0.3c-0.7,0-1.3-0.2-1.8-0.7c-0.5-0.5-0.7-1.2-0.7-2.2v-8.2h-2.3v-0.5l2.3-0.3l1-0.6h0.5v9.5
			c0,1.3,0.5,1.9,1.5,1.9c0.4,0,0.8-0.1,1.1-0.3c0.3-0.2,0.5-0.5,0.7-0.8c0.2-0.3,0.3-0.6,0.4-0.9v-8H215v-0.5l2.3-0.3L218.2,15z"/>
		<path d="M227,27.4c-0.9,0-1.7-0.3-2.4-0.8s-1.3-1.2-1.7-2.1c-0.4-0.9-0.6-2-0.6-3.2c0-0.8,0.1-1.6,0.3-2.3c0.2-0.7,0.5-1.4,0.9-2
			c0.4-0.6,0.9-1.1,1.5-1.4s1.3-0.5,2.1-0.5c1.2,0,2.1,0.4,2.8,1.2s1.1,1.9,1.1,3.3c0,0.2,0,0.4,0,0.5c0,0.2,0,0.3,0,0.4h-6.9v1.9
			c0,0.9,0.2,1.7,0.5,2.3s0.8,1.1,1.3,1.4s1.1,0.5,1.7,0.5c0.6,0,1-0.1,1.4-0.4c0.4-0.2,0.7-0.5,1-0.9c0.2-0.3,0.4-0.7,0.5-1
			l0.5,0.2c-0.1,0.4-0.3,0.9-0.6,1.3c-0.3,0.5-0.7,0.9-1.2,1.2S227.7,27.4,227,27.4z M226.9,15.7c-0.6,0-1.1,0.2-1.6,0.5
			c-0.4,0.4-0.8,0.9-1,1.5c-0.2,0.6-0.4,1.3-0.4,2.1h4.4c0.2,0,0.3,0,0.5-0.1s0.3-0.1,0.4-0.3c0.1-0.2,0.2-0.5,0.2-0.9
			c0-0.9-0.2-1.6-0.7-2.1C228.2,16,227.6,15.7,226.9,15.7z"/>
		<path d="M238.5,27.4c-0.7,0-1.3-0.2-1.8-0.5s-0.8-0.8-1.1-1.3c-0.3-0.5-0.4-1-0.5-1.4H235v2.9h-0.7V22h1.2v0.3c0,0.1,0,0.4,0,0.7
			c0,0.3,0.1,0.7,0.2,1.1c0.1,0.4,0.3,0.8,0.5,1.2c0.2,0.4,0.5,0.7,0.9,1c0.4,0.3,0.9,0.4,1.5,0.4c0.7,0,1.2-0.2,1.5-0.5
			c0.3-0.3,0.5-0.8,0.5-1.3c0-0.5-0.1-1-0.4-1.4c-0.3-0.4-0.6-0.7-1.1-1s-0.9-0.6-1.4-0.9s-1-0.6-1.4-0.9c-0.4-0.3-0.8-0.7-1.1-1.2
			c-0.3-0.4-0.4-1-0.4-1.6c0-0.8,0.3-1.5,0.8-2s1.3-0.8,2.2-0.8c0.7,0,1.2,0.1,1.6,0.4c0.4,0.3,0.7,0.6,0.9,0.9
			c0.2,0.3,0.3,0.7,0.4,0.9h0.2v-2h0.7v4.3h-0.9v-0.1c0-0.4,0-0.8-0.1-1.2c-0.1-0.4-0.2-0.8-0.5-1.2c-0.2-0.4-0.5-0.7-0.9-0.9
			c-0.4-0.2-0.8-0.4-1.4-0.4c-0.7,0-1.1,0.2-1.4,0.5c-0.3,0.4-0.4,0.7-0.4,1.1c0,0.5,0.1,0.9,0.4,1.3c0.3,0.4,0.6,0.7,1.1,1
			c0.4,0.3,0.9,0.6,1.4,0.9s1,0.6,1.4,1c0.4,0.3,0.8,0.7,1.1,1.2c0.3,0.5,0.4,1,0.4,1.6c0,0.6-0.1,1.1-0.4,1.6
			c-0.3,0.5-0.7,0.8-1.2,1.1S239.2,27.4,238.5,27.4z"/>
		<path d="M255,27.2v-0.8h1.9V11.5H255v-0.8h4.2c0.9,0,1.7,0.2,2.4,0.7c0.7,0.5,1.2,1.1,1.7,1.9s0.8,1.7,1,2.6c0.2,1,0.3,2,0.3,3
			c0,1-0.1,2-0.3,3s-0.6,1.9-1,2.6s-1,1.4-1.7,1.9s-1.5,0.7-2.4,0.7H255z M259.2,11.5h-0.8v15h0.8c0.7,0,1.2-0.2,1.8-0.5
			c0.5-0.3,1-0.8,1.3-1.4s0.5-1.3,0.5-2.2v-7c0-0.9-0.2-1.6-0.5-2.2c-0.3-0.6-0.8-1-1.3-1.4C260.4,11.7,259.8,11.5,259.2,11.5z"/>
		<path d="M271.3,27.4c-0.9,0-1.7-0.3-2.4-0.8s-1.3-1.2-1.7-2.1c-0.4-0.9-0.6-2-0.6-3.2c0-0.8,0.1-1.6,0.3-2.3
			c0.2-0.7,0.5-1.4,0.9-2c0.4-0.6,0.9-1.1,1.5-1.4s1.3-0.5,2.1-0.5c1.2,0,2.1,0.4,2.8,1.2s1.1,1.9,1.1,3.3c0,0.2,0,0.4,0,0.5
			c0,0.2,0,0.3,0,0.4h-6.9v1.9c0,0.9,0.2,1.7,0.5,2.3s0.8,1.1,1.3,1.4s1.1,0.5,1.7,0.5c0.6,0,1-0.1,1.4-0.4c0.4-0.2,0.7-0.5,1-0.9
			c0.2-0.3,0.4-0.7,0.5-1l0.5,0.2c-0.1,0.4-0.3,0.9-0.6,1.3c-0.3,0.5-0.7,0.9-1.2,1.2S272.1,27.4,271.3,27.4z M271.2,15.7
			c-0.6,0-1.1,0.2-1.6,0.5c-0.4,0.4-0.8,0.9-1,1.5c-0.2,0.6-0.4,1.3-0.4,2.1h4.4c0.2,0,0.3,0,0.5-0.1s0.3-0.1,0.4-0.3
			c0.1-0.2,0.2-0.5,0.2-0.9c0-0.9-0.2-1.6-0.7-2.1C272.5,16,271.9,15.7,271.2,15.7z"/>
		<path d="M284.2,26.4v0.8h-7.8v-0.8h2.7V16.4h-2.3v-0.5l2.3-0.3l1-0.6h0.5v3.9h0.1l0.1-0.3c0.3-1,0.8-1.9,1.5-2.5
			c0.7-0.7,1.4-1,2.3-1c0.6,0,1,0.1,1.4,0.4c0.4,0.3,0.6,0.6,0.6,1.1c0,0.3-0.1,0.5-0.2,0.7c-0.1,0.2-0.4,0.3-0.7,0.3
			c-0.4,0-0.6-0.1-0.8-0.4c-0.2-0.2-0.3-0.5-0.4-0.7l-0.3-0.6c-0.5,0-1,0.2-1.4,0.6s-0.7,0.9-1,1.5c-0.3,0.6-0.6,1.3-0.8,2l-0.3,1
			v5.7H284.2z"/>
		<path d="M295.3,26.4v0.8h-7.8v-0.8h2.7V16.4h-2.3v-0.5l2.3-0.3l1-0.6h0.5v3.9h0.1l0.1-0.3c0.3-1,0.8-1.9,1.5-2.5
			c0.7-0.7,1.4-1,2.3-1c0.6,0,1,0.1,1.4,0.4c0.4,0.3,0.6,0.6,0.6,1.1c0,0.3-0.1,0.5-0.2,0.7c-0.1,0.2-0.4,0.3-0.7,0.3
			c-0.4,0-0.6-0.1-0.8-0.4c-0.2-0.2-0.3-0.5-0.4-0.7l-0.3-0.6c-0.5,0-1,0.2-1.4,0.6s-0.7,0.9-1,1.5c-0.3,0.6-0.6,1.3-0.8,2l-0.3,1
			v5.7H295.3z"/>
		<path d="M299.1,27.2v-0.8h4.2V16.4h-3.1v-0.5l3.1-0.3l1-0.6h0.5v11.4h4.2v0.8H299.1z M304,13.2c-0.3,0-0.6-0.1-0.9-0.4
			s-0.4-0.5-0.4-0.9s0.1-0.6,0.4-0.9s0.5-0.4,0.9-0.4s0.6,0.1,0.9,0.4s0.4,0.5,0.4,0.9s-0.1,0.6-0.4,0.9S304.4,13.2,304,13.2z"/>
		<path d="M314,27.4c-0.8,0-1.4-0.2-1.9-0.7c-0.5-0.5-0.9-1.2-1.1-2c-0.2-0.8-0.4-1.8-0.4-2.8c0-1.3,0.2-2.4,0.5-3.5
			c0.3-1,0.8-1.9,1.4-2.5c0.6-0.6,1.4-0.9,2.3-0.9c0.5,0,0.9,0.1,1.3,0.3c0.3,0.2,0.6,0.4,0.8,0.7v-4.1h-2.3v-0.5l2.3-0.3l1-0.6h0.5
			V26h1.6v0.5l-1.6,0.3l-1,0.6h-0.5v-1.9h-0.1c-0.1,0.3-0.3,0.5-0.5,0.8c-0.3,0.3-0.6,0.5-0.9,0.7C314.8,27.3,314.4,27.4,314,27.4z
			 M314.4,26.5c0.5,0,0.9-0.1,1.3-0.4c0.3-0.3,0.6-0.6,0.8-0.9c0.2-0.4,0.3-0.7,0.3-1.1v-5.4c0-1.1-0.2-1.9-0.6-2.4s-1-0.7-1.6-0.7
			c-0.7,0-1.2,0.3-1.7,0.8c-0.4,0.5-0.6,1.3-0.6,2.3V24c0,0.9,0.2,1.5,0.7,1.9C313.4,26.3,313.9,26.5,314.4,26.5z"/>
		<path d="M324.8,27.4c-0.8,0-1.5-0.2-1.9-0.7c-0.5-0.5-0.7-1.1-0.7-1.8c0-0.7,0.2-1.2,0.5-1.7c0.3-0.4,0.8-0.8,1.3-1.1
			c0.5-0.3,1-0.6,1.5-0.8l2.3-1v-2.2c0-0.7-0.2-1.3-0.7-1.7c-0.5-0.4-1-0.6-1.7-0.6c-0.6,0-1.2,0.2-1.6,0.5
			c-0.4,0.3-0.7,0.6-0.9,0.9c0.3,0.4,0.6,0.6,0.8,0.8s0.3,0.5,0.3,0.7c0,0.3-0.1,0.5-0.3,0.7s-0.4,0.3-0.8,0.3
			c-0.3,0-0.6-0.1-0.8-0.3c-0.2-0.2-0.3-0.5-0.3-0.9c0-0.3,0.1-0.7,0.3-1.1s0.4-0.8,0.8-1.2c0.3-0.4,0.8-0.7,1.3-0.9
			c0.5-0.2,1.2-0.4,1.9-0.4c0.8,0,1.4,0.2,1.9,0.5c0.5,0.3,0.8,0.7,1,1.2c0.2,0.5,0.3,1,0.3,1.5v7.2c0,0.6,0.2,0.9,0.6,0.9
			c0.3,0,0.5-0.1,0.7-0.3c0.2-0.2,0.3-0.5,0.3-0.7l0.4,0.1c0,0.3-0.1,0.6-0.3,0.9c-0.2,0.3-0.4,0.6-0.7,0.8s-0.6,0.3-1,0.3
			c-0.4,0-0.8-0.1-1.1-0.4c-0.3-0.3-0.5-0.8-0.5-1.4c-0.1,0.3-0.3,0.5-0.6,0.8c-0.3,0.3-0.6,0.5-1,0.7
			C325.7,27.3,325.3,27.4,324.8,27.4z M323.5,24.4c0,0.6,0.2,1.1,0.5,1.5s0.8,0.6,1.4,0.6c0.4,0,0.7-0.1,1-0.3
			c0.3-0.2,0.6-0.4,0.8-0.6c0.2-0.2,0.3-0.5,0.4-0.7v-4.1l-2.1,1c-0.3,0.2-0.7,0.3-1,0.5c-0.3,0.2-0.6,0.4-0.8,0.7
			C323.6,23.5,323.5,23.9,323.5,24.4z"/>
	</g>
</g>
</svg>
