<?xml version="1.0" encoding="utf-8"?>
<!-- Generator: Adobe Illustrator 24.0.0, SVG Export Plug-In . SVG Version: 6.00 Build 0)  -->
<svg version="1.1" id="Layer_1" xmlns="http://www.w3.org/2000/svg" xmlns:xlink="http://www.w3.org/1999/xlink" x="0px" y="0px"
	 viewBox="0 0 157.7 122.7" style="enable-background:new 0 0 157.7 122.7;" xml:space="preserve">
<style type="text/css">
	.st0{fill:#282828;}
</style>
<g>
	<g>
		<g>
			<path class="st0" d="M55.4,96.6c-5.6-2.2-10.3-5.2-14.2-8.7c-3.9-3.6-6.9-7.7-8.9-12.2c-2-4.5-3.1-9.5-3.1-14.7
				c0-5.1,1-10,3-14.4c2-4.4,4.9-8.4,8.7-11.9c3.8-3.5,8.5-6.4,13.9-8.5l0.4,0.9c-5.3,2.1-9.9,4.9-13.6,8.4
				c-3.7,3.4-6.5,7.3-8.5,11.6c-1.9,4.3-2.9,9-2.9,14c0,5,1,9.8,3,14.3c2,4.4,4.9,8.4,8.7,11.9c3.8,3.5,8.4,6.3,13.9,8.5L55.4,96.6z
				"/>
		</g>
	</g>
	<g>
		<g>
			<path class="st0" d="M102.9,96.6l-0.4-0.9c5.3-2.1,9.9-4.9,13.6-8.4c3.7-3.4,6.5-7.3,8.5-11.6c1.9-4.3,2.9-9,2.9-14
				c0-5-1-9.8-3-14.3c-2-4.4-4.9-8.4-8.7-11.9c-3.8-3.5-8.5-6.3-13.9-8.5l0.4-0.9c5.6,2.2,10.3,5.2,14.2,8.7
				c3.9,3.6,6.9,7.7,8.9,12.2c2,4.5,3.1,9.5,3.1,14.7c0,5.1-1,10-3,14.4c-2,4.4-4.9,8.4-8.7,11.9C113,91.5,108.4,94.4,102.9,96.6z"
				/>
		</g>
	</g>
	<g>
		<g>
			<path class="st0" d="M86.1,72.9c0,0.8-0.3,1.5-0.9,2c-0.6,0.5-1.3,0.8-2.1,0.8c-0.7,0-1.3-0.3-1.9-0.8c-0.5-0.5-0.8-1.2-0.8-2
				c0-0.7,0.3-1.4,0.8-1.9c0.5-0.6,1.1-0.9,1.9-0.9c0.8,0,1.5,0.3,2.1,0.9C85.8,71.5,86.1,72.1,86.1,72.9z"/>
		</g>
		<g>
			<path class="st0" d="M81.6,75.8c0,0-0.1,0-0.1,0c-5.3-0.1-10.3-3.9-11.8-9.1c-1.9-6.3,1.1-13.6,9.1-22.2l0.7,0.7
				c-7.8,8.3-10.7,15.2-8.9,21.2c1.4,4.8,6,8.4,10.9,8.4c0.7,0,1.3,0,2-0.1l0.1,1C83,75.7,82.3,75.8,81.6,75.8z"/>
		</g>
	</g>
</g>
</svg>
