<?xml version="1.0" encoding="utf-8"?>
<!-- Generator: Adobe Illustrator 26.3.1, SVG Export Plug-In . SVG Version: 6.00 Build 0)  -->
<svg version="1.1" id="Layer_1" xmlns="http://www.w3.org/2000/svg" xmlns:xlink="http://www.w3.org/1999/xlink" x="0px" y="0px"
	 viewBox="0 0 285 68.7" style="enable-background:new 0 0 285 68.7;" xml:space="preserve">
<style type="text/css">
	.st0{fill:#212121;}
</style>
<g>
	<g>
		<g>
			<path class="st0" d="M25.6,68.7c-5.4-2.2-10.1-5-13.9-8.5S5,52.7,3,48.3S0,39,0,34s1-9.7,2.9-14s4.8-8.2,8.5-11.7
				C15.1,4.9,19.7,2.1,25,0l0.5,1.1c-5.2,2.1-9.6,4.8-13.2,8.1S6,16.3,4.1,20.4c-1.9,4.1-2.8,8.7-2.8,13.5c0,4.9,1,9.5,2.9,13.8
				s4.7,8.2,8.4,11.5c3.7,3.4,8.2,6.2,13.5,8.3L25.6,68.7z"/>
		</g>
	</g>
	<g>
		<g>
			<path class="st0" d="M260,68.7l-0.5-1.1c5.2-2.1,9.6-4.8,13.2-8.1c3.6-3.3,6.3-7.1,8.2-11.2c1.9-4.1,2.8-8.7,2.8-13.5
				c0-4.9-1-9.5-2.9-13.8s-4.7-8.2-8.4-11.5c-3.7-3.4-8.2-6.2-13.5-8.3l0.5-1.1c5.4,2.2,10.1,5,13.9,8.5s6.7,7.5,8.7,11.9
				s3,9.3,3,14.3s-1,9.7-2.9,14c-1.9,4.3-4.8,8.2-8.5,11.7C269.9,63.7,265.3,66.5,260,68.7z"/>
		</g>
	</g>
	<g>
		<g>
			<g>
				<rect x="237.6" y="17.7" class="st0" width="1.2" height="33.7"/>
			</g>
			<g>
				<rect x="218.7" y="33.2" class="st0" width="38.1" height="1.2"/>
			</g>
		</g>
		<g>
			<g>
				
					<rect x="220.9" y="34" transform="matrix(0.7071 -0.7071 0.7071 0.7071 45.1482 178.2479)" class="st0" width="33.7" height="1.2"/>
			</g>
			<g>
				
					<rect x="237.3" y="14.8" transform="matrix(0.7071 -0.7071 0.7071 0.7071 45.7178 178.1537)" class="st0" width="1.2" height="38.1"/>
			</g>
		</g>
	</g>
	<g>
		<g>
			<g>
				<rect x="45.7" y="17.7" class="st0" width="1.2" height="33.7"/>
			</g>
			<g>
				<rect x="26.9" y="33.2" class="st0" width="38.1" height="1.2"/>
			</g>
		</g>
		<g>
			<g>
				
					<rect x="29.1" y="34" transform="matrix(0.7071 -0.7071 0.7071 0.7071 -11.0186 42.6166)" class="st0" width="33.7" height="1.2"/>
			</g>
			<g>
				
					<rect x="45.5" y="14.8" transform="matrix(0.7071 -0.7071 0.7071 0.7071 -10.4494 42.5227)" class="st0" width="1.2" height="38.1"/>
			</g>
		</g>
	</g>
	<g>
		<g>
			<g>
				<rect x="109.7" y="17.7" class="st0" width="1.2" height="33.7"/>
			</g>
			<g>
				<rect x="90.8" y="33.2" class="st0" width="38.1" height="1.2"/>
			</g>
		</g>
		<g>
			<g>
				
					<rect x="93.1" y="34" transform="matrix(0.7071 -0.7071 0.7071 0.7071 7.7505 87.8468)" class="st0" width="33.7" height="1.2"/>
			</g>
			<g>
				
					<rect x="109.5" y="14.8" transform="matrix(0.7071 -0.7071 0.7071 0.7071 8.3204 87.7524)" class="st0" width="1.2" height="38.1"/>
			</g>
		</g>
	</g>
	<g>
		<g>
			<g>
				<rect x="173.6" y="17.7" class="st0" width="1.2" height="33.7"/>
			</g>
			<g>
				<rect x="154.8" y="33.2" class="st0" width="38.1" height="1.2"/>
			</g>
		</g>
		<g>
			<g>
				
					<rect x="157" y="34" transform="matrix(0.7071 -0.7071 0.7071 0.7071 26.4495 133.0472)" class="st0" width="33.7" height="1.2"/>
			</g>
			<g>
				
					<rect x="173.4" y="14.8" transform="matrix(0.7071 -0.7071 0.7071 0.7071 27.022 132.9496)" class="st0" width="1.2" height="38.1"/>
			</g>
		</g>
	</g>
</g>
</svg>
