<?xml version="1.0" encoding="utf-8"?>
<!-- Generator: Adobe Illustrator 24.0.0, SVG Export Plug-In . SVG Version: 6.00 Build 0)  -->
<svg version="1.1" id="Layer_1" xmlns="http://www.w3.org/2000/svg" xmlns:xlink="http://www.w3.org/1999/xlink" x="0px" y="0px"
	 viewBox="0 0 169.1 98.6" style="enable-background:new 0 0 169.1 98.6;" xml:space="preserve">
<style type="text/css">
	.st0{fill:#282828;}
</style>
<g>
	<g>
		<g>
			<path class="st0" d="M41.1,84.5c-5.6-2.2-10.3-5.2-14.2-8.7C23,72.2,20,68.1,18,63.6c-2-4.5-3.1-9.5-3.1-14.7c0-5.1,1-10,3-14.4
				c2-4.4,4.9-8.4,8.7-11.9c3.8-3.5,8.5-6.4,13.9-8.5l0.4,0.9c-5.3,2.1-9.9,4.9-13.6,8.4c-3.7,3.4-6.5,7.3-8.5,11.6
				c-1.9,4.3-2.9,9-2.9,14c0,5,1,9.8,3,14.3c2,4.4,4.9,8.4,8.7,11.9c3.8,3.5,8.4,6.3,13.9,8.5L41.1,84.5z"/>
		</g>
	</g>
	<g>
		<g>
			<path class="st0" d="M128.6,84.5l-0.4-0.9c5.3-2.1,9.9-4.9,13.6-8.4c3.7-3.4,6.5-7.3,8.5-11.6c1.9-4.3,2.9-9,2.9-14
				c0-5-1-9.8-3-14.3c-2-4.4-4.9-8.4-8.7-11.9c-3.8-3.5-8.5-6.3-13.9-8.5l0.4-0.9c5.6,2.2,10.3,5.2,14.2,8.7
				c3.9,3.6,6.9,7.7,8.9,12.2c2,4.5,3.1,9.5,3.1,14.7c0,5.1-1,10-3,14.4c-2,4.4-4.9,8.4-8.7,11.9C138.8,79.5,134.1,82.4,128.6,84.5z
				"/>
		</g>
	</g>
	<g>
		<g>
			<g>
				<g>
					<path class="st0" d="M67.1,74.7c-4.4,0-8.6-0.7-12.4-2c-3.8-1.3-7.2-3.2-10.1-5.5c-2.9-2.3-5.1-5-6.8-8.1
						c-1.6-3.1-2.5-6.4-2.5-9.8c0-3.5,0.8-6.8,2.5-9.8c1.6-3.1,3.9-5.8,6.8-8.1c2.9-2.3,6.3-4.2,10.1-5.5c3.8-1.3,8-2,12.4-2
						c4.3,0,8.5,0.7,12.3,2c3.9,1.3,7.3,3.2,10.2,5.5c2.9,2.3,5.2,5,6.8,8.1c1.7,3.1,2.5,6.4,2.5,9.8c0,3.5-0.8,6.8-2.5,9.8
						c-1.7,3.1-4,5.8-6.8,8.1c-2.9,2.3-6.3,4.2-10.1,5.5C75.6,74.1,71.5,74.7,67.1,74.7z M67.1,24.9c-4.3,0-8.3,0.7-12.1,2
						c-3.7,1.3-7,3.1-9.8,5.3c-2.7,2.2-4.9,4.8-6.5,7.8c-1.5,2.9-2.3,6.1-2.3,9.3c0,3.3,0.8,6.4,2.3,9.3c1.6,2.9,3.8,5.6,6.5,7.8
						c2.8,2.2,6.1,4,9.8,5.3c3.7,1.3,7.8,2,12.1,2c4.3,0,8.3-0.7,12.1-2c3.7-1.3,7-3.1,9.8-5.3c2.8-2.2,5-4.8,6.6-7.8
						c1.6-2.9,2.4-6,2.4-9.3c0-3.3-0.8-6.4-2.4-9.3c-1.6-3-3.8-5.6-6.6-7.8c-2.8-2.2-6.1-4-9.9-5.3C75.3,25.5,71.3,24.9,67.1,24.9z"
						/>
				</g>
			</g>
		</g>
		<g>
			<g>
				<g>
					<path class="st0" d="M101.9,74.7c-4.4,0-8.6-0.7-12.4-2c-3.8-1.3-7.2-3.2-10.1-5.5c-2.9-2.3-5.1-5-6.8-8.1
						c-1.6-3.1-2.5-6.4-2.5-9.8c0-3.5,0.8-6.8,2.5-9.8c1.6-3.1,3.9-5.8,6.8-8.1c2.9-2.3,6.3-4.2,10.1-5.5c3.8-1.3,8-2,12.4-2
						c4.3,0,8.5,0.7,12.3,2c3.9,1.3,7.3,3.2,10.2,5.5c2.9,2.3,5.2,5,6.8,8.1c1.7,3.1,2.5,6.4,2.5,9.8c0,3.5-0.8,6.8-2.5,9.8
						c-1.7,3.1-4,5.8-6.8,8.1c-2.9,2.3-6.3,4.2-10.1,5.5C110.5,74.1,106.3,74.7,101.9,74.7z M101.9,24.9c-4.3,0-8.3,0.7-12.1,2
						c-3.7,1.3-7,3.1-9.8,5.3c-2.7,2.2-4.9,4.8-6.5,7.8c-1.5,2.9-2.3,6.1-2.3,9.3c0,3.3,0.8,6.4,2.3,9.3c1.6,2.9,3.8,5.6,6.5,7.8
						c2.8,2.2,6.1,4,9.8,5.3c3.7,1.3,7.8,2,12.1,2c4.3,0,8.3-0.7,12.1-2c3.7-1.3,7-3.1,9.8-5.3c2.8-2.2,5-4.8,6.6-7.8
						c1.6-2.9,2.4-6,2.4-9.3c0-3.3-0.8-6.4-2.4-9.3c-1.6-3-3.8-5.6-6.6-7.8c-2.8-2.2-6.1-4-9.9-5.3
						C110.2,25.5,106.1,24.9,101.9,24.9z"/>
				</g>
			</g>
		</g>
	</g>
</g>
</svg>
