<?xml version="1.0" encoding="utf-8"?>
<!-- Generator: Adobe Illustrator 26.3.1, SVG Export Plug-In . SVG Version: 6.00 Build 0)  -->
<svg version="1.1" id="Layer_1" xmlns="http://www.w3.org/2000/svg" xmlns:xlink="http://www.w3.org/1999/xlink" x="0px" y="0px"
	 viewBox="0 0 111.7 70.8" style="enable-background:new 0 0 111.7 70.8;" xml:space="preserve">
<style type="text/css">
	.st0{fill:none;stroke:#282828;stroke-miterlimit:10;}
</style>
<g>
	<g>
		<polygon class="st0" points="86.9,31.4 42.7,31.4 42.7,11.8 82.7,11.8 82.7,27.2 		"/>
		<polygon class="st0" points="24.7,59.1 69,59.1 69,39.5 28.9,39.5 28.9,54.9 		"/>
	</g>
	<g>
		<g>
			<path class="st0" d="M26.3,70.2c-5.5-2.2-10.2-5.1-14-8.6C8.5,58.1,5.5,54,3.5,49.5s-3-9.3-3-14.5c0-5.1,1-9.8,2.9-14.2
				c2-4.4,4.8-8.3,8.6-11.8s8.3-6.3,13.8-8.5"/>
		</g>
		<g>
			<path class="st0" d="M85.4,0.7c5.5,2.2,10.2,5.1,14,8.6s6.8,7.6,8.8,12.1s3,9.3,3,14.5c0,5.1-1,9.8-2.9,14.2
				c-2,4.4-4.8,8.3-8.6,11.8c-3.8,3.5-8.3,6.3-13.8,8.5"/>
		</g>
	</g>
</g>
</svg>
