<?xml version="1.0" encoding="utf-8"?>
<!-- Generator: Adobe Illustrator 24.0.0, SVG Export Plug-In . SVG Version: 6.00 Build 0)  -->
<svg version="1.1" id="Layer_1" xmlns="http://www.w3.org/2000/svg" xmlns:xlink="http://www.w3.org/1999/xlink" x="0px" y="0px"
	 viewBox="0 0 169.1 98.6" style="enable-background:new 0 0 169.1 98.6;" xml:space="preserve">
<style type="text/css">
	.st0{fill:#282828;}
</style>
<g>
	<g>
		<g>
			<path class="st0" d="M51.1,84.5c-5.6-2.2-10.3-5.2-14.2-8.7C33,72.3,30,68.1,28,63.6c-2-4.5-3.1-9.5-3.1-14.7c0-5.1,1-10,3-14.4
				c2-4.4,4.9-8.4,8.7-11.9c3.8-3.5,8.5-6.4,13.9-8.5l0.4,0.9c-5.3,2.1-9.9,4.9-13.6,8.4c-3.7,3.4-6.5,7.3-8.5,11.6
				c-1.9,4.3-2.9,9-2.9,14c0,5,1,9.8,3,14.3c2,4.4,4.9,8.4,8.7,11.9c3.8,3.5,8.5,6.3,13.9,8.5L51.1,84.5z"/>
		</g>
	</g>
	<g>
		<g>
			<path class="st0" d="M118.6,84.5l-0.4-0.9c5.3-2.1,9.9-4.9,13.6-8.4c3.7-3.4,6.5-7.3,8.5-11.6c1.9-4.3,2.9-9,2.9-14
				c0-5-1-9.8-3-14.3c-2-4.4-4.9-8.4-8.7-11.9c-3.8-3.5-8.4-6.3-13.9-8.5l0.4-0.9c5.6,2.2,10.3,5.2,14.2,8.7
				c3.9,3.6,6.9,7.7,8.9,12.2c2,4.5,3.1,9.5,3.1,14.7c0,5.1-1,10-3,14.4c-2,4.4-4.9,8.4-8.7,11.9C128.8,79.5,124.1,82.4,118.6,84.5z
				"/>
		</g>
	</g>
	<g>
		<g>
			<path class="st0" d="M90.2,56.8c-0.8,0-1.5-0.3-2-0.9c-0.5-0.6-0.8-1.3-0.8-2.1c0-0.7,0.3-1.3,0.8-1.9c0.5-0.5,1.2-0.8,2-0.8
				c0.7,0,1.4,0.3,1.9,0.8c0.6,0.5,0.9,1.1,0.9,1.9c0,0.8-0.3,1.5-0.9,2.1C91.5,56.5,90.9,56.8,90.2,56.8z"/>
		</g>
		<g>
			<polygon class="st0" points="62.2,58 61.9,57 83.3,50.5 71.8,34 72.6,33.4 84.9,51 			"/>
		</g>
		<g>
			<g>
				<g>
					<path class="st0" d="M84.2,76.6c-4.5,0-8.8-0.7-12.7-2.1c-3.9-1.4-7.4-3.3-10.4-5.6c-5.6-4.6-8.8-10.3-8.8-15.9
						c0.1-5.3,3.9-10.3,9.1-11.8c6.3-1.9,13.6,1.1,22.2,9.1L82.9,51c-8.3-7.8-15.2-10.7-21.2-8.9c-4.8,1.4-8.4,6-8.4,10.9
						c-0.1,5.2,3,10.7,8.4,15.1c2.8,2.3,6.2,4.1,10.1,5.5c3.8,1.3,8,2,12.4,2c4.4,0,8.6-0.7,12.4-2c3.8-1.3,7.2-3.2,10.1-5.5
						c2.8-2.3,5.1-5,6.8-8c1.6-3,2.5-6.2,2.5-9.6c0-3.4-0.8-6.6-2.5-9.6c-1.7-3-3.9-5.7-6.8-8c-2.8-2.3-6.3-4.1-10.1-5.5
						c-3.9-1.3-8-2-12.3-2c-4.4,0-8.6,0.7-12.4,2c-3.8,1.3-7.2,3.2-10.1,5.5c-1.3,1.1-2.6,2.3-3.7,3.6l-0.8-0.6
						c1.1-1.3,2.4-2.6,3.8-3.7c2.9-2.4,6.4-4.3,10.4-5.6c3.9-1.4,8.2-2.1,12.7-2.1c4.4,0,8.7,0.7,12.7,2.1c4,1.4,7.5,3.3,10.4,5.6
						c2.9,2.4,5.3,5.2,7,8.3c1.7,3.1,2.6,6.5,2.6,10.1c0,3.5-0.9,6.9-2.6,10.1c-1.7,3.2-4.1,5.9-7,8.3c-2.9,2.4-6.4,4.3-10.4,5.6
						C93,75.9,88.7,76.6,84.2,76.6z"/>
				</g>
			</g>
		</g>
	</g>
</g>
</svg>
