<?xml version="1.0" encoding="utf-8"?>
<!-- Generator: Adobe Illustrator 26.3.1, SVG Export Plug-In . SVG Version: 6.00 Build 0)  -->
<svg version="1.1" id="Layer_1" xmlns="http://www.w3.org/2000/svg" xmlns:xlink="http://www.w3.org/1999/xlink" x="0px" y="0px"
	 viewBox="0 0 117.5 70.8" style="enable-background:new 0 0 117.5 70.8;" xml:space="preserve">
<style type="text/css">
	.st0{fill:none;stroke:#282828;stroke-miterlimit:10;}
</style>
<g>
	<g>
		<g>
			<path class="st0" d="M26.3,70.2c-5.5-2.2-10.2-5.1-14-8.6C8.5,58.1,5.5,54,3.5,49.5s-3-9.3-3-14.5c0-5.1,1-9.8,2.9-14.2
				c2-4.4,4.8-8.3,8.6-11.8s8.3-6.3,13.8-8.5"/>
		</g>
		<g>
			<path class="st0" d="M91.2,0.7c5.5,2.2,10.2,5.1,14,8.6s6.8,7.6,8.8,12.1s3,9.3,3,14.5c0,5.1-1,9.8-2.9,14.2
				c-2,4.4-4.8,8.3-8.6,11.8c-3.8,3.5-8.3,6.3-13.8,8.5"/>
		</g>
	</g>
	<g>
		<g>
			<g>
				<path class="st0" d="M86.8,42.9c-2.1-0.9-3.5-2.4-4.1-4.4c-0.7-2-0.5-4.1,0.4-6.2c0.8-1.8,2.2-3.1,4.1-3.8"/>
				<path class="st0" d="M84.1,49c-3.9-1.8-6.5-4.5-7.7-8.3s-1-7.6,0.8-11.5c1.5-3.4,4.1-5.8,7.6-7.1"/>
				<path class="st0" d="M81.8,54c-5.4-2.4-8.9-6.2-10.6-11.5c-1.7-5.2-1.3-10.5,1.1-15.9c2.1-4.7,5.6-8,10.5-9.8"/>
				<path class="st0" d="M88.9,38.3c-0.7-0.3-1.2-0.8-1.4-1.5c-0.2-0.7-0.2-1.4,0.1-2.1c0.3-0.6,0.7-1,1.4-1.3"/>
			</g>
			<g>
				<path class="st0" d="M30.6,42.9c2.1-0.9,3.5-2.4,4.1-4.4c0.7-2,0.5-4.1-0.4-6.2c-0.8-1.8-2.1-3.1-4-3.8"/>
				<path class="st0" d="M33.4,49c3.9-1.8,6.5-4.5,7.7-8.3s1-7.6-0.8-11.5c-1.5-3.4-4.1-5.8-7.6-7.1"/>
				<path class="st0" d="M35.6,54c5.4-2.4,8.9-6.2,10.6-11.5c1.7-5.2,1.3-10.5-1.1-15.9c-2.1-4.7-5.6-8-10.5-9.8"/>
				<path class="st0" d="M28.5,38.3c0.7-0.3,1.2-0.8,1.4-1.5s0.2-1.4-0.1-2.1c-0.3-0.6-0.7-1-1.4-1.3"/>
			</g>
		</g>
		<g>
			<g>
				<path class="st0" d="M51.2,63.5c0.9-2.1,2.4-3.5,4.4-4.1c2-0.7,4.1-0.5,6.2,0.4c1.8,0.8,3.1,2.2,3.8,4.1"/>
				<path class="st0" d="M45.1,60.8c1.8-3.9,4.5-6.5,8.3-7.7s7.6-1,11.5,0.8c3.4,1.5,5.8,4.1,7.1,7.6"/>
				<path class="st0" d="M40.1,58.5c2.4-5.4,6.2-8.9,11.5-10.6c5.2-1.7,10.5-1.3,15.9,1.1c4.7,2.1,8,5.6,9.8,10.5"/>
				<path class="st0" d="M55.9,65.6c0.3-0.7,0.8-1.2,1.5-1.4c0.7-0.2,1.4-0.2,2.1,0.1c0.6,0.3,1,0.7,1.3,1.4"/>
			</g>
			<g>
				<path class="st0" d="M51.2,7.3c0.9,2.1,2.4,3.5,4.4,4.1c2,0.7,4.1,0.5,6.2-0.4c1.8-0.8,3.1-2.2,3.8-4.1"/>
				<path class="st0" d="M45.1,10.1c1.8,3.9,4.5,6.5,8.3,7.7c3.8,1.2,7.6,1,11.5-0.8c3.4-1.5,5.8-4.1,7.1-7.6"/>
				<path class="st0" d="M40.1,12.4c2.4,5.4,6.2,8.9,11.5,10.6c5.2,1.7,10.5,1.3,15.9-1.1c4.7-2.1,8-5.6,9.8-10.5"/>
				<path class="st0" d="M55.9,5.2c0.3,0.7,0.8,1.2,1.5,1.4c0.7,0.2,1.4,0.2,2.1-0.1c0.6-0.3,1-0.7,1.3-1.4"/>
			</g>
		</g>
	</g>
</g>
</svg>
