<?xml version="1.0" encoding="utf-8"?>
<!-- Generator: Adobe Illustrator 26.3.1, SVG Export Plug-In . SVG Version: 6.00 Build 0)  -->
<svg version="1.1" id="Layer_1" xmlns="http://www.w3.org/2000/svg" xmlns:xlink="http://www.w3.org/1999/xlink" x="0px" y="0px"
	 viewBox="0 0 140.9 106.7" style="enable-background:new 0 0 140.9 106.7;" xml:space="preserve">
<style type="text/css">
	.st0{fill:#282828;}
</style>
<g>
	<g>
		<g>
			<path class="st0" d="M26.2,89.3c-5.6-2.2-10.3-5.2-14.2-8.7C8.1,77,5.1,72.9,3.1,68.4S0,58.9,0,53.7c0-5.1,1-10,3-14.4
				s4.9-8.4,8.7-11.9s8.5-6.4,13.9-8.5l0.4,0.9c-5.3,2.1-9.9,4.9-13.6,8.4c-3.7,3.4-6.5,7.3-8.5,11.6C2,44.1,1,48.8,1,53.8
				s1,9.8,3,14.3c2,4.4,4.9,8.4,8.7,11.9s8.4,6.3,13.9,8.5L26.2,89.3z"/>
		</g>
	</g>
	<g>
		<g>
			<path class="st0" d="M115.3,89.3l-0.4-0.9c5.3-2.1,9.9-4.9,13.6-8.4c3.7-3.4,6.5-7.3,8.5-11.6c1.9-4.3,2.9-9,2.9-14
				s-1-9.8-3-14.3c-2-4.4-4.9-8.4-8.7-11.9s-8.5-6.3-13.9-8.5l0.4-0.9c5.6,2.2,10.3,5.2,14.2,8.7c3.9,3.6,6.9,7.7,8.9,12.2
				s3.1,9.5,3.1,14.7c0,5.1-1,10-3,14.4c-2,4.4-4.9,8.4-8.7,11.9C125.4,84.3,120.7,87.1,115.3,89.3z"/>
		</g>
	</g>
	<g>
		<g>
			<g>
				<g>
					<rect x="76.2" class="st0" width="1" height="55.6"/>
				</g>
				<g>
					<rect x="59.6" y="26.7" class="st0" width="33.4" height="1"/>
				</g>
			</g>
			<g>
				<g>
					
						<rect x="61.6" y="27.4" transform="matrix(0.7071 -0.7071 0.7071 0.7071 2.661 62.1624)" class="st0" width="29.5" height="1"/>
				</g>
				<g>
					<rect x="76" y="10.5" transform="matrix(0.7071 -0.7071 0.7071 0.7071 3.1855 62.055)" class="st0" width="1" height="33.4"/>
				</g>
			</g>
		</g>
		<g>
			<g>
				<g>
					<rect x="90.3" y="51.1" class="st0" width="1" height="55.6"/>
				</g>
				<g>
					<rect x="73.8" y="77.8" class="st0" width="33.4" height="1"/>
				</g>
			</g>
			<g>
				<g>
					
						<rect x="75.7" y="78.5" transform="matrix(0.7071 -0.7071 0.7071 0.7071 -29.3775 87.1237)" class="st0" width="29.5" height="1"/>
				</g>
				<g>
					
						<rect x="90.2" y="61.6" transform="matrix(0.7071 -0.7071 0.7071 0.7071 -28.7803 87.0445)" class="st0" width="1" height="33.4"/>
				</g>
			</g>
		</g>
		<g>
			<g>
				<g>
					<rect x="50.3" y="38.5" class="st0" width="1" height="55.6"/>
				</g>
				<g>
					<rect x="33.7" y="65.1" class="st0" width="33.4" height="1"/>
				</g>
			</g>
			<g>
				<g>
					
						<rect x="35.7" y="65.8" transform="matrix(0.7071 -0.7071 0.7071 0.7071 -32.1178 55.0672)" class="st0" width="29.5" height="1"/>
				</g>
				<g>
					
						<rect x="50.1" y="49" transform="matrix(0.7071 -0.7071 0.7071 0.7071 -31.6224 55.0303)" class="st0" width="1" height="33.4"/>
				</g>
			</g>
		</g>
	</g>
</g>
</svg>
