<?xml version="1.0" encoding="utf-8"?>
<!-- Generator: Adobe Illustrator 24.0.0, SVG Export Plug-In . SVG Version: 6.00 Build 0)  -->
<svg version="1.1" id="Layer_1" xmlns="http://www.w3.org/2000/svg" xmlns:xlink="http://www.w3.org/1999/xlink" x="0px" y="0px"
	 viewBox="0 0 128.5 98.6" style="enable-background:new 0 0 128.5 98.6;" xml:space="preserve">
<style type="text/css">
	.st0{fill:#282828;}
</style>
<g>
	<g>
		<g>
			<path class="st0" d="M35.8,84.5c-5.6-2.2-10.3-5.2-14.2-8.7c-3.9-3.6-6.9-7.7-8.9-12.2c-2-4.5-3.1-9.5-3.1-14.7
				c0-5.1,1-10,3-14.4c2-4.4,4.9-8.4,8.7-11.9c3.8-3.5,8.5-6.4,13.9-8.5l0.4,0.9c-5.3,2.1-9.9,4.9-13.6,8.4
				c-3.7,3.4-6.5,7.3-8.5,11.6c-1.9,4.3-2.9,9-2.9,14c0,5,1,9.8,3,14.3c2,4.4,4.9,8.4,8.7,11.9c3.8,3.5,8.5,6.3,13.9,8.5L35.8,84.5z
				"/>
		</g>
	</g>
	<g>
		<g>
			<path class="st0" d="M93.3,84.5L93,83.6c5.3-2.1,9.9-4.9,13.6-8.4c3.7-3.4,6.5-7.3,8.5-11.6c1.9-4.3,2.9-9,2.9-14
				c0-5-1-9.8-3-14.3c-2-4.4-4.9-8.4-8.7-11.9c-3.8-3.5-8.5-6.3-13.9-8.5l0.4-0.9c5.6,2.2,10.3,5.2,14.2,8.7
				c3.9,3.6,6.9,7.7,8.9,12.2c2,4.5,3.1,9.5,3.1,14.7c0,5.1-1,10-3,14.4c-2,4.4-4.9,8.4-8.7,11.9C103.5,79.5,98.8,82.4,93.3,84.5z"
				/>
		</g>
	</g>
	<g>
		<path class="st0" d="M57.6,76.1c-1.1,0-2.3-0.1-3.4-0.4c-5.7-1.5-9.1-6-9.1-12.1h1c0,5.7,3.1,9.8,8.3,11.2
			c4.8,1.2,9.6-0.4,11.5-3.8c0.6-1,1-2.1,1.2-3.2c-1.4,0.4-2.9,0.5-4.5,0.1c-2.4-0.6-4.2-2.5-4.5-4.9c-0.1-0.8-0.1-1.5,0.1-2.2
			c-3.1-2.8-5.7-6.2-7.4-9c-3-4.5-5.3-11.9-3.9-18c0.8-3.5,2.7-6.1,5.6-7.9c7.3-4.3,15,0.2,19.1,6.3c5.9,8.8,7.2,19.1,3.4,27.6
			c-0.9,2.1-2.3,4.2-4.1,5.8c3.1,0.4,6.4,0.3,9.2-0.5c2.3-0.7,5.6-4.8,5.6-7.7h1c0,3.4-3.7,7.9-6.3,8.7c-3.2,0.9-6.9,1-10.5,0.4
			c-0.5,0.4-1.1,0.7-1.7,1c-0.2,1.4-0.7,2.9-1.4,4.1C65.1,74.3,61.5,76.1,57.6,76.1z M59.1,61.3c-0.1,0.4-0.1,0.9,0,1.4
			c0.3,2,1.7,3.6,3.8,4.1c1.6,0.4,3.1,0.2,4.4-0.3c0-0.3,0.1-0.6,0.1-0.9c-2.2-0.6-4.2-1.5-6-2.6C60.6,62.5,59.8,61.9,59.1,61.3z
			 M68.3,65.9c0,0,0,0.1,0,0.1c0.1,0,0.1-0.1,0.2-0.1C68.4,65.9,68.4,65.9,68.3,65.9z M68.4,64.9c0.4,0.1,0.8,0.2,1.3,0.3
			c2-1.5,3.5-3.8,4.5-6c3.6-8.1,2.4-18.1-3.3-26.6c-3.8-5.7-11.1-10-17.8-6c-2.7,1.6-4.4,4-5.2,7.3c-1.4,5.9,0.9,12.9,3.8,17.3
			c1.7,2.6,4.1,5.9,7,8.5c0.5-1,1.3-1.9,2.4-2.5c1.1-0.6,2.3-0.7,3.4-0.2c1.9,0.9,3.2,3.4,3.7,5.5C68.3,63.2,68.4,64,68.4,64.9z
			 M59.4,60.3c0.8,0.7,1.6,1.3,2.5,1.9c1.6,1,3.5,1.9,5.5,2.4c0-0.7-0.1-1.4-0.2-2c-0.4-1.8-1.5-4.1-3.1-4.8
			c-0.8-0.4-1.6-0.3-2.5,0.2C60.5,58.5,59.8,59.3,59.4,60.3z"/>
	</g>
</g>
</svg>
