<?xml version="1.0" encoding="utf-8"?>
<!-- Generator: Adobe Illustrator 26.3.1, SVG Export Plug-In . SVG Version: 6.00 Build 0)  -->
<svg version="1.1" id="Layer_1" xmlns="http://www.w3.org/2000/svg" xmlns:xlink="http://www.w3.org/1999/xlink" x="0px" y="0px"
	 viewBox="0 0 224.8 70.5" style="enable-background:new 0 0 224.8 70.5;" xml:space="preserve">
<style type="text/css">
	.st0{fill:#282828;}
</style>
<g>
	<g>
		<g>
			<path class="st0" d="M71.9,51.3h-41v-41h41V51.3z M31.9,50.3h39v-39h-39V50.3z"/>
		</g>
		<g>
			<polygon class="st0" points="76.4,56.1 35.4,56.1 35.4,50.6 36.4,50.6 36.4,55.1 75.4,55.1 75.4,16 71.4,16 71.4,15 76.4,15 			
				"/>
		</g>
		<g>
			<polygon class="st0" points="80.9,60.3 39.9,60.3 39.9,55.6 40.9,55.6 40.9,59.3 79.9,59.3 79.9,20.2 76.2,20.2 76.2,19.2 
				80.9,19.2 			"/>
		</g>
	</g>
	<g>
		<g>
			<path class="st0" d="M128.2,51.3h-41v-41h41V51.3z M88.2,50.3h39v-39h-39V50.3z"/>
		</g>
		<g>
			<polygon class="st0" points="132.7,56.1 91.7,56.1 91.7,50.6 92.7,50.6 92.7,55.1 131.7,55.1 131.7,16 127.7,16 127.7,15 
				132.7,15 			"/>
		</g>
		<g>
			<polygon class="st0" points="137.3,60.3 96.2,60.3 96.2,55.6 97.2,55.6 97.2,59.3 136.3,59.3 136.3,20.2 132.5,20.2 132.5,19.2 
				137.3,19.2 			"/>
		</g>
	</g>
	<g>
		<g>
			<path class="st0" d="M184.5,51.3h-41v-41h41V51.3z M144.5,50.3h39v-39h-39V50.3z"/>
		</g>
		<g>
			<polygon class="st0" points="189.1,56.1 148,56.1 148,50.6 149,50.6 149,55.1 188.1,55.1 188.1,16 184,16 184,15 189.1,15 			"/>
		</g>
		<g>
			<polygon class="st0" points="193.6,60.3 152.5,60.3 152.5,55.6 153.5,55.6 153.5,59.3 192.6,59.3 192.6,20.2 188.8,20.2 
				188.8,19.2 193.6,19.2 			"/>
		</g>
	</g>
	<g>
		<g>
			<path class="st0" d="M26.2,70.5c-5.6-2.2-10.3-5.2-14.2-8.7c-3.9-3.6-6.9-7.7-8.9-12.2S0,40.1,0,34.9c0-5.1,1-10,3-14.4
				s4.9-8.4,8.7-11.9s8.5-6.4,13.9-8.5L26,1c-5.3,2.1-9.9,4.9-13.6,8.4C8.7,12.8,5.9,16.7,3.9,21C2,25.3,1,30,1,35s1,9.8,3,14.3
				c2,4.4,4.9,8.4,8.7,11.9s8.5,6.3,13.9,8.5L26.2,70.5z"/>
		</g>
	</g>
	<g>
		<g>
			<path class="st0" d="M199.2,70.5l-0.4-0.9c5.3-2.1,9.9-4.9,13.6-8.4c3.7-3.4,6.5-7.3,8.5-11.6c1.9-4.3,2.9-9,2.9-14
				s-1-9.8-3-14.3c-2-4.4-4.9-8.4-8.7-11.9c-3.8-3.5-8.4-6.3-13.9-8.5l0.4-0.9c5.6,2.2,10.3,5.2,14.2,8.7c3.9,3.6,6.9,7.7,8.9,12.2
				s3.1,9.5,3.1,14.7c0,5.1-1,10-3,14.4s-4.9,8.4-8.7,11.9S204.6,68.3,199.2,70.5z"/>
		</g>
	</g>
</g>
</svg>
