<?xml version="1.0" encoding="utf-8"?>
<!-- Generator: Adobe Illustrator 26.3.1, SVG Export Plug-In . SVG Version: 6.00 Build 0)  -->
<svg version="1.1" id="Layer_1" xmlns="http://www.w3.org/2000/svg" xmlns:xlink="http://www.w3.org/1999/xlink" x="0px" y="0px"
	 viewBox="0 0 111.9 70.5" style="enable-background:new 0 0 111.9 70.5;" xml:space="preserve">
<style type="text/css">
	.st0{fill:#282828;}
</style>
<g>
	<g>
		<g>
			<path class="st0" d="M72,51.3H31v-41h41V51.3z M31.9,50.3h39v-39h-39C31.9,11.3,31.9,50.3,31.9,50.3z"/>
		</g>
		<g>
			<polygon class="st0" points="76.5,56.1 35.4,56.1 35.4,50.6 36.4,50.6 36.4,55.1 75.5,55.1 75.5,16.1 71.5,16.1 71.5,15.1 
				76.5,15.1 			"/>
		</g>
		<g>
			<polygon class="st0" points="81,60.3 40,60.3 40,55.6 41,55.6 41,59.3 80,59.3 80,20.3 76.2,20.3 76.2,19.3 81,19.3 			"/>
		</g>
	</g>
	<g>
		<g>
			<path class="st0" d="M26.2,70.5c-5.6-2.2-10.3-5.2-14.2-8.7c-3.9-3.6-6.9-7.7-8.9-12.2S0,40.1,0,34.9c0-5.1,1-10,3-14.4
				s4.9-8.4,8.7-11.9s8.5-6.4,13.9-8.5L26,1c-5.3,2.1-9.9,4.9-13.6,8.4C8.7,12.8,5.9,16.7,3.9,21C2,25.3,1,30,1,35s1,9.8,3,14.3
				c2,4.4,4.9,8.4,8.7,11.9s8.5,6.3,13.9,8.5L26.2,70.5z"/>
		</g>
	</g>
	<g>
		<g>
			<path class="st0" d="M86.3,70.5l-0.4-0.9c5.3-2.1,9.9-4.9,13.6-8.4c3.7-3.4,6.5-7.3,8.5-11.6c1.9-4.3,2.9-9,2.9-14s-1-9.8-3-14.3
				c-2-4.4-4.9-8.4-8.7-11.9s-8.4-6.3-13.9-8.5L85.7,0C91.3,2.2,96,5.2,99.9,8.7c3.9,3.6,6.9,7.7,8.9,12.2s3.1,9.5,3.1,14.7
				c0,5.1-1,10-3,14.4s-4.9,8.4-8.7,11.9C96.4,65.5,91.7,68.4,86.3,70.5z"/>
		</g>
	</g>
</g>
</svg>
