<?xml version="1.0" encoding="utf-8"?>
<!-- Generator: Adobe Illustrator 24.0.0, SVG Export Plug-In . SVG Version: 6.00 Build 0)  -->
<svg version="1.1" id="Layer_1" xmlns="http://www.w3.org/2000/svg" xmlns:xlink="http://www.w3.org/1999/xlink" x="0px" y="0px"
	 viewBox="0 0 128.5 98.6" style="enable-background:new 0 0 128.5 98.6;" xml:space="preserve">
<style type="text/css">
	.st0{fill:#282828;}
</style>
<g>
	<g>
		<g>
			<path class="st0" d="M80.3,65.3h-41v-41h41V65.3z M40.2,64.3h39v-39h-39V64.3z"/>
		</g>
		<g>
			<polygon class="st0" points="84.8,70.1 43.7,70.1 43.7,64.6 44.7,64.6 44.7,69.1 83.8,69.1 83.8,30.1 79.8,30.1 79.8,29.1 
				84.8,29.1 			"/>
		</g>
		<g>
			<polygon class="st0" points="89.3,74.3 48.3,74.3 48.3,69.6 49.3,69.6 49.3,73.3 88.3,73.3 88.3,34.3 84.5,34.3 84.5,33.3 
				89.3,33.3 			"/>
		</g>
	</g>
	<g>
		<g>
			<path class="st0" d="M34.5,84.5c-5.6-2.2-10.3-5.2-14.2-8.7c-3.9-3.6-6.9-7.7-8.9-12.2c-2-4.5-3.1-9.5-3.1-14.7
				c0-5.1,1-10,3-14.4c2-4.4,4.9-8.4,8.7-11.9c3.8-3.5,8.5-6.4,13.9-8.5l0.4,0.9c-5.3,2.1-9.9,4.9-13.6,8.4
				c-3.7,3.4-6.5,7.3-8.5,11.6c-1.9,4.3-2.9,9-2.9,14c0,5,1,9.8,3,14.3c2,4.4,4.9,8.4,8.7,11.9c3.8,3.5,8.5,6.3,13.9,8.5L34.5,84.5z
				"/>
		</g>
	</g>
	<g>
		<g>
			<path class="st0" d="M94.6,84.5l-0.4-0.9c5.3-2.1,9.9-4.9,13.6-8.4c3.7-3.4,6.5-7.3,8.5-11.6c1.9-4.3,2.9-9,2.9-14
				c0-5-1-9.8-3-14.3c-2-4.4-4.9-8.4-8.7-11.9c-3.8-3.5-8.4-6.3-13.9-8.5l0.4-0.9c5.6,2.2,10.3,5.2,14.2,8.7
				c3.9,3.6,6.9,7.7,8.9,12.2c2,4.5,3.1,9.5,3.1,14.7c0,5.1-1,10-3,14.4c-2,4.4-4.9,8.4-8.7,11.9C104.7,79.5,100,82.4,94.6,84.5z"/>
		</g>
	</g>
</g>
</svg>
