<?xml version="1.0" encoding="utf-8"?>
<!-- Generator: Adobe Illustrator 24.0.0, SVG Export Plug-In . SVG Version: 6.00 Build 0)  -->
<svg version="1.1" id="Layer_1" xmlns="http://www.w3.org/2000/svg" xmlns:xlink="http://www.w3.org/1999/xlink" x="0px" y="0px"
	 viewBox="0 0 139.9 98.6" style="enable-background:new 0 0 139.9 98.6;" xml:space="preserve">
<style type="text/css">
	.st0{fill:#282828;}
</style>
<g>
	<g>
		<g>
			<g>
				<path class="st0" d="M59.8,81.6c-5.2,0-9.8-1.3-13.6-3.8c-3.9-2.5-6.9-6.2-9.1-11c-2.1-4.8-3.2-10.6-3.2-17.4
					c0-6.6,1.1-12.3,3.2-17.1c2.1-4.8,5.2-8.5,9.1-11.1c3.9-2.6,8.4-4,13.6-4.1c5.6,0,10.4,1.3,14.2,3.9c3.8,2.6,6.7,6.4,8.7,11.2
					c2,4.8,3,10.6,3,17.1c0,6.8-1.1,12.6-3.1,17.4c-2.1,4.8-5.1,8.5-8.9,11C69.9,80.3,65.2,81.6,59.8,81.6z M59.8,18.1
					c-5,0.1-9.4,1.4-13.1,3.9C43,24.4,40.1,28,38,32.7c-2.1,4.6-3.1,10.2-3.1,16.6c0,6.6,1.1,12.3,3.1,17c2.1,4.6,5,8.2,8.7,10.6
					c3.7,2.4,8.1,3.7,13.1,3.7c5.2,0,9.7-1.2,13.3-3.7c3.6-2.4,6.5-6,8.5-10.6c2-4.6,3.1-10.4,3.1-17c0-6.4-1-12-2.9-16.7
					c-1.9-4.7-4.7-8.3-8.4-10.8C69.8,19.3,65.2,18.1,59.8,18.1z"/>
			</g>
		</g>
		<path class="st0" d="M59.8,52.9c-1.1,0-1.9-0.4-2.6-1.1c-0.7-0.7-1-1.6-1-2.7c0-0.9,0.3-1.7,1-2.4c0.7-0.7,1.5-1,2.6-1
			c0.9,0,1.7,0.3,2.5,1c0.7,0.7,1.1,1.4,1.1,2.4c0,1.1-0.4,1.9-1.1,2.7C61.5,52.5,60.7,52.9,59.8,52.9z"/>
		<g>
			<path class="st0" d="M102,53.4c-1.2,0-2.2-0.4-2.9-1.2c-0.7-0.8-1.1-1.8-1.1-3c0-1.1,0.4-2,1.1-2.7c0.8-0.8,1.7-1.1,2.9-1.1
				c1,0,2,0.4,2.8,1.1c0.8,0.8,1.2,1.7,1.2,2.7c0,1.2-0.4,2.2-1.2,3C104,52.9,103.1,53.4,102,53.4z M102,46.3
				c-0.9,0-1.6,0.3-2.2,0.8c-0.6,0.6-0.8,1.2-0.8,2c0,0.9,0.3,1.7,0.9,2.3c0.6,0.6,1.3,0.9,2.2,0.9c0.8,0,1.5-0.3,2.1-0.9
				c0.6-0.6,0.9-1.4,0.9-2.3c0-0.8-0.3-1.4-0.9-2C103.5,46.5,102.8,46.3,102,46.3z"/>
		</g>
	</g>
	<g>
		<g>
			<path class="st0" d="M29.2,84.5c-5.6-2.2-10.3-5.2-14.2-8.7c-3.9-3.6-6.9-7.7-8.9-12.2c-2-4.5-3.1-9.5-3.1-14.7
				c0-5.1,1-10,3-14.4c2-4.4,4.9-8.4,8.7-11.9c3.8-3.5,8.5-6.4,13.9-8.5L29,15c-5.3,2.1-9.9,4.9-13.6,8.4C11.7,26.8,8.9,30.7,7,35
				c-1.9,4.3-2.9,9-2.9,14c0,5,1,9.8,3,14.3c2,4.4,4.9,8.4,8.7,11.9c3.8,3.5,8.5,6.3,13.9,8.5L29.2,84.5z"/>
		</g>
	</g>
	<g>
		<g>
			<path class="st0" d="M111.3,84.5l-0.4-0.9c5.3-2.1,9.9-4.9,13.6-8.4c3.7-3.4,6.5-7.3,8.5-11.6c1.9-4.3,2.9-9,2.9-14
				c0-5-1-9.8-3-14.3c-2-4.4-4.9-8.4-8.7-11.9c-3.8-3.5-8.4-6.3-13.9-8.5l0.4-0.9c5.6,2.2,10.3,5.2,14.2,8.7
				c3.9,3.6,6.9,7.7,8.9,12.2c2,4.5,3.1,9.5,3.1,14.7c0,5.1-1,10-3,14.4c-2,4.4-4.9,8.4-8.7,11.9C121.4,79.5,116.7,82.4,111.3,84.5z
				"/>
		</g>
	</g>
</g>
</svg>
