<?xml version="1.0" encoding="utf-8"?>
<!-- Generator: Adobe Illustrator 24.0.0, SVG Export Plug-In . SVG Version: 6.00 Build 0)  -->
<svg version="1.1" id="Layer_1" xmlns="http://www.w3.org/2000/svg" xmlns:xlink="http://www.w3.org/1999/xlink" x="0px" y="0px"
	 viewBox="0 0 157.7 122.7" style="enable-background:new 0 0 157.7 122.7;" xml:space="preserve">
<style type="text/css">
	.st0{fill:#282828;}
</style>
<g>
	<g>
		<g>
			<path class="st0" d="M34.6,97.3c-5.6-2.2-10.3-5.2-14.2-8.7c-3.9-3.6-6.9-7.7-8.9-12.2c-2-4.5-3.1-9.5-3.1-14.7
				c0-5.1,1-10,3-14.4c2-4.4,4.9-8.4,8.7-11.9c3.8-3.5,8.5-6.4,13.9-8.5l0.4,0.9c-5.3,2.1-9.9,4.9-13.6,8.4
				c-3.7,3.4-6.5,7.3-8.5,11.6c-1.9,4.3-2.9,9-2.9,14c0,5,1,9.8,3,14.3c2,4.4,4.9,8.4,8.7,11.9c3.8,3.5,8.4,6.3,13.9,8.5L34.6,97.3z
				"/>
		</g>
	</g>
	<g>
		<g>
			<path class="st0" d="M123.7,97.3l-0.4-0.9c5.3-2.1,9.9-4.9,13.6-8.4c3.7-3.4,6.5-7.3,8.5-11.6c1.9-4.3,2.9-9,2.9-14
				c0-5-1-9.8-3-14.3c-2-4.4-4.9-8.4-8.7-11.9c-3.8-3.5-8.5-6.3-13.9-8.5l0.4-0.9c5.6,2.2,10.3,5.2,14.2,8.7
				c3.9,3.6,6.9,7.7,8.9,12.2c2,4.5,3.1,9.5,3.1,14.7c0,5.1-1,10-3,14.4c-2,4.4-4.9,8.4-8.7,11.9C133.8,92.3,129.1,95.1,123.7,97.3z
				"/>
		</g>
	</g>
	<g>
		<g>
			<g>
				<g>
					<rect x="84.6" y="8" class="st0" width="1" height="55.6"/>
				</g>
				<g>
					<rect x="68" y="34.7" class="st0" width="33.4" height="1"/>
				</g>
			</g>
			<g>
				<g>
					
						<rect x="70" y="35.4" transform="matrix(0.7071 -0.7071 0.7071 0.7071 -0.5444 70.4109)" class="st0" width="29.5" height="1"/>
				</g>
				<g>
					
						<rect x="84.4" y="18.5" transform="matrix(0.7071 -0.7071 0.7071 0.7071 -2.295961e-02 70.3251)" class="st0" width="1" height="33.4"/>
				</g>
			</g>
		</g>
		<g>
			<g>
				<g>
					<rect x="98.7" y="59.1" class="st0" width="1" height="55.6"/>
				</g>
				<g>
					<rect x="82.2" y="85.8" class="st0" width="33.4" height="1"/>
				</g>
			</g>
			<g>
				<g>
					
						<rect x="84.1" y="86.5" transform="matrix(0.7071 -0.7071 0.7071 0.7071 -32.5357 95.4028)" class="st0" width="29.5" height="1"/>
				</g>
				<g>
					
						<rect x="98.6" y="69.6" transform="matrix(0.7071 -0.7071 0.7071 0.7071 -32.0145 95.314)" class="st0" width="1" height="33.4"/>
				</g>
			</g>
		</g>
		<g>
			<g>
				<g>
					<rect x="58.7" y="46.5" class="st0" width="1" height="55.6"/>
				</g>
				<g>
					<rect x="42.1" y="73.1" class="st0" width="33.4" height="1"/>
				</g>
			</g>
			<g>
				<g>
					
						<rect x="44.1" y="73.8" transform="matrix(0.7071 -0.7071 0.7071 0.7071 -35.3372 63.3785)" class="st0" width="29.5" height="1"/>
				</g>
				<g>
					
						<rect x="58.5" y="57" transform="matrix(0.7071 -0.7071 0.7071 0.7071 -34.8159 63.2924)" class="st0" width="1" height="33.4"/>
				</g>
			</g>
		</g>
	</g>
</g>
</svg>
