<?xml version="1.0" encoding="utf-8"?>
<!-- Generator: Adobe Illustrator 24.0.0, SVG Export Plug-In . SVG Version: 6.00 Build 0)  -->
<svg version="1.1" id="Layer_1" xmlns="http://www.w3.org/2000/svg" xmlns:xlink="http://www.w3.org/1999/xlink" x="0px" y="0px"
	 viewBox="0 0 157.7 122.7" style="enable-background:new 0 0 157.7 122.7;" xml:space="preserve">
<style type="text/css">
	.st0{fill:#282828;}
</style>
<g>
	<g>
		<g>
			<g>
				<path class="st0" d="M38.2,96.6c-5.6-2.2-10.3-5.2-14.2-8.7c-3.9-3.6-6.9-7.7-8.9-12.2c-2-4.5-3.1-9.5-3.1-14.7
					c0-5.1,1-10,3-14.4c2-4.4,4.9-8.4,8.7-11.9c3.8-3.5,8.5-6.4,13.9-8.5l0.4,0.9c-5.3,2.1-9.9,4.9-13.6,8.4
					c-3.7,3.4-6.5,7.3-8.5,11.6c-1.9,4.3-2.9,9-2.9,14c0,5,1,9.8,3,14.3c2,4.4,4.9,8.4,8.7,11.9c3.8,3.5,8.4,6.3,13.9,8.5L38.2,96.6
					z"/>
			</g>
		</g>
		<g>
			<g>
				<path class="st0" d="M120,96.6l-0.4-0.9c5.3-2.1,9.9-4.9,13.6-8.4c3.7-3.4,6.5-7.3,8.5-11.6c1.9-4.3,2.9-9,2.9-14
					c0-5-1-9.8-3-14.3c-2-4.4-4.9-8.4-8.7-11.9c-3.8-3.5-8.5-6.3-13.9-8.5l0.4-0.9c5.6,2.2,10.3,5.2,14.2,8.7
					c3.9,3.6,6.9,7.7,8.9,12.2c2,4.5,3.1,9.5,3.1,14.7c0,5.1-1,10-3,14.4c-2,4.4-4.9,8.4-8.7,11.9C130.2,91.5,125.5,94.4,120,96.6z"
					/>
			</g>
		</g>
	</g>
	<g>
		<g>
			<path class="st0" d="M77.7,45.6L77,45.4l0.6-2.1l0.1-0.1c0.5-0.5,4.5-3.7,4.7-3.8c0.1-0.1,0.7-0.4,4.1-1.9
				c0.2-0.1,0.4-0.2,0.6-0.3c1-0.4,2.2-0.9,2.4-1.7c0.1-0.3,0.1-0.7-0.1-1.1c-0.2-0.4-0.5-0.7-0.9-0.8l0.2-0.7
				c0.6,0.2,1.1,0.6,1.4,1.2c0.3,0.6,0.3,1.2,0.1,1.7c-0.4,1.1-1.7,1.6-2.8,2.1c-0.2,0.1-0.4,0.2-0.6,0.2c-3.1,1.4-3.9,1.8-4,1.8
				c-0.2,0.1-3.8,3.1-4.5,3.7L77.7,45.6z"/>
		</g>
		<g>
			<path class="st0" d="M97.1,43.4l-0.2-0.7c1.4-0.4,6.5-2.7,7.4-3.4c0.5-0.4,1.5-1.4,1.1-2.5c0-0.1-0.1-0.2-0.1-0.2l0.7-0.3
				c0,0.1,0.1,0.2,0.1,0.3c0.5,1.1,0,2.4-1.3,3.4C103.7,40.7,98.5,43.1,97.1,43.4z"/>
		</g>
		<g>
			<path class="st0" d="M69,49.8l-0.2-0.7c0.1,0,6-2.1,9.4-4.7c3.5-2.7,7-4.7,7.9-5.2c0.9-0.4,9.6-3.1,10.1-3.2
				c0.7-0.2,5.2-0.9,6.8-1.2l0.1,0.7c-2,0.3-6.1,1-6.7,1.2c-0.5,0.1-9.1,2.8-9.9,3.2c-0.9,0.4-4.3,2.4-7.7,5.1
				C75.1,47.7,69.2,49.7,69,49.8z"/>
		</g>
		<g>
			<path class="st0" d="M93.9,54.5L93.4,54c0.2-0.2,2.2-2.1,2.7-2.4c0.5-0.4,4.4-1.8,5.3-2.2c0.5-0.2,1.5-0.6,2.5-1
				c1.6-0.6,2.3-0.9,2.6-0.9c0.3-0.1,6.3-1.8,6.9-2.2c0.1-0.1,0.2-0.1,0.4-0.2c0.7-0.4,1.6-0.8,1.2-2.3c-0.1-0.3-0.2-0.6-0.3-0.8
				l0.7-0.4c0.1,0.3,0.3,0.6,0.4,1c0.5,2.1-0.9,2.8-1.6,3.2c-0.1,0.1-0.2,0.1-0.3,0.2c-0.8,0.5-6.8,2.3-7.2,2.3
				c-0.2,0-1.4,0.5-2.4,0.9c-1,0.4-2.1,0.8-2.6,1c-1,0.4-4.7,1.8-5.1,2.1C96.2,52.4,94.8,53.7,93.9,54.5z"/>
		</g>
		<g>
			<path class="st0" d="M77.4,49.9l-0.1-0.7c1.9-0.2,6.9-0.9,8-1.4l0.1,0c3.7-1.7,9.8-4.5,11.8-5.1c0.3-0.1,4.3-0.8,5.9-1
				c0.7-0.1,2.2-0.3,3.7-0.5c1.1-0.2,2.2-0.3,3.1-0.5l0.1,0.7c-0.9,0.1-2.1,0.3-3.1,0.5c-1.6,0.2-3,0.4-3.7,0.5
				c-1.8,0.2-5.5,0.9-5.7,1c-1.9,0.6-8,3.4-11.7,5.1l-0.1,0C84.2,49,77.7,49.8,77.4,49.9z"/>
		</g>
		<g>
			<path class="st0" d="M75.2,77.5c-0.2,0-0.4,0-0.5,0l0.1-0.7c2.7,0.3,6.8-2,7.9-4c0.3-0.5,0.5-1,0.7-1.5c0.3-0.8,0.6-1.6,1.2-2.3
				c0.8-1,1.8-1.9,3.2-2.7c0.3-0.2,0.6-0.4,1-0.6c1.2-0.8,2.3-1.6,3.8-1.9c0.6-0.1,1.2-0.3,1.8-0.6c0.3-0.1,0.7-0.2,1-0.3
				c0.9-0.3,1.9-0.6,3-1c2-0.7,3.9-1.6,5.7-2.4c3.3-1.4,6.7-2.9,10-4.5c1.2-0.6,2.9-1.9,3.2-3c0-0.1,0.1-0.2,0.1-0.3l0.7,0.1
				c0,0.2,0,0.3-0.1,0.4c-0.4,1.5-2.4,2.9-3.7,3.5c-3.3,1.6-6.7,3.1-10,4.5c-1.9,0.8-3.8,1.7-5.7,2.4c-1.1,0.4-2.1,0.8-3,1.1
				c-0.3,0.1-0.6,0.2-1,0.3c-0.6,0.2-1.3,0.4-1.9,0.6c-1.3,0.3-2.4,1-3.5,1.8c-0.3,0.2-0.7,0.4-1,0.6c-1.3,0.8-2.3,1.6-3,2.5
				c-0.5,0.6-0.8,1.4-1.1,2.1c-0.2,0.5-0.4,1.1-0.7,1.6C82.1,75.2,78.3,77.5,75.2,77.5z"/>
		</g>
		<g>
			<path class="st0" d="M86.1,56.9c-0.6,0-1.3-0.2-2.2-0.5c-0.5-0.1-1-0.3-1.5-0.5l0.2-0.7c0.6,0.2,1.1,0.3,1.5,0.5
				c1,0.3,1.8,0.6,2.3,0.4c1.5-0.4,4.8-1.5,7.8-2.5c2.9-1,5.3-1.8,6-1.9c0.4-0.1,10.9-2.2,12-2.5l0.2,0.7c-0.9,0.2-11.5,2.4-12,2.5
				c-0.6,0.1-3.2,1-5.9,1.9c-3,1-6.3,2.2-7.8,2.5C86.4,56.9,86.3,56.9,86.1,56.9z"/>
		</g>
		<g>
			<path class="st0" d="M49.8,89.4L49.8,89.4c-0.2,0-2.6-0.2-6.1-3.4c-3.5-3.3-6.3-16.5-6.3-18.4c0-1.7,2.5-2.1,5.5-2.6
				c2.2-0.4,4.8-0.8,6.2-1.9c0.7-0.5,1.7-1.2,2.8-2c3.9-2.8,9.2-6.6,11-8.3c2.2-2,4.5-4.4,6.7-7.7c1.6-2.4,3.6-5.3,4.4-5.8
				c0.3-0.2,0.8-0.5,1.4-0.9c3.1-1.9,4.8-2.9,5.1-3c1.2-0.4,2.5-0.9,3.7-1.3c0.8-0.3,1.6-0.6,2.4-0.9l0.2,0.7
				c-0.8,0.3-1.6,0.6-2.4,0.9c-1.2,0.4-2.5,0.9-3.7,1.3c-0.4,0.1-3.3,2-5,2.9c-0.7,0.4-1.2,0.7-1.5,0.9c-0.4,0.2-1.7,1.8-4.1,5.5
				c-2.3,3.4-4.6,5.8-6.8,7.8c-1.9,1.7-7.2,5.6-11.1,8.4c-1.1,0.8-2,1.5-2.7,2c-1.6,1.1-4.2,1.6-6.5,2c-2.4,0.4-4.9,0.8-4.9,1.9
				c0,1.8,2.8,14.9,6,17.9c2.9,2.7,5,3.1,5.4,3.2c0.3-0.1,0.5-0.2,0.8-0.3c2.6-1.1,6.2-2.6,9.2-1.9c3.3,0.8,3.6,0.8,4.3,0.8
				c1.7-0.1,14.1-1.5,15.4-1.7c0.4-0.1,2.6-0.9,3.4-1.2l0.4-0.2c2.2-0.9,4.4-1.8,4.7-1.9c0.7-0.2,2-0.5,3.4-0.8
				c0.8-0.2,1.5-0.3,2.2-0.5c2.3-0.5,4.7-0.8,6.7-0.9c0.5,0,0.9-0.1,1.3-0.1c1.1-0.1,2.1-0.2,3.2-0.2c0.3,0,0.6,0,0.9,0
				c0.8,0.1,1.7,0.1,2.3-0.1c0.6-0.2,1.1-1.4,1.2-2.1c0.2-1-0.5-1.9-1.1-2.5c-1.2-1.2-2.6-1.9-4.9-2.3c-1.6-0.3-3.2-0.5-4.9-0.6
				c-2.2-0.1-4.2,0.1-6,0.5c-1.5,0.3-2.9,0.9-4.3,1.5c-0.5,0.2-0.9,0.4-1.4,0.6c-0.4,0.2-0.9,0.1-1.4,0.1c-0.2,0-0.4,0-0.5,0
				c-0.4,0-2.2-0.5-2.5-0.6l0.2-0.7c0.8,0.2,2.1,0.5,2.4,0.5c0.2,0,0.4,0,0.6,0c0.4,0,0.8,0.1,1.1,0c0.5-0.2,0.9-0.4,1.4-0.6
				c1.4-0.6,2.9-1.2,4.4-1.5c1.9-0.4,4-0.6,6.2-0.5c1.7,0.1,3.4,0.3,5,0.6c1.7,0.4,3.6,0.9,5.2,2.5c1,1,1.5,2.1,1.3,3.1
				c-0.1,0.9-0.7,2.3-1.7,2.7c-0.8,0.3-1.8,0.2-2.6,0.2c-0.3,0-0.6,0-0.9,0c-1.1,0-2.1,0.1-3.1,0.2c-0.4,0-0.9,0.1-1.4,0.1
				c-2,0.2-4.3,0.4-6.6,0.9c-0.7,0.1-1.4,0.3-2.2,0.5c-1.3,0.3-2.7,0.5-3.4,0.7c-0.3,0.1-3.6,1.4-4.7,1.8L83,85c0,0-3,1.2-3.6,1.3
				c-1.3,0.2-13.8,1.6-15.4,1.7c-0.8,0-1.1,0-4.5-0.8c-2.7-0.7-6.2,0.8-8.7,1.9C50.4,89.1,50.1,89.2,49.8,89.4L49.8,89.4z"/>
		</g>
		<g>
			<path class="st0" d="M86.3,35.8c-0.6,0-1.2-0.2-1.7-0.5c-0.1,0-0.2-0.1-0.2-0.2c-0.1-0.2-0.1-0.5,0.2-0.8c0.1-0.1,0.4-0.2,1-0.6
				l1.8-1c0.2-0.1,0.4-0.2,0.7-0.2c0.3,0,0.5,0.2,0.6,0.4c0.6,0.6,0.6,1.3,0.6,1.4l0,0.2l-0.2,0.1c-0.7,0.5-1.5,1-2.4,1.2
				C86.6,35.8,86.5,35.8,86.3,35.8z M85.2,34.8c0.4,0.2,1,0.3,1.5,0.2c0.7-0.1,1.3-0.5,1.9-0.9c-0.1-0.2-0.2-0.5-0.4-0.7
				c-0.1-0.1-0.2-0.1-0.2-0.1l0,0c0,0-0.2,0.1-0.2,0.1l-1.8,1C85.7,34.5,85.4,34.7,85.2,34.8z"/>
		</g>
		<g>
			<path class="st0" d="M103.3,38.6c-0.3,0-0.7-0.1-1-0.2c-0.6-0.3-1.1-0.8-1.4-1.2c-0.2-0.3-0.4-0.5-0.5-0.7l-0.4-1l0.8-0.3
				c0.2-0.1,0.5-0.1,0.7-0.2l0.2,0c0.8-0.2,1.7-0.3,2.5-0.3c0.7,0,1.2,0.2,1.6,0.7c0.4,0.6,0.5,1.4,0.3,2c-0.1,0.3-0.3,0.8-0.8,0.9
				l-0.2,0C104.4,38.5,103.8,38.6,103.3,38.6z M100.9,36l0.1,0.2c0.1,0.2,0.2,0.4,0.4,0.5c0.3,0.4,0.7,0.8,1.2,1
				c0.6,0.3,1.4,0.1,2.2-0.1l0.2,0c0.1,0,0.2-0.2,0.3-0.4c0.2-0.4,0.1-1-0.2-1.3c-0.3-0.4-0.8-0.4-1-0.4c-0.7,0-1.5,0.2-2.3,0.3
				l-0.2,0C101.3,35.9,101.1,35.9,100.9,36z"/>
		</g>
		<g>
			<path class="st0" d="M113.4,44.3c-0.1,0-0.3,0-0.4,0c-0.2,0-0.3,0-0.5,0l-0.1,0l-0.1-0.1c0,0-0.7-0.6-1-1.1
				c-0.1-0.2-0.3-0.5-0.5-0.8c-0.2-0.3-0.5-0.8-0.7-0.9c0,0-0.2-0.1-0.3-0.1l-1.1-0.4l3.9-1c0.1,0,0.7-0.1,1.3,0.1
				c0.6,0.2,1.4,0.7,1.6,1.7c0.1,0.7,0.1,1.7-0.6,2.2C114.4,44.3,113.9,44.3,113.4,44.3z M112.6,43.6c0.1,0,0.2,0,0.4,0
				c0.5,0,1.1,0,1.4-0.2c0.4-0.3,0.4-1,0.3-1.5c-0.2-0.7-0.7-1-1.2-1.2c-0.4-0.2-0.9-0.1-0.9-0.1l-1.9,0.5c0.1,0.2,0.3,0.5,0.6,0.8
				c0.2,0.3,0.4,0.6,0.5,0.7C112.1,43,112.5,43.4,112.6,43.6z"/>
		</g>
		<g>
			<path class="st0" d="M115.8,52.8c-0.5,0-1-0.1-1.3-0.3c-0.3-0.2-0.6-0.7-1-1.3c-0.1-0.2-0.2-0.3-0.3-0.4
				c-0.1-0.2-0.4-0.3-0.6-0.5c-0.3-0.2-0.6-0.4-0.6-0.7l-0.1-0.4l0.4-0.1c0.4-0.1,2.4-0.5,2.8-0.5c0.4,0,1.3,0.1,1.8,0.3
				c0.6,0.3,1.2,1,1.2,1.9c0,0.9-0.6,1.6-0.6,1.6l-0.1,0.1l-0.1,0c0,0-0.8,0.2-1.2,0.2C116,52.8,115.9,52.8,115.8,52.8z M113.1,49.8
				c0.2,0.2,0.5,0.3,0.6,0.6c0.1,0.1,0.2,0.3,0.3,0.5c0.2,0.4,0.6,1,0.8,1.1c0.3,0.2,1,0.2,1.2,0.2c0.3,0,0.8-0.1,1-0.2
				c0.1-0.2,0.4-0.5,0.3-1c0-0.6-0.5-1.1-0.8-1.3c-0.4-0.2-1.2-0.3-1.5-0.3C114.9,49.4,114,49.6,113.1,49.8z"/>
		</g>
		<g>
			<path class="st0" d="M106.5,80.6c-0.3,0-0.5,0-0.8,0c-0.2,0-0.3,0-0.4,0c-0.8,0-2.7,0-2.7,0l-0.2,0l-0.3-0.3
				c-0.3-0.3-0.9-2.2-0.9-2.8c0-0.5,0.2-1.6,0.7-2l0.1-0.1h3.9c0.2,0,1.7,0.1,2.2,1c0.5,0.9,0.6,2.6,0.1,3.4
				C107.9,80.5,107.2,80.6,106.5,80.6z M104.7,79.8c0.2,0,0.5,0,0.6,0c0.1,0,0.3,0,0.5,0c0.7,0,1.6,0.1,1.8-0.3
				c0.4-0.6,0.3-2-0.1-2.7c-0.3-0.5-1.3-0.6-1.6-0.6l-3.6,0c-0.1,0.2-0.3,0.8-0.3,1.3c0,0.5,0.5,2.1,0.7,2.3l0,0
				C103.1,79.8,104,79.8,104.7,79.8z"/>
		</g>
	</g>
</g>
</svg>
