<?xml version="1.0" encoding="utf-8"?>
<!-- Generator: Adobe Illustrator 24.0.0, SVG Export Plug-In . SVG Version: 6.00 Build 0)  -->
<svg version="1.1" id="Layer_1" xmlns="http://www.w3.org/2000/svg" xmlns:xlink="http://www.w3.org/1999/xlink" x="0px" y="0px"
	 viewBox="0 0 257.9 99.9" style="enable-background:new 0 0 257.9 99.9;" xml:space="preserve">
<style type="text/css">
	.st0{fill:#282828;}
</style>
<g>
	<g>
		<g>
			<path class="st0" d="M88.5,66h-41v-41h41V66z M48.5,65h39v-39h-39V65z"/>
		</g>
		<g>
			<polygon class="st0" points="93,70.8 52,70.8 52,65.3 53,65.3 53,69.8 92,69.8 92,30.7 88,30.7 88,29.7 93,29.7 			"/>
		</g>
		<g>
			<polygon class="st0" points="97.5,75 56.5,75 56.5,70.3 57.5,70.3 57.5,74 96.5,74 96.5,34.9 92.8,34.9 92.8,33.9 97.5,33.9 			
				"/>
		</g>
	</g>
	<g>
		<g>
			<path class="st0" d="M144.8,66h-41v-41h41V66z M104.8,65h39v-39h-39V65z"/>
		</g>
		<g>
			<polygon class="st0" points="149.3,70.8 108.3,70.8 108.3,65.3 109.3,65.3 109.3,69.8 148.3,69.8 148.3,30.7 144.3,30.7 
				144.3,29.7 149.3,29.7 			"/>
		</g>
		<g>
			<polygon class="st0" points="153.9,75 112.8,75 112.8,70.3 113.8,70.3 113.8,74 152.9,74 152.9,34.9 149.1,34.9 149.1,33.9 
				153.9,33.9 			"/>
		</g>
	</g>
	<g>
		<g>
			<path class="st0" d="M201.1,66h-41v-41h41V66z M161.1,65h39v-39h-39V65z"/>
		</g>
		<g>
			<polygon class="st0" points="205.7,70.8 164.6,70.8 164.6,65.3 165.6,65.3 165.6,69.8 204.7,69.8 204.7,30.7 200.6,30.7 
				200.6,29.7 205.7,29.7 			"/>
		</g>
		<g>
			<polygon class="st0" points="210.2,75 169.1,75 169.1,70.3 170.1,70.3 170.1,74 209.2,74 209.2,34.9 205.4,34.9 205.4,33.9 
				210.2,33.9 			"/>
		</g>
	</g>
	<g>
		<g>
			<path class="st0" d="M42.8,85.2c-5.6-2.2-10.3-5.2-14.2-8.7c-3.9-3.6-6.9-7.7-8.9-12.2c-2-4.5-3.1-9.5-3.1-14.7
				c0-5.1,1-10,3-14.4c2-4.4,4.9-8.4,8.7-11.9c3.8-3.5,8.5-6.4,13.9-8.5l0.4,0.9c-5.3,2.1-9.9,4.9-13.6,8.4
				c-3.7,3.4-6.5,7.3-8.5,11.6c-1.9,4.3-2.9,9-2.9,14c0,5,1,9.8,3,14.3c2,4.4,4.9,8.4,8.7,11.9c3.8,3.5,8.5,6.3,13.9,8.5L42.8,85.2z
				"/>
		</g>
	</g>
	<g>
		<g>
			<path class="st0" d="M215.8,85.2l-0.4-0.9c5.3-2.1,9.9-4.9,13.6-8.4c3.7-3.4,6.5-7.3,8.5-11.6c1.9-4.3,2.9-9,2.9-14
				c0-5-1-9.8-3-14.3c-2-4.4-4.9-8.4-8.7-11.9c-3.8-3.5-8.4-6.3-13.9-8.5l0.4-0.9c5.6,2.2,10.3,5.2,14.2,8.7
				c3.9,3.6,6.9,7.7,8.9,12.2c2,4.5,3.1,9.5,3.1,14.7c0,5.1-1,10-3,14.4c-2,4.4-4.9,8.4-8.7,11.9C225.9,80.1,221.2,83,215.8,85.2z"
				/>
		</g>
	</g>
</g>
</svg>
