<?xml version="1.0" encoding="utf-8"?>
<!-- Generator: Adobe Illustrator 24.0.0, SVG Export Plug-In . SVG Version: 6.00 Build 0)  -->
<svg version="1.1" id="Layer_1" xmlns="http://www.w3.org/2000/svg" xmlns:xlink="http://www.w3.org/1999/xlink" x="0px" y="0px"
	 viewBox="0 0 131.1 99.9" style="enable-background:new 0 0 131.1 99.9;" xml:space="preserve">
<style type="text/css">
	.st0{fill:none;stroke:#282828;stroke-miterlimit:10;}
</style>
<g>
	<g>
		<g>
			<path class="st0" d="M33.1,84.7c-5.5-2.2-10.2-5.1-14-8.6c-3.8-3.5-6.8-7.6-8.8-12.1c-2-4.5-3-9.3-3-14.5c0-5.1,1-9.8,2.9-14.2
				c2-4.4,4.8-8.3,8.6-11.8c3.8-3.5,8.3-6.3,13.8-8.5"/>
		</g>
		<g>
			<path class="st0" d="M98,15.2c5.5,2.2,10.2,5.1,14,8.6c3.8,3.5,6.8,7.6,8.8,12.1c2,4.5,3,9.3,3,14.5c0,5.1-1,9.8-2.9,14.2
				c-2,4.4-4.8,8.3-8.6,11.8c-3.8,3.5-8.3,6.3-13.8,8.5"/>
		</g>
	</g>
	<g>
		<g>
			<g>
				<path class="st0" d="M93.6,57.4c-2.1-0.9-3.5-2.4-4.1-4.4c-0.7-2-0.5-4.1,0.4-6.2c0.8-1.8,2.2-3.1,4.1-3.8"/>
				<path class="st0" d="M90.9,63.5c-3.9-1.8-6.5-4.5-7.7-8.3c-1.2-3.8-1-7.6,0.8-11.5c1.5-3.4,4.1-5.8,7.6-7.1"/>
				<path class="st0" d="M88.6,68.5c-5.4-2.4-8.9-6.2-10.6-11.5c-1.7-5.2-1.3-10.5,1.1-15.9c2.1-4.7,5.6-8,10.5-9.8"/>
				<path class="st0" d="M95.7,52.8c-0.7-0.3-1.2-0.8-1.4-1.5c-0.2-0.7-0.2-1.4,0.1-2.1c0.3-0.6,0.7-1,1.4-1.3"/>
			</g>
			<g>
				<path class="st0" d="M37.4,57.4c2.1-0.9,3.5-2.4,4.1-4.4c0.7-2,0.5-4.1-0.4-6.2C40.3,45,39,43.7,37.1,43"/>
				<path class="st0" d="M40.2,63.5c3.9-1.8,6.5-4.5,7.7-8.3c1.2-3.8,1-7.6-0.8-11.5c-1.5-3.4-4.1-5.8-7.6-7.1"/>
				<path class="st0" d="M42.4,68.5c5.4-2.4,8.9-6.2,10.6-11.5c1.7-5.2,1.3-10.5-1.1-15.9c-2.1-4.7-5.6-8-10.5-9.8"/>
				<path class="st0" d="M35.3,52.8c0.7-0.3,1.2-0.8,1.4-1.5c0.2-0.7,0.2-1.4-0.1-2.1c-0.3-0.6-0.7-1-1.4-1.3"/>
			</g>
		</g>
		<g>
			<g>
				<path class="st0" d="M58,78c0.9-2.1,2.4-3.5,4.4-4.1c2-0.7,4.1-0.5,6.2,0.4c1.8,0.8,3.1,2.2,3.8,4.1"/>
				<path class="st0" d="M51.9,75.3c1.8-3.9,4.5-6.5,8.3-7.7c3.8-1.2,7.6-1,11.5,0.8c3.4,1.5,5.8,4.1,7.1,7.6"/>
				<path class="st0" d="M46.9,73c2.4-5.4,6.2-8.9,11.5-10.6c5.2-1.7,10.5-1.3,15.9,1.1c4.7,2.1,8,5.6,9.8,10.5"/>
				<path class="st0" d="M62.7,80.1c0.3-0.7,0.8-1.2,1.5-1.4c0.7-0.2,1.4-0.2,2.1,0.1c0.6,0.3,1,0.7,1.3,1.4"/>
			</g>
			<g>
				<path class="st0" d="M58,21.8c0.9,2.1,2.4,3.5,4.4,4.1c2,0.7,4.1,0.5,6.2-0.4c1.8-0.8,3.1-2.2,3.8-4.1"/>
				<path class="st0" d="M51.9,24.6c1.8,3.9,4.5,6.5,8.3,7.7c3.8,1.2,7.6,1,11.5-0.8c3.4-1.5,5.8-4.1,7.1-7.6"/>
				<path class="st0" d="M46.9,26.9c2.4,5.4,6.2,8.9,11.5,10.6c5.2,1.7,10.5,1.3,15.9-1.1c4.7-2.1,8-5.6,9.8-10.5"/>
				<path class="st0" d="M62.7,19.7c0.3,0.7,0.8,1.2,1.5,1.4c0.7,0.2,1.4,0.2,2.1-0.1c0.6-0.3,1-0.7,1.3-1.4"/>
			</g>
		</g>
	</g>
</g>
</svg>
