<?xml version="1.0" encoding="utf-8"?>
<!-- Generator: Adobe Illustrator 24.0.0, SVG Export Plug-In . SVG Version: 6.00 Build 0)  -->
<svg version="1.1" id="Layer_1" xmlns="http://www.w3.org/2000/svg" xmlns:xlink="http://www.w3.org/1999/xlink" x="0px" y="0px"
	 viewBox="0 0 131.1 99.9" style="enable-background:new 0 0 131.1 99.9;" xml:space="preserve">
<style type="text/css">
	.st0{fill:none;stroke:#282828;stroke-miterlimit:10;}
</style>
<g>
	<g>
		<polygon class="st0" points="96.6,45.9 52.4,45.9 52.4,26.3 92.4,26.3 92.4,41.7 		"/>
		<polygon class="st0" points="34.4,73.6 78.7,73.6 78.7,54 38.6,54 38.6,69.4 		"/>
	</g>
	<g>
		<g>
			<path class="st0" d="M36,84.7c-5.5-2.2-10.2-5.1-14-8.6c-3.8-3.5-6.8-7.6-8.8-12.1c-2-4.5-3-9.3-3-14.5c0-5.1,1-9.8,2.9-14.2
				c2-4.4,4.8-8.3,8.6-11.8c3.8-3.5,8.3-6.3,13.8-8.5"/>
		</g>
		<g>
			<path class="st0" d="M95.1,15.2c5.5,2.2,10.2,5.1,14,8.6c3.8,3.5,6.8,7.6,8.8,12.1c2,4.5,3,9.3,3,14.5c0,5.1-1,9.8-2.9,14.2
				c-2,4.4-4.8,8.3-8.6,11.8c-3.8,3.5-8.3,6.3-13.8,8.5"/>
		</g>
	</g>
</g>
</svg>
