<?xml version="1.0" encoding="utf-8"?>
<!-- Generator: Adobe Illustrator 24.0.0, SVG Export Plug-In . SVG Version: 6.00 Build 0)  -->
<svg version="1.1" id="Layer_1" xmlns="http://www.w3.org/2000/svg" xmlns:xlink="http://www.w3.org/1999/xlink" x="0px" y="0px"
	 viewBox="0 0 104.4 98.6" style="enable-background:new 0 0 104.4 98.6;" xml:space="preserve">
<style type="text/css">
	.st0{fill:#282828;}
</style>
<g>
	<g>
		<g>
			<path class="st0" d="M29.8,85.9c-5.6-2.2-10.3-5.2-14.2-8.7c-3.9-3.6-6.9-7.7-8.9-12.2c-2-4.5-3.1-9.5-3.1-14.7
				c0-5.1,1-10,3-14.4c2-4.4,4.9-8.4,8.7-11.9c3.8-3.5,8.5-6.4,13.9-8.5l0.4,0.9c-5.3,2.1-9.9,4.9-13.6,8.4
				c-3.7,3.4-6.5,7.3-8.5,11.6c-1.9,4.3-2.9,9-2.9,14c0,5,1,9.8,3,14.3c2,4.4,4.9,8.4,8.7,11.9C20,80,24.7,82.8,30.2,85L29.8,85.9z"
				/>
		</g>
	</g>
	<g>
		<g>
			<path class="st0" d="M74.9,85.9L74.5,85c5.3-2.1,9.9-4.9,13.6-8.4c3.7-3.4,6.5-7.3,8.5-11.6c1.9-4.3,2.9-9,2.9-14
				c0-5-1-9.8-3-14.3c-2-4.4-4.9-8.4-8.7-11.9c-3.8-3.5-8.4-6.3-13.9-8.5l0.4-0.9c5.6,2.2,10.3,5.2,14.2,8.7
				c3.9,3.6,6.9,7.7,8.9,12.2c2,4.5,3.1,9.5,3.1,14.7c0,5.1-1,10-3,14.4c-2,4.4-4.9,8.4-8.7,11.9C85,80.9,80.3,83.8,74.9,85.9z"/>
		</g>
	</g>
	<g>
		<g>
			<g>
				<rect x="52" y="33.7" class="st0" width="1" height="34.6"/>
			</g>
			<g>
				<rect x="32.5" y="49.8" class="st0" width="39.1" height="1"/>
			</g>
		</g>
		<g>
			<g>
				
					<rect x="34.8" y="50.6" transform="matrix(0.7071 -0.7071 0.7071 0.7071 -20.8955 51.7735)" class="st0" width="34.6" height="1"/>
			</g>
			<g>
				
					<rect x="51.7" y="30.8" transform="matrix(0.7071 -0.7071 0.7071 0.7071 -20.2842 51.6726)" class="st0" width="1" height="39.1"/>
			</g>
		</g>
	</g>
</g>
</svg>
