<?xml version="1.0" encoding="utf-8"?>
<!-- Generator: Adobe Illustrator 26.3.1, SVG Export Plug-In . SVG Version: 6.00 Build 0)  -->
<svg version="1.1" id="Layer_1" xmlns="http://www.w3.org/2000/svg" xmlns:xlink="http://www.w3.org/1999/xlink" x="0px" y="0px"
	 viewBox="0 0 153.5 70.5" style="enable-background:new 0 0 153.5 70.5;" xml:space="preserve">
<style type="text/css">
	.st0{fill:#212121;}
</style>
<g>
	<g>
		<g>
			<g>
				<path class="st0" d="M56.7,67.5c-5.2,0-9.8-1.3-13.7-3.8c-3.9-2.5-6.9-6.3-9.1-11.1c-2.1-4.8-3.2-10.6-3.2-17.4
					c0-6.6,1.1-12.3,3.2-17.1c2.1-4.8,5.2-8.5,9.1-11.1c3.9-2.6,8.5-4,13.7-4.1C62.3,3,67.1,4.3,71,6.9c3.8,2.6,6.8,6.4,8.8,11.2
					c2,4.8,3,10.6,3,17.1c0,6.8-1.1,12.6-3.1,17.4c-2.1,4.8-5.1,8.5-8.9,11.1C66.8,66.3,62.1,67.5,56.7,67.5z M80,22.9
					c-0.4-1.5-0.9-3-1.4-4.3c-1.9-4.6-4.7-8.2-8.3-10.7c-3.6-2.5-8.2-3.7-13.5-3.7c-4.9,0.1-9.3,1.4-13,3.9c-3.7,2.5-6.6,6-8.6,10.6
					C33,23.3,32,28.9,32,35.2c0,6.6,1,12.3,3.1,16.9c2.1,4.6,5,8.1,8.6,10.5c3.7,2.4,8,3.6,13,3.6c5.2,0,9.6-1.2,13.2-3.6
					c3.6-2.4,6.5-6,8.5-10.5c2-4.6,3-10.3,3-16.9C81.4,30.7,81,26.6,80,22.9"/>
			</g>
		</g>
	</g>
	<g>
		<g>
			<path class="st0" d="M26.2,70.5c-5.6-2.2-10.3-5.2-14.2-8.7c-3.9-3.6-6.9-7.7-8.9-12.2C1,45,0,40.1,0,34.9c0-5.1,1-10,3-14.4
				c2-4.4,4.9-8.4,8.7-11.9C15.5,5,20.2,2.2,25.6,0l0.5,1.1c-5.3,2.1-9.9,4.9-13.5,8.3C8.9,12.9,6,16.7,4.1,21
				c-1.9,4.3-2.9,8.9-2.9,13.9c0,5,1,9.8,3,14.2c2,4.4,4.9,8.4,8.6,11.8c3.8,3.5,8.4,6.3,13.8,8.5L26.2,70.5z"/>
		</g>
	</g>
	<g>
		<g>
			<path class="st0" d="M127.9,70.5l-0.5-1.1c5.3-2.1,9.9-4.9,13.5-8.3c3.7-3.4,6.5-7.3,8.4-11.5c1.9-4.3,2.9-8.9,2.9-13.9
				c0-5-1-9.8-3-14.2c-2-4.4-4.9-8.4-8.6-11.8c-3.8-3.5-8.4-6.3-13.8-8.5l0.5-1.1c5.6,2.2,10.3,5.2,14.2,8.7
				c3.9,3.6,6.9,7.7,8.9,12.2c2,4.6,3.1,9.5,3.1,14.7c0,5.1-1,10-3,14.4c-2,4.4-4.9,8.4-8.7,11.9C138,65.5,133.3,68.3,127.9,70.5z"
				/>
		</g>
	</g>
	<g>
		<g>
			<g>
				<rect x="106.5" y="2" class="st0" width="1.2" height="63.4"/>
			</g>
			<g>
				<rect x="87.7" y="32.4" class="st0" width="38.1" height="1.2"/>
			</g>
		</g>
		<g>
			<g>
				
					<rect x="89.9" y="33.2" transform="matrix(0.7071 -0.7071 0.7071 0.7071 7.3741 85.3615)" class="st0" width="33.7" height="1.2"/>
			</g>
			<g>
				
					<rect x="106.3" y="14" transform="matrix(0.7071 -0.7071 0.7071 0.7071 7.9693 85.2627)" class="st0" width="1.2" height="38.1"/>
			</g>
		</g>
	</g>
</g>
</svg>
