<?xml version="1.0" encoding="utf-8"?>
<!-- Generator: Adobe Illustrator 24.0.0, SVG Export Plug-In . SVG Version: 6.00 Build 0)  -->
<svg version="1.1" id="Layer_1" xmlns="http://www.w3.org/2000/svg" xmlns:xlink="http://www.w3.org/1999/xlink" x="0px" y="0px"
	 viewBox="0 0 123.5 98.6" style="enable-background:new 0 0 123.5 98.6;" xml:space="preserve">
<style type="text/css">
	.st0{fill:#282828;}
</style>
<g>
	<g>
		<g>
			<path class="st0" d="M33,84.5c-5.6-2.2-10.3-5.2-14.2-8.7c-3.9-3.6-6.9-7.7-8.9-12.2c-2-4.5-3.1-9.5-3.1-14.7c0-5.1,1-10,3-14.4
				c2-4.4,4.9-8.4,8.7-11.9c3.8-3.5,8.5-6.4,13.9-8.5l0.4,0.9c-5.3,2.1-9.9,4.9-13.6,8.4c-3.7,3.4-6.5,7.3-8.5,11.6
				c-1.9,4.3-2.9,9-2.9,14c0,5,1,9.8,3,14.3c2,4.4,4.9,8.4,8.7,11.9c3.8,3.5,8.4,6.3,13.9,8.5L33,84.5z"/>
		</g>
	</g>
	<g>
		<g>
			<path class="st0" d="M91.1,84.5l-0.4-0.9c5.3-2.1,9.9-4.9,13.6-8.4c3.7-3.4,6.5-7.3,8.5-11.6c1.9-4.3,2.9-9,2.9-14
				c0-5-1-9.8-3-14.3c-2-4.4-4.9-8.4-8.7-11.9c-3.8-3.5-8.5-6.3-13.9-8.5l0.4-0.9c5.6,2.2,10.3,5.2,14.2,8.7
				c3.9,3.6,6.9,7.7,8.9,12.2c2,4.5,3.1,9.5,3.1,14.7c0,5.1-1,10-3,14.4c-2,4.4-4.9,8.4-8.7,11.9C101.2,79.5,96.5,82.4,91.1,84.5z"
				/>
		</g>
	</g>
	<g>
		<path class="st0" d="M62.1,78.7h-0.4l-0.2-0.2c-3.1-3.3-6.5-6.6-9.9-9.8c-3.3-3.2-6.8-6.6-9.9-9.8c-1.8-1.9-3.6-3.8-5.1-6
			c-3.2-4.7-4.4-10.5-3.2-15.9c1.1-4.7,3.9-8.7,8-11.1c4.3-2.5,10.4-1.9,14.4,1.4c3,2.4,5.1,5.4,5.9,6.7c0.9-1.3,3-4.3,5.9-6.7
			c4-3.3,10.1-3.9,14.4-1.4c4.1,2.4,7,6.3,8,11.1c1.2,5.4,0,11.2-3.2,15.9c-1.5,2.2-3.3,4.1-5.1,6c-3.1,3.3-6.5,6.6-9.9,9.8
			c-3.3,3.2-6.8,6.5-9.9,9.8L62.1,78.7z M47.5,25.4c-2,0-3.9,0.5-5.5,1.4c-3.9,2.3-6.6,6-7.6,10.4c-1.1,5.1,0,10.6,3.1,15.1
			c1.4,2.1,3.2,4,5,5.9c3.1,3.3,6.5,6.6,9.9,9.8c3.2,3.1,6.5,6.3,9.5,9.5c3-3.2,6.3-6.4,9.5-9.5c3.3-3.2,6.8-6.5,9.9-9.8
			c1.7-1.8,3.5-3.8,5-5.9c3.1-4.5,4.2-10,3.1-15.1c-1-4.5-3.7-8.2-7.6-10.4c-3.9-2.3-9.6-1.7-13.3,1.3c-3.7,3-6.1,7.1-6.1,7.1
			l-0.1,0.2h-0.6l-0.1-0.2c0,0-2.4-4.1-6.1-7.1C53.2,26.3,50.3,25.4,47.5,25.4z"/>
	</g>
</g>
</svg>
