<?xml version="1.0" encoding="utf-8"?>
<!-- Generator: Adobe Illustrator 26.3.1, SVG Export Plug-In . SVG Version: 6.00 Build 0)  -->
<svg version="1.1" id="Layer_1" xmlns="http://www.w3.org/2000/svg" xmlns:xlink="http://www.w3.org/1999/xlink" x="0px" y="0px"
	 viewBox="0 0 230.2 68.7" style="enable-background:new 0 0 230.2 68.7;" xml:space="preserve">
<style type="text/css">
	.st0{fill:#212121;}
	.st1{fill:none;stroke:#212121;stroke-miterlimit:10;}
</style>
<g>
	<g>
		<g>
			<g>
				<path class="st0" d="M25.6,68.7c-5.4-2.2-10.1-5-13.9-8.5S5,52.7,3,48.3S0,39,0,34s1-9.7,2.9-14s4.8-8.2,8.5-11.7
					C15.1,4.9,19.7,2.1,25,0l0.5,1.1c-5.2,2.1-9.6,4.8-13.2,8.1S6,16.3,4.1,20.4c-1.9,4.1-2.8,8.7-2.8,13.5c0,4.9,1,9.5,2.9,13.8
					s4.7,8.2,8.4,11.5c3.7,3.4,8.2,6.2,13.5,8.3L25.6,68.7z"/>
			</g>
		</g>
		<g>
			<g>
				<path class="st0" d="M205.2,68.7l-0.5-1.1c5.2-2.1,9.6-4.8,13.2-8.1c3.6-3.3,6.3-7.1,8.2-11.2s2.8-8.7,2.8-13.5
					c0-4.9-1-9.5-2.9-13.8s-4.7-8.2-8.4-11.5c-3.7-3.4-8.2-6.2-13.5-8.3l0.5-1.1c5.4,2.2,10.1,5,13.9,8.5c3.8,3.5,6.7,7.5,8.7,11.9
					s3,9.3,3,14.3s-1,9.7-2.9,14c-1.9,4.3-4.8,8.2-8.5,11.7C215.1,63.7,210.5,66.5,205.2,68.7z"/>
			</g>
		</g>
	</g>
	<path class="st1" d="M30.6,14c5.8,0,10.5,4.5,10.5,10.1l0,0c0,5.6,4.7,10.1,10.5,10.1s10.5-4.5,10.5-10.1l0,0
		c0-5.6,4.7-10.1,10.5-10.1s10.5,4.5,10.5,10.1l0,0c0,5.6,4.7,10.1,10.5,10.1s10.5-4.5,10.5-10.1h0.1c0-5.6,4.7-10.1,10.5-10.1
		s10.5,4.5,10.5,10.1l0,0c0,5.6,4.7,10.1,10.5,10.1s10.5-4.5,10.5-10.1l0,0c0-5.6,4.7-10.1,10.5-10.1s10.5,4.5,10.5,10.1l0,0
		c0,5.6,4.7,10.1,10.5,10.1s10.5-4.5,10.5-10.1l0,0c0-5.6,4.7-10.1,10.5-10.1"/>
	<path class="st1" d="M30.6,37.4c5.8,0,10.5,4.5,10.5,10.1l0,0c0,5.6,4.7,10.1,10.5,10.1s10.5-4.5,10.5-10.1l0,0
		c0-5.6,4.7-10.1,10.5-10.1s10.5,4.5,10.5,10.1l0,0c0,5.6,4.7,10.1,10.5,10.1s10.5-4.5,10.5-10.1h0.1c0-5.6,4.7-10.1,10.5-10.1
		s10.5,4.5,10.5,10.1l0,0c0,5.6,4.7,10.1,10.5,10.1s10.5-4.5,10.5-10.1l0,0c0-5.6,4.7-10.1,10.5-10.1s10.5,4.5,10.5,10.1l0,0
		c0,5.6,4.7,10.1,10.5,10.1s10.5-4.5,10.5-10.1l0,0c0-5.6,4.7-10.1,10.5-10.1"/>
</g>
</svg>
