<?xml version="1.0" encoding="utf-8"?>
<!-- Generator: Adobe Illustrator 24.0.0, SVG Export Plug-In . SVG Version: 6.00 Build 0)  -->
<svg version="1.1" id="Layer_1" xmlns="http://www.w3.org/2000/svg" xmlns:xlink="http://www.w3.org/1999/xlink" x="0px" y="0px"
	 viewBox="0 0 123.5 98.6" style="enable-background:new 0 0 123.5 98.6;" xml:space="preserve">
<style type="text/css">
	.st0{fill:#282828;}
</style>
<g>
	<g>
		<g>
			<path class="st0" d="M30.5,84.5c-5.6-2.2-10.3-5.2-14.2-8.7c-3.9-3.6-6.9-7.7-8.9-12.2c-2-4.5-3.1-9.5-3.1-14.7
				c0-5.1,1-10,3-14.4c2-4.4,4.9-8.4,8.7-11.9c3.8-3.5,8.5-6.4,13.9-8.5l0.4,0.9c-5.3,2.1-9.9,4.9-13.6,8.4
				C13,26.8,10.1,30.7,8.2,35c-1.9,4.3-2.9,9-2.9,14c0,5,1,9.8,3,14.3c2,4.4,4.9,8.4,8.7,11.9c3.8,3.5,8.4,6.3,13.9,8.5L30.5,84.5z"
				/>
		</g>
	</g>
	<g>
		<g>
			<path class="st0" d="M93.6,84.5l-0.4-0.9c5.3-2.1,9.9-4.9,13.6-8.4c3.7-3.4,6.5-7.3,8.5-11.6c1.9-4.3,2.9-9,2.9-14
				c0-5-1-9.8-3-14.3c-2-4.4-4.9-8.4-8.7-11.9c-3.8-3.5-8.5-6.3-13.9-8.5l0.4-0.9c5.6,2.2,10.3,5.2,14.2,8.7
				c3.9,3.6,6.9,7.7,8.9,12.2c2,4.5,3.1,9.5,3.1,14.7c0,5.1-1,10-3,14.4c-2,4.4-4.9,8.4-8.7,11.9C103.7,79.5,99,82.4,93.6,84.5z"/>
		</g>
	</g>
	<g>
		<path class="st0" d="M58.5,75.6c-1.9,0-3.8-0.3-5.5-1.1c-3.9-1.6-6.8-5.2-7.2-9.1c-0.3-2.6,0.3-5.2,1.6-7.3
			c-1.8-0.7-3.4-1.7-4.6-3c-6.3-6.5-2.9-18.1,2.4-23.4c2.2-2.2,5.4-4.8,10.8-4.8v1c-5,0-8,2.4-10.1,4.5c-5,5.1-8.3,15.9-2.4,22.1
			c1.2,1.2,2.7,2.2,4.5,2.8c0.7-0.9,1.6-1.8,2.6-2.5c1.1-0.8,2.4-1.5,3.6-1.9c-0.3-0.3-0.6-0.7-0.9-1c-2.7-3.4-3.7-7.9-2.6-11.7
			c1.2-4.4,5.2-7.8,9.6-8.3c0.1,0,0.2,0,0.3,0c0.2-0.4,0.5-0.8,0.7-1.2c2.1-3,5.4-4.7,9.3-4.9c7.3-0.3,11.5,5.5,13,11
			c0.9,3.2,2,9.3-0.3,14.3c-2.3,4.9-6.9,7.9-12.1,8.1c1.2,2.9,1.7,6.1,0.3,9.4c-1.1,2.5-3.4,4.6-6.7,5.8
			C62.7,75.2,60.6,75.6,58.5,75.6z M48.4,58.5c-1.3,2-1.9,4.5-1.6,6.9c0.4,3.5,3,6.8,6.6,8.3c3.3,1.4,7.3,1.3,11-0.2
			c1.7-0.7,4.8-2.3,6.1-5.3c1.3-3.1,0.8-6.2-0.5-9.1c-2-0.1-4.8-0.3-7.6-1.2c-1.3,0.4-2.6,0.7-3.8,0.9c-3.1,0.6-6.3,0.6-9.2-0.1
			C49,58.7,48.7,58.6,48.4,58.5z M49,57.6c0.2,0.1,0.4,0.1,0.6,0.2c2.8,0.7,5.9,0.7,8.8,0.1c0.8-0.2,1.6-0.3,2.4-0.5
			c-2-0.8-4-2-5.8-3.6c-1.3,0.4-2.6,1-3.8,1.9C50.3,56.2,49.6,56.9,49,57.6z M68.9,55.1c0.6,1,1.2,2,1.7,3c5,0,9.5-2.9,11.6-7.5
			c2.2-4.7,1.1-10.6,0.3-13.6c-1.4-5.1-5.3-10.5-12-10.2c-3.6,0.1-6.6,1.7-8.5,4.4c-0.1,0.2-0.3,0.4-0.4,0.6c4.1,0.1,8,2.6,9.6,6.3
			c1,2.2,1.3,4.9,0.8,7.9c-0.5,3.3-1.7,6.1-3.4,8.2c1.1-0.1,2.8-0.6,4.4-2.1c1.9-1.8,3.9-5.3,2.7-11.8l1-0.2c1.2,7-1,10.8-3,12.7
			C72.2,54.3,70.4,55,68.9,55.1z M64.1,57.3c2,0.5,3.9,0.7,5.5,0.8c-0.5-1-1.2-2-1.8-3c-0.2,0.2-0.4,0.3-0.5,0.5
			C66.2,56.3,65.2,56.9,64.1,57.3z M56.2,53.4c1.9,1.6,4.1,2.7,6.3,3.4c1.5-0.5,2.9-1.1,4.1-2.1c-1.1-0.2-2.1-0.4-3.1-0.7
			c-0.9-0.2-1.9-0.4-3.1-0.6C59,53.2,57.6,53.2,56.2,53.4z M58.1,52.3c0.9,0,1.7,0.1,2.6,0.3c1.2,0.3,2.1,0.5,3.1,0.6
			c1,0.2,2,0.4,3.2,0.7c-0.4-0.6-0.8-1.1-1.2-1.7c-2.2-3-4.6-6.5-5.9-10.6c-0.9-2.9-0.8-6,0.3-8.7c-3.9,0.6-7.3,3.7-8.4,7.6
			c-1,3.5,0,7.7,2.5,10.8c0.4,0.5,0.8,0.9,1.2,1.3C56.2,52.4,57.1,52.3,58.1,52.3z M61.1,32.8c-1.2,2.6-1.4,5.6-0.5,8.5
			c1.3,3.9,3.6,7.4,5.8,10.3c0.5,0.6,1,1.3,1.4,2c1.7-1.9,2.8-4.6,3.2-7.7c0.4-2.9,0.2-5.4-0.7-7.4C68.8,35,64.9,32.7,61.1,32.8z"/>
	</g>
</g>
</svg>
