<?xml version="1.0" encoding="utf-8"?>
<!-- Generator: Adobe Illustrator 26.3.1, SVG Export Plug-In . SVG Version: 6.00 Build 0)  -->
<svg version="1.1" id="Layer_1" xmlns="http://www.w3.org/2000/svg" xmlns:xlink="http://www.w3.org/1999/xlink" x="0px" y="0px"
	 viewBox="0 0 133.3 68.8" style="enable-background:new 0 0 133.3 68.8;" xml:space="preserve">
<style type="text/css">
	.st0{fill:#212121;}
</style>
<g>
	<g>
		<g>
			<path class="st0" d="M48.7,40.4l0.8-30.5h52.8l-0.7,30.7L48.7,40.4z M50.7,11.1l-0.7,28l50.5,0.2l0.7-28.2H50.7z"/>
		</g>
	</g>
	<g>
		<g>
			<polygon class="st0" points="86.1,59.3 101.9,40.4 101,39.6 85.6,58.1 32.8,56.8 50.2,40.2 49.4,39.4 29.8,57.9 			"/>
		</g>
	</g>
	<g>
		<g>
			<path class="st0" d="M25.5,68.8c-5.4-2.2-10.1-5-13.9-8.5C7.9,56.8,5,52.8,3,48.4C1,43.9,0,39.1,0,34c0-5,1-9.7,2.9-14
				s4.8-8.2,8.5-11.7C15.1,4.9,19.7,2.1,25,0l0.5,1.1c-5.2,2.1-9.6,4.8-13.2,8.1C8.7,12.6,5.9,16.3,4,20.5C2.2,24.6,1.2,29.2,1.2,34
				c0,4.9,1,9.5,2.9,13.8C6,52.1,8.9,56,12.5,59.4c3.7,3.4,8.2,6.2,13.5,8.3L25.5,68.8z"/>
		</g>
	</g>
	<g>
		<g>
			<path class="st0" d="M108.3,68.8l-0.5-1.1c5.2-2.1,9.6-4.8,13.2-8.1c3.6-3.3,6.3-7.1,8.2-11.2c1.9-4.1,2.8-8.7,2.8-13.5
				c0-4.9-1-9.5-2.9-13.8c-1.9-4.3-4.7-8.2-8.4-11.5c-3.7-3.4-8.2-6.2-13.5-8.3l0.5-1.1c5.4,2.2,10.1,5,13.9,8.5
				c3.8,3.5,6.7,7.5,8.7,11.9c2,4.4,3,9.3,3,14.3c0,5-1,9.7-2.9,14c-1.9,4.3-4.8,8.2-8.5,11.7C118.2,63.9,113.6,66.7,108.3,68.8z"/>
		</g>
	</g>
</g>
</svg>
