<?xml version="1.0" encoding="utf-8"?>
<!-- Generator: Adobe Illustrator 24.0.0, SVG Export Plug-In . SVG Version: 6.00 Build 0)  -->
<svg version="1.1" id="Layer_1" xmlns="http://www.w3.org/2000/svg" xmlns:xlink="http://www.w3.org/1999/xlink" x="0px" y="0px"
	 viewBox="0 0 169.1 98.6" style="enable-background:new 0 0 169.1 98.6;" xml:space="preserve">
<style type="text/css">
	.st0{fill:#282828;}
</style>
<g>
	<g>
		<g>
			<path class="st0" d="M35.2,84.5c-5.6-2.2-10.3-5.2-14.2-8.7c-3.9-3.6-6.9-7.7-8.9-12.2c-2-4.5-3.1-9.5-3.1-14.7
				c0-5.1,1-10,3-14.4c2-4.4,4.9-8.4,8.7-11.9c3.8-3.5,8.5-6.4,13.9-8.5L35,15c-5.3,2.1-9.9,4.9-13.6,8.4c-3.7,3.4-6.5,7.3-8.5,11.6
				c-1.9,4.3-2.9,9-2.9,14c0,5,1,9.8,3,14.3c2,4.4,4.9,8.4,8.7,11.9c3.8,3.5,8.4,6.3,13.9,8.5L35.2,84.5z"/>
		</g>
	</g>
	<g>
		<g>
			<path class="st0" d="M134.5,84.5l-0.4-0.9c5.3-2.1,9.9-4.9,13.6-8.4c3.7-3.4,6.5-7.3,8.5-11.6c1.9-4.3,2.9-9,2.9-14
				c0-5-1-9.8-3-14.3c-2-4.4-4.9-8.4-8.7-11.9c-3.8-3.5-8.5-6.3-13.9-8.5l0.4-0.9c5.6,2.2,10.3,5.2,14.2,8.7
				c3.9,3.6,6.9,7.7,8.9,12.2c2,4.5,3.1,9.5,3.1,14.7c0,5.1-1,10-3,14.4c-2,4.4-4.9,8.4-8.7,11.9C144.6,79.5,139.9,82.4,134.5,84.5z
				"/>
		</g>
	</g>
	<g>
		<g>
			<g>
				
					<rect x="81.5" y="30.6" transform="matrix(0.7743 -0.6328 0.6328 0.7743 4.3845 74.5784)" class="st0" width="50.5" height="1"/>
			</g>
			<g>
				<polygon class="st0" points="86.5,47.9 90.6,24.7 91.6,24.9 87.7,46.7 112.1,43.3 112.2,44.3 				"/>
			</g>
		</g>
		<g>
			<rect x="61.9" y="5.9" transform="matrix(0.6332 -0.774 0.774 0.6332 -1.2249 59.6992)" class="st0" width="1" height="50.5"/>
		</g>
		<g>
			<polygon class="st0" points="82.6,47.9 56.9,44.3 57,43.3 81.4,46.7 77.6,24.9 78.5,24.7 			"/>
		</g>
		<g>
			<g>
				
					<rect x="37.1" y="66.4" transform="matrix(0.7743 -0.6328 0.6328 0.7743 -28.2352 54.5523)" class="st0" width="50.5" height="1"/>
			</g>
			<g>
				<polygon class="st0" points="78.5,73.3 77.6,73.1 81.4,51.3 57,54.7 56.9,53.7 82.6,50.1 				"/>
			</g>
		</g>
		<g>
			
				<rect x="106.3" y="41.6" transform="matrix(0.6332 -0.774 0.774 0.6332 -12.5915 107.1603)" class="st0" width="1" height="50.5"/>
		</g>
		<g>
			<polygon class="st0" points="90.6,73.3 86.5,50.1 112.2,53.7 112.1,54.7 87.7,51.3 91.6,73.1 			"/>
		</g>
	</g>
</g>
</svg>
