<?xml version="1.0" encoding="utf-8"?>
<!-- Generator: Adobe Illustrator 24.0.0, SVG Export Plug-In . SVG Version: 6.00 Build 0)  -->
<svg version="1.1" id="Layer_1" xmlns="http://www.w3.org/2000/svg" xmlns:xlink="http://www.w3.org/1999/xlink" x="0px" y="0px"
	 viewBox="0 0 169.1 98.6" style="enable-background:new 0 0 169.1 98.6;" xml:space="preserve">
<style type="text/css">
	.st0{fill:#282828;}
</style>
<g>
	<g>
		<g>
			<path class="st0" d="M35.7,84.5c-5.6-2.2-10.3-5.2-14.2-8.7c-3.9-3.6-6.9-7.7-8.9-12.2c-2-4.5-3.1-9.5-3.1-14.7
				c0-5.1,1-10,3-14.4c2-4.4,4.9-8.4,8.7-11.9c3.8-3.5,8.5-6.4,13.9-8.5l0.4,0.9c-5.3,2.1-9.9,4.9-13.6,8.4
				c-3.7,3.4-6.5,7.3-8.5,11.6c-1.9,4.3-2.9,9-2.9,14c0,5,1,9.8,3,14.3c2,4.4,4.9,8.4,8.7,11.9c3.8,3.5,8.4,6.3,13.9,8.5L35.7,84.5z
				"/>
		</g>
	</g>
	<g>
		<g>
			<path class="st0" d="M134,84.5l-0.4-0.9c5.3-2.1,9.9-4.9,13.6-8.4c3.7-3.4,6.5-7.3,8.5-11.6c1.9-4.3,2.9-9,2.9-14
				c0-5-1-9.8-3-14.3c-2-4.4-4.9-8.4-8.7-11.9c-3.8-3.5-8.5-6.3-13.9-8.5l0.4-0.9c5.6,2.2,10.3,5.2,14.2,8.7
				c3.9,3.6,6.9,7.7,8.9,12.2c2,4.5,3.1,9.5,3.1,14.7c0,5.1-1,10-3,14.4c-2,4.4-4.9,8.4-8.7,11.9C144.1,79.5,139.4,82.4,134,84.5z"
				/>
		</g>
	</g>
	<g>
		<g>
			<g>
				
					<rect x="81.1" y="31.8" transform="matrix(0.7743 -0.6328 0.6328 0.7743 3.5299 74.5785)" class="st0" width="50.5" height="1"/>
			</g>
			<g>
				<polygon class="st0" points="122.5,38.8 121.5,38.6 125.4,16.8 101,20.1 100.8,19.1 126.6,15.6 				"/>
			</g>
		</g>
		<g>
			<g>
				<rect x="62.3" y="7.1" transform="matrix(0.6332 -0.774 0.774 0.6332 -1.9956 60.4696)" class="st0" width="1" height="50.5"/>
			</g>
			<g>
				<polygon class="st0" points="46.6,38.8 42.5,15.6 68.3,19.1 68.1,20.1 43.8,16.8 47.6,38.6 				"/>
			</g>
		</g>
		<g>
			<g>
				
					<rect x="37.6" y="66.5" transform="matrix(0.7743 -0.6328 0.6328 0.7743 -28.2446 54.8609)" class="st0" width="50.5" height="1"/>
			</g>
			<g>
				<polygon class="st0" points="42.5,83.8 46.6,60.6 47.6,60.8 43.8,82.6 68.1,79.2 68.3,80.2 				"/>
			</g>
		</g>
		<g>
			<g>
				
					<rect x="105.8" y="41.8" transform="matrix(0.6332 -0.774 0.774 0.6332 -12.8774 106.8925)" class="st0" width="1" height="50.5"/>
			</g>
			<g>
				<polygon class="st0" points="126.6,83.8 100.8,80.2 101,79.2 125.4,82.6 121.5,60.8 122.5,60.6 				"/>
			</g>
		</g>
	</g>
</g>
</svg>
