<?xml version="1.0" encoding="utf-8"?>
<!-- Generator: Adobe Illustrator 26.3.1, SVG Export Plug-In . SVG Version: 6.00 Build 0)  -->
<svg version="1.1" id="Layer_1" xmlns="http://www.w3.org/2000/svg" xmlns:xlink="http://www.w3.org/1999/xlink" x="0px" y="0px"
	 viewBox="0 0 98.9 70.5" style="enable-background:new 0 0 98.9 70.5;" xml:space="preserve">
<style type="text/css">
	.st0{fill:#282828;}
</style>
<g>
	<g>
		<g>
			<path class="st0" d="M26.2,70.5c-5.6-2.2-10.3-5.2-14.2-8.7c-3.9-3.6-6.9-7.7-8.9-12.2S0,40.1,0,34.9c0-5.1,1-10,3-14.4
				s4.9-8.4,8.7-11.9s8.5-6.4,13.9-8.5L26,1c-5.3,2.1-9.9,4.9-13.6,8.4C8.7,12.8,5.9,16.7,3.9,21C2,25.3,1,30,1,35s1,9.8,3,14.3
				c2,4.4,4.9,8.4,8.7,11.9s8.4,6.3,13.9,8.5L26.2,70.5z"/>
		</g>
	</g>
	<g>
		<g>
			<path class="st0" d="M73.3,70.5l-0.4-0.9c5.3-2.1,9.9-4.9,13.6-8.4c3.7-3.4,6.5-7.3,8.5-11.6c1.9-4.3,2.9-9,2.9-14s-1-9.8-3-14.3
				c-2-4.4-4.9-8.4-8.7-11.9c-3.8-3.5-8.5-6.3-13.9-8.5L72.7,0C78.3,2.2,83,5.2,86.9,8.7c3.9,3.6,6.9,7.7,8.9,12.2s3.1,9.5,3.1,14.7
				c0,5.1-1,10-3,14.4s-4.9,8.4-8.7,11.9C83.4,65.4,78.7,68.3,73.3,70.5z"/>
		</g>
	</g>
	<g>
		<g>
			<g>
				<rect x="49.4" y="3" class="st0" width="1" height="65.2"/>
			</g>
			<g>
				<rect x="29.9" y="34.3" class="st0" width="39.1" height="1"/>
			</g>
		</g>
		<g>
			<g>
				
					<rect x="32.2" y="35.1" transform="matrix(0.7071 -0.7071 0.7071 0.7071 -10.6849 45.4041)" class="st0" width="34.6" height="1"/>
			</g>
			<g>
				
					<rect x="49.2" y="15.3" transform="matrix(0.7071 -0.7071 0.7071 0.7071 -10.0738 45.3353)" class="st0" width="1" height="39.1"/>
			</g>
		</g>
	</g>
</g>
</svg>
