<?xml version="1.0" encoding="utf-8"?>
<!-- Generator: Adobe Illustrator 26.3.1, SVG Export Plug-In . SVG Version: 6.00 Build 0)  -->
<svg version="1.1" id="Capa_1" xmlns="http://www.w3.org/2000/svg" xmlns:xlink="http://www.w3.org/1999/xlink" x="0px" y="0px"
	 viewBox="0 0 63 10.6" style="enable-background:new 0 0 63 10.6;" xml:space="preserve">
<style type="text/css">
	.st0{fill:#212121;}
</style>
<g>
	<path class="st0" d="M2.5,10.6c-0.6,0-1.1-0.1-1.4-0.3C0.7,10,0.5,9.8,0.3,9.4C0.1,9.1,0,8.7,0,8.4c0-0.5,0.1-0.9,0.4-1.2
		c0.2-0.3,0.6-0.5,1-0.7c0.4-0.1,0.9-0.2,1.4-0.2c0.4,0,0.8,0,1.2,0.1S4.7,6.6,5,6.8v0.6C4.7,7.2,4.4,7.1,3.9,7
		C3.5,7,3.2,6.9,2.8,6.9c-0.5,0-1,0.1-1.3,0.3C1.1,7.5,0.9,7.9,0.9,8.4c0,0.4,0.1,0.7,0.4,1s0.7,0.4,1.3,0.4c0.4,0,0.8-0.1,1.1-0.3
		c0.3-0.2,0.6-0.4,0.8-0.7C4.8,8.5,5,8.2,5,7.9h0.2c0,0.5-0.1,0.9-0.3,1.3c-0.2,0.4-0.5,0.7-0.9,1S3.1,10.6,2.5,10.6z M5.1,10.4
		L5,8.9V5.7c0-0.7-0.2-1.2-0.5-1.5C4.2,3.8,3.7,3.7,3.1,3.7c-0.3,0-0.6,0-0.9,0.1C1.9,3.9,1.7,4,1.5,4.3S1.3,4.7,1.3,5.1h-1
		c0-0.5,0.1-0.9,0.4-1.2c0.3-0.3,0.6-0.5,1-0.7C2.1,3,2.6,3,3.1,3c0.5,0,1,0.1,1.4,0.3s0.7,0.5,1,0.9S5.8,5,5.8,5.7v4.7H5.1z"/>
	<path class="st0" d="M14.9,10.4V0h0.9v8.7l-0.2,1.6H14.9z M18,10.6c-0.5,0-0.9-0.1-1.3-0.4s-0.7-0.6-1-1.1S15.4,8,15.4,7.4h0.4
		c0,0.5,0.1,1,0.3,1.3c0.2,0.4,0.5,0.6,0.8,0.8c0.3,0.2,0.7,0.3,1.1,0.3c0.4,0,0.8-0.1,1.1-0.4s0.6-0.6,0.8-1s0.3-1,0.3-1.6
		c0-0.6-0.1-1.2-0.3-1.6c-0.2-0.4-0.5-0.8-0.8-1s-0.7-0.4-1.2-0.4c-0.4,0-0.7,0.1-1.1,0.3c-0.3,0.2-0.6,0.5-0.8,0.8
		c-0.2,0.4-0.3,0.8-0.3,1.3h-0.4c0-0.7,0.1-1.2,0.3-1.7c0.2-0.5,0.5-0.8,1-1.1C17.1,3.1,17.5,3,18.1,3c0.6,0,1.1,0.2,1.6,0.5
		c0.5,0.3,0.9,0.7,1.1,1.3c0.3,0.6,0.4,1.2,0.4,2c0,0.8-0.1,1.5-0.4,2s-0.7,1-1.2,1.3C19.1,10.4,18.6,10.6,18,10.6z"/>
	<path class="st0" d="M32.4,10.6c-0.6,0-1.2-0.1-1.7-0.4c-0.5-0.3-0.9-0.7-1.2-1.3c-0.3-0.6-0.4-1.3-0.4-2.1s0.1-1.5,0.4-2.1
		c0.3-0.6,0.7-1,1.2-1.3C31.2,3.1,31.7,3,32.4,3s1.2,0.1,1.7,0.4c0.5,0.3,0.9,0.7,1.2,1.3c0.3,0.6,0.4,1.3,0.4,2.1s-0.1,1.5-0.4,2.1
		c-0.3,0.6-0.7,1-1.2,1.3C33.6,10.4,33,10.6,32.4,10.6z M32.4,9.8c0.5,0,1-0.1,1.3-0.4s0.6-0.6,0.8-1.1s0.3-1,0.3-1.6
		c0-0.9-0.2-1.6-0.6-2.2s-1-0.8-1.8-0.8c-0.5,0-1,0.1-1.3,0.4s-0.6,0.6-0.8,1.1c-0.2,0.5-0.3,1-0.3,1.6c0,0.9,0.2,1.6,0.6,2.2
		C31,9.5,31.6,9.8,32.4,9.8z"/>
	<path class="st0" d="M43.9,3.1h0.9v4.6c0,0.7,0.2,1.2,0.5,1.5c0.3,0.4,0.8,0.5,1.4,0.5c0.5,0,0.9-0.1,1.3-0.4s0.6-0.6,0.8-1.1
		c0.2-0.5,0.3-1,0.3-1.5h0.4c0,0.8-0.1,1.4-0.4,2s-0.6,1-1,1.3c-0.4,0.3-1,0.5-1.6,0.5c-0.6,0-1-0.1-1.4-0.3
		c-0.4-0.2-0.7-0.5-0.9-0.9c-0.2-0.4-0.3-0.9-0.3-1.5V3.1z M49.2,3.1h0.9v7.3h-0.9V3.1z"/>
	<path class="st0" d="M58.3,3.8V3.1h4.6v0.6H58.3z M61.5,10.6c-0.4,0-0.7-0.1-1-0.2S60,10,59.8,9.7c-0.2-0.3-0.2-0.6-0.2-1.1V1.1
		h0.9v7.5c0,0.8,0.4,1.2,1.1,1.2c0.2,0,0.4,0,0.6-0.1c0.2-0.1,0.4-0.1,0.7-0.2l0.1,0.6c-0.2,0.1-0.5,0.2-0.7,0.3
		C62,10.5,61.8,10.6,61.5,10.6z"/>
</g>
</svg>
