<?xml version="1.0" encoding="utf-8"?>
<!-- Generator: Adobe Illustrator 24.0.0, SVG Export Plug-In . SVG Version: 6.00 Build 0)  -->
<svg version="1.1" id="Capa_1" xmlns="http://www.w3.org/2000/svg" xmlns:xlink="http://www.w3.org/1999/xlink" x="0px" y="0px"
	 viewBox="0 0 1920 1080" style="enable-background:new 0 0 1920 1080;" xml:space="preserve">
<style type="text/css">
	.st0{fill:#FFFFFF;}
</style>
<g>
	<g>
		<polyline class="st0" points="287.8,98 281.9,98 281.9,981.1 287.8,981.1 		"/>
		<polygon points="287.8,981.6 281.4,981.6 281.4,97.5 287.8,97.5 287.8,98.5 282.4,98.5 282.4,980.6 287.8,980.6 		"/>
	</g>
	<g>
		<polyline class="st0" points="294,93.4 288.1,93.4 288.1,985.7 294,985.7 		"/>
		<polygon points="294,986.2 287.6,986.2 287.6,92.9 294,92.9 294,93.9 288.6,93.9 288.6,985.2 294,985.2 		"/>
	</g>
	<g>
		<polyline class="st0" points="300.2,86.9 294.3,86.9 294.3,992.2 300.2,992.2 		"/>
		<polygon points="300.2,992.7 293.8,992.7 293.8,86.4 300.2,86.4 300.2,87.4 294.8,87.4 294.8,991.7 300.2,991.7 		"/>
	</g>
	<g>
		<polyline class="st0" points="306.4,81.4 300.5,81.4 300.5,997.8 306.4,997.8 		"/>
		<polygon points="306.4,998.3 300,998.3 300,80.9 306.4,80.9 306.4,81.9 301,81.9 301,997.3 306.4,997.3 		"/>
	</g>
	<g>
		<polyline class="st0" points="312.6,75.5 306.7,75.5 306.7,1003.7 312.6,1003.7 		"/>
		<polygon points="312.6,1004.2 306.2,1004.2 306.2,75 312.6,75 312.6,76 307.2,76 307.2,1003.2 312.6,1003.2 		"/>
	</g>
	<g>
		<polyline class="st0" points="1633.1,75.5 1639,75.5 1639,1003.7 1633.1,1003.7 		"/>
		<polygon points="1639.5,1004.2 1633.1,1004.2 1633.1,1003.2 1638.5,1003.2 1638.5,76 1633.1,76 1633.1,75 1639.5,75 		"/>
	</g>
	<g>
		<path class="st0" d="M973.6,989c0.9,2.1,9.1,12.7,16.5,15.6c7.4,2.9,22.1,3.2,22.1,3.2h621V71.4c0,0-619.5-0.3-626.2,0
			c-8.9,0.4-13.2,1-21.2,5.9C975.4,83.6,973,93.5,973,93.5s-2.8-9.9-13-16.2c-8-4.9-12.3-5.4-21.2-5.9c-6.8-0.3-626.2,0-626.2,0
			v936.4h621c0,0,14.7-0.3,22.1-3.2c7.4-2.9,15.6-13.5,16.5-15.6C972.9,987,972.7,987,973.6,989z"/>
		<path d="M1633.6,1008.4h-621.5c-0.6,0-14.9-0.3-22.3-3.3c-7.5-3-15.8-13.6-16.8-15.9l-0.3-0.6c0,0,0-0.1-0.1-0.1
			c0,0,0,0.1-0.1,0.1l-0.3,0.6c-1,2.3-9.3,12.9-16.8,15.9c-7.4,2.9-21.6,3.3-22.2,3.3H312.1V70.9l0.5,0c6.2,0,619.6-0.3,626.3,0
			c9.2,0.5,13.5,1.1,21.4,6c8.1,4.9,11.5,12,12.7,15c1.1-3,4.4-10.1,12.4-15c8-4.9,12.2-5.5,21.4-6c6.7-0.3,620.1,0,626.3,0l0.5,0
			V1008.4z M972.8,987c0.5,0,0.6,0.4,1,1.2l0.3,0.6c0.9,2.1,9.1,12.5,16.2,15.3c7.2,2.9,21.8,3.2,21.9,3.2h620.4V71.9
			c-20.7,0-619.1-0.3-625.7,0c-9,0.4-13.2,1.1-21,5.8c-9.9,6.1-12.4,15.8-12.4,15.9l-0.5,1.8l-0.5-1.8c0-0.1-2.9-9.8-12.8-15.9
			c-7.8-4.7-11.9-5.4-21-5.8c-6.6-0.3-605.1,0-625.7,0v935.4h620.5c0.1,0,14.7-0.3,21.9-3.2c7.1-2.9,15.3-13.2,16.2-15.3l0.3-0.6
			C972.2,987.4,972.4,987,972.8,987z"/>
	</g>
	<g>
		<line class="st0" x1="972.9" y1="987.9" x2="972.9" y2="92.5"/>
		<rect x="972.4" y="92.5" width="1" height="895.4"/>
	</g>
</g>
</svg>
