<?xml version="1.0" encoding="utf-8"?>
<!-- Generator: Adobe Illustrator 26.3.1, SVG Export Plug-In . SVG Version: 6.00 Build 0)  -->
<svg version="1.1" id="Capa_1" xmlns="http://www.w3.org/2000/svg" xmlns:xlink="http://www.w3.org/1999/xlink" x="0px" y="0px"
	 viewBox="0 0 189.9 14.2" style="enable-background:new 0 0 189.9 14.2;" xml:space="preserve">
<style type="text/css">
	.st0{fill:#212121;}
</style>
<g>
	<path class="st0" d="M0,10.5V0.1h0.9v10.4H0z"/>
	<path class="st0" d="M12.7,10.6c-0.6,0-1.2-0.1-1.7-0.4c-0.5-0.3-0.9-0.7-1.2-1.3C9.5,8.4,9.4,7.7,9.4,6.9s0.1-1.5,0.4-2.1
		c0.3-0.6,0.7-1,1.2-1.3c0.5-0.3,1.1-0.4,1.7-0.4s1.2,0.1,1.7,0.4c0.5,0.3,0.9,0.7,1.2,1.3C15.9,5.3,16,6,16,6.9s-0.1,1.5-0.4,2.1
		c-0.3,0.6-0.7,1-1.2,1.3C13.9,10.5,13.3,10.6,12.7,10.6z M12.7,9.9c0.5,0,1-0.1,1.3-0.4s0.6-0.6,0.8-1.1s0.3-1,0.3-1.6
		c0-0.9-0.2-1.6-0.6-2.2s-1-0.8-1.8-0.8c-0.5,0-1,0.1-1.3,0.4s-0.6,0.6-0.8,1.1c-0.2,0.5-0.3,1-0.3,1.6c0,0.9,0.2,1.6,0.6,2.2
		C11.3,9.6,11.9,9.9,12.7,9.9z"/>
	<path class="st0" d="M23.2,3.2h0.9l2,6.3H26l2-6h0.7l1.9,6h-0.1l2-6.3h0.9L31,10.5h-0.9l-1.9-5.6h0.1l-1.9,5.6h-0.8L23.2,3.2z"/>
	<path class="st0" d="M50.2,3.9V3.2h3.7v0.6H50.2z M51.4,10.5V2c0-0.5,0.1-0.8,0.3-1.1s0.4-0.5,0.7-0.7C52.7,0.1,53,0,53.4,0
		c0.2,0,0.4,0,0.6,0c0.2,0,0.4,0.1,0.6,0.1l-0.2,0.7c-0.2-0.1-0.3-0.1-0.5-0.1c-0.2,0-0.3,0-0.5,0c-0.2,0-0.3,0-0.5,0.1
		c-0.2,0.1-0.3,0.2-0.5,0.4c-0.1,0.2-0.2,0.5-0.2,0.8v8.5H51.4z"/>
	<path class="st0" d="M62.2,10.5V3.2h0.9v7.3H62.2z M62.7,7.2c0-0.9,0.1-1.7,0.2-2.3c0.2-0.6,0.4-1.1,0.7-1.4
		C64,3.2,64.4,3.1,65,3.1c0.2,0,0.3,0,0.5,0s0.3,0.1,0.5,0.1l-0.1,0.9C65.7,4.1,65.5,4,65.3,4c-0.2,0-0.3-0.1-0.5-0.1
		c-0.5,0-0.8,0.1-1.1,0.4c-0.3,0.3-0.4,0.7-0.6,1.1c-0.1,0.5-0.2,1-0.2,1.7H62.7z"/>
	<path class="st0" d="M76,10.6c-0.6,0-1.2-0.2-1.7-0.5c-0.5-0.3-0.9-0.8-1.1-1.3c-0.3-0.6-0.4-1.2-0.4-1.9c0-0.8,0.1-1.5,0.4-2
		s0.6-1,1.1-1.3c0.5-0.3,1-0.5,1.7-0.5c0.5,0,1,0.1,1.4,0.3c0.4,0.2,0.7,0.5,0.9,0.9c0.2,0.4,0.4,0.8,0.5,1.3c0.1,0.5,0.1,1,0.1,1.5
		h-5.4V6.4h4.8l-0.4,0.2c0-0.3,0-0.7-0.1-1S77.7,5,77.6,4.7C77.4,4.4,77.2,4.2,77,4s-0.6-0.3-1-0.3c-0.5,0-1,0.1-1.3,0.4
		c-0.3,0.3-0.6,0.6-0.8,1c-0.2,0.4-0.3,0.9-0.3,1.4V7c0,0.6,0.1,1.1,0.3,1.5c0.2,0.4,0.4,0.8,0.8,1.1s0.8,0.4,1.3,0.4
		c0.5,0,1-0.1,1.3-0.4c0.3-0.3,0.5-0.6,0.6-1.2h0.9c-0.1,0.5-0.2,0.9-0.5,1.2c-0.3,0.3-0.6,0.6-1,0.8C76.9,10.6,76.5,10.6,76,10.6z"
		/>
	<path class="st0" d="M89.8,10.6c-0.6,0-1.1-0.2-1.6-0.5S87.3,9.5,87,8.9c-0.3-0.6-0.4-1.3-0.4-2c0-0.8,0.1-1.5,0.4-2s0.7-1,1.2-1.3
		c0.5-0.3,1-0.5,1.6-0.5c0.5,0,1,0.1,1.4,0.4c0.4,0.2,0.7,0.6,1,1.1c0.2,0.5,0.4,1,0.4,1.7H92c0-0.5-0.1-1-0.3-1.3
		c-0.2-0.4-0.5-0.6-0.8-0.8c-0.3-0.2-0.7-0.3-1-0.3c-0.4,0-0.8,0.1-1.2,0.4c-0.4,0.2-0.6,0.6-0.9,1c-0.2,0.4-0.3,1-0.3,1.6
		c0,0.6,0.1,1.2,0.3,1.6c0.2,0.5,0.5,0.8,0.9,1c0.4,0.2,0.7,0.4,1.1,0.4c0.4,0,0.7-0.1,1-0.3s0.6-0.4,0.8-0.8C91.9,8.5,92,8,92,7.5
		h0.4c0,0.6-0.1,1.2-0.3,1.7c-0.2,0.5-0.5,0.8-0.9,1.1C90.8,10.5,90.3,10.6,89.8,10.6z M93.7,14.2c-0.6-0.2-1.1-0.5-1.3-0.8
		C92.1,13,92,12.4,92,11.7V4.9l0.2-1.6h0.6v8.5c0,0.4,0,0.7,0.1,0.9c0.1,0.2,0.2,0.4,0.4,0.5c0.2,0.1,0.4,0.2,0.7,0.3L93.7,14.2z"/>
	<path class="st0" d="M102,3.2h0.9v4.6c0,0.7,0.2,1.2,0.5,1.5c0.3,0.4,0.8,0.5,1.4,0.5c0.5,0,0.9-0.1,1.3-0.4s0.6-0.6,0.8-1.1
		c0.2-0.5,0.3-1,0.3-1.5h0.4c0,0.8-0.1,1.4-0.4,2s-0.6,1-1,1.3c-0.4,0.3-1,0.5-1.6,0.5c-0.6,0-1-0.1-1.4-0.3
		c-0.4-0.2-0.7-0.5-0.9-0.9C102.1,9,102,8.4,102,7.8V3.2z M107.2,3.2h0.9v7.3h-0.9V3.2z"/>
	<path class="st0" d="M119.8,10.6c-0.6,0-1.2-0.2-1.7-0.5c-0.5-0.3-0.9-0.8-1.1-1.3c-0.3-0.6-0.4-1.2-0.4-1.9c0-0.8,0.1-1.5,0.4-2
		s0.6-1,1.1-1.3c0.5-0.3,1-0.5,1.7-0.5c0.5,0,1,0.1,1.4,0.3c0.4,0.2,0.7,0.5,0.9,0.9c0.2,0.4,0.4,0.8,0.5,1.3c0.1,0.5,0.1,1,0.1,1.5
		h-5.4V6.4h4.8l-0.4,0.2c0-0.3,0-0.7-0.1-1s-0.2-0.6-0.3-0.9c-0.1-0.3-0.3-0.5-0.6-0.7s-0.6-0.3-1-0.3c-0.5,0-1,0.1-1.3,0.4
		c-0.3,0.3-0.6,0.6-0.8,1c-0.2,0.4-0.3,0.9-0.3,1.4V7c0,0.6,0.1,1.1,0.3,1.5c0.2,0.4,0.4,0.8,0.8,1.1s0.8,0.4,1.3,0.4
		c0.5,0,1-0.1,1.3-0.4c0.3-0.3,0.5-0.6,0.6-1.2h0.9c-0.1,0.5-0.2,0.9-0.5,1.2c-0.3,0.3-0.6,0.6-1,0.8
		C120.8,10.6,120.3,10.6,119.8,10.6z"/>
	<path class="st0" d="M131.2,10.5V3.2h0.7l0.1,1.8v5.5H131.2z M136.5,10.5V6.2c0-0.8-0.2-1.4-0.6-1.8c-0.4-0.4-0.9-0.6-1.5-0.6
		c-0.5,0-0.9,0.1-1.2,0.4c-0.3,0.3-0.6,0.6-0.8,1.1c-0.2,0.5-0.3,1-0.3,1.6h-0.4c0-0.8,0.1-1.5,0.3-2.1c0.2-0.6,0.5-1,1-1.4
		s1-0.5,1.6-0.5c0.6,0,1,0.1,1.5,0.4c0.4,0.2,0.7,0.6,1,1.1c0.2,0.5,0.3,1,0.3,1.7v4.3H136.5z"/>
	<path class="st0" d="M148.8,10.6c-0.6,0-1.1-0.2-1.6-0.5c-0.5-0.3-0.9-0.8-1.2-1.3c-0.3-0.6-0.5-1.2-0.5-2c0-0.8,0.2-1.5,0.5-2
		c0.3-0.6,0.7-1,1.2-1.3c0.5-0.3,1-0.5,1.6-0.5c0.4,0,0.7,0.1,1,0.2c0.3,0.1,0.6,0.3,0.8,0.5c0.2,0.2,0.4,0.4,0.6,0.7
		s0.3,0.5,0.4,0.8l-0.9,0.1c-0.1-0.5-0.4-0.8-0.7-1.1s-0.7-0.4-1.2-0.4c-0.4,0-0.8,0.1-1.1,0.3c-0.3,0.2-0.6,0.6-0.9,1
		s-0.3,1-0.3,1.6c0,0.6,0.1,1.1,0.3,1.6c0.2,0.5,0.5,0.8,0.8,1.1s0.7,0.4,1.2,0.4c0.6,0,1.1-0.2,1.4-0.5c0.3-0.3,0.5-0.7,0.5-1.3
		h0.9c0,0.5-0.1,0.9-0.4,1.3s-0.6,0.7-1,0.9S149.4,10.6,148.8,10.6z"/>
	<path class="st0" d="M160.8,1.3c-0.2,0-0.3-0.1-0.5-0.2s-0.2-0.3-0.2-0.4c0-0.2,0.1-0.3,0.2-0.4c0.1-0.1,0.3-0.2,0.5-0.2
		c0.2,0,0.4,0.1,0.5,0.2c0.1,0.1,0.2,0.2,0.2,0.4c0,0.2-0.1,0.3-0.2,0.4S161,1.3,160.8,1.3z M160.3,10.5V3.2h0.9v7.3H160.3z"/>
	<path class="st0" d="M173.1,10.6c-0.6,0-1.2-0.2-1.7-0.5c-0.5-0.3-0.9-0.8-1.1-1.3c-0.3-0.6-0.4-1.2-0.4-1.9c0-0.8,0.1-1.5,0.4-2
		s0.6-1,1.1-1.3c0.5-0.3,1-0.5,1.7-0.5c0.5,0,1,0.1,1.4,0.3c0.4,0.2,0.7,0.5,0.9,0.9c0.2,0.4,0.4,0.8,0.5,1.3C176,6,176,6.5,176,7
		h-5.4V6.4h4.8l-0.4,0.2c0-0.3,0-0.7-0.1-1s-0.2-0.6-0.3-0.9c-0.1-0.3-0.3-0.5-0.6-0.7s-0.6-0.3-1-0.3c-0.5,0-1,0.1-1.3,0.4
		c-0.3,0.3-0.6,0.6-0.8,1c-0.2,0.4-0.3,0.9-0.3,1.4V7c0,0.6,0.1,1.1,0.3,1.5c0.2,0.4,0.4,0.8,0.8,1.1s0.8,0.4,1.3,0.4
		c0.5,0,1-0.1,1.3-0.4c0.3-0.3,0.5-0.6,0.6-1.2h0.9c-0.1,0.5-0.2,0.9-0.5,1.2c-0.3,0.3-0.6,0.6-1,0.8
		C174.1,10.6,173.6,10.6,173.1,10.6z"/>
	<path class="st0" d="M187.1,10.6c-0.7,0-1.3-0.1-1.7-0.3c-0.5-0.2-0.8-0.5-1-0.8c-0.2-0.3-0.4-0.7-0.4-1.2h0.9
		c0,0.5,0.2,0.9,0.6,1.2c0.4,0.3,0.9,0.4,1.6,0.4c0.3,0,0.7-0.1,1-0.2c0.3-0.1,0.5-0.3,0.7-0.5s0.3-0.4,0.3-0.7
		c0-0.3-0.1-0.6-0.4-0.8c-0.2-0.2-0.6-0.3-1.1-0.5L186.2,7c-0.6-0.2-1.1-0.4-1.5-0.8c-0.3-0.3-0.5-0.7-0.5-1.2c0-0.6,0.2-1,0.7-1.4
		c0.5-0.3,1.1-0.5,1.9-0.5c0.9,0,1.5,0.2,2,0.5s0.7,0.8,0.8,1.3h-0.9c-0.1-0.4-0.2-0.6-0.6-0.8s-0.8-0.3-1.3-0.3
		c-0.6,0-1,0.1-1.3,0.4c-0.3,0.3-0.5,0.5-0.5,0.8c0,0.6,0.5,1,1.5,1.3l1.3,0.4c0.7,0.2,1.1,0.4,1.5,0.7c0.3,0.3,0.5,0.7,0.5,1.2
		c0,0.4-0.1,0.7-0.3,1c-0.2,0.3-0.6,0.6-1,0.8S187.7,10.6,187.1,10.6z"/>
</g>
</svg>
