<?xml version="1.0" encoding="utf-8"?>
<!-- Generator: Adobe Illustrator 24.0.0, SVG Export Plug-In . SVG Version: 6.00 Build 0)  -->
<svg version="1.1" id="Capa_1" xmlns="http://www.w3.org/2000/svg" xmlns:xlink="http://www.w3.org/1999/xlink" x="0px" y="0px"
	 viewBox="0 0 566 480" style="enable-background:new 0 0 566 480;" xml:space="preserve">
<style type="text/css">
	.st0{fill:#FFFFFF;}
	.st1{fill:#282828;}
	.st2{fill:none;stroke:#282828;stroke-width:0.5;stroke-miterlimit:10;}
</style>
<g>
	<g>
		<rect x="90.5" y="94.9" class="st0" width="375.9" height="299"/>
		<path class="st1" d="M466.2,95.2v298.5H90.8V95.2H466.2 M466.7,94.7H90.3v299.5h376.4V94.7L466.7,94.7z"/>
	</g>
	<g>
		<rect x="99.5" y="86.1" class="st0" width="375.9" height="299"/>
		<path class="st1" d="M475.2,86.3v298.5H99.8V86.3H475.2 M475.7,85.8H99.3v299.5h376.4V85.8L475.7,85.8z"/>
	</g>
	<g>
		<path class="st2" d="M429.9,266.6c0,0-3.7-2.6-4.4-6.4c-0.8-3.8-0.5-12.4-0.5-14.7c0-2.4,2-9,2.7-11.9c0.7-2.9,1.5-7.3,1.5-7.3
			s1.8-7,2.3-12.7c0.5-5.7,2.6-15.7,3.1-18c0.5-2.2,3.4-14.7,3.4-14.7s1.5-5.7-0.2-8.5c-1.8-2.8-3.8-3.7-5.9-3.8s-7.3,1-8.6,4.7
			c-1.2,3.7-2.8,9.1-3.1,11.6s-2.4,11.7-3.4,16.1c-1,4.4-3.7,12.2-4.7,15.7c-1,3.5-3.4,16.9-3.7,19.9s-0.6,5.1-0.6,5.1"/>
		<path class="st2" d="M410.4,246.6c-2.2-3.5-4.4-7.9-4.9-11.9c-0.5-4-0.1-10.8-0.1-13.6s1.1-8.5,1.1-11.1s0.4-11.7,0.2-15
			c-0.2-3.3-0.3-11.2-0.2-14.3s1.1-11.6,1.4-14.3c0.2-2.7,1.9-9.9-2.8-12.7c-4.7-2.8-8.7-0.5-9.9,0.8s-2.4,3.4-3.3,9.7
			c-0.8,6.3-2.4,14.3-3.2,19.7c-0.8,5.4-1.8,16.5-1.9,21.5c-0.2,5-1.4,19.6-1.5,23.4c-0.2,3.7-0.3,4.4-0.8,4.9c0,0-1.9,1.3-2.5-2.2
			s-2.1-16.8-2.4-20.3c-0.3-3.5-0.5-10.2-0.9-12.1c-0.5-1.8-1.1-16.3-1.1-19.1s0.2-15.3-2.7-17.1c-2.9-1.8-7.7-1.8-9.3-0.8
			c-1.6,0.9-3.7,3.6-4.4,7.9s-1.8,18-1.8,22.5s-0.8,15.2-0.3,22.2c0.5,7,1.6,15.5,1.9,17.8c0.3,2.3-0.9,6.7-0.8,9.9
			c0.1,3.2-2.1,7.1-2.1,8.5c0.1,1.4-2.4,3.4-3,4.3s-4,5.6-6,8.6s-4,5.3-4,7.8c0,2.4-0.8,4.7-1.3,5.5"/>
		<path class="st2" d="M351,260.7c0,0,0.2-10.7-0.5-13.9c-0.7-3.2-0.6-4.5-0.6-4.5s0.5-4-1.1-8.4s-4.5-14.1-9.2-16.7
			c-4.7-2.7-7.5-2.1-8.7-1.8c-1.2,0.3-3.2,1.8-3.4,3.1c-0.2,1.2,0.9,5.3,1.5,9.2c0.6,4,0.6,9.5,0.5,13.1c-0.1,3.7,0.6,9.2,0.7,12
			c0.2,6.4,1.3,12.3,0.4,18.8c-0.7,4.8-1,8.8,0,13.6c0.8,3.8,1.7,7.6,2.5,11.5c0.9,4.6,4.4,17.9,5.9,22.5c1,3.2,3.1,5.3,4.9,8
			c2.2,3.2,3.8,6.7,5.2,10.3c1.6,4.3,2.8,8.7,4,13.1c1.2,4.4,2.7,8.6,2.9,13.2c0,0,28.4,7.9,40.2,6.1c11.8-1.8,31-9.9,31-9.9
			s-9.8-24.9-9.3-27c0.5-2.1,6.6-14.4,8.6-20.4s4.2-13.5,5.7-19.5c1.5-6,5.5-16.5,6-18.9s1.2-5.5,2.6-8.4c1.4-2.9,4.6-10.8,5.7-13.8
			c1.1-2.9,3.4-7.3,5.2-11.2c1.8-3.8,6-11,8.1-15.2s4.1-7.7,4.4-9s-0.4-5.3-2.9-6.6s-5.9-1.2-8.1,1c-2.2,2.2-4.7,6-7.3,10.1
			s-3.7,6.8-4.2,7.9c-0.5,1.1-3.7,6.1-4.5,7.3s-4.2,5.3-4.7,6c-0.5,0.7-3,4.3-4,5.9c-1.1,1.6-3,7.9-3,7.9"/>
		<path class="st2" d="M345.9,331.4c0,0-3.4,7.9-4,10.4s-1.2,6-2.2,8.2s-4.9,12.4-4.9,12.4s7.1,12.8,34.5,4.7"/>
		<path class="st2" d="M335.9,309.1c0,0-4.9-7.5-6-9.8s-3.3-8.5-3.9-9.5s-3.8-5.8-4.3-8.3s0.1-8.9-0.9-12.9c-1-4-3.2-10.3-3.7-12.7
			c-0.5-2.4-0.5-2.8-0.7-4s-6.2-13.4-7.5-16.5s-3-7.3-3-7.3s0.5-5.3,3.9-6.7c3.4-1.4,8.9-0.5,10.6,0.8c1.7,1.2,6.6,7.6,6.6,7.6
			l2.2,4.5"/>
		<path class="st2" d="M351,255.7c0,0,0.6-2.1,1.9-2.4c1.3-0.4,0.5-5,0.6-7.3c0.2-2.3,0.7-5.7,0.7-5.7s-2.4-12.4-3.1-13.6
			c-0.7-1.2-1.2-5.5-2.5-10.6c-1.3-5.1-1.7-12.1-1.9-17.6c-0.2-5.5-1.5-16.9-1.5-16.9s-0.2-9.6,1.7-13.1s5.8-4,8.1-3.5
			c2.3,0.5,4,2.2,4.9,4c0.9,1.8,1.2,4,1.2,4"/>
		<path class="st2" d="M373.5,162c0,0,0.8-4.4,3.5-6c2.7-1.6,7.4-1.2,9.5,0.3s3,4.1,3.6,8.2c0.6,4,0.7,7.7,0.7,7.7"/>
		<path class="st2" d="M408,166.5c0,0,3.6-1.2,6.4,1.5c2.8,2.7,3,6.7,3,9.3s-1.4,11.3-1.4,13.4s-0.7,3.7-0.7,3.7l0.6,9.7"/>
		<path class="st2" d="M429.5,225.3c0,0,2-3.9,3.1-7.8c1.1-3.9,3.4-13.2,5.1-15.8c1.7-2.6,5.8-3.3,8.3-2.4c2.4,0.9,3.7,2.8,4,5.8
			s-1.7,11.5-1.7,11.5"/>
		<g>
			<path class="st1" d="M459,211.4L459,211.4c1,0,1.7,0.2,2.1,0.5c1.8,1.3,1.8,2.9,1.8,3c0,0.2-0.1,0.5-0.3,0.8
				c-0.1,0.3-0.3,0.5-0.5,0.8l-0.1,0.1c-0.5,0.8-1.1,1.5-1.7,2.3c-0.1,0.1-0.2,0.3-0.3,0.4c-0.3,0.5-0.7,1-1.1,1.2
				c-0.3,0.2-1,0.4-1.8,0.4c-0.5,0-1.4-0.1-1.7-0.8c-0.3-0.6-0.5-1.3-0.4-2c0.1-0.7,0.2-1.5,0.5-2.4c0.3-0.8,0.6-1.7,1-2.4
				c0.1-0.1,0.1-0.2,0.2-0.3c0.3-0.5,0.6-1.2,1-1.5C457.9,211.5,458.4,211.4,459,211.4 M459,210.9c-0.8,0-1.4,0.1-1.4,0.1
				c-0.7,0.4-1.1,1.4-1.4,2.1c-0.4,0.8-0.8,1.7-1,2.5c-0.2,0.8-0.5,1.6-0.5,2.5c-0.1,0.8,0.2,1.5,0.5,2.2c0.4,0.8,1.3,1.1,2.2,1.1
				c0.8,0,1.7-0.2,2-0.4c0.6-0.4,1.1-1.2,1.5-1.8c0.6-0.8,1.1-1.5,1.7-2.3c0.2-0.3,0.4-0.6,0.6-0.9c0.2-0.3,0.3-0.7,0.3-1
				c0,0,0-1.9-2-3.4C460.8,211,459.8,210.9,459,210.9L459,210.9z"/>
		</g>
		<g>
			<path class="st1" d="M431.2,170.5L431.2,170.5c0.1,0,0.3,0,0.4,0c2.8,0.1,3.4,1,3.9,1.6c0.4,0.6,0.8,1.5,0.9,1.8
				c-0.3,1-1.8,5.7-2,6.6c-0.2,0.8-1.3,1.6-2.2,1.8c-0.3,0.1-0.7,0.1-1,0.1c-0.9,0-1.8-0.3-2.5-0.7c-1.3-0.8-2.4-2.7-2.1-4.3
				c0.2-0.8,0.3-1.7,0.5-2.5c0.3-1.2,0.5-2.3,0.8-3.5C428.1,171.3,429.2,170.5,431.2,170.5 M431.2,170c-2.6,0-3.9,1.3-3.9,1.3
				c-0.3,1.2-0.6,2.4-0.8,3.6c-0.2,0.8-0.4,1.7-0.5,2.5c-0.3,1.8,0.9,3.8,2.4,4.8c0.8,0.5,1.8,0.8,2.8,0.8c0.4,0,0.8,0,1.2-0.2
				c1-0.3,2.3-1.2,2.6-2.2c0.3-1,2.1-6.8,2.1-6.8s-0.4-1.3-1-2.1c-0.6-0.8-1.4-1.7-4.3-1.8C431.5,170,431.3,170,431.2,170L431.2,170
				z"/>
		</g>
		<g>
			<path class="st1" d="M400.9,154.5L400.9,154.5L400.9,154.5c2.5,0,3.8,0.8,4.6,1.4c0.2,0.1,0.3,0.2,0.4,0.3c0.5,0.3,0.6,0.8,0.6,1
				l-0.1,1.1l-0.3,2l-0.3,2.4l0,0.1c-0.1,1.2-0.3,2.1-1.1,2.8c-0.6,0.5-1.4,0.8-2.4,0.8c-0.2,0-0.4,0-0.6,0
				c-0.8-0.1-1.4-0.2-1.9-0.4c-0.7-0.3-1.3-0.9-1.8-1.7c-0.7-1-1.1-1.9-1.1-2.6c-0.2-1.5,0-3.9,0-4.6
				C397,156.3,398.5,154.5,400.9,154.5 M400.9,154c-2.9,0-4.6,2.7-4.6,2.7s-0.2,3,0,4.8c0.1,1,0.7,2,1.2,2.8
				c0.5,0.8,1.2,1.5,2.1,1.9c0.7,0.3,1.4,0.4,2.1,0.5c0.2,0,0.4,0,0.7,0c1,0,2-0.2,2.8-0.9c1-0.9,1.2-2,1.3-3.2
				c0.1-0.8,0.2-1.6,0.3-2.4c0.1-1,0.3-2.1,0.4-3.1c0,0,0-0.9-0.9-1.4C405.3,155.1,403.9,154,400.9,154
				C400.9,154,400.9,154,400.9,154L400.9,154z"/>
		</g>
		<g>
			<path class="st1" d="M370,162.7c1.4,0,2.7,0.4,3.6,1.2c0.6,0.5,1.4,1.5,1.4,1.8c-0.1,1.5-0.4,5.7-1.3,7c-0.7,1-2.1,1.2-2.9,1.2
				c-1.4,0-3.1-0.5-4-1.2c-0.9-0.8-1.5-2-1.8-3.7l-0.1-0.3c-0.4-2.1-0.4-2.7-0.2-2.9c0.9-1.1,2-2.3,3.6-2.8
				C368.9,162.7,369.4,162.7,370,162.7 M370,162.2c-0.6,0-1.2,0.1-1.8,0.2c-1.7,0.5-2.8,1.7-3.8,3c-0.4,0.6,0.1,2.9,0.2,3.6
				c0.3,1.5,0.8,3,2,4c1,0.8,2.7,1.4,4.3,1.4c1.4,0,2.6-0.4,3.3-1.4c1.1-1.7,1.4-7.2,1.4-7.2c0-0.6-1.1-1.8-1.6-2.2
				C372.9,162.6,371.4,162.2,370,162.2L370,162.2z"/>
		</g>
		<path class="st2" d="M328.9,228.6c0,0,4.9,0.1,6.6-1.1c1.2-0.8,2-1.8,2.1-3.3c0-1-0.2-2-0.5-3c-0.4-1.4-0.5-3.6-1.9-4.2
			c-3-1.3-5.3-0.3-7.8,1.4"/>
		<path class="st2" d="M363.5,205.8c1.9-0.2,3.8-0.5,5.7-0.9c0.8-0.2,1.5-0.3,2.2-0.7c0.6-0.3,1-0.8,1.6-1.2
			c0.5-0.4,1.1-0.8,1.8-0.7"/>
		<path class="st2" d="M361.8,203.5c1.3-1,2.6-2,4-2.7c1.4-0.7,3-1.2,4.6-1.1"/>
		<path class="st2" d="M367.7,210.9c0.9,0.1,1.8,0,2.7-0.3c0.3-0.1,0.7-0.3,1-0.4c0.9-0.3,1.8-0.2,2.7-0.2"/>
		<path class="st2" d="M370.5,209.7c0.3-0.8,0.9-1.5,1.5-2c0.2-0.2,0.4-0.4,0.7-0.4c0.4-0.1,0.9,0.1,1.3-0.2"/>
		<path class="st2" d="M390.4,202.8c2.6,0.1,5.4-0.5,7.6,0.8c1.2,0.7,2.2,1.8,3.6,1.7c0.8-0.1,1.4-0.7,2.2-0.8"/>
		<path class="st2" d="M393.3,205.5c0.4,0.3,0.9,0.5,1.4,0.7c1,0.4,2,0.3,3,0.3c1.4,0,2.8,0,4-0.7"/>
		<path class="st2" d="M391.8,208.1c1.9,0.4,3.8,0.5,5.7,0.4c0.5,0,1.1-0.1,1.6,0.1c0.4,0.1,0.7,0.4,1,0.5c1.1,0.5,2.3,0.2,3.5-0.2
			c0.3-0.1,0.7-0.4,0.6-0.7"/>
		<path class="st2" d="M391.7,199.9c2.6,0,5.2,0,7.8,0c0.4,0,0.8,0,1,0.3c0.2,0.2,0.3,0.4,0.3,0.7c0.1,0.4,0.2,0.9,0.2,1.4"/>
		<path class="st2" d="M394.9,197.4c2.5-0.1,5.1-0.3,7.5,0.6c0.7,0.2,1.4,0.6,1.9,1.1c0.5,0.5,0.8,1.3,0.6,2"/>
		<path class="st2" d="M427.4,218.8c-1.3-0.1-2.7-0.2-3.8,0.4c-0.2,0.1-0.4,0.3-0.7,0.4c-0.7,0.3-1.6,0.1-2.2-0.4s-1.2-1-1.9-1.3
			c-0.7-0.3-1.5-0.5-2.2-0.6"/>
		<path class="st2" d="M419.1,215c1.4,0.2,3-0.3,4.3,0.3c0.5,0.2,0.9,0.6,1.3,0.9c0.5,0.4,1.1,0.8,1.8,1c0.7,0.2,1.4,0.2,2-0.1"/>
		<path class="st2" d="M414.5,213.9c0.2-0.7,0.9-1.1,1.5-1.3s1.4-0.2,2.1-0.2c1.6,0,3.2,0,4.7,0.6c0.4,0.2,0.7,0.3,1.1,0.4
			c0.7,0.2,1.5,0.1,2.2,0"/>
		<path class="st2" d="M417.4,219.9c1.4,1.5,3.2,2.7,5.3,3.3c2,0.6,4.3,0.4,6.1-0.5"/>
		<path class="st2" d="M445.4,228.1c0.4-0.2,0.8-0.1,1.2,0c0.4,0.2,0.7,0.4,1.1,0.7c1.4,1.1,2.8,2.4,4.1,3.7"/>
		<path class="st2" d="M438.8,238.9c1.1,0.1,2.1,0.5,2.9,1.2s1.5,1.5,2.1,2.4c1,1.5,1.8,3.1,2.4,4.8"/>
		<path class="st2" d="M438.4,241.8c0.8,3,3.1,5.5,5.9,6.7"/>
		<path class="st2" d="M442,242.6c0.4,1,0.7,2,1,3c0.1,0.4,0.2,0.9,0.6,1.2c0.2,0.1,0.4,0.2,0.6,0.3c0.5,0.3,0.9,0.8,1,1.4"/>
		<path class="st2" d="M439.6,248c0.4,0.9,1.1,1.7,2,2.2c0.5,0.2,1,0.4,1.4,0.7"/>
		<path class="st2" d="M365.8,185.9c2.1-0.2,4.2-0.4,6.2,0.1c0.3,0.1,0.6,0.2,0.9,0.1c0.4,0,0.7-0.3,0.9-0.6"/>
		<path class="st2" d="M394.3,177.5c1-0.2,2,0,2.9,0.3c0.9,0.3,1.8,0.8,2.8,1c1.1,0.3,2.3,0.4,3.4,0.4c0.9,0,1.9,0,2.7-0.4"/>
		<path class="st2" d="M396.5,181.4c2.4-0.3,4.7,0.9,7.1,0.5"/>
		<path class="st2" d="M330,249.4c0.4-1.1,1.5-1.7,2.5-2.2c1.4-0.7,2.9-1.3,4.4-1.8c1.5-0.5,3.1-1,3.9-2.3"/>
		<path class="st2" d="M331.2,244.6c1.6-0.8,3.7-0.5,5.2-1.5"/>
		<path class="st2" d="M329.5,242.1c1.3-1.5,3.4-2,5.3-2.3c1.9-0.3,4-0.8,5.4-2.2"/>
	</g>
	<g>
		<path class="st2" d="M231.4,266.6c0,0-3.7-2.6-4.4-6.4c-0.8-3.8-0.5-12.4-0.5-14.7c0-2.4,2-9,2.7-11.9c0.7-2.9,1.5-7.3,1.5-7.3
			s1.8-7,2.3-12.7c0.5-5.7,2.6-15.7,3.1-18c0.5-2.2,3.4-14.7,3.4-14.7s1.5-5.7-0.2-8.5c-1.8-2.8-3.8-3.7-5.9-3.8
			c-2.1-0.2-7.3,1-8.6,4.7c-1.2,3.7-2.8,9.1-3.1,11.6c-0.3,2.5-2.4,11.7-3.4,16.1c-1,4.4-3.7,12.2-4.7,15.7
			c-1,3.5-3.4,16.9-3.7,19.9s-0.6,5.1-0.6,5.1"/>
		<path class="st2" d="M211.9,246.6c-2.2-3.5-4.4-7.9-4.9-11.9c-0.5-4-0.1-10.8-0.1-13.6s1.1-8.5,1.1-11.1s0.4-11.7,0.2-15
			s-0.3-11.2-0.2-14.3s1.1-11.6,1.4-14.3c0.2-2.7,1.9-9.9-2.8-12.7c-4.7-2.8-8.7-0.5-9.9,0.8s-2.4,3.4-3.3,9.7
			c-0.8,6.3-2.4,14.3-3.2,19.7c-0.8,5.4-1.8,16.5-1.9,21.5c-0.2,5-1.4,19.6-1.5,23.4c-0.2,3.7-0.3,4.4-0.8,4.9c0,0-1.9,1.3-2.5-2.2
			c-0.6-3.5-2.1-16.8-2.4-20.3c-0.3-3.5-0.5-10.2-0.9-12.1c-0.5-1.8-1.1-16.3-1.1-19.1s0.2-15.3-2.7-17.1c-2.9-1.8-7.7-1.8-9.3-0.8
			c-1.6,0.9-3.7,3.6-4.4,7.9c-0.6,4.4-1.8,18-1.8,22.5s-0.8,15.2-0.3,22.2s1.6,15.5,1.9,17.8c0.3,2.3-0.9,6.7-0.8,9.9
			c0.1,3.2-2.1,7.1-2.1,8.5s-2.4,3.4-3,4.3c-0.5,0.9-4,5.6-6,8.6c-1.9,3.1-4,5.3-4,7.8c0,2.4-0.8,4.7-1.3,5.5"/>
		<path class="st2" d="M152.5,260.7c0,0,0.2-10.7-0.5-13.9c-0.7-3.2-0.6-4.5-0.6-4.5s0.5-4-1.1-8.4s-4.5-14.1-9.2-16.7
			c-4.7-2.7-7.5-2.1-8.7-1.8c-1.2,0.3-3.2,1.8-3.4,3.1c-0.2,1.2,0.9,5.3,1.5,9.2c0.6,4,0.6,9.5,0.5,13.1c-0.1,3.7,0.6,9.2,0.7,12
			c0.2,6.4,1.3,12.3,0.4,18.8c-0.7,4.8-1,8.8,0,13.6c0.8,3.8,1.7,7.6,2.5,11.5c0.9,4.6,4.4,17.9,5.9,22.5c1,3.2,3.1,5.3,4.9,8
			c2.2,3.2,3.8,6.7,5.2,10.3c1.6,4.3,2.8,8.7,4,13.1c1.2,4.4,2.7,8.6,2.9,13.2c0,0,0.5,3.4,14.5,4.9c14,1.6,48.9-0.9,53-2.7
			c4.1-1.8,3.6-6,3.6-6s-9.8-24.9-9.3-27c0.5-2.1,6.6-14.4,8.6-20.4c2-6,4.2-13.5,5.7-19.5c1.5-6,5.5-16.5,6-18.9
			c0.5-2.4,1.2-5.5,2.6-8.4s4.6-10.8,5.7-13.8s3.4-7.3,5.2-11.2c1.8-3.8,6-11,8.1-15.2c2.1-4.2,4.1-7.7,4.4-9s-0.4-5.3-2.9-6.6
			s-5.9-1.2-8.1,1c-2.2,2.2-4.7,6-7.3,10.1c-2.5,4.1-3.7,6.8-4.2,7.9c-0.5,1.1-3.7,6.1-4.5,7.3c-0.8,1.2-4.2,5.3-4.7,6
			c-0.5,0.7-3,4.3-4,5.9s-3,7.9-3,7.9"/>
		<path class="st2" d="M147.3,331.4c0,0-3.4,7.9-4,10.4c-0.7,2.4-1.2,6-2.2,8.2s-4.9,12.4-4.9,12.4s3.4,6,12,7
			c8.6,0.9,25.6-0.2,25.6-0.2"/>
		<g>
			<path class="st1" d="M260.5,211.4L260.5,211.4c1,0,1.7,0.2,2.1,0.5c1.8,1.3,1.8,2.9,1.8,3c0,0.2-0.1,0.5-0.3,0.8
				c-0.1,0.3-0.3,0.5-0.5,0.8l-0.1,0.1c-0.5,0.8-1.1,1.6-1.7,2.3c-0.1,0.1-0.2,0.3-0.3,0.4c-0.3,0.5-0.7,1-1.1,1.2
				c-0.3,0.2-1,0.4-1.8,0.4c-0.5,0-1.4-0.1-1.7-0.8c-0.3-0.6-0.5-1.3-0.4-2c0.1-0.7,0.2-1.5,0.5-2.4c0.3-0.8,0.6-1.7,1-2.4
				c0.1-0.1,0.1-0.2,0.2-0.3c0.3-0.5,0.6-1.2,1-1.5C259.4,211.5,259.9,211.4,260.5,211.4 M260.5,210.9c-0.8,0-1.4,0.1-1.4,0.1
				c-0.7,0.4-1.1,1.4-1.4,2.1c-0.4,0.8-0.8,1.7-1,2.5c-0.2,0.8-0.5,1.6-0.5,2.5c-0.1,0.8,0.2,1.5,0.5,2.2c0.4,0.8,1.3,1.1,2.2,1.1
				c0.8,0,1.7-0.2,2-0.4c0.6-0.4,1.1-1.2,1.5-1.8c0.6-0.8,1.1-1.5,1.7-2.3c0.2-0.3,0.4-0.6,0.6-0.9c0.2-0.3,0.3-0.7,0.3-1
				c0,0,0-1.9-2-3.4C262.2,211,261.3,210.9,260.5,210.9L260.5,210.9z"/>
		</g>
		<g>
			<path class="st1" d="M232.7,170.5L232.7,170.5c0.1,0,0.3,0,0.4,0c2.8,0.1,3.4,1,3.9,1.6c0.4,0.6,0.8,1.5,0.9,1.8
				c-0.3,1-1.8,5.7-2,6.6c-0.2,0.8-1.3,1.6-2.2,1.8c-0.3,0.1-0.7,0.1-1,0.1c-0.9,0-1.8-0.3-2.5-0.7c-1.3-0.8-2.4-2.7-2.1-4.3
				c0.2-0.8,0.3-1.7,0.5-2.5c0.3-1.2,0.5-2.3,0.8-3.5C229.6,171.3,230.7,170.5,232.7,170.5 M232.7,170c-2.6,0-3.9,1.3-3.9,1.3
				c-0.3,1.2-0.6,2.4-0.8,3.6c-0.2,0.8-0.4,1.7-0.5,2.5c-0.3,1.8,0.9,3.8,2.4,4.8c0.8,0.5,1.8,0.8,2.8,0.8c0.4,0,0.8,0,1.2-0.2
				c1-0.3,2.3-1.2,2.6-2.2c0.3-1,2.1-6.8,2.1-6.8s-0.4-1.3-1-2.1c-0.6-0.8-1.4-1.7-4.3-1.8C233,170,232.8,170,232.7,170L232.7,170z"
				/>
		</g>
		<g>
			<path class="st1" d="M202.3,154.5L202.3,154.5L202.3,154.5c2.5,0,3.8,0.8,4.6,1.4c0.2,0.1,0.3,0.2,0.4,0.3c0.5,0.3,0.6,0.8,0.6,1
				l-0.1,0.7l-0.3,2.4l-0.3,2.4l0,0.1c-0.1,1.2-0.3,2.1-1.1,2.8c-0.6,0.5-1.4,0.8-2.4,0.8c-0.2,0-0.4,0-0.6,0
				c-0.8-0.1-1.4-0.2-1.9-0.4c-0.7-0.3-1.3-0.9-1.8-1.7c-0.7-1-1.1-1.9-1.1-2.6c-0.2-1.5,0-3.9,0-4.6
				C198.5,156.3,200,154.5,202.3,154.5 M202.3,154c-2.9,0-4.6,2.7-4.6,2.7s-0.2,3,0,4.8c0.1,1,0.7,2,1.2,2.8
				c0.5,0.8,1.2,1.5,2.1,1.9c0.7,0.3,1.4,0.4,2.1,0.5c0.2,0,0.4,0,0.7,0c1,0,2-0.2,2.8-0.9c1-0.9,1.2-2,1.3-3.2
				c0.1-0.8,0.2-1.6,0.3-2.4c0.1-1,0.3-2.1,0.4-3.1c0,0,0-0.9-0.9-1.4C206.7,155.1,205.4,154,202.3,154
				C202.4,154,202.3,154,202.3,154L202.3,154z"/>
		</g>
		<g>
			<path class="st1" d="M171.5,162.7c1.4,0,2.7,0.4,3.6,1.2c0.6,0.5,1.4,1.5,1.4,1.8c-0.1,1.5-0.4,5.7-1.3,7c-0.7,1-2.1,1.2-2.9,1.2
				c-1.4,0-3.1-0.5-4-1.2c-0.9-0.8-1.5-2-1.8-3.7l-0.1-0.3c-0.4-2.1-0.4-2.7-0.2-2.9c0.9-1.1,2-2.3,3.6-2.8
				C170.3,162.7,170.9,162.7,171.5,162.7 M171.5,162.2c-0.6,0-1.2,0.1-1.8,0.2c-1.7,0.5-2.8,1.7-3.8,3c-0.4,0.6,0.1,2.9,0.2,3.6
				c0.3,1.5,0.8,3,2,4c1,0.8,2.7,1.4,4.3,1.4c1.4,0,2.6-0.4,3.3-1.4c1.1-1.7,1.4-7.2,1.4-7.2c0-0.6-1.1-1.8-1.6-2.2
				C174.4,162.6,172.9,162.2,171.5,162.2L171.5,162.2z"/>
		</g>
		<path class="st2" d="M130.4,228.6c0,0,4.9,0.1,6.6-1.1c1.2-0.8,2-1.8,2.1-3.3c0-1-0.2-2-0.5-3c-0.4-1.4-0.5-3.6-1.9-4.2
			c-3-1.3-5.3-0.3-7.8,1.4"/>
		<path class="st2" d="M165,205.8c1.9-0.2,3.8-0.5,5.7-0.9c0.8-0.2,1.5-0.3,2.2-0.7c0.6-0.3,1-0.8,1.6-1.2c0.5-0.4,1.1-0.8,1.8-0.7"
			/>
		<path class="st2" d="M163.3,203.5c1.3-1,2.6-2,4-2.7c1.4-0.7,3-1.2,4.6-1.1"/>
		<path class="st2" d="M169.2,210.9c0.9,0.1,1.8,0,2.7-0.3c0.3-0.1,0.7-0.3,1-0.4c0.9-0.3,1.8-0.2,2.7-0.2"/>
		<path class="st2" d="M171.9,209.7c0.3-0.8,0.9-1.5,1.5-2c0.2-0.2,0.4-0.4,0.7-0.4c0.4-0.1,0.9,0.1,1.3-0.2"/>
		<path class="st2" d="M191.9,202.8c2.6,0.1,5.4-0.5,7.6,0.8c1.2,0.7,2.2,1.8,3.6,1.7c0.8-0.1,1.4-0.7,2.2-0.8"/>
		<path class="st2" d="M194.7,205.5c0.4,0.3,0.9,0.5,1.4,0.7c1,0.4,2,0.3,3,0.3c1.4,0,2.8,0,4-0.7"/>
		<path class="st2" d="M193.2,208.1c1.9,0.4,3.8,0.5,5.7,0.4c0.5,0,1.1-0.1,1.6,0.1c0.4,0.1,0.7,0.4,1,0.5c1.1,0.5,2.3,0.2,3.5-0.2
			c0.3-0.1,0.7-0.4,0.6-0.7"/>
		<path class="st2" d="M193.2,199.9c2.6,0,5.2,0,7.8,0c0.4,0,0.8,0,1,0.3c0.2,0.2,0.3,0.4,0.3,0.7c0.1,0.4,0.2,0.9,0.2,1.4"/>
		<path class="st2" d="M196.3,197.4c2.5-0.1,5.1-0.3,7.5,0.6c0.7,0.2,1.4,0.6,1.9,1.1c0.5,0.5,0.8,1.3,0.6,2"/>
		<path class="st2" d="M228.8,218.8c-1.3-0.1-2.7-0.2-3.8,0.4c-0.2,0.1-0.4,0.3-0.7,0.4c-0.7,0.3-1.6,0.1-2.2-0.4s-1.2-1-1.9-1.3
			c-0.7-0.3-1.5-0.5-2.2-0.6"/>
		<path class="st2" d="M220.6,215c1.4,0.2,3-0.3,4.3,0.3c0.5,0.2,0.9,0.6,1.3,0.9c0.5,0.4,1.1,0.8,1.8,1c0.7,0.2,1.4,0.2,2-0.1"/>
		<path class="st2" d="M216,213.9c0.2-0.7,0.9-1.1,1.5-1.3c0.7-0.2,1.4-0.2,2.1-0.2c1.6,0,3.2,0,4.7,0.6c0.4,0.2,0.7,0.3,1.1,0.4
			c0.7,0.2,1.5,0.1,2.2,0"/>
		<path class="st2" d="M218.9,219.9c1.4,1.5,3.2,2.7,5.3,3.3c2,0.6,4.3,0.4,6.2-0.5"/>
		<path class="st2" d="M246.9,228.1c0.4-0.2,0.8-0.1,1.2,0s0.7,0.4,1.1,0.7c1.4,1.1,2.8,2.4,4.1,3.7"/>
		<path class="st2" d="M240.2,238.9c1.1,0.1,2.1,0.5,2.9,1.2c0.8,0.7,1.5,1.5,2.1,2.4c1,1.5,1.8,3.1,2.4,4.8"/>
		<path class="st2" d="M239.9,241.8c0.8,3,3.1,5.5,5.9,6.7"/>
		<path class="st2" d="M243.5,242.6c0.4,1,0.7,2,1,3c0.1,0.4,0.2,0.9,0.6,1.2c0.2,0.1,0.4,0.2,0.6,0.3c0.5,0.3,0.9,0.8,1,1.4"/>
		<path class="st2" d="M241,248c0.4,0.9,1.1,1.7,2,2.2c0.5,0.2,1,0.4,1.4,0.7"/>
		<path class="st2" d="M167.3,185.9c2.1-0.2,4.2-0.4,6.2,0.1c0.3,0.1,0.6,0.2,0.9,0.1c0.4,0,0.7-0.3,0.9-0.6"/>
		<path class="st2" d="M195.8,177.5c1-0.2,2,0,2.9,0.3c0.9,0.3,1.8,0.8,2.8,1c1.1,0.3,2.3,0.4,3.4,0.4c0.9,0,1.9,0,2.7-0.4"/>
		<path class="st2" d="M198,181.4c2.4-0.3,4.7,0.9,7.1,0.5"/>
		<path class="st2" d="M131.4,249.4c0.4-1.1,1.5-1.7,2.5-2.2c1.4-0.7,2.9-1.3,4.4-1.8c1.5-0.5,3.1-1,3.9-2.3"/>
		<path class="st2" d="M132.7,244.6c1.6-0.8,3.7-0.5,5.2-1.5"/>
		<path class="st2" d="M131,242.1c1.3-1.5,3.4-2,5.3-2.3c1.9-0.3,4-0.8,5.4-2.2"/>
		<path class="st2" d="M226.4,251.9l4.2-9.8c0,0,6.9-8.6,9-12.3c2.1-3.7,7.8-16.6,9.5-19.1s5.5-5.3,8.7-4.4c3.2,1,3.6,2.9,3.6,2.9"
			/>
		<path class="st2" d="M207.1,235.5c0,0,1.9-10.5,2-12.5c0.1-1.9,1.6-8.5,2.8-12.8s2.8-13.8,3.3-18c0.5-4.1,1.1-16.9,3.4-20.1
			c2.3-3.2,3.5-3.7,6.5-3.5s3.1,1.1,3.1,1.1"/>
		<path class="st2" d="M208.8,155.5c0,0,3.8,1.8,3.8,5.7c0,3.8-2.4,28.1-2.4,30.7c0,2.6-2.1,19.4-2.1,19.4"/>
		<path class="st2" d="M134,214.6c0,0-4.6-1.1-6.7-0.5c-2.1,0.6-5,2.4-5.3,4.3c-0.3,1.8,0.3,7.9,1.4,10.5c1.1,2.6,6.9,25.7,6.9,25.7
			l2,13.3"/>
	</g>
	<g>
		<g>
			<path class="st2" d="M185.1,132c-2.3-0.9-4.3-2.1-5.9-3.6c-1.6-1.5-2.9-3.2-3.7-5.1c-0.9-1.9-1.3-3.9-1.3-6.1
				c0-2.1,0.4-4.1,1.2-6c0.8-1.8,2-3.5,3.6-5c1.6-1.5,3.5-2.7,5.8-3.6"/>
		</g>
		<g>
			<path class="st2" d="M202.1,102.6c2.3,0.9,4.3,2.1,5.9,3.6c1.6,1.5,2.9,3.2,3.7,5.1c0.9,1.9,1.3,3.9,1.3,6.1c0,2.1-0.4,4.1-1.2,6
				c-0.8,1.8-2,3.5-3.6,5c-1.6,1.5-3.5,2.7-5.8,3.6"/>
		</g>
		<g>
			<line class="st2" x1="193.4" y1="110.1" x2="193.4" y2="124.7"/>
			<line class="st2" x1="185" y1="117.1" x2="201.5" y2="117.1"/>
		</g>
	</g>
	<g>
		<g>
			<path class="st2" d="M375.6,132.2c-2.3-0.9-4.3-2.1-5.9-3.6c-1.6-1.5-2.9-3.2-3.7-5.1c-0.9-1.9-1.3-3.9-1.3-6.1
				c0-2.1,0.4-4.1,1.2-6c0.8-1.8,2-3.5,3.6-5c1.6-1.5,3.5-2.7,5.8-3.6"/>
		</g>
		<g>
			<path class="st2" d="M394.3,102.8c2.3,0.9,4.3,2.1,5.9,3.6c1.6,1.5,2.9,3.2,3.7,5.1c0.9,1.9,1.3,3.9,1.3,6.1c0,2.1-0.4,4.1-1.2,6
				c-0.8,1.8-2,3.5-3.6,5c-1.6,1.5-3.5,2.7-5.8,3.6"/>
		</g>
		<g>
			<g>
				<line class="st2" x1="385.1" y1="110.3" x2="385.1" y2="124.9"/>
				<line class="st2" x1="376.7" y1="117.3" x2="393.2" y2="117.3"/>
			</g>
			<g>
				<line class="st2" x1="390.1" y1="112.5" x2="379.8" y2="122.9"/>
				<line class="st2" x1="379.2" y1="111.5" x2="390.9" y2="123.2"/>
			</g>
		</g>
	</g>
</g>
</svg>
