<?xml version="1.0" encoding="utf-8"?>
<!-- Generator: Adobe Illustrator 26.3.1, SVG Export Plug-In . SVG Version: 6.00 Build 0)  -->
<svg version="1.1" id="Capa_1" xmlns="http://www.w3.org/2000/svg" xmlns:xlink="http://www.w3.org/1999/xlink" x="0px" y="0px"
	 viewBox="0 0 194 14.1" style="enable-background:new 0 0 194 14.1;" xml:space="preserve">
<style type="text/css">
	.st0{fill:#212121;}
</style>
<g>
	<path class="st0" d="M3.1,10.6c-0.7,0-1.3-0.1-1.7-0.3c-0.5-0.2-0.8-0.5-1-0.8C0.1,9.1,0,8.7,0,8.3h0.9c0,0.5,0.2,0.9,0.6,1.2
		c0.4,0.3,0.9,0.4,1.6,0.4c0.3,0,0.7-0.1,1-0.2c0.3-0.1,0.5-0.3,0.7-0.5S5,8.7,5,8.5c0-0.3-0.1-0.6-0.4-0.8C4.4,7.5,4.1,7.4,3.5,7.3
		L2.2,6.9C1.6,6.7,1.1,6.4,0.8,6.1C0.4,5.7,0.3,5.3,0.3,4.9c0-0.6,0.2-1,0.7-1.4C1.5,3.1,2.1,3,2.9,3c0.9,0,1.5,0.2,2,0.5
		s0.7,0.8,0.8,1.3H4.8C4.7,4.4,4.6,4.1,4.2,4S3.5,3.7,2.9,3.7c-0.6,0-1,0.1-1.3,0.4C1.3,4.3,1.2,4.6,1.2,4.9c0,0.6,0.5,1,1.5,1.3
		L4,6.6C4.6,6.8,5.1,7,5.5,7.3C5.8,7.6,6,8,6,8.5c0,0.4-0.1,0.7-0.3,1c-0.2,0.3-0.6,0.6-1,0.8S3.7,10.6,3.1,10.6z"/>
	<path class="st0" d="M14.7,10.4V0h0.9v10.4H14.7z M19.9,10.4V6.1c0-0.8-0.2-1.4-0.6-1.8c-0.4-0.4-0.9-0.6-1.5-0.6
		c-0.5,0-0.9,0.1-1.2,0.4c-0.3,0.3-0.6,0.6-0.8,1.1c-0.2,0.5-0.3,1-0.3,1.6h-0.4c0-0.8,0.1-1.5,0.3-2.1c0.2-0.6,0.5-1,1-1.4
		s1-0.5,1.6-0.5c0.6,0,1,0.1,1.5,0.4c0.4,0.2,0.7,0.6,1,1.1c0.2,0.5,0.3,1,0.3,1.7v4.3H19.9z"/>
	<path class="st0" d="M31.8,10.6c-0.6,0-1.1-0.1-1.4-0.3C30,10,29.7,9.8,29.5,9.4c-0.2-0.3-0.3-0.7-0.3-1c0-0.5,0.1-0.9,0.4-1.2
		c0.2-0.3,0.6-0.5,1-0.7c0.4-0.1,0.9-0.2,1.4-0.2c0.4,0,0.8,0,1.2,0.1s0.8,0.2,1.1,0.3v0.6c-0.3-0.1-0.7-0.2-1.1-0.3
		C32.7,7,32.4,6.9,32,6.9c-0.5,0-1,0.1-1.3,0.3c-0.4,0.2-0.5,0.6-0.5,1.1c0,0.4,0.1,0.7,0.4,1s0.7,0.4,1.3,0.4
		c0.4,0,0.8-0.1,1.1-0.3c0.3-0.2,0.6-0.4,0.8-0.7c0.2-0.3,0.3-0.6,0.3-0.9h0.2c0,0.5-0.1,0.9-0.3,1.3c-0.2,0.4-0.5,0.7-0.9,1
		S32.3,10.6,31.8,10.6z M34.3,10.4l-0.1-1.5V5.7c0-0.7-0.2-1.2-0.5-1.5c-0.3-0.3-0.8-0.5-1.4-0.5c-0.3,0-0.6,0-0.9,0.1
		c-0.3,0.1-0.5,0.2-0.7,0.5s-0.3,0.5-0.3,0.8h-1c0-0.5,0.1-0.9,0.4-1.2c0.3-0.3,0.6-0.5,1-0.7C31.3,3,31.8,3,32.3,3
		c0.5,0,1,0.1,1.4,0.3s0.7,0.5,1,0.9s0.4,0.9,0.4,1.6v4.7H34.3z"/>
	<path class="st0" d="M44.1,10.4V3.1H45v7.3H44.1z M44.7,7.1c0-0.9,0.1-1.7,0.2-2.3c0.2-0.6,0.4-1.1,0.7-1.4C46,3.2,46.4,3,46.9,3
		c0.2,0,0.3,0,0.5,0s0.3,0.1,0.5,0.1L47.8,4c-0.1-0.1-0.3-0.1-0.5-0.1c-0.2,0-0.3-0.1-0.5-0.1c-0.5,0-0.8,0.1-1.1,0.4
		c-0.3,0.3-0.4,0.7-0.6,1.1c-0.1,0.5-0.2,1-0.2,1.7H44.7z"/>
	<path class="st0" d="M57.9,10.6c-0.6,0-1.2-0.2-1.7-0.5c-0.5-0.3-0.9-0.8-1.1-1.3c-0.3-0.6-0.4-1.2-0.4-1.9c0-0.8,0.1-1.5,0.4-2
		s0.6-1,1.1-1.3c0.5-0.3,1-0.5,1.7-0.5c0.5,0,1,0.1,1.4,0.3c0.4,0.2,0.7,0.5,0.9,0.9c0.2,0.4,0.4,0.8,0.5,1.3c0.1,0.5,0.1,1,0.1,1.5
		h-5.4V6.3h4.8l-0.4,0.2c0-0.3,0-0.7-0.1-1s-0.2-0.6-0.3-0.9c-0.1-0.3-0.3-0.5-0.6-0.7s-0.6-0.3-1-0.3c-0.5,0-1,0.1-1.3,0.4
		c-0.3,0.3-0.6,0.6-0.8,1c-0.2,0.4-0.3,0.9-0.3,1.4v0.4c0,0.6,0.1,1.1,0.3,1.5c0.2,0.4,0.4,0.8,0.8,1.1s0.8,0.4,1.3,0.4
		c0.5,0,1-0.1,1.3-0.4c0.3-0.3,0.5-0.6,0.6-1.2h0.9c-0.1,0.5-0.2,0.9-0.5,1.2c-0.3,0.3-0.6,0.6-1,0.8C58.9,10.5,58.4,10.6,57.9,10.6
		z"/>
	<path class="st0" d="M71.9,10.6c-0.6,0-1.1-0.2-1.6-0.5c-0.5-0.3-0.9-0.8-1.2-1.3s-0.4-1.2-0.4-2c0-0.8,0.1-1.4,0.4-2
		c0.3-0.6,0.7-1,1.1-1.3c0.5-0.3,1-0.5,1.6-0.5c0.5,0,1,0.1,1.4,0.4s0.7,0.6,1,1.1c0.2,0.5,0.3,1,0.3,1.7h-0.4c0-0.5-0.1-1-0.3-1.3
		C73.6,4.5,73.3,4.2,73,4c-0.3-0.2-0.7-0.3-1.1-0.3c-0.4,0-0.8,0.1-1.1,0.4c-0.4,0.2-0.6,0.6-0.9,1c-0.2,0.4-0.3,1-0.3,1.6
		c0,0.6,0.1,1.2,0.3,1.6s0.5,0.8,0.9,1s0.7,0.4,1.2,0.4c0.4,0,0.7-0.1,1-0.3c0.3-0.2,0.6-0.5,0.8-0.8c0.2-0.4,0.3-0.8,0.3-1.3h0.4
		c0,0.7-0.1,1.2-0.3,1.7s-0.5,0.8-0.9,1.1C72.8,10.4,72.4,10.6,71.9,10.6z M74.2,10.4l-0.1-1.6V0H75v10.4H74.2z"/>
	<path class="st0" d="M93.9,10.4V3.1h0.9v7.3H93.9z M94.5,7.1c0-0.9,0.1-1.7,0.2-2.3c0.2-0.6,0.4-1.1,0.7-1.4
		C95.8,3.2,96.2,3,96.7,3c0.2,0,0.3,0,0.5,0s0.3,0.1,0.5,0.1L97.6,4c-0.1-0.1-0.3-0.1-0.5-0.1c-0.2,0-0.3-0.1-0.5-0.1
		c-0.5,0-0.8,0.1-1.1,0.4c-0.3,0.3-0.4,0.7-0.6,1.1c-0.1,0.5-0.2,1-0.2,1.7H94.5z"/>
	<path class="st0" d="M107.7,10.6c-0.6,0-1.2-0.2-1.7-0.5c-0.5-0.3-0.9-0.8-1.1-1.3c-0.3-0.6-0.4-1.2-0.4-1.9c0-0.8,0.1-1.5,0.4-2
		s0.6-1,1.1-1.3c0.5-0.3,1-0.5,1.7-0.5c0.5,0,1,0.1,1.4,0.3c0.4,0.2,0.7,0.5,0.9,0.9c0.2,0.4,0.4,0.8,0.5,1.3c0.1,0.5,0.1,1,0.1,1.5
		h-5.4V6.3h4.8l-0.4,0.2c0-0.3,0-0.7-0.1-1s-0.2-0.6-0.3-0.9c-0.1-0.3-0.3-0.5-0.6-0.7s-0.6-0.3-1-0.3c-0.5,0-1,0.1-1.3,0.4
		c-0.3,0.3-0.6,0.6-0.8,1c-0.2,0.4-0.3,0.9-0.3,1.4v0.4c0,0.6,0.1,1.1,0.3,1.5c0.2,0.4,0.4,0.8,0.8,1.1s0.8,0.4,1.3,0.4
		c0.5,0,1-0.1,1.3-0.4c0.3-0.3,0.5-0.6,0.6-1.2h0.9c-0.1,0.5-0.2,0.9-0.5,1.2c-0.3,0.3-0.6,0.6-1,0.8
		C108.7,10.5,108.2,10.6,107.7,10.6z"/>
	<path class="st0" d="M121,10.6c-0.6,0-1.1-0.1-1.4-0.3c-0.4-0.2-0.7-0.5-0.8-0.8c-0.2-0.3-0.3-0.7-0.3-1c0-0.5,0.1-0.9,0.4-1.2
		c0.2-0.3,0.6-0.5,1-0.7c0.4-0.1,0.9-0.2,1.4-0.2c0.4,0,0.8,0,1.2,0.1s0.8,0.2,1.1,0.3v0.6c-0.3-0.1-0.7-0.2-1.1-0.3
		c-0.4-0.1-0.8-0.1-1.1-0.1c-0.5,0-1,0.1-1.3,0.3c-0.4,0.2-0.5,0.6-0.5,1.1c0,0.4,0.1,0.7,0.4,1s0.7,0.4,1.3,0.4
		c0.4,0,0.8-0.1,1.1-0.3c0.3-0.2,0.6-0.4,0.8-0.7c0.2-0.3,0.3-0.6,0.3-0.9h0.2c0,0.5-0.1,0.9-0.3,1.3c-0.2,0.4-0.5,0.7-0.9,1
		S121.6,10.6,121,10.6z M123.6,10.4l-0.1-1.5V5.7c0-0.7-0.2-1.2-0.5-1.5c-0.3-0.3-0.8-0.5-1.4-0.5c-0.3,0-0.6,0-0.9,0.1
		c-0.3,0.1-0.5,0.2-0.7,0.5s-0.3,0.5-0.3,0.8h-1c0-0.5,0.1-0.9,0.4-1.2c0.3-0.3,0.6-0.5,1-0.7c0.4-0.1,0.9-0.2,1.4-0.2
		c0.5,0,1,0.1,1.4,0.3s0.7,0.5,1,0.9s0.4,0.9,0.4,1.6v4.7H123.6z"/>
	<path class="st0" d="M135.9,10.6c-0.6,0-1.1-0.2-1.6-0.5c-0.5-0.3-0.9-0.8-1.2-1.3s-0.4-1.2-0.4-2c0-0.8,0.1-1.4,0.4-2
		c0.3-0.6,0.7-1,1.1-1.3c0.5-0.3,1-0.5,1.6-0.5c0.5,0,1,0.1,1.4,0.4s0.7,0.6,1,1.1c0.2,0.5,0.3,1,0.3,1.7h-0.4c0-0.5-0.1-1-0.3-1.3
		c-0.2-0.4-0.5-0.6-0.8-0.8c-0.3-0.2-0.7-0.3-1.1-0.3c-0.4,0-0.8,0.1-1.1,0.4c-0.4,0.2-0.6,0.6-0.9,1c-0.2,0.4-0.3,1-0.3,1.6
		c0,0.6,0.1,1.2,0.3,1.6s0.5,0.8,0.9,1s0.7,0.4,1.2,0.4c0.4,0,0.7-0.1,1-0.3c0.3-0.2,0.6-0.5,0.8-0.8c0.2-0.4,0.3-0.8,0.3-1.3h0.4
		c0,0.7-0.1,1.2-0.3,1.7s-0.5,0.8-0.9,1.1C136.9,10.4,136.4,10.6,135.9,10.6z M138.3,10.4l-0.1-1.6V0h0.9v10.4H138.3z"/>
	<path class="st0" d="M148.9,1.2c-0.2,0-0.3-0.1-0.5-0.2s-0.2-0.3-0.2-0.4c0-0.2,0.1-0.3,0.2-0.4c0.1-0.1,0.3-0.2,0.5-0.2
		c0.2,0,0.4,0.1,0.5,0.2c0.1,0.1,0.2,0.2,0.2,0.4c0,0.2-0.1,0.3-0.2,0.4S149,1.2,148.9,1.2z M148.4,10.4V3.1h0.9v7.3H148.4z"/>
	<path class="st0" d="M158.8,10.4V3.1h0.7l0.1,1.8v5.5H158.8z M164,10.4V6.1c0-0.8-0.2-1.4-0.6-1.8c-0.4-0.4-0.9-0.6-1.5-0.6
		c-0.5,0-0.9,0.1-1.2,0.4c-0.3,0.3-0.6,0.6-0.8,1.1c-0.2,0.5-0.3,1-0.3,1.6h-0.4c0-0.8,0.1-1.5,0.3-2.1c0.2-0.6,0.5-1,1-1.4
		s1-0.5,1.6-0.5c0.6,0,1,0.1,1.5,0.4c0.4,0.2,0.7,0.6,1,1.1c0.2,0.5,0.3,1,0.3,1.7v4.3H164z"/>
	<path class="st0" d="M176.4,14.1c-0.7,0-1.3-0.1-1.8-0.3s-0.9-0.5-1.2-0.8c-0.3-0.3-0.4-0.7-0.4-1.1c0-0.6,0.2-1,0.6-1.3
		c0.4-0.3,1-0.5,1.7-0.5l0.3,0.4c-0.6,0-1,0.1-1.3,0.4c-0.3,0.2-0.5,0.6-0.5,1c0,0.4,0.2,0.8,0.7,1.1c0.4,0.3,1.1,0.5,2,0.5
		c0.7,0,1.2-0.1,1.7-0.3c0.5-0.2,0.9-0.4,1.2-0.7c0.3-0.3,0.4-0.6,0.4-1c0-0.3-0.1-0.5-0.3-0.7c-0.2-0.2-0.5-0.3-0.9-0.3h-3
		c-0.5,0-0.9-0.1-1.2-0.2c-0.3-0.1-0.6-0.3-0.8-0.6c-0.2-0.2-0.3-0.5-0.3-0.7c0-0.3,0.1-0.6,0.3-0.8c0.2-0.2,0.4-0.4,0.7-0.5
		c0.3-0.1,0.6-0.2,0.8-0.2l0.1,0.4c-0.2,0-0.3,0-0.5,0.1c-0.2,0.1-0.3,0.2-0.4,0.3c-0.1,0.1-0.2,0.3-0.2,0.6c0,0.2,0.1,0.5,0.3,0.6
		c0.2,0.2,0.6,0.3,1.1,0.3h3c0.6,0,1.1,0.1,1.5,0.4s0.5,0.7,0.5,1.2c0,0.4-0.2,0.9-0.5,1.3c-0.3,0.4-0.8,0.8-1.5,1
		C178.1,14,177.3,14.1,176.4,14.1z M176.7,8.3c-0.5,0-1-0.1-1.5-0.3c-0.4-0.2-0.8-0.5-1-0.9c-0.2-0.4-0.4-0.9-0.4-1.4
		c0-0.5,0.1-1,0.4-1.4c0.2-0.4,0.6-0.7,1-0.9c0.4-0.2,0.9-0.3,1.5-0.3c0.5,0,1,0.1,1.4,0.3c0.4,0.2,0.8,0.5,1,0.9
		c0.2,0.4,0.4,0.9,0.4,1.4c0,0.5-0.1,1-0.4,1.4s-0.6,0.7-1,0.9C177.7,8.2,177.2,8.3,176.7,8.3z M176.7,7.7c0.6,0,1.1-0.2,1.4-0.6
		c0.3-0.4,0.5-0.9,0.5-1.4c0-0.6-0.2-1.1-0.5-1.4c-0.3-0.4-0.8-0.6-1.4-0.6c-0.6,0-1.1,0.2-1.4,0.6c-0.4,0.4-0.5,0.8-0.5,1.4
		c0,0.6,0.2,1.1,0.5,1.4C175.6,7.5,176.1,7.7,176.7,7.7z M179,4.1L178.5,4c0-0.4,0.1-0.8,0.2-1.1s0.4-0.6,0.7-0.7
		c0.3-0.2,0.7-0.3,1.1-0.3l-0.1,0.9c-0.5,0-0.8,0.1-1.1,0.3C179.1,3.3,179,3.7,179,4.1z"/>
	<path class="st0" d="M191.1,10.6c-0.7,0-1.3-0.1-1.7-0.3c-0.5-0.2-0.8-0.5-1-0.8c-0.2-0.3-0.4-0.7-0.4-1.2h0.9
		c0,0.5,0.2,0.9,0.6,1.2c0.4,0.3,0.9,0.4,1.6,0.4c0.3,0,0.7-0.1,1-0.2c0.3-0.1,0.5-0.3,0.7-0.5s0.3-0.4,0.3-0.7
		c0-0.3-0.1-0.6-0.4-0.8c-0.2-0.2-0.6-0.3-1.1-0.5l-1.3-0.4c-0.6-0.2-1.1-0.4-1.5-0.8c-0.3-0.3-0.5-0.7-0.5-1.2c0-0.6,0.2-1,0.7-1.4
		c0.5-0.3,1.1-0.5,1.9-0.5c0.9,0,1.5,0.2,2,0.5s0.7,0.8,0.8,1.3h-0.9c-0.1-0.4-0.2-0.6-0.6-0.8s-0.8-0.3-1.3-0.3
		c-0.6,0-1,0.1-1.3,0.4c-0.3,0.3-0.5,0.5-0.5,0.8c0,0.6,0.5,1,1.5,1.3l1.3,0.4c0.7,0.2,1.1,0.4,1.5,0.7c0.3,0.3,0.5,0.7,0.5,1.2
		c0,0.4-0.1,0.7-0.3,1c-0.2,0.3-0.6,0.6-1,0.8S191.7,10.6,191.1,10.6z"/>
</g>
</svg>
