<?xml version="1.0" encoding="utf-8"?>
<!-- Generator: Adobe Illustrator 26.3.1, SVG Export Plug-In . SVG Version: 6.00 Build 0)  -->
<svg version="1.1" id="Capa_1" xmlns="http://www.w3.org/2000/svg" xmlns:xlink="http://www.w3.org/1999/xlink" x="0px" y="0px"
	 viewBox="0 0 117.2 10.6" style="enable-background:new 0 0 117.2 10.6;" xml:space="preserve">
<style type="text/css">
	.st0{fill:#212121;}
</style>
<g>
	<path class="st0" d="M0,3.1h0.9v4.6c0,0.7,0.2,1.2,0.5,1.5c0.3,0.4,0.8,0.5,1.4,0.5c0.5,0,0.9-0.1,1.3-0.4s0.6-0.6,0.8-1.1
		c0.2-0.5,0.3-1,0.3-1.5h0.4c0,0.8-0.1,1.4-0.4,2s-0.6,1-1,1.3c-0.4,0.3-1,0.5-1.6,0.5c-0.6,0-1-0.1-1.4-0.3C0.9,10,0.5,9.7,0.3,9.3
		C0.1,8.9,0,8.3,0,7.7V3.1z M5.2,3.1h0.9v7.3H5.2V3.1z"/>
	<path class="st0" d="M15.4,10.4V3.1h0.7l0.1,1.8v5.5H15.4z M20.7,10.4V6.1c0-0.8-0.2-1.4-0.6-1.8c-0.4-0.4-0.9-0.6-1.5-0.6
		c-0.5,0-0.9,0.1-1.2,0.4c-0.3,0.3-0.6,0.6-0.8,1.1c-0.2,0.5-0.3,1-0.3,1.6h-0.4c0-0.8,0.1-1.5,0.3-2.1c0.2-0.6,0.5-1,1-1.4
		s1-0.5,1.6-0.5c0.6,0,1,0.1,1.5,0.4c0.4,0.2,0.7,0.6,1,1.1c0.2,0.5,0.3,1,0.3,1.7v4.3H20.7z"/>
	<path class="st0" d="M40,3.1h0.9v4.6c0,0.7,0.2,1.2,0.5,1.5c0.3,0.4,0.8,0.5,1.4,0.5c0.5,0,0.9-0.1,1.3-0.4s0.6-0.6,0.8-1.1
		c0.2-0.5,0.3-1,0.3-1.5h0.4c0,0.8-0.1,1.4-0.4,2s-0.6,1-1,1.3c-0.4,0.3-1,0.5-1.6,0.5c-0.6,0-1-0.1-1.4-0.3
		c-0.4-0.2-0.7-0.5-0.9-0.9C40.1,8.9,40,8.3,40,7.7V3.1z M45.2,3.1h0.9v7.3h-0.9V3.1z"/>
	<path class="st0" d="M55.4,10.4V3.1h0.7l0.1,1.6c0.2-0.5,0.5-1,1-1.3C57.6,3.1,58.2,3,58.8,3c0.6,0,1,0.1,1.5,0.4
		c0.4,0.2,0.7,0.6,1,1.1c0.2,0.5,0.3,1,0.3,1.7v4.3h-0.9V6.1c0-0.8-0.2-1.4-0.6-1.8c-0.4-0.4-0.9-0.6-1.5-0.6
		c-0.5,0-0.9,0.1-1.2,0.4c-0.3,0.3-0.6,0.6-0.8,1.1c-0.2,0.5-0.3,1-0.3,1.6v3.5H55.4z M65.8,10.4V6.1c0-0.8-0.2-1.4-0.5-1.8
		s-0.9-0.6-1.5-0.6c-0.7,0-1.3,0.3-1.6,0.8c-0.4,0.5-0.6,1.3-0.6,2.2h-0.5c0-0.6,0.1-1.1,0.2-1.6s0.3-0.9,0.5-1.2s0.5-0.6,0.9-0.7
		S63.4,3,63.9,3c0.6,0,1,0.1,1.5,0.4c0.4,0.2,0.7,0.6,1,1.1c0.2,0.5,0.3,1,0.3,1.7v4.3H65.8z"/>
	<path class="st0" d="M75.7,10.4V0h0.9v8.7l-0.2,1.6H75.7z M78.8,10.6c-0.5,0-0.9-0.1-1.3-0.4s-0.7-0.6-1-1.1S76.2,8,76.2,7.4h0.4
		c0,0.5,0.1,1,0.3,1.3c0.2,0.4,0.5,0.6,0.8,0.8c0.3,0.2,0.7,0.3,1.1,0.3c0.4,0,0.8-0.1,1.1-0.4s0.6-0.6,0.8-1s0.3-1,0.3-1.6
		c0-0.6-0.1-1.2-0.3-1.6c-0.2-0.4-0.5-0.8-0.8-1s-0.7-0.4-1.2-0.4c-0.4,0-0.7,0.1-1.1,0.3c-0.3,0.2-0.6,0.5-0.8,0.8
		c-0.2,0.4-0.3,0.8-0.3,1.3h-0.4c0-0.7,0.1-1.2,0.3-1.7c0.2-0.5,0.5-0.8,1-1.1C77.9,3.1,78.3,3,78.9,3c0.6,0,1.1,0.2,1.6,0.5
		c0.5,0.3,0.9,0.7,1.1,1.3C81.9,5.3,82,6,82,6.7c0,0.8-0.1,1.5-0.4,2s-0.7,1-1.2,1.3C79.9,10.4,79.4,10.6,78.8,10.6z"/>
	<path class="st0" d="M90.7,10.4V3.1h0.9v7.3H90.7z M91.2,7.1c0-0.9,0.1-1.7,0.2-2.3c0.2-0.6,0.4-1.1,0.7-1.4C92.5,3.2,93,3,93.5,3
		c0.2,0,0.3,0,0.5,0s0.3,0.1,0.5,0.1L94.3,4C94.2,4,94,3.9,93.8,3.9c-0.2,0-0.3-0.1-0.5-0.1c-0.5,0-0.8,0.1-1.1,0.4
		c-0.3,0.3-0.4,0.7-0.6,1.1c-0.1,0.5-0.2,1-0.2,1.7H91.2z"/>
	<path class="st0" d="M104,10.6c-0.6,0-1.1-0.1-1.4-0.3c-0.4-0.2-0.7-0.5-0.8-0.8c-0.2-0.3-0.3-0.7-0.3-1c0-0.5,0.1-0.9,0.4-1.2
		c0.2-0.3,0.6-0.5,1-0.7c0.4-0.1,0.9-0.2,1.4-0.2c0.4,0,0.8,0,1.2,0.1s0.8,0.2,1.1,0.3v0.6c-0.3-0.1-0.7-0.2-1.1-0.3
		c-0.4-0.1-0.8-0.1-1.1-0.1c-0.5,0-1,0.1-1.3,0.3c-0.4,0.2-0.5,0.6-0.5,1.1c0,0.4,0.1,0.7,0.4,1s0.7,0.4,1.3,0.4
		c0.4,0,0.8-0.1,1.1-0.3c0.3-0.2,0.6-0.4,0.8-0.7c0.2-0.3,0.3-0.6,0.3-0.9h0.2c0,0.5-0.1,0.9-0.3,1.3c-0.2,0.4-0.5,0.7-0.9,1
		S104.5,10.6,104,10.6z M106.5,10.4l-0.1-1.5V5.7c0-0.7-0.2-1.2-0.5-1.5c-0.3-0.3-0.8-0.5-1.4-0.5c-0.3,0-0.6,0-0.9,0.1
		c-0.3,0.1-0.5,0.2-0.7,0.5s-0.3,0.5-0.3,0.8h-1c0-0.5,0.1-0.9,0.4-1.2c0.3-0.3,0.6-0.5,1-0.7C103.6,3,104,3,104.6,3
		c0.5,0,1,0.1,1.4,0.3s0.7,0.5,1,0.9s0.4,0.9,0.4,1.6v4.7H106.5z"/>
	<path class="st0" d="M116.3,10.4V0h0.9v10.4H116.3z"/>
</g>
</svg>
