<?xml version="1.0" encoding="utf-8"?>
<!-- Generator: Adobe Illustrator 26.3.1, SVG Export Plug-In . SVG Version: 6.00 Build 0)  -->
<svg version="1.1" id="Capa_1" xmlns="http://www.w3.org/2000/svg" xmlns:xlink="http://www.w3.org/1999/xlink" x="0px" y="0px"
	 viewBox="0 0 168.9 10.6" style="enable-background:new 0 0 168.9 10.6;" xml:space="preserve">
<style type="text/css">
	.st0{fill:#212121;}
</style>
<g>
	<path class="st0" d="M0,3.1h0.9l2,6.3H2.8l2-6h0.7l1.9,6H7.2l2-6.3h0.9l-2.4,7.2H6.9L5,4.8h0.1l-1.9,5.6H2.4L0,3.1z"/>
	<path class="st0" d="M20.1,10.6c-0.6,0-1.1-0.1-1.4-0.3C18.3,10,18,9.8,17.8,9.4c-0.2-0.3-0.3-0.7-0.3-1c0-0.5,0.1-0.9,0.4-1.2
		c0.2-0.3,0.6-0.5,1-0.7c0.4-0.1,0.9-0.2,1.4-0.2c0.4,0,0.8,0,1.2,0.1s0.8,0.2,1.1,0.3v0.6c-0.3-0.1-0.7-0.2-1.1-0.3
		c-0.4-0.1-0.8-0.1-1.1-0.1c-0.5,0-1,0.1-1.3,0.3c-0.4,0.2-0.5,0.6-0.5,1.1c0,0.4,0.1,0.7,0.4,1s0.7,0.4,1.3,0.4
		c0.4,0,0.8-0.1,1.1-0.3c0.3-0.2,0.6-0.4,0.8-0.7c0.2-0.3,0.3-0.6,0.3-0.9h0.2c0,0.5-0.1,0.9-0.3,1.3c-0.2,0.4-0.5,0.7-0.9,1
		S20.6,10.6,20.1,10.6z M22.6,10.4l-0.1-1.5V5.7c0-0.7-0.2-1.2-0.5-1.5c-0.3-0.3-0.8-0.5-1.4-0.5c-0.3,0-0.6,0-0.9,0.1
		c-0.3,0.1-0.5,0.2-0.7,0.5s-0.3,0.5-0.3,0.8h-1c0-0.5,0.1-0.9,0.4-1.2c0.3-0.3,0.6-0.5,1-0.7C19.7,3,20.2,3,20.7,3
		c0.5,0,1,0.1,1.4,0.3s0.7,0.5,1,0.9s0.4,0.9,0.4,1.6v4.7H22.6z"/>
	<path class="st0" d="M32.4,10.4V3.1h0.9v7.3H32.4z M33,7.1c0-0.9,0.1-1.7,0.2-2.3c0.2-0.6,0.4-1.1,0.7-1.4C34.3,3.2,34.7,3,35.2,3
		c0.2,0,0.3,0,0.5,0s0.3,0.1,0.5,0.1L36.1,4c-0.1-0.1-0.3-0.1-0.5-0.1c-0.2,0-0.3-0.1-0.5-0.1c-0.5,0-0.8,0.1-1.1,0.4
		c-0.3,0.3-0.4,0.7-0.6,1.1c-0.1,0.5-0.2,1-0.2,1.7H33z"/>
	<path class="st0" d="M43.8,10.4V3.1h0.7l0.1,1.6c0.2-0.5,0.5-1,1-1.3C46.1,3.1,46.6,3,47.2,3c0.6,0,1,0.1,1.5,0.4
		c0.4,0.2,0.7,0.6,1,1.1c0.2,0.5,0.3,1,0.3,1.7v4.3h-0.9V6.1c0-0.8-0.2-1.4-0.6-1.8c-0.4-0.4-0.9-0.6-1.5-0.6
		c-0.5,0-0.9,0.1-1.2,0.4c-0.3,0.3-0.6,0.6-0.8,1.1c-0.2,0.5-0.3,1-0.3,1.6v3.5H43.8z M54.2,10.4V6.1c0-0.8-0.2-1.4-0.5-1.8
		s-0.9-0.6-1.5-0.6c-0.7,0-1.3,0.3-1.6,0.8c-0.4,0.5-0.6,1.3-0.6,2.2h-0.5c0-0.6,0.1-1.1,0.2-1.6S50,4.3,50.2,4s0.5-0.6,0.9-0.7
		S51.9,3,52.3,3c0.6,0,1,0.1,1.5,0.4c0.4,0.2,0.7,0.6,1,1.1c0.2,0.5,0.3,1,0.3,1.7v4.3H54.2z"/>
	<path class="st0" d="M76.3,10.6c-0.7,0-1.3-0.1-1.7-0.3c-0.5-0.2-0.8-0.5-1-0.8c-0.2-0.3-0.4-0.7-0.4-1.2H74c0,0.5,0.2,0.9,0.6,1.2
		c0.4,0.3,0.9,0.4,1.6,0.4c0.3,0,0.7-0.1,1-0.2c0.3-0.1,0.5-0.3,0.7-0.5s0.3-0.4,0.3-0.7c0-0.3-0.1-0.6-0.4-0.8
		c-0.2-0.2-0.6-0.3-1.1-0.5l-1.3-0.4c-0.6-0.2-1.1-0.4-1.5-0.8c-0.3-0.3-0.5-0.7-0.5-1.2c0-0.6,0.2-1,0.7-1.4
		C74.6,3.1,75.3,3,76.1,3c0.9,0,1.5,0.2,2,0.5s0.7,0.8,0.8,1.3h-0.9c-0.1-0.4-0.2-0.6-0.6-0.8s-0.8-0.3-1.3-0.3
		c-0.6,0-1,0.1-1.3,0.4c-0.3,0.3-0.5,0.5-0.5,0.8c0,0.6,0.5,1,1.5,1.3l1.3,0.4c0.7,0.2,1.1,0.4,1.5,0.7C79,7.6,79.1,8,79.1,8.5
		c0,0.4-0.1,0.7-0.3,1c-0.2,0.3-0.6,0.6-1,0.8S76.9,10.6,76.3,10.6z"/>
	<path class="st0" d="M87.8,10.4V0h0.9v10.4H87.8z M93.1,10.4V6.1c0-0.8-0.2-1.4-0.6-1.8c-0.4-0.4-0.9-0.6-1.5-0.6
		c-0.5,0-0.9,0.1-1.2,0.4c-0.3,0.3-0.6,0.6-0.8,1.1c-0.2,0.5-0.3,1-0.3,1.6h-0.4c0-0.8,0.1-1.5,0.3-2.1c0.2-0.6,0.5-1,1-1.4
		s1-0.5,1.6-0.5c0.6,0,1,0.1,1.5,0.4c0.4,0.2,0.7,0.6,1,1.1c0.2,0.5,0.3,1,0.3,1.7v4.3H93.1z"/>
	<path class="st0" d="M104.9,10.6c-0.6,0-1.1-0.1-1.4-0.3c-0.4-0.2-0.7-0.5-0.8-0.8c-0.2-0.3-0.3-0.7-0.3-1c0-0.5,0.1-0.9,0.4-1.2
		c0.2-0.3,0.6-0.5,1-0.7c0.4-0.1,0.9-0.2,1.4-0.2c0.4,0,0.8,0,1.2,0.1s0.8,0.2,1.1,0.3v0.6c-0.3-0.1-0.7-0.2-1.1-0.3
		c-0.4-0.1-0.8-0.1-1.1-0.1c-0.5,0-1,0.1-1.3,0.3c-0.4,0.2-0.5,0.6-0.5,1.1c0,0.4,0.1,0.7,0.4,1s0.7,0.4,1.3,0.4
		c0.4,0,0.8-0.1,1.1-0.3c0.3-0.2,0.6-0.4,0.8-0.7c0.2-0.3,0.3-0.6,0.3-0.9h0.2c0,0.5-0.1,0.9-0.3,1.3c-0.2,0.4-0.5,0.7-0.9,1
		S105.4,10.6,104.9,10.6z M107.4,10.4l-0.1-1.5V5.7c0-0.7-0.2-1.2-0.5-1.5c-0.3-0.3-0.8-0.5-1.4-0.5c-0.3,0-0.6,0-0.9,0.1
		c-0.3,0.1-0.5,0.2-0.7,0.5s-0.3,0.5-0.3,0.8h-1c0-0.5,0.1-0.9,0.4-1.2c0.3-0.3,0.6-0.5,1-0.7C104.5,3,105,3,105.5,3
		c0.5,0,1,0.1,1.4,0.3s0.7,0.5,1,0.9s0.4,0.9,0.4,1.6v4.7H107.4z"/>
	<path class="st0" d="M119.8,10.6c-0.6,0-1.1-0.2-1.6-0.5c-0.5-0.3-0.9-0.8-1.2-1.3s-0.4-1.2-0.4-2c0-0.8,0.1-1.4,0.4-2
		c0.3-0.6,0.7-1,1.1-1.3c0.5-0.3,1-0.5,1.6-0.5c0.5,0,1,0.1,1.4,0.4s0.7,0.6,1,1.1c0.2,0.5,0.3,1,0.3,1.7H122c0-0.5-0.1-1-0.3-1.3
		c-0.2-0.4-0.5-0.6-0.8-0.8c-0.3-0.2-0.7-0.3-1.1-0.3c-0.4,0-0.8,0.1-1.1,0.4c-0.4,0.2-0.6,0.6-0.9,1c-0.2,0.4-0.3,1-0.3,1.6
		c0,0.6,0.1,1.2,0.3,1.6s0.5,0.8,0.9,1s0.7,0.4,1.2,0.4c0.4,0,0.7-0.1,1-0.3c0.3-0.2,0.6-0.5,0.8-0.8c0.2-0.4,0.3-0.8,0.3-1.3h0.4
		c0,0.7-0.1,1.2-0.3,1.7s-0.5,0.8-0.9,1.1C120.8,10.4,120.3,10.6,119.8,10.6z M122.2,10.4L122,8.7V0h0.9v10.4H122.2z"/>
	<path class="st0" d="M134.8,10.6c-0.6,0-1.2-0.1-1.7-0.4c-0.5-0.3-0.9-0.7-1.2-1.3c-0.3-0.6-0.4-1.3-0.4-2.1s0.1-1.5,0.4-2.1
		c0.3-0.6,0.7-1,1.2-1.3c0.5-0.3,1.1-0.4,1.7-0.4s1.2,0.1,1.7,0.4c0.5,0.3,0.9,0.7,1.2,1.3c0.3,0.6,0.4,1.3,0.4,2.1
		s-0.1,1.5-0.4,2.1c-0.3,0.6-0.7,1-1.2,1.3C136,10.4,135.4,10.6,134.8,10.6z M134.7,9.8c0.5,0,1-0.1,1.3-0.4s0.6-0.6,0.8-1.1
		s0.3-1,0.3-1.6c0-0.9-0.2-1.6-0.6-2.2s-1-0.8-1.8-0.8c-0.5,0-1,0.1-1.3,0.4s-0.6,0.6-0.8,1.1c-0.2,0.5-0.3,1-0.3,1.6
		c0,0.9,0.2,1.6,0.6,2.2C133.4,9.5,133.9,9.8,134.7,9.8z"/>
	<path class="st0" d="M145.3,3.1h0.9l2,6.3H148l2-6h0.7l1.9,6h-0.1l2-6.3h0.9l-2.4,7.2h-0.9l-1.9-5.6h0.1l-1.9,5.6h-0.8L145.3,3.1z"
		/>
	<path class="st0" d="M166,10.6c-0.7,0-1.3-0.1-1.7-0.3c-0.5-0.2-0.8-0.5-1-0.8c-0.2-0.3-0.4-0.7-0.4-1.2h0.9c0,0.5,0.2,0.9,0.6,1.2
		c0.4,0.3,0.9,0.4,1.6,0.4c0.3,0,0.7-0.1,1-0.2c0.3-0.1,0.5-0.3,0.7-0.5s0.3-0.4,0.3-0.7c0-0.3-0.1-0.6-0.4-0.8
		c-0.2-0.2-0.6-0.3-1.1-0.5l-1.3-0.4c-0.6-0.2-1.1-0.4-1.5-0.8c-0.3-0.3-0.5-0.7-0.5-1.2c0-0.6,0.2-1,0.7-1.4
		c0.5-0.3,1.1-0.5,1.9-0.5c0.9,0,1.5,0.2,2,0.5s0.7,0.8,0.8,1.3h-0.9c-0.1-0.4-0.2-0.6-0.6-0.8s-0.8-0.3-1.3-0.3
		c-0.6,0-1,0.1-1.3,0.4c-0.3,0.3-0.5,0.5-0.5,0.8c0,0.6,0.5,1,1.5,1.3l1.3,0.4c0.7,0.2,1.1,0.4,1.5,0.7c0.3,0.3,0.5,0.7,0.5,1.2
		c0,0.4-0.1,0.7-0.3,1c-0.2,0.3-0.6,0.6-1,0.8S166.6,10.6,166,10.6z"/>
</g>
</svg>
